<svg xmlns="http://www.w3.org/2000/svg" viewBox="0 0 148.7 115.52">
  <path d="M34.33 36.59c1.48 3.23.38 3.83 2.22 15.05 2.03 12.37 4.2 16.97 2.44 18.09-2.02 1.3-5.76-4.18-16.33-9.65-7.84-4.06-9.29-2.93-12.9-5.66-9.09-6.9-12.9-24.1-6.77-29.77 6.73-6.22 26.22.77 31.34 11.93Z" fill="#ff5600"/>
  <path d="M28.62 53.99c5.24 6.47 7.83 11.12 8.01 11 .2-.12-2.39-5.64-7.01-11.39-4.69-5.84-9.63-9.61-9.79-9.44-.15.15 3.69 3.53 8.79 9.82Z" fill="#92a377"/>
  <path d="M47.83 59.03c1.06 16.64 8.76 49.09 31.88 55.12 24.3 6.34 47.75-21.16 56.95-37.06 15.1-26.08 13.04-57.51 7.36-59.09-6.22-1.72-17.91 31.97-26.08 29.87-8.08-2.07-2.96-36.66-11.06-38.7C98.47 7.04 85.59 42.5 77.7 40.46c-7.82-2.03-1.09-38.4-7.29-39.97C64.64-.97 45.8 27.23 47.82 59.03Z" fill="#ebe1ce" stroke="#ff7556" stroke-miterlimit="10" stroke-width=".86"/>
  <ellipse cx="71.45" cy="94.55" rx="3.75" ry="11.59" transform="rotate(-10.92 71.462 94.564)" fill="#ff5600"/>
  <ellipse cx="97.1" cy="101.17" rx="11.59" ry="3.75" transform="rotate(-54.38 97.091 101.162)" fill="#ff5600"/>
  <ellipse cx="85.57" cy="93.8" rx="15.33" ry="3.75" transform="rotate(-77.65 85.56 93.802)" fill="#ff5600"/>
</svg>
