<svg xmlns="http://www.w3.org/2000/svg" viewBox="0 0 156.52 190.26">
  <path d="M83.19 60.03a4.49 4.49 0 0 1-4.46-1.33c-.35-.38-1.17-.23-1.25.33 0 .05-.02.1-.04.15.07-.18-.03.06-.05.09-.13.22-.26.44-.41.64-.43.58-.96 1.1-1.52 1.55-.71.58-1.5 1.06-2.28 1.55-.27.17-.55.34-.84.48-.21.1-.29.14-.41.13-.67-.04-.96.84-.53 1.28a5.964 5.964 0 0 1 1.68 4.23c0 .97 1.5.97 1.5 0 0-1.98-.75-3.86-2.12-5.29l-.53 1.28c.61.04 1.24-.35 1.74-.65.93-.55 1.85-1.15 2.7-1.82.7-.56 1.33-1.21 1.86-1.93.27-.36.63-.84.7-1.3l-1.25.33c1.5 1.64 3.78 2.26 5.92 1.72.94-.24.54-1.68-.4-1.45Zm13.27 1.42c-.52 1.45-1.7 2.69-1.71 4.3 0 1.08.43 2.17.84 3.15 1.46 3.47 3.45 6.73 5.03 10.16.42.92.84 1.85 1.24 2.78.38.88 1.14 2.08 1.14 3.08s-1.1 2.01-1.69 2.76c-.64.83-1.28 1.65-1.92 2.48-2.31 2.97-4.51 6.76-7.82 8.71-2.98 1.75-6.57 2.44-8.93 5.14l1.18.15-12.69-22.02c-.48-.84-1.78-.08-1.3.76l12.69 22.02c.23.4.86.52 1.18.15 2.22-2.54 5.65-3.2 8.47-4.81 3.29-1.88 5.42-5.34 7.69-8.27 1.22-1.58 2.47-3.14 3.67-4.73 1.09-1.44 1.12-2.62.43-4.27-1.57-3.81-3.34-7.55-5.27-11.19-.84-1.59-1.77-3.19-2.25-4.94-.52-1.94.84-3.27 1.46-5 .32-.91-1.12-1.3-1.45-.4Z"/>
  <path d="M73.15 68.65c-2.6 2.78-7 1.89-10.37 1.55-4.51-.46-9.04-.77-13.57-.95-9.15-.36-18.31-.13-27.43.64-.38.03-.78.32-.75.75.19 2.85.37 5.71.56 8.56.03.42.32.72.75.75 8.87.54 17.76.93 26.61 1.69 7.13.61 14.28 1.29 21.43 1.56.97.04.96-1.46 0-1.5-7.15-.27-14.3-.95-21.43-1.56-8.85-.76-17.74-1.15-26.61-1.69l.75.75c-.19-2.85-.37-5.71-.56-8.56l-.75.75c9.61-.82 19.28-1.02 28.92-.58 4.72.22 9.41.63 14.1 1.1 3.27.32 6.99.38 9.41-2.2.66-.7-.4-1.77-1.06-1.06Zm8.94 34.88c-.26 4.87 1.15 10.05 4.33 13.82 1.58 1.87 3.84 2.96 5.4 4.86 1.46 1.79 2.23 4 2.73 6.23 1.2 5.23 1.78 10.79 1.73 16.15-.03 3.58-.05 7.16.03 10.75.15 6.71.49 13.42.93 20.12.03.38.32.78.75.75 4.54-.29 9.08-.58 13.61-.88.39-.03.77-.32.75-.75-.41-10.51-.55-21.01-.69-31.52-.1-7.37-.86-14.79-1.73-22.1-.17-1.45-.43-2.86-.71-4.29-.66-3.43-.76-6.78.68-10.04 1.57-3.56 4.65-6.23 7.01-9.26 3.21-4.12 6.06-8.51 8.72-13 3.03-5.11 5.53-10.51 8.48-15.67 2.62-4.6 5.43-9.07 7.94-13.74 2.78-5.18 5.56-10.34 8.54-15.41.15-.26.14-.71-.12-.91-2.99-2.36-5.98-4.71-8.97-7.07-.38-.3-.9-.29-1.18.15-5.96 9.47-11.91 18.95-17.97 28.35-2.48 3.85-5.02 7.7-7.84 11.31-3.55 4.52-7.37 8.83-11.13 13.17-.63.73.43 1.79 1.06 1.06C108 81.5 111.59 77.4 115 73.16c1.8-2.24 3.42-4.62 5.1-6.94 3.32-4.59 6.21-9.53 9.25-14.31 4.11-6.47 8.19-12.94 12.27-19.42l-1.18.15c2.99 2.36 5.98 4.71 8.97 7.07l-.12-.91c-5.18 8.79-9.74 17.92-15.02 26.66-2.81 4.64-5.19 9.5-7.7 14.29-2.71 5.17-5.99 10.19-9.46 14.89a72.343 72.343 0 0 1-3.63 4.55c-1.19 1.37-2.46 2.66-3.48 4.17-1.59 2.35-2.58 5.08-2.77 7.91-.18 2.62.46 5.13.91 7.69.64 3.66.84 7.42 1.16 11.11s.71 7.31.82 10.97c.32 11.18.3 22.36.73 33.54l.75-.75c-4.54.29-9.08.58-13.61.88l.75.75c-.66-9.99-1.14-20.01-.97-30.02.08-4.89-.46-9.76-1.24-14.59s-2.08-8.87-5.9-11.81c-2.15-1.66-3.89-3.36-5.1-5.81-1.49-3.01-2.12-6.35-1.94-9.69.05-.96-1.45-.96-1.5 0Z"/>
  <path d="M21.36 70.87c-1.47.22-2.39-1.6-3.17-2.56-.71-.87-1.7-2.35-2.89-2.64-1.12-.27-2.15.91-2 1.98.11.83.86 1.25 1.43 1.77.73.68 1.18 1.5 1.48 2.45l.92-.92c-2.45-.65-4.92-1.34-7.25-2.34-1.65-.71-3.32-2-5.21-1.42-.78.23-1.65.85-1.46 1.78.16.77.98 1.25 1.61 1.6 2.35 1.32 4.99 2.26 7.54 3.09l.4-1.45c-2.92-.58-5.83-1.17-8.75-1.75-.95-.19-2.22-.76-3.12-.23-.64.37-1.08 1.15-.81 1.89.25.68 1 1 1.62 1.24 1.16.45 2.39.71 3.58 1.04 1.84.5 3.65 1.07 5.43 1.76l.2-1.47c-2.27 0-4.48-.22-6.73-.54-1.38-.2-3.64-.48-3.82 1.49-.17 1.86 1.87 2.22 3.28 2.31 2.37.15 4.75.29 7.12.47l-.2-1.47c-1.45.29-2.89.61-4.31 1.01-.82.23-2.03.48-2.51 1.29-.43.72-.04 1.64.61 2.09s1.39.39 2.1.28c2.53-.38 4.97-1.28 7.54-1.51 1.24-.11 2.48-.02 3.72-.13 1.41-.13 2.79-.39 4.15-.79.92-.27.53-1.72-.4-1.45-2.05.6-4.07.77-6.2.8-1.97.03-3.88.44-5.79.87-.35.08-4.35 1.25-4.43.59-.06-.49 5.42-1.51 5.92-1.61.87-.18.6-1.41-.2-1.47-1.72-.13-3.43-.25-5.15-.35-.69-.04-1.38-.07-2.08-.12-.3-.02-2.22-.19-1.55-.88.31-.32 1.6 0 1.96.06.68.1 1.37.21 2.05.29 1.63.2 3.27.28 4.91.28.89 0 .96-1.18.2-1.47-2.86-1.11-5.86-1.67-8.74-2.7-.14-.05-.8-.22-.85-.39-.06-.19 1.03.08 1.07.09 1.08.22 2.17.44 3.25.65 2.17.44 4.34.87 6.51 1.31.94.19 1.32-1.15.4-1.45-2.03-.66-4.04-1.41-5.97-2.32-.45-.21-.9-.43-1.34-.68-.18-.11-.36-.22-.54-.34-.16-.11-.17-.24-.2-.16.04-.1 1.1-.15 1.33-.12.45.06.89.26 1.3.46 3 1.5 6.15 2.5 9.39 3.36.53.14 1.1-.37.92-.92-.46-1.42-1.17-2.5-2.3-3.47-.31-.27-.78-.51-.33-.89-.08.07-.03.02-.11 0 .38.08.79.65 1.04.91 1.68 1.78 2.91 4.72 5.79 4.29.95-.14.55-1.59-.4-1.45Zm121.33-37.72c.94-1.28 2.52-2.79 2.71-4.45.18-1.56-.98-3.1-1.92-4.23-1.12-1.34-2.95-2.22-3.27-4.07s.53-3.65 1.4-5.16l-.85.34c2.82.85 4.99 2.88 7.12 4.82 1.15 1.05 2.3 2.11 3.45 3.16.63.57 1.25 1.15 1.88 1.72.6.54 1.47 1.13 1.92 1.8l-.08-.58c-.37.91-1.26 1.78-1.84 2.58l-1.82 2.51c-1.21 1.67-2.42 3.35-3.63 5.02-.57.78.73 1.53 1.3.76 1.82-2.51 3.63-5.02 5.45-7.53.48-.66.95-1.32 1.43-1.97.28-.38.69-.85.57-1.37-.12-.48-.64-.83-.97-1.14l-1.73-1.58c-2.13-1.95-4.22-3.93-6.39-5.83-1.86-1.64-3.85-3.11-6.25-3.83a.775.775 0 0 0-.85.34c-1.45 2.53-2.6 6.02-.48 8.53 1.19 1.4 2.65 2.31 3.57 3.96.63 1.13.57 1.83-.12 2.85-.6.88-1.26 1.72-1.89 2.58-.57.78.73 1.53 1.3.76Z"/>
  <path d="M75.39 39.75c3.98 4.83 3.57 10.87 3.44 13.01-.18 2.95-.46 7.45-3.83 9.97-4.66 3.47-11.43.32-12.24-.06-5-2.33-7.25-6.64-8.1-8.35-2.24-4.5-4.87-14.1.33-18.72 5.23-4.64 15.56-1.74 20.41 4.15Z" fill="none" stroke="#000" stroke-miterlimit="10" stroke-width=".5"/>
  <path d="M82.75 61.05c.83 3.92 1.48 7.88 1.93 11.86l.95-.72c-4.06-.88-7.91-2.55-12.01-3.24-.94-.16-1.35 1.29-.4 1.45 4.1.69 7.95 2.36 12.01 3.24.43.09 1.01-.21.95-.72-.47-4.11-1.13-8.2-1.99-12.25-.2-.94-1.65-.54-1.45.4Zm25.15 113.97c-.04 1.98-.63 4.82 1.18 6.21s4.03 1.53 6.15 1.86c1.25.2 2.62.54 3.68 1.25 1.81 1.2 1.34 3.21.21 4.73l.65-.37c-6.33-.22-12.67-.22-19 0l.75.75c.08-4.74.15-9.48.23-14.22.02-.97-1.48-.97-1.5 0-.08 4.74-.15 9.48-.23 14.22 0 .39.35.76.75.75 3.51-.12 7.02-.18 10.54-.17 1.88 0 3.75.03 5.63.08 1.13.03 2.93.54 3.65-.52 1.3-1.9 1.6-4.46-.29-6.09-1.32-1.13-3.17-1.65-4.87-1.9s-3.38-.42-4.93-1.26c-.99-.54-1.16-1.27-1.15-2.33 0-1 .03-2 .05-3.01s-1.48-.97-1.5 0Z"/>
  <path d="M82.48 61.68c3.54-.65 5.5-3.97 6.99-6.93 2.15-4.26 4.37-8.47 6.76-12.6 4.78-8.25 10.1-16.18 15.9-23.74l-1.03.27 6.91 5.08-.27-1.03c-4.03 7.22-8.22 14.37-12.06 21.68-2.92 5.56-5.84 11.14-8.88 16.64-.47.85.83 1.6 1.3.76 3.04-5.5 5.95-11.08 8.88-16.64 3.85-7.31 8.04-14.46 12.06-21.68.21-.38.06-.78-.27-1.03l-6.91-5.08c-.35-.26-.8-.02-1.03.27-5.52 7.2-10.61 14.73-15.21 22.56-2.28 3.88-4.44 7.83-6.48 11.84-1.58 3.11-3.2 7.47-7.07 8.19-.95.18-.55 1.62.4 1.45Z"/>
  <path d="M112.93 18.89c1.86-2.14.1-4.75-.49-7.06-.07-.26-.39-1.1-.24-1.39.07-.14-.08-.03.02-.09.4-.22.47.66.48.78.22 1.53.73 2.7 1.72 3.91.38.46 1.1.16 1.25-.33 1.04-3.26 1.81-6.46 2.24-9.85.11-.88.41-1.45 1-2.08.22-.24.1-.17.1-.17.08.14.05.36.05.52 0 .45-.04.9-.09 1.35-.26 2.3-.75 4.58-1.33 6.82-.25.95 1.1 1.28 1.45.4.8-2.06 1.61-4.12 2.41-6.19.35-.9.7-1.8 1.05-2.71.11-.28.28-1.03.41-1.21.43-.57.2.37.17.54-.3 1.75-1.04 3.46-1.54 5.17-.38 1.3-.7 2.62-.97 3.95-.17.83.9 1.31 1.37.58.86-1.34 1.66-2.73 2.35-4.17.28-.57.53-1.15.79-1.73.17-.37.58-1.7 1.03-1.87.9-.33.11 1.49-.07 1.81-.32.58-.66 1.16-.98 1.74-.84 1.5-1.66 3.01-2.48 4.53-.4.73.57 1.54 1.18.91.78-.81 1.57-1.6 2.39-2.36.26-.24 1.73-1.87 2.11-1.71.5.21-2.39 2.94-2.61 3.15-1.44 1.42-2.87 2.83-4.01 4.51-1.23 1.82-2.47 3.5-4.14 4.96-.73.63.34 1.69 1.06 1.06 1.06-.93 2.03-1.95 2.89-3.07s1.48-2.29 2.34-3.35c1.63-2 3.81-3.53 5.38-5.57.78-1.02.89-3.34-.98-3.2-.95.07-1.79.96-2.45 1.55-1.05.95-2.06 1.94-3.04 2.96l1.18.91c1.09-2.02 2.2-4.03 3.32-6.03.73-1.29 1.69-3.42-.18-4.25-1.75-.78-2.67 1.29-3.23 2.55-.92 2.04-1.93 4.01-3.15 5.9l1.37.58c.38-1.87.88-3.7 1.44-5.52.37-1.19.83-2.37 1.06-3.59.13-.68.26-1.5-.24-2.07s-1.37-.57-2.01-.23c-.93.5-1.16 2.01-1.52 2.94-1.05 2.71-2.11 5.41-3.16 8.12l1.45.4c.7-2.67 1.41-5.53 1.47-8.3.02-.69-.02-1.62-.67-2.05-.78-.51-1.75.04-2.32.62-1.27 1.29-1.1 3.19-1.38 4.84-.42 2.55-1.18 5.05-1.96 7.51l1.25-.33c-.64-.78-1.08-1.62-1.25-2.62-.12-.7-.09-1.52-.66-2.04-.82-.75-2.4-.54-2.79.56-.36 1.02.2 2.42.5 3.37.4 1.3 1.66 3.33.58 4.58-.63.73.43 1.79 1.06 1.06Z"/>
  <path d="M55.52 31.81c-3.94 1.64-6.02.9-7.86 3.02-.3.35-1.17 1.38-1.37 2.86-.16 1.19.25 1.76.39 2.97.24 1.96-.56 2.5-.89 4.66-.52 3.36 1.16 3.78.68 7.04-.41 2.84-1.64 2.98-1.45 4.78.25 2.31 3.16 3.38 4.08 5.51.57 1.32.32 2.95 1.13 4.14.87 1.29 2.69 1.66 3.61 2.92.87 1.19.77 2.96 1.85 3.96.44.41.64.79 1.08 1.07 1.46.94 3.09.3 5.38-.05 3.67-.56 3.58.45 5.91-.2.65-.18 4.98-1.43 5.63-4.94.51-2.79-1.67-5.09-2-5.44-.97.24-2.42.48-4.15.32-3.31-.3-5.52-1.94-6.89-2.81-1.78-1.12-4.89-3.51-5.99-7.47-.55-1.95-.18-4.26.58-8.8.93-5.61 1.43-8.43 2.96-9.24 1.5-.79 2.23.25 8.22.54 3.13.15 3.42-.12 4.7.31 3.04 1.02 4.68 3.66 5.56 5.08 2.3 3.7 2.39 7.4 2.4 8.41.02 1.81-.28 4.44-.31 4.7-.3 2.61-.57 3.08-.27 4.11.31 1.04 1.31 1.95 3.29 3.75 2.66 2.42 3.44 2.58 3.95 2.62 1.57.1 2.85-.86 3.01-.98 1.07-.83.87-1.47 1.91-2.23 1.14-.82 1.78-.35 3.01-.98 1.38-.71 2.69-2.38 2.62-3.95-.07-1.46-1.26-1.29-3.25-4.34-1.3-1.99-1.54-3.21-2.88-3.75-.36-.14-.93-.3-1.55-.82-.68-.58-.98-1.24-1.11-1.52-.65-1.39-1.61-2.62-2.28-3.99-1.3-2.65-2.84-2.63-5.7-6.03-3.39-4.02-2.72-5.79-5.56-7.53-1.74-1.07-3.42-1.29-5.21-1.52-1.19-.16-4.26-.52-7.71.67-2.93 1.02-2.29 1.83-5.51 3.18Z" fill="#92a377"/>
  <path d="M55.33 31.08c-2.04.82-4.3.96-6.3 1.83-1.57.69-2.8 2.18-3.29 3.81-.3 1.01-.23 1.96 0 2.97.33 1.49.15 2.48-.3 3.89-.66 2.11-.48 3.9.11 5.97.32 1.13.33 2.25.05 3.4-.22.89-.7 1.61-1.05 2.44-.7 1.67 0 3.29 1.18 4.54.69.73 1.51 1.34 2.14 2.13.92 1.15.79 2.51 1.17 3.85.26.91.74 1.64 1.48 2.23.98.78 2.32 1.21 2.93 2.36.51.95.58 2.09 1.17 3.01.54.86 1.42 1.76 2.37 2.15 2.2.9 4.82-.39 7.08-.42 1.49-.02 2.77.34 4.25-.07 1.27-.36 2.52-.93 3.58-1.73 3.27-2.45 3.2-6.52.65-9.51-.53-.62-.85-.6-1.64-.44-1.45.28-2.97.3-4.41 0-2.1-.42-3.88-1.51-5.65-2.66-3.39-2.23-5.96-5.64-5.67-9.84.19-2.72.75-5.43 1.22-8.11.31-1.74.49-4.03 1.53-5.54.57-.82 1.32-.85 2.22-.71 1.85.29 3.67.59 5.55.71 1.65.1 3.6-.21 5.2.32 2.17.72 3.7 2.5 4.89 4.37 2.51 3.96 2.74 8.1 2.27 12.61-.15 1.45-.71 3.14-.34 4.6.44 1.8 2.23 3.1 3.53 4.27 1.11 1 2.45 2.4 3.97 2.77 1.38.33 2.99-.26 4.06-1.13.82-.67 1.17-1.85 2.12-2.35.54-.28 1.15-.24 1.72-.39s1.1-.43 1.59-.78c1.43-1.03 2.79-3.06 2.21-4.9-.18-.57-.59-.98-1.01-1.39-.83-.81-1.59-1.64-2.23-2.61-.61-.92-1.05-1.96-1.72-2.84s-1.38-1.04-2.27-1.52c-1.15-.63-1.52-1.76-2.14-2.83-.71-1.22-1.38-2.5-2.14-3.68-.94-1.46-2.4-2.39-3.65-3.56-1.88-1.76-3.29-3.81-4.48-6.08-.81-1.55-1.79-2.79-3.36-3.63-1.98-1.07-4.33-1.38-6.55-1.53-2.49-.16-5.08.18-7.38 1.16-1.76.76-3.08 2.16-4.86 2.93-.88.38-.12 1.68.76 1.3 1.24-.54 2.21-1.24 3.28-2.04 1.3-.98 2.96-1.44 4.54-1.69 2.94-.47 6.78-.26 9.44 1.17 2.27 1.22 2.91 3.59 4.26 5.61.97 1.45 2.11 2.8 3.39 3.98.85.78 1.81 1.44 2.6 2.28 1.02 1.08 1.62 2.57 2.39 3.83s1.25 2.7 2.4 3.61c.57.45 1.19.59 1.8.94s.92.91 1.25 1.48c.81 1.42 1.64 2.82 2.77 4.01.5.53 1.39 1.05 1.49 1.83.23 1.89-1.87 3.35-3.46 3.63-1.38.24-2.23.88-3.02 2.02-.73 1.07-1.99 1.94-3.37 1.75-.47-.06-1.21-.58-1.69-.95-1.3-.99-2.53-2.13-3.67-3.29-.69-.71-1.27-1.41-1.23-2.45.04-1.11.31-2.22.43-3.33.59-5.43 0-10.46-3.41-14.95-1.43-1.89-3.53-3.66-5.97-3.92-1.08-.11-2.19-.02-3.27-.06-1.64-.06-3.28-.2-4.9-.46-1.3-.21-2.73-.69-3.99-.08-1.6.77-2.11 2.74-2.48 4.33-.76 3.24-1.28 6.6-1.69 9.91-.31 2.51-.17 4.75 1.03 7.04s3.05 4.05 5.15 5.44 4.45 2.71 7.11 3.04c1.6.2 3.2.07 4.77-.3l-.73-.19c1.63 1.7 2.59 4.32 1.08 6.42-1 1.38-2.7 2.23-4.31 2.68-.84.24-1.56.22-2.41.11-1.2-.15-2.37-.07-3.56.11-1.36.21-3.18.92-4.5.29-1.54-.74-1.86-2.43-2.41-3.85-.42-1.08-1.11-1.81-2.06-2.44-.59-.39-1.28-.69-1.79-1.21-.75-.76-.8-1.79-.97-2.79-.2-1.2-.6-2.2-1.42-3.12s-1.97-1.66-2.64-2.74c-.6-.97-.42-1.77.06-2.7.63-1.21 1.02-2.47 1.08-3.85.05-1.05-.2-2.02-.5-3.01-.44-1.43-.44-2.77-.02-4.23.38-1.35.83-2.43.63-3.86-.14-1.01-.54-1.94-.33-2.97.14-.67.46-1.31.87-1.85.75-.99 1.73-1.46 2.91-1.75 1.65-.4 3.27-.72 4.85-1.36.88-.36.5-1.81-.4-1.45Z" fill="#006837"/>
</svg>
