<?xml version="1.0" encoding="UTF-8"?><svg id="Layer_2" xmlns="http://www.w3.org/2000/svg" width="445" height="471" xmlns:xlink="http://www.w3.org/1999/xlink" viewBox="0 0 445 471"><defs><style>.cls-1,.cls-2,.cls-3,.cls-4{fill:none;}.cls-5,.cls-6{fill:#ebe1ce;}.cls-5,.cls-2,.cls-3,.cls-4{stroke-miterlimit:10;}.cls-5,.cls-4{stroke:#ff5600;stroke-width:.57px;}.cls-7{clip-path:url(#clippath);}.cls-8{fill:#ff5600;}.cls-2{stroke-width:1.7px;}.cls-2,.cls-3{stroke:#000;}.cls-3{stroke-width:1.54px;}</style><clipPath id="clippath"><rect class="cls-1" width="445" height="471"/></clipPath></defs><g id="Layer_2-2"><g class="cls-7"><g><g><path class="cls-8" d="M397.23,231.62c-5.38,.17-10.65-1.71-14.62-5.36-1.87-1.72-3.52-3.66-5.51-5.24-2.11-1.66-4.44-2.64-7.07-3.17-2.48-.5-5.06-.74-7.39-1.8-1.81-.82-3.41-2-4.86-3.34-2.98-2.78-5.34-6.13-7.89-9.29-2.85-3.52-6.05-6.93-10.26-8.8-1.75-.78-3.28,1.81-1.51,2.59,7.74,3.44,11.43,11.8,17.32,17.41,1.46,1.39,3.08,2.66,4.87,3.61,2.21,1.17,4.57,1.73,7.01,2.16,2.75,.48,5.39,1.02,7.66,2.75,2.08,1.57,3.74,3.63,5.67,5.37,4.53,4.09,10.49,6.3,16.6,6.11,1.93-.06,1.93-3.06,0-3h0Z"/><path class="cls-8" d="M372.37,218.53c.41-2.3,.05-4.7-1.29-6.66s-3.93-2.87-4.98-5.04c-2.16-4.45,3.74-8.19,1.84-12.74-.31-.75-.99-1.27-1.85-1.05-.71,.19-1.36,1.1-1.05,1.85,.83,1.99-.65,3.97-1.44,5.75-.91,2.05-1.34,4.2-.64,6.39s2.3,3.55,4.13,4.97,2.78,3.49,2.38,5.74c-.33,1.89,2.56,2.7,2.89,.8h0Z"/><path class="cls-8" d="M372.02,269.76c3.42,2.97,7.11,6.16,11.66,7.15,3.91,.84,8.42,.1,11.1-3.09s3.25-7.8,7.53-9.29c3.92-1.36,8.22-.84,12.16-2.15,2.43-.8,4.97-2.48,7.63-2.22,1.3,.13,2.48,.81,3.59,1.46,1.28,.75,2.56,1.51,3.83,2.26,1.67,.98,3.18-1.61,1.51-2.59-2.1-1.24-4.19-2.7-6.48-3.58-2.13-.82-4.37-.63-6.49,.09s-4.26,1.8-6.56,2.25c-1.95,.38-3.94,.47-5.9,.73-4.23,.55-7.83,2.01-10.07,5.85-1.03,1.77-1.73,3.82-3.11,5.36-1.3,1.44-3.19,2.16-5.1,2.26-5.24,.27-9.45-3.37-13.17-6.59-1.45-1.26-3.58,.85-2.12,2.12h0Z"/><path class="cls-8" d="M417.85,259.45c1.93,0,1.93-3,0-3s-1.93,3,0,3h0Z"/><path class="cls-8" d="M419.06,258.87c.56-2.12,1.11-4.29,2.35-6.13,1.17-1.74,3.03-2.88,4.55-4.28,2.6-2.39,4.65-7.17,1.39-9.96-1.46-1.25-3.59,.86-2.12,2.12,1.04,.89,.9,2.31,.39,3.48-.72,1.63-2.32,2.73-3.66,3.83-1.51,1.25-2.86,2.62-3.77,4.37s-1.49,3.79-2.01,5.76,2.4,2.67,2.89,.8h0Z"/><path class="cls-8" d="M350.07,277.3c-7.64-.2-13.32-6.75-19.53-10.35-3.83-2.22-7.73-3.15-12.16-3.12-2.57,.01-5.2,.19-7.71-.46s-4.57-1.86-6.63-3.2c-4.59-2.99-8.67-6.78-11.99-11.13-1.16-1.51-3.76-.02-2.59,1.51,3.05,4,6.58,7.52,10.63,10.51s8.73,5.57,14.07,5.78c2.82,.11,5.71-.26,8.51,.24,1.88,.33,3.66,1.01,5.35,1.9,3.55,1.88,6.65,4.46,9.96,6.71,3.64,2.48,7.62,4.5,12.11,4.62,1.93,.05,1.93-2.95,0-3h0Z"/><path class="cls-8" d="M306.99,263.32c.38-2.34-.44-4.34-1.66-6.3-1.09-1.77-2.72-3.71-2.44-5.92,.18-1.44,.94-2.77,1.49-4.1,.6-1.44,1.09-2.92,1.47-4.44,.74-3.03,1.02-6.18,.85-9.29-.11-1.92-3.11-1.93-3,0,.17,3.01-.09,6.01-.85,8.93-.38,1.46-.87,2.89-1.48,4.27s-1.24,2.72-1.44,4.22c-.31,2.32,.66,4.4,1.85,6.32,.97,1.57,2.64,3.51,2.31,5.51-.3,1.89,2.59,2.7,2.89,.8h0Z"/><path class="cls-8" d="M331.03,267.62c-3.47-.67-6.98-.26-10.16,1.29s-5.24,4.21-7.72,6.53c-1.2,1.13-2.53,2.12-4.12,2.62-1.78,.56-3.63,.6-5.48,.69-1.66,.08-3.72,.01-5.24,.77-1.4,.69-2.34,2.15-1.47,3.64,.97,1.67,3.57,.16,2.59-1.51-.18,.58-.14,.78,.13,.59,.11-.07,.23-.11,.35-.13,.34-.1,.72-.13,1.06-.17,.78-.1,1.57-.14,2.36-.18,1.55-.08,3.11-.14,4.65-.39,2.92-.47,5.3-1.93,7.42-3.94s3.79-4.18,6.27-5.56,5.66-1.92,8.56-1.36c1.89,.37,2.69-2.53,.8-2.89h0Z"/><path class="cls-8" d="M307.26,323.98c-4.28,.81-7.62,4.48-12.13,4.2-2.54-.15-4.91-.52-7.46-.16s-4.83,1.16-7.03,2.34c-1.7,.92-.19,3.51,1.51,2.59,2.1-1.13,4.41-1.88,6.79-2.08,2.56-.22,5.07,.5,7.61,.32,4.26-.3,7.4-3.54,11.5-4.32,1.89-.36,1.09-3.25-.8-2.89h0Z"/><path class="cls-8" d="M297.66,345.21c6.4,1.16,6.01,9.84,6.78,14.67,.91,5.73,4.3,10.74,9.35,13.63,1.68,.96,3.19-1.63,1.51-2.59-2.49-1.42-4.54-3.44-5.97-5.93-1.64-2.85-2.04-5.97-2.38-9.19-.57-5.34-2.21-12.35-8.49-13.49-1.89-.34-2.7,2.55-.8,2.89h0Z"/><path class="cls-8" d="M281.59,395.87c-2.71,.66-5.45,1.13-8.17,1.72s-5.02,1.91-7.12,3.61c-.63,.51-.53,1.59,0,2.12,.62,.62,1.49,.51,2.12,0,1.82-1.47,3.8-2.43,6.06-2.89,2.64-.55,5.29-1.03,7.91-1.67,1.87-.46,1.08-3.35-.8-2.89h0Z"/><path class="cls-8" d="M274.38,416.88c1.7,1.09,3.65,1.04,5.47,1.76,1.3,.52,2.32,1.51,3.08,2.66,1.75,2.66,2.54,5.82,3.79,8.72,2.86,6.68,8.62,11.83,15.47,14.18,1.83,.63,2.62-2.27,.8-2.89-6.81-2.33-11.76-7.66-14.27-14.3-1.1-2.91-2.08-5.97-4.08-8.41-.94-1.15-2.13-2.08-3.51-2.65-1.69-.71-3.67-.66-5.24-1.65s-3.14,1.55-1.51,2.59h0Z"/><path class="cls-8" d="M291.19,436.51c1.93,0,1.93-3,0-3s-1.93,3,0,3h0Z"/><path class="cls-8" d="M290.14,434.43c-1.32,2.17-1.66,4.89-.89,7.32,.39,1.23,1.04,2.31,1.89,3.27,.67,.76,1.87,1.63,1.94,2.72s-.96,2.21-1.55,3.07c-.68,1.01-1.16,2.01-1.26,3.24-.18,2.15,.94,4.18,3.22,4.36,1.93,.15,1.92-2.85,0-3-.24-.02-.24-.82-.24-.98,.02-.83,.42-1.43,.87-2.09,1.2-1.76,2.48-3.68,1.72-5.91-.66-1.95-2.57-2.99-3.43-4.8s-.72-3.97,.32-5.68-1.59-3.17-2.59-1.51h0Z"/><path class="cls-8" d="M302.94,352.06c-3.91,2.15-3.62,6.83-3.78,10.65-.17,4.18-3.32,7.65-2.95,11.9,.16,1.91,3.17,1.93,3,0-.31-3.64,2.36-6.79,2.82-10.34,.38-2.94-.77-7.87,2.42-9.62,1.69-.93,.18-3.52-1.51-2.59h0Z"/><path class="cls-8" d="M334.25-140.62c-3.63,6.09-6.6,12.65-7.92,19.65-1.06,5.65-.12,11.52-1.42,17.09-1.71,7.28-7.75,12.47-11.12,18.94-3.08,5.9-4.61,12.5-4.86,19.13-.48,13.08,3.68,27.52,12.07,37.7,3.12,3.79,6.98,6.79,10.65,10.01,4.5,3.95,8.29,8.39,11.25,13.62,3.39,5.98,5.15,12.47,7.86,18.73,2.54,5.87,6.78,11.11,11.91,14.9,4.74,3.5,10.3,5.53,14.29,10.02s5.32,9.19,5.77,14.9c1.01,12.88,5.3,25.8,13.86,35.71,3.74,4.33,8.31,7.8,12.2,11.98,1.45,1.56,2.77,3.14,3.6,5.12,1.06,2.51,1.75,5.2,2.61,7.78,2.08,6.28,4.41,12.47,6.83,18.62,2.24,5.68,4.61,11.3,7.05,16.89,1.32,3.02,2.76,6.05,3.62,9.24,2.39,8.91,1.18,19.72-2.21,28.12-1.84,4.57-4.51,8.37-7.8,11.97-3.92,4.29-7.57,8.77-10.94,13.51-5.27,7.4-10.24,15.09-15.14,22.73-5.39,8.39-8.52,17.85-15.82,24.91-2.79,2.7-5.89,5.14-9.45,6.72-2.76,1.22-5.69,1.76-8.58,2.54-5.96,1.62-9.67,5.44-12.98,10.5-3.81,5.82-7.03,11.67-13.95,14.14-5.74,2.05-12.01,2.18-17.68,4.46-5.26,2.11-8.82,6.09-10.16,11.63-.77,3.2-.85,6.53-1.12,9.8-.35,4.27-1.24,8.24-3.13,12.11-6.52,13.32-19.76,22.03-25.16,36.06-2.62,6.8-2.14,13.32-.2,20.22,1.03,3.65,2.35,7.36,2.48,11.19,.16,4.53-1.89,7.6-4.56,11-1.68,2.15-3.4,4.39-3.98,7.13-.55,2.58,.19,4.77,1.06,7.18,2.06,5.74,3.51,11.82,3.5,17.94-.01,7.07-2.56,13.19-7.09,18.58-1.24,1.47,.88,3.6,2.12,2.12,3.97-4.72,6.85-10.08,7.67-16.24s-.17-12.75-1.89-18.79c-.64-2.24-1.57-4.39-2.23-6.62-1.15-3.89,1.22-6.93,3.49-9.83,1.8-2.29,3.54-4.57,4.34-7.42,.95-3.34,.57-6.87-.17-10.2-1.71-7.71-4.84-14.63-2.6-22.64s7.59-14.46,12.85-20.55c4.55-5.26,9.27-10.55,12.51-16.75,3.42-6.54,3.6-13.05,4.44-20.2,.43-3.71,1.42-7.49,4.27-10.11,2.33-2.15,5.35-3.21,8.37-3.99,5.65-1.45,11.63-1.86,16.9-4.55,5.89-3,9.02-8.83,12.51-14.15,1.75-2.67,3.65-5.4,6.39-7.14,2.5-1.6,5.42-2.11,8.25-2.83,11.35-2.88,20.75-12.06,25.53-22.61s11.63-19.46,17.87-28.9c4.53-6.84,9.4-13.28,14.92-19.37,7.64-8.43,11.27-19.22,11.43-30.55,.09-6.43-.89-12.14-3.4-18.05-4.93-11.61-9.9-23.17-14.04-35.1-1.67-4.82-2.67-10.65-5.73-14.85-2.68-3.68-6.28-6.62-9.59-9.7-5.07-4.73-9.37-10.07-12.23-16.44s-5.06-13-5.65-20.05c-.37-4.48-.59-8.89-2.55-13.02-2.5-5.28-6.88-9.36-11.85-12.28-5.95-3.5-11.14-6.92-15.12-12.77-3.55-5.21-4.95-11.39-7.4-17.13-2.63-6.14-6.01-11.95-10.55-16.87-3.35-3.63-7.31-6.58-10.93-9.92-4.44-4.09-7.83-8.89-10.31-14.41-6.14-13.66-7.86-30.72-.36-44.22,3.24-5.83,8.32-10.6,10.47-17.03,1.97-5.87,.77-12.13,1.79-18.16,1.2-7.03,4.11-13.56,7.75-19.65,.99-1.66-1.6-3.17-2.59-1.51h0Z"/></g><g><path class="cls-8" d="M47.13,240.35c5.4,.17,10.77-1.52,15.05-4.82,2.13-1.64,3.87-3.69,5.85-5.5s4.2-2.95,6.89-3.51,5.24-.82,7.72-1.88c1.89-.8,3.58-1.93,5.14-3.25,3.18-2.69,5.63-6.11,8.21-9.35,2.87-3.61,5.96-7.18,10.26-9.09,1.76-.78,.24-3.37-1.51-2.59-7.67,3.41-11.52,11.36-17.14,17.11-1.35,1.38-2.82,2.64-4.5,3.62-2.12,1.23-4.44,1.73-6.83,2.15-2.65,.47-5.27,1-7.57,2.48-2.13,1.37-3.85,3.24-5.64,5.02-4.32,4.31-9.75,6.81-15.92,6.62-1.93-.06-1.93,2.94,0,3h0Z"/><path class="cls-8" d="M74.88,223.46c-.38-2.16,.54-4.27,2.22-5.61,1.86-1.49,3.52-2.71,4.28-5.09,.68-2.12,.3-4.23-.57-6.23-.79-1.82-2.37-3.87-1.51-5.91,.31-.75-.34-1.64-1.05-1.85-.86-.25-1.53,.3-1.85,1.05-1.9,4.55,4,8.28,1.84,12.74-1.03,2.12-3.53,2.99-4.88,4.9s-1.81,4.44-1.39,6.8c.34,1.9,3.23,1.09,2.89-.8h0Z"/><path class="cls-8" d="M70.22,273.36c-3.29,2.85-7,6.16-11.55,6.57-1.97,.17-4.04-.14-5.69-1.29s-2.47-3.07-3.35-4.79c-.97-1.91-2.07-3.69-3.82-4.98-1.57-1.16-3.48-1.78-5.38-2.12-2.03-.37-4.09-.48-6.13-.75-2.19-.29-4.17-.97-6.21-1.8-2.4-.98-4.89-1.75-7.48-1.05s-4.99,2.49-7.29,3.85c-1.66,.98-.15,3.57,1.51,2.59,2.06-1.22,4.24-2.92,6.57-3.55s4.59,.53,6.68,1.37,4.17,1.33,6.4,1.6c2.01,.25,4.05,.34,6.03,.79s3.78,1.28,5.02,2.94,1.92,3.68,3.04,5.43c2.3,3.57,6.28,5.18,10.45,4.72,5.29-.58,9.44-4.05,13.31-7.41,1.46-1.27-.67-3.38-2.12-2.12h0Z"/><path class="cls-8" d="M26.51,265.18c1.93,0,1.93-3,0-3s-1.93,3,0,3h0Z"/><path class="cls-8" d="M28.19,263.79c-.51-1.92-1.04-3.84-1.94-5.62s-2.29-3.23-3.84-4.51c-1.32-1.09-2.9-2.18-3.63-3.78-.54-1.18-.7-2.63,.36-3.53,1.47-1.26-.66-3.37-2.12-2.12-3.26,2.8-1.22,7.57,1.39,9.96,1.52,1.4,3.38,2.54,4.55,4.28,1.24,1.84,1.79,4.01,2.35,6.13,.49,1.87,3.39,1.07,2.89-.8h0Z"/><path class="cls-8" d="M94.29,286.03c8.27-.21,14.08-6.64,20.76-10.59,1.69-1,3.46-1.85,5.37-2.35,2.51-.66,5.11-.52,7.68-.5s5.32-.13,7.83-1.04,4.66-2.2,6.79-3.65c4.68-3.19,8.75-7.12,12.19-11.62,1.17-1.53-1.43-3.03-2.59-1.51-2.93,3.84-6.47,7.27-10.41,10.06-1.99,1.41-4.09,2.78-6.36,3.68-2.48,.98-5.04,1.11-7.68,1.09s-5.1-.1-7.61,.46c-1.84,.4-3.6,1.13-5.27,2-3.36,1.75-6.32,4.15-9.41,6.31-3.38,2.36-7.05,4.58-11.29,4.69-1.93,.05-1.93,3.05,0,3h0Z"/><path class="cls-8" d="M140.27,268.25c-.31-1.95,1.27-3.83,2.23-5.37,1.23-1.97,2.25-4.08,1.94-6.46-.19-1.42-.78-2.72-1.35-4.02-.61-1.38-1.11-2.8-1.51-4.26-.8-2.99-1.08-6.06-.91-9.15,.11-1.93-2.89-1.92-3,0-.17,3.12,.11,6.26,.85,9.29,.36,1.45,.82,2.87,1.39,4.26s1.38,2.77,1.57,4.28c.28,2.21-1.35,4.16-2.44,5.92-1.21,1.97-2.04,3.96-1.66,6.3,.31,1.9,3.2,1.09,2.89-.8h0Z"/><path class="cls-8" d="M114.13,276.24c2.9-.56,5.98-.09,8.56,1.36s4.24,3.64,6.27,5.56,4.5,3.47,7.42,3.94c1.47,.24,2.95,.3,4.43,.38,.78,.04,1.57,.07,2.35,.16,.41,.05,.89,.08,1.29,.2l.24,.06c.34,.28,.42,.1,.25-.53-.97,1.67,1.62,3.18,2.59,1.51,.83-1.42,0-2.85-1.32-3.58-1.47-.8-3.56-.74-5.18-.82-1.84-.09-3.71-.12-5.49-.64-1.68-.49-3.06-1.5-4.32-2.68-2.43-2.27-4.51-4.92-7.54-6.44-3.22-1.62-6.81-2.07-10.34-1.38-1.89,.37-1.09,3.26,.8,2.89h0Z"/><path class="cls-8" d="M136.3,332.6c4.1,.78,7.24,4.01,11.5,4.32,2.47,.17,4.91-.51,7.39-.33s4.85,.93,7.01,2.1c1.7,.92,3.22-1.67,1.51-2.59-2.13-1.15-4.41-1.96-6.81-2.31-2.63-.39-5.05-.03-7.68,.13-4.51,.27-7.85-3.39-12.13-4.2-1.89-.36-2.7,2.53-.8,2.89h0Z"/><path class="cls-8" d="M145.9,348.05c-6.28,1.14-7.92,8.15-8.49,13.49-.33,3.14-.71,6.23-2.28,9.03-1.44,2.56-3.52,4.63-6.07,6.09-1.68,.96-.17,3.55,1.51,2.59,5.05-2.89,8.43-7.9,9.35-13.63,.78-4.83,.37-13.51,6.78-14.67,1.9-.34,1.09-3.24-.8-2.89h0Z"/><path class="cls-8" d="M161.97,404.49c2.62,.64,5.27,1.12,7.91,1.67,2.26,.47,4.24,1.42,6.06,2.89,.63,.51,1.51,.62,2.12,0,.53-.53,.63-1.61,0-2.12-2.1-1.7-4.47-3.03-7.12-3.61s-5.46-1.06-8.17-1.72c-1.88-.46-2.68,2.44-.8,2.89h0Z"/><path class="cls-8" d="M168.46,420.02c-1.51,.97-3.41,.92-5.06,1.58-1.4,.56-2.62,1.46-3.59,2.61-2.07,2.46-3.06,5.57-4.18,8.53-2.51,6.65-7.46,11.97-14.27,14.3-1.82,.62-1.04,3.52,.8,2.89,6.85-2.34,12.61-7.49,15.47-14.18,1.24-2.9,2.03-6.06,3.79-8.72,.76-1.15,1.78-2.15,3.08-2.66,1.82-.72,3.77-.68,5.47-1.76s.12-3.63-1.51-2.59h0Z"/><path class="cls-8" d="M153.17,442.24c1.93,0,1.93-3,0-3s-1.93,3,0,3h0Z"/><path class="cls-8" d="M151.63,441.67c1.01,1.67,1.19,3.74,.39,5.54s-2.83,2.94-3.51,4.94c-.73,2.15,.45,4.06,1.63,5.77,.46,.67,.91,1.29,.97,2.11,.01,.16,.03,1.09-.24,1.11-1.91,.15-1.93,3.15,0,3,2.27-.18,3.41-2.21,3.22-4.36-.1-1.16-.52-2.14-1.16-3.1-.6-.9-1.71-2.05-1.64-3.22,.06-1.05,1.19-1.88,1.84-2.6,.9-1,1.59-2.11,1.99-3.39,.77-2.43,.42-5.15-.89-7.32-1-1.65-3.59-.14-2.59,1.51h0Z"/><path class="cls-8" d="M139.91,360.38c3.19,1.75,2.04,6.68,2.42,9.62,.46,3.55,3.13,6.7,2.82,10.34-.17,1.92,2.83,1.91,3,0,.37-4.25-2.78-7.72-2.95-11.9-.15-3.83,.14-8.5-3.78-10.65-1.69-.93-3.21,1.66-1.51,2.59h0Z"/><path class="cls-8" d="M107.51-133.38c3.75,6.29,6.76,13.07,7.86,20.35,.9,5.96-.25,12.1,1.83,17.89,2.35,6.52,7.6,11.36,10.77,17.44,3.59,6.88,4.83,14.76,4.4,22.45-.75,13.3-6.03,26.74-16,35.76-3.59,3.24-7.44,6.17-10.7,9.76-4.52,4.96-7.86,10.8-10.46,16.97-2.44,5.78-3.86,11.94-7.51,17.14-4.14,5.9-9.48,9.14-15.48,12.76-4.91,2.97-9.18,7.22-11.51,12.53-1.83,4.17-1.93,8.63-2.33,13.09-1.26,13.97-8.18,26.9-18.38,36.34-4.62,4.27-9.39,8.18-11.5,14.23-3.66,10.5-7.21,20.96-11.45,31.26-2.93,7.1-7.29,14.44-8.61,22.1-1.69,9.83-.46,20.64,3.71,29.69,1.83,3.98,4.32,7.4,7.25,10.63,3.93,4.33,7.64,8.78,11.02,13.56,5.32,7.51,10.37,15.28,15.32,23.04,2.51,3.94,4.64,7.92,6.59,12.16,2.07,4.5,5.16,8.57,8.64,12.09,4.92,4.96,10.51,8.36,17.29,10.03,2.48,.61,5.01,1.13,7.22,2.47,3.16,1.9,5.24,5.05,7.19,8.09,3.44,5.35,6.72,10.93,12.72,13.73,5.23,2.44,11.06,2.84,16.58,4.3,2.88,.76,5.77,1.83,7.99,3.89,3.1,2.88,3.97,7.02,4.37,11.06,.7,7.01,1.16,13.33,4.57,19.68,7.18,13.36,21.68,22.56,25.38,37.82,1.95,8.02-1.56,14.94-3.05,22.66-.59,3.05-.82,6.22,.03,9.24s2.91,5.57,4.88,8.09c2.11,2.71,4.01,5.6,2.96,9.16-.69,2.33-1.66,4.57-2.31,6.91-1.76,6.29-2.73,13.03-1.66,19.52,.95,5.76,3.81,10.81,7.53,15.23,1.25,1.48,3.36-.65,2.12-2.12-4.79-5.69-7.26-12.12-7.08-19.58,.14-5.78,1.53-11.51,3.49-16.94,.87-2.41,1.61-4.6,1.06-7.18-.65-3.02-2.66-5.43-4.52-7.8-2.45-3.12-4.19-6.2-4.03-10.33,.15-3.83,1.45-7.53,2.48-11.19,2.05-7.28,2.36-14.04-.57-21.14-2.76-6.67-7.32-12.36-12-17.78s-10.07-11.35-13.21-18.23-2.09-14.31-3.96-21.48c-3.49-13.4-17.64-11.89-28.1-15.78-7.02-2.61-10.14-8.9-14.08-14.76-3.3-4.91-7.04-8.29-12.82-9.83-2.56-.68-5.16-1.17-7.62-2.18-4.11-1.68-7.66-4.54-10.76-7.67-4.01-4.05-6.78-8.51-9.16-13.65-4.66-10.1-11.71-19.05-17.79-28.3-4.39-6.69-9.24-12.96-14.63-18.89-7.92-8.72-11.11-20.05-10.67-31.71,.25-6.56,2.25-11.85,4.85-17.82,5.08-11.63,9.83-23.43,13.81-35.48,1.67-5.05,2.83-9.04,6.57-12.93,3.98-4.14,8.55-7.66,12.24-12.09,4.58-5.5,7.53-11.84,10.04-18.48,2.08-5.5,2.82-11.08,3.28-16.89s2.18-10.85,6.35-15.24,9.47-6.18,14.02-9.61c5.1-3.85,9.24-9.13,11.73-15.01,2.67-6.31,4.5-12.8,7.95-18.79,3.02-5.25,6.94-9.66,11.5-13.62,3.62-3.14,7.35-6.12,10.38-9.85,4.03-4.96,6.81-10.83,8.8-16.88,4.3-13.1,4.56-28.21-2.26-40.53-3.38-6.1-9.03-11.11-10.67-18.09-1.36-5.81-.36-11.93-1.57-17.83-1.38-6.73-4.27-13.04-7.77-18.91-.99-1.66-3.58-.15-2.59,1.51h0Z"/></g><g><path d="M373.04,127.36c0-.46-5.37-.94-13.27-1.26,7.81-1.72,13.09-3.15,13.01-3.61-.09-.47-5.76,.21-13.92,1.58,7.69-3.24,12.89-5.73,12.71-6.17-.17-.44-5.57,1.24-13.29,4.07,6.8-4.61,11.32-8.01,11.06-8.41-.27-.41-5.63,2.53-13.09,7.11,6.16-6.25,10.25-10.82,9.91-11.18-.34-.35-4.87,3.48-11.14,9.29,4.52-7.04,7.41-12.04,7.01-12.31-.38-.26-3.75,3.99-8.36,10.45,3.01-7.44,4.83-12.62,4.4-12.8-.43-.19-3.06,4.83-6.53,12.29,1.54-8.05,2.33-13.63,1.87-13.73-.47-.1-2.13,5.57-4.12,13.85-.07-8.58-.41-14.54-.89-14.55-.5,0-1.02,6.23-1.33,15.14-1.86-8.66-3.46-14.65-3.94-14.56-.45,.09,.16,5.31,1.42,12.94-3.04-7.17-5.35-11.93-5.77-11.77-.45,.18,1.29,5.72,4.19,13.61-4.68-6.91-8.14-11.53-8.55-11.27-.4,.26,2.35,5.29,6.68,12.39-5.98-5.87-10.3-9.72-10.64-9.39-.35,.34,3.5,4.91,9.35,11.2-7.23-4.65-12.4-7.64-12.67-7.24-.26,.38,3.84,3.63,10.11,8.11-7.15-2.89-12.09-4.6-12.27-4.18-.19,.45,5.07,3.19,12.82,6.78-8.37-1.62-14.23-2.46-14.33-1.98-.1,.46,5.28,2.05,13.21,3.97-8.21,.08-13.85,.41-13.85,.89,0,.51,6.45,1.03,15.63,1.35-8.89,1.9-15.08,3.54-14.99,4.04,.09,.45,5.32-.16,12.98-1.43-7.08,3.01-11.77,5.28-11.61,5.71,.18,.45,5.78-1.31,13.73-4.23-7.02,4.75-11.72,8.27-11.46,8.68,.25,.39,5.1-2.24,11.98-6.43-5.62,5.74-9.27,9.86-8.95,10.19,.34,.35,4.87-3.47,11.13-9.28-4.73,7.33-7.78,12.6-7.37,12.87,.39,.26,3.83-4.1,8.53-10.69-3.01,7.43-4.82,12.6-4.39,12.79,.44,.19,3.16-5,6.71-12.68-1.61,8.34-2.45,14.17-1.97,14.28,.47,.1,2.08-5.38,4.03-13.44,.08,8.23,.41,13.88,.89,13.88,.47,0,.96-5.58,1.28-13.74,1.76,8.04,3.23,13.51,3.7,13.42,.47-.09-.21-5.77-1.59-13.95,3.21,7.6,5.66,12.72,6.11,12.55,.44-.17-1.26-5.63-4.11-13.41,4.68,6.91,8.14,11.51,8.54,11.26,.41-.26-2.42-5.43-6.86-12.68,6.02,5.91,10.37,9.8,10.72,9.46,.35-.34-3.45-4.84-9.22-11.06,7.14,4.59,12.24,7.54,12.51,7.14,.27-.4-4.25-3.95-11.04-8.78,7.71,3.14,13.13,5.05,13.33,4.61,.19-.43-4.76-3.03-12.15-6.46,8.02,1.53,13.57,2.32,13.67,1.86,.1-.48-5.68-2.16-14.09-4.18,8.6-.07,14.57-.41,14.58-.89Z"/><path class="cls-8" d="M240.74,160.22c0-.54-7.03-1.1-17.37-1.47,10.23-2.01,17.14-3.69,17.02-4.22-.12-.55-7.53,.24-18.22,1.86,10.07-3.79,16.87-6.71,16.64-7.23-.23-.52-7.29,1.46-17.4,4.77,8.9-5.4,14.82-9.38,14.48-9.85-.35-.49-7.36,2.97-17.13,8.33,8.06-7.32,13.42-12.68,12.97-13.09-.44-.41-6.38,4.07-14.58,10.89,5.92-8.24,9.69-14.11,9.17-14.42-.5-.3-4.9,4.68-10.94,12.24,3.95-8.71,6.32-14.78,5.76-15-.57-.22-4.01,5.65-8.55,14.4,2.02-9.43,3.05-15.96,2.45-16.08-.62-.12-2.79,6.52-5.4,16.23-.09-10.06-.53-17.03-1.17-17.04-.65,0-1.33,7.3-1.74,17.74-2.44-10.14-4.52-17.16-5.16-17.05-.59,.1,.2,6.22,1.86,15.16-3.98-8.4-7-13.98-7.56-13.79-.59,.21,1.69,6.7,5.48,15.95-6.13-8.1-10.66-13.5-11.19-13.2-.53,.3,3.07,6.2,8.74,14.51-7.82-6.88-13.48-11.39-13.93-11-.46,.4,4.59,5.75,12.24,13.12-9.46-5.45-16.23-8.96-16.59-8.48-.33,.44,5.03,4.25,13.23,9.5-9.36-3.38-15.82-5.39-16.06-4.9-.25,.52,6.63,3.74,16.78,7.94-10.96-1.89-18.62-2.88-18.75-2.33-.13,.54,6.91,2.4,17.29,4.65-10.75,.1-18.12,.48-18.13,1.04,0,.59,8.45,1.21,20.46,1.58-11.63,2.23-19.74,4.15-19.62,4.73,.11,.53,6.97-.18,16.99-1.67-9.27,3.53-15.41,6.19-15.19,6.69,.23,.53,7.56-1.53,17.97-4.96-9.19,5.56-15.34,9.69-15,10.16,.33,.46,6.68-2.63,15.68-7.54-7.36,6.73-12.13,11.55-11.71,11.94,.44,.41,6.37-4.07,14.56-10.88-6.19,8.59-10.18,14.76-9.65,15.08,.51,.31,5.01-4.8,11.16-12.52-3.94,8.7-6.31,14.76-5.75,14.98,.58,.23,4.13-5.86,8.78-14.86-2.11,9.77-3.2,16.6-2.58,16.72,.61,.12,2.72-6.31,5.27-15.75,.11,9.64,.54,16.26,1.16,16.26,.62,0,1.26-6.54,1.67-16.1,2.3,9.42,4.23,15.83,4.84,15.72,.61-.11-.27-6.76-2.08-16.35,4.2,8.91,7.41,14.91,7.99,14.7,.58-.2-1.65-6.59-5.38-15.71,6.12,8.09,10.65,13.49,11.18,13.19,.53-.31-3.17-6.36-8.98-14.86,7.88,6.92,13.58,11.48,14.03,11.08,.45-.39-4.51-5.67-12.07-12.96,9.35,5.38,16.02,8.83,16.37,8.36,.35-.46-5.57-4.63-14.45-10.28,10.1,3.68,17.19,5.91,17.44,5.4,.25-.51-6.23-3.55-15.9-7.57,10.5,1.8,17.77,2.72,17.9,2.18,.14-.56-7.43-2.53-18.44-4.9,11.26-.08,19.07-.47,19.08-1.05Z"/><g><path d="M295.81,154.72c2.28,.74,4.77,.16,6.49-1.49l-1.45-.6c.04,.54,.32,1.05,.6,1.51,.52,.85,1.18,1.62,1.91,2.29,.86,.79,1.83,1.49,2.79,2.16,.56,.39,1.2,.84,1.91,.85l-.6-1.45c-1.59,1.44-2.49,3.43-2.62,5.57-.07,1.09,1.63,1.09,1.7,0,.11-1.69,.87-3.23,2.12-4.36,.56-.51,.11-1.45-.6-1.45-.09,0-.08,0,.02,0-.05-.01-.11-.03-.16-.05,.09,.05-.14-.08-.16-.09-.29-.16-.56-.34-.83-.53-.82-.57-1.64-1.17-2.38-1.85-.58-.53-1.11-1.12-1.54-1.78-.14-.22-.28-.45-.4-.69-.02-.05-.1-.39-.08-.12-.06-.72-.89-1.14-1.45-.6-1.3,1.25-3.14,1.6-4.84,1.05-1.04-.34-1.49,1.3-.45,1.64h0Z"/><path d="M309.43,127.18c-2.76,.59-5.3,1.76-7.82,3.01-1.3,.64-2.58,1.3-3.91,1.88-.96,.42-2.05,.64-2.22,1.83-.23,1.52-.07,3.2-.1,4.74s-.06,3.14-.08,4.71c-.06,3.39-.12,6.78-.18,10.17-.02,1.1,1.68,1.1,1.7,0,.1-5.87,.21-11.74,.31-17.61,0-.57-.14-1.47,.23-1.84,.32-.32,1.19-.52,1.6-.71,1.19-.53,2.34-1.12,3.51-1.7,2.39-1.18,4.79-2.28,7.41-2.84,1.07-.23,.62-1.87-.45-1.64h0Z"/><path d="M316.48,117.59c-8.52,1.95-17.03,3.9-25.55,5.84-2.14,.49-4.33,.9-6.45,1.48-1.51,.41-2.5,1.26-2.72,2.87-.27,1.95-.11,4.03-.12,6-.01,2.24,0,4.48,0,6.73,.04,4.32,.13,8.64,.28,12.95,.07,2.12,.28,4.28-.44,6.32-.64,1.81-1.79,3.42-2.79,5.05-2.13,3.46-4.11,7.02-5.93,10.66-.77,1.53-1.52,2.95-.69,4.62,.9,1.81,2.28,3.46,3.41,5.13,2.28,3.37,4.38,7.48,7.71,9.95,2.93,2.18,6.97,3.05,9.25,6.05,.35,.46,1.15,.63,1.47,0,4.06-8.09,9.08-15.66,14.99-22.52,.71-.83-.49-2.03-1.2-1.2-6.01,6.97-11.14,14.64-15.26,22.86h1.47c-1.83-2.4-4.45-3.59-7.06-4.96-1.37-.72-2.7-1.49-3.8-2.58-1.37-1.34-2.4-2.99-3.47-4.57s-2.22-3.28-3.32-4.92c-.55-.82-1.11-1.64-1.66-2.46-.73-1.09-1.54-1.96-.97-3.33,1.46-3.56,3.6-6.98,5.56-10.28,1.77-2.96,4.08-5.86,4.45-9.4,.2-1.88,0-3.8-.05-5.68-.07-2.16-.12-4.32-.16-6.48-.08-4.15-.1-8.3-.08-12.46,0-1,.02-1.99,.03-2.99,.01-.86-.2-2.2,.24-2.97s1.84-.89,2.65-1.07l3.41-.78c9.08-2.08,18.17-4.16,27.25-6.23,1.07-.24,.62-1.88-.45-1.64h0Z"/><path d="M305.24,164.21c2.37,2.9,6.39,3.1,9.86,3,4.98-.16,9.95-.29,14.93-.2,10.4,.19,20.78,1.07,31.06,2.62l-.62-.82c-.4,3.04-.8,6.09-1.19,9.13l.85-.85c-13.65-.07-27.29-.12-40.94,.11-3.58,.06-7.15,.1-10.73,0-1.1-.03-1.09,1.67,0,1.7,5.65,.16,11.31,0,16.96-.07,6.76-.08,13.5-.15,20.25-.11,4.82,.02,9.63,.05,14.45,.07,.5,0,.79-.4,.85-.85,.4-3.04,.8-6.09,1.19-9.13,.04-.33-.29-.77-.62-.82-9.79-1.48-19.65-2.38-29.55-2.64-4.91-.13-9.82-.11-14.73,.07-3.6,.13-8.26,.72-10.83-2.41-.69-.85-1.89,.36-1.2,1.2h0Z"/><path d="M211.81,161.96c3.15-.94,6.37-1.78,9.63-2.21,2.45-.32,4.92-.52,7.37-.91,4.67-.74,9.3-1.75,13.96-2.53,2.16-.36,5.01-1.14,7.1-.32,1.97,.77,4.01,3,5.59,4.6,1.74,1.76,3.39,3.66,4.89,5.63,1.65,2.18,3.16,4.45,4.79,6.64,.99,1.35,1.97,2.76,3.1,3.99s2.53,2.34,3.88,3.39c.85,.67,2.06-.53,1.2-1.2-1.27-1-2.54-2.01-3.67-3.17s-2.08-2.56-3.05-3.87c-1.51-2.05-2.94-4.16-4.45-6.2-1.44-1.94-3-3.77-4.64-5.53-1.87-2.02-4.01-4.36-6.5-5.62-1.99-1.01-4.29-.64-6.41-.34-5.08,.72-10.1,1.82-15.16,2.71-2.47,.43-4.95,.67-7.44,.96-3.62,.43-7.16,1.31-10.65,2.34-1.05,.31-.6,1.95,.45,1.64h0Z"/><path d="M210.73,161.14c-.04,1.85-.06,3.7-.09,5.55s-.24,3.91-.06,5.81c.35,3.63,4.88,1.82,7.11,1.46,7.85-1.28,15.88-1.96,23.84-1.81,1.68,.03,2.74,.54,3.44,2.09,.22,.49,.41,1,.65,1.48,.72,1.43,1.56,2.81,2.41,4.17,2.33,3.73,4.83,7.36,7.37,10.95s4.85,6.79,7.4,10.1c.74,.96,1.47,1.93,2.28,2.83,.63,.7,1.23,1.4,1.21,2.43-.02,.74-.39,1.45-.65,2.13-.39,1.02-.78,2.04-1.14,3.06-2.57,7.18-4.49,14.6-5.72,22.13-.58,3.56-1.13,7.19-1.28,10.8-.08,1.83,.1,3.61,.72,5.34,2.2,6.13,8.61,9.6,13.88,12.73,6.74,4.01,13.64,7.74,20.67,11.22,.38,.19,.96,.14,1.16-.31,1.76-3.86,3.52-7.72,5.27-11.58,.45-.99-1.02-1.85-1.47-.86-1.76,3.86-3.52,7.72-5.27,11.58l1.16-.31c-6.27-3.1-12.44-6.4-18.48-9.93-2.75-1.6-5.51-3.21-8.13-5.02-2.27-1.57-4.53-3.37-6.03-5.72-2.98-4.68-1.62-10.51-.86-15.66,1.1-7.39,2.86-14.69,5.24-21.77,.6-1.77,1.23-3.53,1.91-5.27,.51-1.33,.97-2.54,.5-3.97-.42-1.27-1.46-2.17-2.28-3.18-2.27-2.78-4.37-5.7-6.46-8.61-2.66-3.7-5.28-7.44-7.78-11.25-1.67-2.55-3.47-5.15-4.64-7.98-.46-1.11-1.11-2.13-2.17-2.74-1.54-.89-3.62-.61-5.33-.6-4.35,.04-8.7,.27-13.02,.71-2,.2-3.99,.45-5.98,.73-1.12,.16-2.23,.33-3.34,.52-1.04,.17-2.28,.61-3.33,.6-.76-.01-.99-.08-1.17-.85-.09-.39,.01-.91,.02-1.31,.02-1.08,.04-2.16,.05-3.24,.03-2.15,.05-4.31,.1-6.46,.02-1.1-1.68-1.09-1.7,0h0Z"/><path d="M292.78,199.75c-.07,5.98-2.67,11.81-7.41,15.51-1.68,1.31-3.14,2.78-4.09,4.71-1.29,2.63-2.38,5.39-3.47,8.11-1.21,3-2.31,6.1-2.98,9.27-.39,1.82-.66,3.73-.24,5.57,.86,3.84,3.97,5.81,6.97,7.89,5.42,3.75,10.87,7.46,16.33,11.16,.91,.61,1.76-.86,.86-1.47-4.96-3.35-9.9-6.72-14.83-10.12-2.89-2-6.46-3.82-7.55-7.41-.51-1.68-.25-3.48,.11-5.16,.67-3.17,1.77-6.27,2.98-9.27,1.07-2.65,2.11-5.36,3.4-7.91,.98-1.92,2.52-3.19,4.17-4.51,4.83-3.88,7.39-10.26,7.46-16.36,.01-1.09-1.69-1.1-1.7,0h0Z"/><path d="M317.15,126.04l-.02,.08,.82-.62,.49,.27,.09,.66,.03-.1-.59,.59c.08-.03,1.48,.99,1.77,1.15,.7,.39,1.42,.75,2.16,1.06s1.45,.59,2.2,.82c.67,.21,1.45,.5,2.14,.18,1.24-.57,1.06-2.15,.25-3-.51-.53-1.18-.91-1.77-1.33-.74-.53-1.48-1.05-2.22-1.58l-.43,1.58c3.8,.08,7.61,.17,11.41,.25,.58,.01,.93-.55,.82-1.08-.38-1.79-2.07-2.82-3.78-3.11-2.31-.39-4.63,.67-6.91,.07l-.23,1.67c2.23-.03,4.46-.24,6.66-.65,1.36-.25,4.18-.61,3.89-2.62-.27-1.83-3.03-1.8-4.41-1.84-2.12-.06-4.24,.3-6.23,1.02-1.05,.38-.62,1.79,.45,1.64,1.94-.27,3.9-.58,5.81-1.05,.9-.22,2.32-.52,2.58-1.59,.18-.73-.34-1.73-1.1-1.89-.96-.2-2.09-.09-3.06-.02-2.08,.14-4.13,.57-6.09,1.28-1.02,.37-.6,1.99,.45,1.64,1.56-.52,3.1-1.09,4.61-1.74,1.12-.49,2.88-1.53,1.61-2.9-.2-.21-.46-.4-.73-.52-.5-.23-.83-.07-1.32,.12-1.06,.41-2.11,.83-3.17,1.24-2.16,.85-4.33,1.7-6.49,2.55-1.01,.4-.57,2.04,.45,1.64,3.42-1.34,6.85-2.69,10.27-4.03l-.66-.09c.09,.04,.17,.09,.25,.13,.17,.16,.21,.08,.13-.23-.17,0-.55,.31-.72,.39-.32,.15-.65,.29-.99,.43-1.22,.5-2.46,.94-3.71,1.36l.45,1.64c2.76-1,5.65-1.41,8.58-1.22l-.6-.25c.37,.4,.05,.12,.18-.01,.13-.12,.01-.04,0-.05,.01,0-.23,.11-.33,.15-.61,.25-1.3,.37-1.94,.51-1.64,.35-3.29,.62-4.94,.85l.45,1.64c1.49-.54,3.03-.88,4.61-.95,.68-.03,1.36-.02,2.04,.04,.18,.01,1.84,.1,1.87,.35,.05,.37-3.52,.87-3.89,.93-1.65,.25-3.32,.36-4.99,.38-.95,.01-1.17,1.42-.23,1.67,2.05,.54,4.01-.1,6.06-.12,1.36-.01,3.12,.46,3.44,1.98l.82-1.08c-3.8-.08-7.61-.17-11.41-.25-.9-.02-1.08,1.13-.43,1.58s1.32,.94,1.98,1.4c.51,.36,1.42,.78,1.75,1.32,.21,.34-.18,.09-.4,.02-.36-.11-.72-.22-1.08-.35-.78-.27-1.54-.6-2.28-.96-.68-.34-1.34-.71-1.98-1.11-.53-.34-1.12-.9-1.8-.82-1.33,.15-1.15,1.98,.13,2.01,.37,0,.73-.27,.82-.62l.02-.08c.27-1.06-1.37-1.51-1.64-.45h0Z"/><path d="M361.25,170.67c2.99,.64,4.55-2.38,6.42-4.14,.28-.27,.77-.84,1.18-.94,.24-.06-.07,.02-.09-.03,.25,.55-.24,.69-.61,.98-1.22,.93-1.98,2.07-2.55,3.49-.26,.65,.48,1.16,1.05,1.05,3.62-.71,7-1.68,10.42-3.01,.44-.17,.91-.32,1.39-.33,.25,0,.52,.01,.76,.09,.16,.05,.51,.38,.51,.13,0-.28-.15,.04-.3,.11s-.31,.18-.46,.26c-.58,.3-1.2,.54-1.81,.77-2.08,.79-4.2,1.44-6.36,1.99-.9,.23-.74,1.8,.23,1.67,2.35-.31,4.71-.63,7.06-.94,1.18-.16,2.35-.31,3.53-.47,.29-.04,.59-.08,.88-.12,.11-.16,.23-.15,.35,.02-.08,.14-.46,.21-.62,.26-1.82,.58-3.77,.81-5.63,1.23-1.42,.32-2.82,.7-4.21,1.14-.93,.29-.73,1.61,.23,1.67,1.71,.11,3.42,.14,5.13,.05,.55-.03,4.41-.62,4.48,.06,.09,.87-3.43,.56-3.9,.55-1.9,0-3.81,0-5.71,.02-.95,0-1.16,1.42-.23,1.67,.58,.16,6.19,1.51,6.13,2.11-.05,.5-4.39-.94-4.7-1.03-2.06-.61-4.12-1.17-6.27-1.33s-4.33-.52-6.43-1.29c-1.03-.38-1.47,1.27-.45,1.64,1.35,.5,2.75,.87,4.17,1.09,1.32,.21,2.65,.2,3.97,.4,2.84,.43,5.48,1.66,8.29,2.21,.79,.15,1.62,.19,2.3-.31,.71-.53,1.08-1.52,.56-2.31-.57-.85-1.85-1.19-2.76-1.5-1.44-.5-2.89-.93-4.36-1.32l-.23,1.67c2.52-.02,5.03-.02,7.55,0,1.53,.01,3.77-.22,3.78-2.23,.02-2.15-2.46-2.09-3.97-1.97-2.46,.19-4.89,.28-7.36,.12l.23,1.67c1.95-.61,3.93-1.1,5.94-1.5,1.3-.27,2.64-.45,3.91-.86,.7-.22,1.54-.53,1.82-1.28s-.05-1.5-.64-1.98c-.93-.75-2.26-.24-3.35-.1-3.16,.42-6.33,.84-9.49,1.27l.23,1.67c2.76-.7,5.56-1.53,8.15-2.73,.74-.34,1.76-.83,1.97-1.72,.22-.95-.6-1.64-1.38-1.96-2-.83-3.88,.43-5.72,1.08-2.62,.93-5.35,1.51-8.07,2.05l1.05,1.05c.35-.87,.82-1.66,1.52-2.28,.66-.58,1.63-.98,1.86-1.91,.3-1.2-.77-2.62-2.06-2.39-1.15,.21-2.16,1.44-2.91,2.23-1,1.04-2.25,3.27-3.96,2.9-1.07-.23-1.52,1.41-.45,1.64h0Z"/><path d="M210.39,163.17c-1.12,.13-2.24,.29-3.36,.4s-1.89-.05-2.54-1.04c-.59-.9-1.04-1.91-1.33-2.94s-.37-2.1-.79-3.08c-1.34-3.11-5.11-3.83-8.14-3.8-.36,0-.74,.26-.82,.62-.66,2.91-.2,5.83,.44,8.7,.69,3.1,1.43,6.2,2.14,9.29,.21,.89,.22,2.77,1.26,3.15,.52,.19,1.15,0,1.68-.06l2.33-.26c3.24-.36,6.48-.73,9.72-1.09,1.08-.12,1.09-1.82,0-1.7-2.27,.25-4.53,.51-6.8,.76l-3.3,.37-1.55,.17c-.41,.05-1.23,.29-1.62,.17l.51,.39c-.37-.48-.44-1.77-.58-2.35-.18-.76-.35-1.52-.53-2.29-.38-1.65-.76-3.3-1.14-4.96-.74-3.21-1.67-6.55-.92-9.85l-.82,.62c1.64-.01,3.4,.15,4.86,.96,1.93,1.07,1.91,2.93,2.48,4.84,.47,1.59,1.3,3.7,2.78,4.62,1.68,1.05,4.23,.27,6.05,.05,1.07-.13,1.09-1.83,0-1.7h0Z"/><path d="M294.39,270.47c1.09,.78,2.1,1.65,3.04,2.61,.46,.48,1.05,1.02,1.4,1.58,.59,.94,.24,1.56-.24,2.43-.37,.65-.73,1.31-1.1,1.96-.11,.18-.32,.7-.47,.78-.32,.18-.69-.02-1.01-.07-1.05-.15-2.01-.11-3.01,.3-1.75,.73-3.15,2.35-3.41,4.25-.3,2.21,1.06,3.41,3.18,3.43,2.94,.03,5.91-.22,8.85-.34,1.22-.05,2.78,.15,3.96-.23,1.02-.32,1.45-1.58,1.92-2.42,1.44-2.53,2.95-5.03,4.3-7.61,1.09-2.08,1.89-4.51,.9-6.8-1.05-2.43-3.61-2.83-5.84-3.64-3.05-1.11-5.67-3.16-8.2-5.14-.85-.67-2.06,.53-1.2,1.2,1.84,1.44,3.68,2.89,5.71,4.06s3.98,1.58,6,2.44c2.68,1.14,2.64,3.9,1.56,6.23s-2.57,4.66-3.87,6.95c-.49,.87-1.13,2.76-2.08,3.14-.49,.2-1.41,.05-1.95,.08-.73,.03-1.46,.06-2.19,.08-2.62,.1-5.26,.33-7.88,.3-3.09-.03-.82-3.66,.78-4.37,1.72-.77,3.77,.76,5.01-1.08,.74-1.1,1.43-2.37,1.99-3.57,.44-.94,.56-1.9,.02-2.82-1.21-2.08-3.4-3.82-5.32-5.2-.89-.64-1.74,.83-.86,1.47h0Z"/><g><path class="cls-2" d="M306.08,131.97c-4.39,5.77-4.59,12.1-4.59,13.69-.01,3.17-.04,8.01,3.4,10.94,4.75,4.04,12.22,1.14,13.11,.79,5.08-1.97,7.7-5.95,9.26-8.37,4.66-7.27,9.08-21.01,3.36-25.75-5.46-4.52-18.4,.62-24.53,8.69Z"/><path class="cls-5" d="M316.07,126.22c.47,4.39,1.87,9.88,3.3,15.48,3.42,13.4,6.16,14.37,7.14,14.59,3.34,.74,7.21-2.64,9.03-5.24,1.34-1.92,1.53-3.36,2.87-8.61,1.04-4.09,2-7.39,2.65-9.55-3.82-3.86-6.73-7.07-8.68-9.29-1.99-2.27-3.04-3.57-5.1-4.71-.44-.24-6.12-3.32-9.22-1.34-2.05,1.31-2.45,4.49-2.01,8.67"/><path class="cls-8" d="M337.87,134.77c.05,.16,.41,.17,.57,.17,.73,.02,1.67-.24,3.63-1.98,1.84-1.63,1.77-2.06,1.72-2.22-.12-.39-.63-.6-1.04-.7-.57-.09-1.33-.1-1.83,.35-.63,.57-.2,1.31-.77,2.33-.75,1.34-2.41,1.69-2.29,2.04Z"/><path class="cls-4" d="M337.05,132.75c-.95,1.64-1.09,3.72-.36,5.47,.09,.23,.35,.49,.54,.33"/><path class="cls-4" d="M325.31,122.1l-1.22-.32c-.79-.21-1.66-.41-2.4-.06-.7,.33-1.11,1.1-1.2,1.87s.07,1.54,.24,2.29c.52,2.23,1.14,4.44,2.08,6.52"/></g><path d="M295.12,153.78c-1.18,4.21-2.17,8.47-2.95,12.77-.12,.68,.38,1.15,1.05,1.05,4.33-.65,8.5-2.15,12.86-2.59,1.08-.11,1.09-1.81,0-1.7-4.52,.46-8.83,1.99-13.31,2.65l1.05,1.05c.78-4.3,1.76-8.56,2.95-12.77,.3-1.06-1.34-1.51-1.64-.45h0Z"/></g><path d="M232.38,151.11c6.38-3.69,14.08-5.82,21.43-4.18,6.23,1.4,11.79,5.38,14.45,11.27,.79,1.76,3.38,.23,2.59-1.51-2.95-6.53-9.34-11.1-16.25-12.64-8.14-1.82-16.64,.37-23.74,4.48-1.67,.97-.16,3.56,1.51,2.59h0Z"/><path d="M228.98,142.84c4.19-1.42,8.37-2.84,12.56-4.26,3.94-1.34,8.21-3.38,12.45-3.15,6.99,.38,12.29,6.7,16.43,11.67,1.24,1.49,3.35-.65,2.12-2.12-4.62-5.55-10.2-11.66-17.81-12.49-4.43-.48-8.73,1.41-12.83,2.8-4.57,1.55-9.15,3.1-13.72,4.65-1.82,.62-1.04,3.51,.8,2.89h0Z"/><path d="M249.01,233.09c-2.66,4.49-3.97,9.88-3.32,15.09,.76,6.09,4.05,11.59,8.87,15.36,2.78,2.17,5.96,3.73,9.36,4.69,1.86,.52,2.66-2.37,.8-2.89-6.57-1.84-12.47-6.45-14.93-12.95-2.22-5.88-1.36-12.42,1.81-17.77,.99-1.66-1.61-3.18-2.59-1.51h0Z"/><path d="M362.75,164.85c2.76-2.69,5.71-5.17,8.47-7.85,.56-.55,.59-1.58,0-2.12s-1.52-.58-2.12,0c-2.76,2.69-5.71,5.17-8.47,7.85-.56,.55-.59,1.58,0,2.12s1.52,.58,2.12,0h0Z"/><path d="M360.59,184.15c4.57,1.69,9.04,3.52,13.31,5.87,1.69,.93,3.21-1.66,1.51-2.59-4.49-2.47-9.22-4.4-14.03-6.17-.76-.28-1.64,.31-1.85,1.05-.23,.84,.28,1.56,1.05,1.85h0Z"/></g><g><g><g><path d="M117.36,97.59c-2,.51-4.06-.1-5.46-1.63-.36-.39-1.2-.24-1.29,.34-.04,.28-.36,.74-.62,1.1-.52,.7-1.16,1.33-1.83,1.88-.85,.7-1.81,1.29-2.75,1.87-.43,.27-1.14,.77-1.55,.75-.69-.04-.99,.86-.55,1.32,1.35,1.4,2.06,3.22,2.05,5.15,0,.99,1.54,1,1.54,0,0-2.34-.88-4.56-2.5-6.24l-.55,1.32c.71,.04,1.43-.41,2.02-.76,1.1-.66,2.2-1.36,3.2-2.16,.83-.66,1.58-1.43,2.21-2.28,.31-.42,.74-.99,.82-1.53l-1.29,.34c1.77,1.92,4.44,2.66,6.96,2.02,.96-.24,.55-1.73-.41-1.49h0Z"/><path d="M133.34,99.2c-.59,1.7-1.98,3.14-2.03,5.02-.03,1.27,.47,2.58,.95,3.74,1.77,4.25,4.21,8.22,6.14,12.41,.5,1.08,.98,2.17,1.45,3.26s1.34,2.49,1.33,3.7c-.02,1.14-1.21,2.23-1.86,3.06-.79,1.02-1.59,2.05-2.38,3.07-1.51,1.95-3.02,3.92-4.55,5.86-1.38,1.75-2.83,3.44-4.75,4.61-3.59,2.18-8.01,2.96-10.86,6.25l1.21,.16c-5.06-8.78-10.12-17.56-15.18-26.35-.5-.86-1.83-.08-1.33,.78,5.06,8.78,10.12,17.56,15.18,26.35,.23,.41,.88,.54,1.21,.16,2.62-3.03,6.72-3.83,10.08-5.73,4.01-2.27,6.58-6.47,9.34-10.03,1.5-1.93,3.06-3.83,4.5-5.81,1.34-1.83,.85-3.39,.03-5.35-1.93-4.6-4.09-9.08-6.43-13.48-.92-1.72-1.88-3.49-2.36-5.4-.56-2.25,1.1-3.84,1.8-5.85,.33-.94-1.16-1.34-1.49-.41h0Z"/><path d="M105.41,107.88c-2.28,2.46-5.82,2.48-8.94,2.24-4.05-.31-8.08-.8-12.13-1.08-8.63-.59-17.28-.75-25.93-.49-4.86,.15-9.71,.43-14.55,.84-.39,.03-.8,.33-.77,.77,.22,3.41,.44,6.83,.66,10.24,.03,.44,.33,.75,.77,.77,15.13,.91,30.23,1.85,45.34,3.09,4.04,.33,8.08,.64,12.13,.8,.99,.04,.99-1.51,0-1.54-6.35-.24-12.67-.83-19-1.32-7.46-.58-14.9-1.14-22.37-1.59-5.36-.32-10.73-.65-16.09-.97l.77,.77c-.22-3.41-.44-6.83-.66-10.24l-.77,.77c8.95-.76,17.93-1.08,26.9-.93,4.53,.07,9.06,.27,13.58,.57,4.17,.28,8.32,.83,12.49,1.11,3.43,.23,7.19-.05,9.67-2.72,.67-.73-.41-1.82-1.09-1.09h0Z"/><path d="M116.14,149.51c-.32,5.88,1.42,12.26,5.39,16.72,1.96,2.2,4.67,3.51,6.47,5.87,1.65,2.16,2.51,4.77,3.09,7.39,1.38,6.2,2.09,12.76,2.03,19.11-.04,4.29-.06,8.57,.03,12.86,.17,8.04,.59,16.07,1.12,24.09,.03,.4,.33,.8,.77,.77,5.43-.35,10.86-.7,16.29-1.05,.4-.03,.79-.33,.77-.77-.49-12.55-.66-25.11-.83-37.67-.04-3-.2-5.98-.46-8.97-.5-5.82-.92-11.65-1.61-17.45-.22-1.85-.56-3.65-.91-5.48-.76-3.97-.8-7.91,.85-11.68,1.87-4.3,5.56-7.5,8.41-11.15,3.87-4.96,7.3-10.26,10.51-15.67,3.66-6.17,6.67-12.69,10.23-18.91,2.77-4.84,5.75-9.56,8.42-14.46,2.87-5.26,5.62-10.58,8.61-15.78,.84-1.46,1.69-2.92,2.54-4.37,.16-.27,.14-.73-.12-.94-3.58-2.82-7.15-5.64-10.73-8.46-.39-.31-.92-.3-1.21,.16-7.12,11.3-14.22,22.61-21.45,33.84-2.98,4.63-6.03,9.26-9.43,13.6-4.25,5.41-8.83,10.58-13.34,15.78-.65,.75,.44,1.84,1.09,1.09,4.25-4.91,8.54-9.81,12.62-14.88,2.16-2.68,4.11-5.53,6.12-8.32,3.99-5.54,7.49-11.49,11.14-17.25,4.88-7.68,9.73-15.38,14.59-23.09l-1.21,.16c3.58,2.82,7.15,5.64,10.73,8.46l-.12-.94c-6.14,10.42-11.5,21.26-17.78,31.59-3.4,5.6-6.31,11.46-9.34,17.27-3.22,6.17-7.12,12.14-11.23,17.74-1.4,1.91-2.87,3.78-4.42,5.58-1.37,1.59-2.84,3.07-4.04,4.79-1.95,2.79-3.19,6.05-3.46,9.45s.54,6.34,1.08,9.5c.76,4.44,1.01,8.99,1.4,13.47s.84,8.62,.96,12.95c.33,12.04,.31,24.09,.73,36.14,.05,1.3,.09,2.6,.15,3.9l.77-.77c-5.43,.35-10.86,.7-16.29,1.05l.77,.77c-.79-12.01-1.37-24.06-1.16-36.09,.1-5.84-.57-11.67-1.51-17.42s-2.54-10.49-7.11-13.98c-2.52-1.92-4.53-3.94-5.96-6.8-1.82-3.64-2.61-7.7-2.39-11.75,.05-.99-1.49-.99-1.54,0h0Z"/><path d="M43.41,110.56c-1.84,.27-2.93-1.89-3.91-3.09-.83-1.02-2-2.8-3.4-3.13-1.24-.3-2.39,1.02-2.24,2.21,.12,.96,1.02,1.46,1.68,2.07,.89,.82,1.43,1.83,1.81,2.98l.95-.95c-2.94-.78-5.91-1.61-8.71-2.81-1.94-.83-3.91-2.36-6.14-1.69-.87,.26-1.87,.93-1.66,1.97,.18,.88,1.15,1.44,1.86,1.83,2.8,1.57,5.95,2.69,8.99,3.68l.41-1.49c-3.49-.7-6.98-1.4-10.46-2.1-1.09-.22-2.6-.91-3.64-.29-.72,.43-1.21,1.29-.91,2.12,.28,.77,1.16,1.12,1.86,1.39,1.38,.54,2.85,.85,4.28,1.24,2.2,.6,4.37,1.28,6.49,2.11l.21-1.52c-2.73,0-5.39-.27-8.08-.65-1.57-.23-4.22-.58-4.41,1.67-.18,2.13,2.2,2.52,3.8,2.62,2.84,.18,5.68,.35,8.52,.56l-.21-1.52c-1.73,.35-3.45,.74-5.15,1.21-.94,.26-2.38,.56-2.93,1.49-.48,.81-.04,1.83,.68,2.33s1.6,.44,2.42,.32c3.04-.46,5.97-1.54,9.05-1.81,1.48-.13,2.97-.02,4.45-.15,1.67-.15,3.32-.47,4.93-.94,.95-.28,.55-1.77-.41-1.49-2.46,.72-4.9,.92-7.45,.96-2.34,.03-4.62,.52-6.89,1.03-.32,.07-5.57,1.55-5.44,.52,.06-.48,2.57-.93,2.94-1.03,1.4-.36,2.8-.68,4.22-.96,.9-.18,.62-1.46-.21-1.52-2.05-.15-4.11-.3-6.16-.42-.83-.05-1.66-.09-2.48-.14-.39-.03-3.03-.32-1.9-1.29,.45-.39,1.93,0,2.42,.06,.81,.12,1.61,.25,2.42,.35,1.95,.24,3.91,.34,5.87,.33,.92,0,.98-1.21,.21-1.52-3.42-1.33-7.01-1.99-10.45-3.22-.17-.06-.98-.26-1.05-.48-.2-.64,1.22-.16,1.38-.13,1.3,.26,2.6,.52,3.89,.78,2.6,.52,5.19,1.04,7.79,1.56,.97,.19,1.36-1.18,.41-1.49-2.44-.79-4.85-1.7-7.17-2.79-.39-.18-2.63-1.16-2.5-1.55,.12-.34,1.43-.29,1.72-.24,.56,.09,1.08,.32,1.58,.57,3.58,1.79,7.34,2.98,11.2,4.01,.55,.15,1.14-.38,.95-.95-.55-1.68-1.39-2.95-2.71-4.1-.27-.23-1.24-1.04-.34-1.27-.16,.04,.03,.03-.03,.02,.44,.05,1,.82,1.27,1.11,1.96,2.08,3.44,5.6,6.8,5.1,.98-.14,.56-1.63-.41-1.49h0Z"/><path d="M188.41,65.25c1.16-1.58,3.25-3.55,3.26-5.65,0-1.75-1.35-3.49-2.43-4.74-1.32-1.53-3.38-2.54-3.79-4.68s.6-4.5,1.67-6.36l-.87,.35c2.69,.8,4.89,2.5,6.96,4.34,2.3,2.04,4.55,4.15,6.82,6.23,.54,.49,1.08,.99,1.62,1.48,.42,.39,1.53,1.06,1.45,1.7-.07,.53-.99,1.36-1.3,1.8-.48,.67-.97,1.33-1.45,2-1.88,2.6-3.76,5.21-5.65,7.81-.58,.81,.76,1.58,1.33,.78,2.12-2.94,4.25-5.87,6.37-8.81,.58-.8,1.16-1.6,1.74-2.4,.3-.41,.82-.94,.81-1.49-.01-.63-.72-1.11-1.13-1.48-.66-.6-1.32-1.21-1.98-1.81-2.56-2.34-5.09-4.73-7.69-7.03-2.22-1.97-4.61-3.74-7.49-4.6-.32-.1-.71,.06-.87,.35-1.73,3.03-3.11,7.22-.49,10.17,1.43,1.62,3.09,2.71,4.2,4.64,.76,1.34,.73,2.26-.14,3.53-.72,1.05-1.51,2.06-2.26,3.09-.59,.8,.75,1.57,1.33,.78h0Z"/><path class="cls-3" d="M108,73.21c4.76,5.78,4.27,13,4.11,15.56-.22,3.53-.54,8.92-4.58,11.92-5.58,4.15-13.67,.38-14.64-.07-5.98-2.79-8.68-7.94-9.69-9.98-2.68-5.39-5.83-16.87,.39-22.39,6.25-5.55,18.62-2.08,24.41,4.96Z"/><path d="M116.93,98.66c1,4.7,1.77,9.44,2.32,14.22l.98-.74c-4.86-1.05-9.46-3.05-14.37-3.87-.97-.16-1.39,1.32-.41,1.49,4.91,.83,9.51,2.82,14.37,3.87,.44,.09,1.04-.21,.98-.74-.56-4.91-1.35-9.79-2.37-14.63-.21-.97-1.69-.56-1.49,.41h0Z"/><path d="M147.02,235.03c-.04,1.97-.59,4.75,.57,6.51,1.08,1.65,3.76,2.38,5.57,2.7,2.07,.37,4.08,.2,5.49,2.04,1.18,1.55,1.62,3.61,1.79,5.51l.57-.74c-2.86,.96-5.84,.77-8.79,.43-3.11-.37-6.21-.79-9.31-1.18-.75-.1-1.5-.19-2.24-.29-.22-.03-.88-.21-1.12-.14-.41,.12-.26,.36-.28-.2-.07-1.56,.04-3.15,.05-4.72,.04-3.22,.07-6.44,.11-9.66,.01-.99-1.53-.99-1.54,0-.04,3.59-.08,7.19-.12,10.78-.01,.9-.02,1.8-.03,2.7,0,.59-.16,1.36,.1,1.91,.48,1.01,2.37,.82,3.29,.94,3.56,.45,7.13,.93,10.69,1.36,3.22,.39,6.49,.62,9.62-.43,.3-.1,.6-.4,.57-.74-.3-3.22-1.37-7.2-4.75-8.45-.94-.35-1.93-.38-2.92-.49-1.24-.14-2.46-.46-3.6-.96-1.39-.61-2.19-1.31-2.21-2.91-.02-1.31,.04-2.64,.06-3.95,.02-.99-1.53-.99-1.54,0h0Z"/><path d="M116.45,99.32c3.22-.58,5.39-3.14,6.98-5.82,2.1-3.53,3.77-7.32,5.72-10.93,4.22-7.79,8.84-15.37,13.83-22.7,2.84-4.17,5.8-8.26,8.87-12.26l-1.06,.28c2.76,2.03,5.51,4.05,8.27,6.08l-.28-1.06c-4.15,7.44-8.3,14.87-12.45,22.31-2.72,4.87-5.26,9.85-7.91,14.77-1.57,2.92-3.09,5.87-4.69,8.77-.48,.87,.85,1.65,1.33,.78,2.83-5.12,5.55-10.31,8.29-15.48,3.13-5.91,6.37-11.75,9.63-17.59,2.38-4.26,4.75-8.52,7.13-12.78,.22-.39,.07-.8-.28-1.06-2.76-2.03-5.51-4.05-8.27-6.08-.36-.27-.83-.02-1.06,.28-10.37,13.53-19.36,28.02-27,43.25-1.61,3.2-3.61,7.05-7.48,7.75-.98,.18-.56,1.66,.41,1.49h0Z"/><path d="M152.83,48.17c2.18-2.5,.08-5.63-.62-8.32-.11-.43-.44-1.24-.29-1.7,.04-.11-.02-.12,.04-.17,.69-.54,.78,.78,.81,.99,.25,1.78,.88,3.18,2.02,4.59,.39,.48,1.13,.16,1.29-.34,1.24-3.89,2.17-7.71,2.67-11.75,.1-.79,.43-2.44,1.37-2.66,.3-.07,0-.29,.22,.04,.1,.15,.04,.54,.04,.71,0,.56-.06,1.11-.13,1.67-.32,2.69-.89,5.36-1.58,7.98-.26,.98,1.14,1.32,1.49,.41,.96-2.47,1.92-4.93,2.88-7.4,.48-1.23,.96-2.47,1.44-3.7,.06-.16,.35-1.58,.84-1.04,.15,.16-.12,.93-.17,1.13-.83,3.56-2.19,6.95-2.92,10.54-.17,.85,.93,1.35,1.41,.59,1.03-1.61,1.98-3.26,2.82-4.98,.33-.68,.63-1.38,.95-2.07,.23-.51,.68-1.98,1.26-2.26,.26-.29,.44-.2,.53,.29,.3,.24,.35,.5,.18,.8-.09,.42-.39,.85-.59,1.22-.39,.7-.78,1.39-1.17,2.08-1,1.8-1.98,3.61-2.96,5.42-.41,.75,.59,1.58,1.21,.94,.93-.96,1.88-1.91,2.86-2.82,.3-.28,2.15-2.32,2.63-2.09,.95,.45-3.23,4.16-3.55,4.48-1.6,1.59-3.16,3.19-4.41,5.08-1.41,2.13-2.9,4.07-4.84,5.76-.75,.65,.34,1.74,1.09,1.09,1.24-1.08,2.37-2.26,3.37-3.56s1.7-2.61,2.66-3.83c1.92-2.43,4.44-4.29,6.42-6.66,.55-.66,1.02-1.41,.89-2.31-.12-.82-.72-1.59-1.6-1.6-1.02-.02-1.97,.93-2.67,1.55-1.38,1.21-2.68,2.51-3.95,3.83l1.21,.94c1.31-2.41,2.63-4.82,3.97-7.21,.83-1.47,1.99-3.93-.14-4.9-2.02-.92-3.08,1.56-3.73,2.99-1.1,2.45-2.31,4.8-3.76,7.06l1.41,.59c.42-2.09,.97-4.14,1.59-6.18,.46-1.51,1.03-3,1.37-4.54,.16-.75,.37-1.73-.11-2.41-.51-.71-1.47-.81-2.22-.46-1.16,.53-1.38,2.2-1.81,3.28-1.29,3.32-2.58,6.63-3.87,9.95l1.49,.41c.81-3.1,1.56-6.35,1.74-9.56,.05-.86,.1-2.13-.73-2.68-.88-.59-1.99,.07-2.63,.72-1.5,1.53-1.29,3.84-1.62,5.8-.51,3.03-1.4,6-2.34,8.92l1.29-.34c-.86-1.05-1.38-2.15-1.57-3.49-.11-.79-.13-1.62-.8-2.16-.92-.74-2.61-.47-3.04,.71-.45,1.25,.3,3.02,.67,4.18,.5,1.59,1.91,3.87,.6,5.38-.65,.75,.44,1.84,1.09,1.09h0Z"/></g><g><path d="M84.24,63.71c-4.71,1.96-7.2,1.07-9.4,3.61-.36,.42-1.4,1.65-1.63,3.42-.19,1.42,.3,2.11,.47,3.56,.29,2.34-.67,2.99-1.07,5.57-.62,4.01,1.38,4.52,.82,8.42-.49,3.39-1.97,3.56-1.73,5.72,.3,2.77,3.78,4.04,4.88,6.59,.68,1.58,.39,3.53,1.35,4.96,1.04,1.55,3.22,1.98,4.32,3.49,1.04,1.42,.92,3.54,2.21,4.74,.53,.49,.76,.94,1.29,1.28,1.75,1.12,3.7,.36,6.43-.06,4.39-.67,4.28,.53,7.07-.24,.77-.21,5.96-1.71,6.73-5.91,.61-3.33-1.99-6.09-2.39-6.5-1.16,.29-2.89,.57-4.96,.38-3.96-.36-6.61-2.33-8.24-3.36-2.13-1.34-5.85-4.2-7.17-8.93-.65-2.33-.21-5.1,.69-10.53,1.12-6.71,1.71-10.09,3.54-11.05,1.8-.95,2.67,.3,9.83,.64,3.74,.18,4.09-.15,5.62,.37,3.63,1.22,5.6,4.38,6.65,6.08,2.75,4.42,2.85,8.86,2.87,10.06,.02,2.17-.33,5.31-.37,5.62-.36,3.12-.68,3.68-.32,4.91,.37,1.25,1.57,2.34,3.94,4.49,3.18,2.89,4.11,3.09,4.73,3.13,1.88,.12,3.41-1.03,3.6-1.17,1.28-.99,1.04-1.76,2.29-2.67,1.36-.99,2.13-.42,3.6-1.17,1.65-.84,3.22-2.85,3.13-4.73-.09-1.75-1.51-1.54-3.89-5.19-1.55-2.38-1.84-3.84-3.45-4.49-.43-.17-1.11-.35-1.85-.98-.81-.69-1.18-1.49-1.33-1.82-.78-1.66-1.93-3.13-2.73-4.78-1.55-3.17-3.39-3.15-6.82-7.22-4.05-4.81-3.25-6.93-6.65-9.01-2.08-1.28-4.09-1.54-6.23-1.82-1.42-.19-5.09-.63-9.22,.81-3.51,1.22-2.73,2.19-6.59,3.8Z"/><path class="cls-8" d="M84,62.82c-2.43,.98-5.1,1.15-7.49,2.17-1.85,.79-3.27,2.48-3.92,4.37-.47,1.38-.33,2.65-.01,4.04,.34,1.49,.17,2.62-.3,4.05-.87,2.6-.76,4.83,0,7.41,.39,1.33,.43,2.63,.12,3.99-.24,1.09-.78,1.94-1.23,2.93-.92,2.03-.11,4.03,1.34,5.58,.83,.89,1.84,1.62,2.59,2.58,.98,1.24,.96,2.69,1.28,4.17,.26,1.21,.82,2.24,1.78,3.03,1.11,.91,2.68,1.4,3.47,2.66,.69,1.1,.76,2.49,1.39,3.63,.6,1.06,1.72,2.24,2.84,2.73,2.65,1.17,5.84-.41,8.58-.45,1.76-.03,3.29,.42,5.04-.06,1.46-.4,2.9-1.04,4.13-1.92,1.77-1.26,3.12-3.04,3.33-5.26,.23-2.34-.85-4.71-2.4-6.42-.67-.74-1.17-.57-2.11-.4-1.72,.31-3.54,.3-5.25-.07-2.49-.54-4.61-1.85-6.71-3.24-4.02-2.66-6.98-6.75-6.62-11.72,.22-3.07,.84-6.12,1.37-9.15,.38-2.2,.62-4.91,1.78-6.89,.56-.95,1.32-1.24,2.36-1.12,2.04,.23,4.03,.68,6.09,.84,1.47,.12,2.94,.17,4.41,.17,.74,0,1.49-.05,2.22,.11,2.6,.6,4.6,2.69,6.02,4.83,1.61,2.43,2.74,5.09,3.17,7.98,.34,2.29,.18,4.62-.04,6.92-.17,1.84-.79,3.82-.58,5.67,.25,2.18,2.14,3.68,3.65,5.07s3.21,3.25,5.21,3.87c1.64,.5,3.59-.16,4.92-1.15,1.07-.8,1.49-2.27,2.65-2.9,.61-.34,1.28-.32,1.95-.47s1.33-.45,1.91-.84c1.84-1.25,3.67-3.9,2.76-6.21-.25-.63-.73-1.09-1.21-1.55-.98-.93-1.84-1.92-2.59-3.05s-1.3-2.46-2.16-3.54c-.77-.97-1.73-1.18-2.75-1.76-1.34-.76-1.78-2.22-2.51-3.47-.8-1.36-1.55-2.76-2.38-4.1-1.19-1.94-3.15-3.13-4.75-4.68-2.12-2.05-3.72-4.43-5.08-7.03-1.04-1.98-2.31-3.49-4.35-4.49-2.34-1.16-5.09-1.51-7.67-1.66-3.01-.17-6.17,.27-8.93,1.52-.85,.39-1.57,.9-2.29,1.48-1,.8-2.06,1.39-3.24,1.9-1.08,.47-.15,2.05,.93,1.59,1.46-.63,2.63-1.44,3.87-2.39,1.42-1.1,3.21-1.63,4.96-1.97,3.38-.66,7.64-.45,10.86,.85,1.46,.59,2.76,1.51,3.6,2.85,.75,1.2,1.31,2.51,2.06,3.71,1.09,1.74,2.4,3.37,3.87,4.81,1.09,1.07,2.34,1.95,3.43,3.01,1.19,1.16,1.8,2.69,2.65,4.09,.91,1.49,1.62,3.38,2.84,4.64s2.91,1.32,3.85,2.82c1.04,1.66,1.91,3.38,3.21,4.88,.59,.67,1.73,1.36,2.09,2.19,.71,1.62-1.28,3.72-2.58,4.36-.8,.39-1.7,.33-2.53,.62s-1.59,.87-2.13,1.58c-.97,1.28-1.61,2.26-3.28,2.61-1.02,.21-1.46,.08-2.37-.51-1.59-1.03-2.98-2.41-4.35-3.71-.87-.82-2.03-1.77-2.23-3.02s.27-2.78,.42-4.06c.32-2.68,.57-5.42,.25-8.11-.43-3.57-1.78-6.89-3.86-9.82-1.72-2.42-4.18-4.72-7.22-5.2-1.16-.18-2.36-.07-3.52-.1-1.99-.05-3.98-.18-5.94-.47-1.63-.24-3.52-.93-5.13-.32-2.03,.76-2.73,3.06-3.2,4.97-.95,3.85-1.53,7.86-2.05,11.79-.4,3-.36,5.69,.98,8.47s3.66,5.09,6.23,6.81,5.46,3.35,8.72,3.73c1.89,.22,3.79,.07,5.64-.37l-.9-.24c1.92,1.99,3.06,5.06,1.36,7.54-1.17,1.7-3.24,2.74-5.19,3.3-.91,.26-1.72,.29-2.64,.18-1.38-.18-2.69-.16-4.07,.03-1.73,.24-3.98,1.15-5.69,.46s-2.32-2.68-2.87-4.29-1.48-2.57-2.87-3.44c-.67-.42-1.43-.79-1.97-1.37-.68-.75-.83-1.74-.98-2.7-.24-1.6-.63-2.93-1.7-4.18-.99-1.16-2.37-2.03-3.2-3.33-.76-1.18-.51-2.18,.09-3.32,.7-1.32,1.1-2.71,1.23-4.2s-.23-2.78-.65-4.17c-.51-1.71-.4-3.39,.13-5.1s.92-3.14,.57-4.96c-.2-1.06-.51-1.96-.26-3.05,.19-.82,.6-1.59,1.13-2.24,.93-1.15,2.11-1.64,3.51-1.97,1.92-.45,3.8-.85,5.64-1.59,1.08-.44,.61-2.22-.49-1.77Z"/></g></g><g><path class="cls-8" d="M156.8,222.7c-.15,1.96,.54,2.06,1.72,8.23,1.31,6.8,1.07,9.6,2.19,9.85,1.29,.29,2.19-3.27,6.62-8.12,3.29-3.6,4.26-3.29,5.61-5.4,3.39-5.31,2.08-14.95-2.18-16.72-4.68-1.94-13.44,5.4-13.97,12.17Z"/><path d="M163.08,230.63c-1.48,4.36-1.93,7.26-2.05,7.23-.13-.03,.16-3.38,1.46-7.24,1.32-3.92,3.16-6.82,3.27-6.76,.11,.05-1.24,2.54-2.68,6.77Z"/></g><g><path class="cls-8" d="M68.75,39.65c.7,2.31-.1,2.61,.1,10.34,.22,8.52,1.24,11.81-.04,12.4-1.48,.68-3.49-3.35-10.09-8.02-4.9-3.46-5.98-2.83-8.16-5.01-5.47-5.48-6.44-17.41-1.78-20.66,5.11-3.56,17.57,2.95,19.98,10.95Z"/><path d="M63.29,50.83c2.92,4.84,4.23,8.21,4.37,8.15,.15-.07-1.08-4.02-3.66-8.31-2.61-4.37-5.59-7.36-5.71-7.26-.11,.09,2.16,2.72,5,7.43Z"/></g><g><path class="cls-6" d="M40.03,60.14c3.33,.61,3.19,1.79,12.94,6.47,10.75,5.16,15.5,5.98,15.42,7.96-.09,2.28-6.4,2.21-16.42,7.46-7.43,3.9-7.34,5.65-11.44,6.97-10.32,3.32-25.79-3.08-26.87-10.95-1.18-8.63,14.88-20.01,26.37-17.91Z"/><path class="cls-8" d="M50.48,74.07c7.9-.56,12.92-.04,12.94-.25,.01-.22-5.7-1.21-12.69-.75-7.1,.47-12.73,2.27-12.69,2.49,.04,.2,4.76-.95,12.44-1.49Z"/></g><path d="M203.7,32.24c4.48,1.63,8.81,3.63,12.96,5.98,3.7,2.1,7.82,4.41,10.39,7.91,5.5,7.48,.71,17.97-2.78,25.25-2.32,4.84-5.05,9.47-8.13,13.86-1.11,1.58,1.49,3.08,2.59,1.51,2.96-4.2,5.59-8.63,7.84-13.25s4.23-9.09,5.27-13.92c.99-4.56,1-9.47-1.34-13.64s-6.44-6.81-10.38-9.18c-4.95-2.98-10.2-5.45-15.63-7.42-1.82-.66-2.6,2.24-.8,2.89h0Z"/><path d="M44.91,125.11c-6.92,3.58-13.85,7.16-20.77,10.74-1.72,.89-.2,3.48,1.51,2.59,6.92-3.58,13.85-7.16,20.77-10.74,1.72-.89,.2-3.48-1.51-2.59h0Z"/><path d="M31.77,125.19c-5.24,.16-10.39,1.88-14.62,4.98-.65,.48-.98,1.3-.54,2.05,.38,.64,1.4,1.02,2.05,.54,3.82-2.8,8.37-4.43,13.11-4.57,1.93-.06,1.93-3.06,0-3h0Z"/><path d="M140.17,21.9c1.46,7.37,2.93,14.74,4.39,22.11,.38,1.89,3.27,1.09,2.89-.8-1.46-7.37-2.93-14.74-4.39-22.11-.38-1.89-3.27-1.09-2.89,.8h0Z"/><path d="M147.53,15.64c1.49,4.85,2.21,9.86,2.14,14.93-.03,1.93,2.97,1.93,3,0,.07-5.32-.69-10.64-2.25-15.72-.56-1.84-3.46-1.06-2.89,.8h0Z"/><path d="M201.88,44.62c3.51,1.28,6.86,2.93,10.02,4.92,2.86,1.8,5.46,4.02,5.6,7.64,.13,3.42-1.26,6.8-2.65,9.85-1.55,3.41-3.43,6.66-5.58,9.73-1.11,1.58,1.49,3.09,2.59,1.51,2.41-3.44,4.47-7.11,6.12-10.97,1.52-3.55,2.93-7.41,2.4-11.33s-3.24-6.61-6.44-8.69c-3.52-2.29-7.33-4.12-11.27-5.56-1.82-.66-2.6,2.23-.8,2.89h0Z"/><g><path class="cls-6" d="M177.75,256.44c-1.36-.6-1.6-.13-6.3-.83-5.18-.77-7.11-1.64-7.57-.9-.53,.85,1.78,2.38,4.13,6.76,1.74,3.25,1.28,3.86,2.45,5.35,2.93,3.75,10.14,5.23,12.47,2.63,2.55-2.85-.49-10.94-5.18-13.01Z"/><path class="cls-8" d="M170.52,258.93c-2.74-2.15-4.69-3.2-4.64-3.27,.05-.08,2.37,.96,4.8,2.85,2.47,1.92,4.07,3.96,4,4.03-.06,.06-1.5-1.52-4.16-3.6Z"/></g><g><path d="M170.64,236.02c-.91,.77-.66,1.1-2.82,4.23-2.38,3.45-3.69,4.53-3.32,5.12,.42,.68,2.34-.44,6.31-.59,2.95-.11,3.23,.44,4.71,.13,3.73-.79,7.33-5.44,6.29-8.02-1.15-2.84-8.03-3.51-11.17-.87Z"/><path class="cls-8" d="M169.88,242.09c-2.51,1.21-3.95,2.24-3.99,2.18-.04-.07,1.53-1.36,3.74-2.44,2.25-1.09,4.28-1.53,4.3-1.45,.02,.07-1.62,.54-4.06,1.71Z"/></g></g></g></g></g></svg>