<svg xmlns="http://www.w3.org/2000/svg" viewBox="0 0 953.77 460.01">
  <path fill="#a67153" stroke="#000" stroke-miterlimit="10" stroke-width="2.77" d="M1.38 379.63h951v79h-951z"/>
  <path d="M212.19 238.99c.27.83.47 1.65-.06 2.39-.22.31-.5.59-.77.85-.11.1-.22.2-.34.3-.06.05-.34.27-.08.07-.53.4-.51 1.22.19 1.44 1.88.59 3.87.85 5.83.61 2.19-.28 4.18-1.22 5.88-2.61.93-.77 2.39-2.06 2.4-3.39 0-.73-.5-1-1.09-1.24-.95-.4-1.55-1.35-2-2.24-.24-.47-.89-.49-1.24-.16-2.16 2.01-5.01 3.05-7.96 2.98-1.02-.02-1.01 1.55 0 1.58 3.36.08 6.61-1.16 9.07-3.45l-1.24-.16c.38.75.89 1.52 1.51 2.09.35.33.74.58 1.18.77.11.04.25.13.36.14.13.06.13.04-.01-.05a.276.276 0 0 1-.15-.17c-.15-.11.1-.16-.03-.08-.02.02-.06.16-.08.21-.11.22-.26.44-.41.63-.45.58-1.01 1.09-1.58 1.54-2.92 2.28-6.57 2.57-10.02 1.48l.19 1.44c.7-.54 1.36-1.16 1.84-1.91.68-1.07.5-2.32.13-3.48-.31-.96-1.83-.55-1.52.42Zm-33.29 54.27c3.11-1.28 6.25-2.45 9.44-3.51s6.23-2.1 9.17-3.61c2.98-1.54 5.32-3.78 6.7-6.87 1.48-3.31 2.46-6.84 3.55-10.29 1.17-3.71 2.15-7.45 3.66-11.06.39-.93-1.13-1.34-1.52-.42-1.57 3.74-2.56 7.62-3.79 11.46-.73 2.26-1.39 4.55-2.19 6.8-.76 2.13-1.6 4.28-3.12 5.99-2.72 3.05-7.07 4.52-10.83 5.79-3.87 1.3-7.71 2.63-11.48 4.19-.92.38-.52 1.91.42 1.52Z"/>
  <path d="M210.69 242.71c-3.07 2.54-6.18 5.13-8.35 8.52-2.2 3.44-3.35 7.39-4.45 11.28-1.81 6.39-3.94 13.51-10.14 16.97-4.23 2.36-9 3.54-13.23 5.92-.88.5-.09 1.86.8 1.36 3.81-2.15 8.01-3.39 11.94-5.27 3.04-1.45 5.52-3.64 7.36-6.46 4.06-6.23 4.52-13.89 7.69-20.5 2.15-4.48 5.74-7.61 9.5-10.72.78-.65-.34-1.76-1.12-1.12Zm49.1-44.43c-.5 3.5-1.1 6.99-1.73 10.46-.65 3.6-1.32 7.25-2.6 10.69-2.43 6.53-7.1 12.04-11.68 17.18-2.77 3.11-5.78 5.98-8.98 8.64-.78.65.34 1.76 1.12 1.12 5.58-4.62 10.45-9.98 14.85-15.72 2.12-2.77 4.04-5.69 5.44-8.89 1.48-3.38 2.3-6.95 2.99-10.56.8-4.15 1.51-8.32 2.11-12.5.14-.99-1.38-1.42-1.52-.42Z"/>
  <path d="M224.8 239.1c5.72-3.76 11.16-7.89 16.12-12.61 3.22-3.06 6.52-6.36 8.87-10.15 1.63-2.63 2.45-5.67 3.12-8.66 1.12-4.98 2.22-9.96 3.43-14.92l-1.32.35c1.66 1.98 3.32 3.97 4.98 5.95.65.78 1.76-.34 1.12-1.12-1.66-1.98-3.32-3.97-4.98-5.95-.38-.46-1.19-.2-1.32.35-1.1 4.5-2.17 9-3.13 13.53-.56 2.63-1.12 5.36-2.25 7.81-1.91 4.14-5.46 7.63-8.68 10.78-2.15 2.1-4.4 4.13-6.73 6.03-3.2 2.6-6.57 4.99-10.02 7.25-.85.55-.06 1.92.8 1.36Zm7.82 5.66c2.3 1.81 3.15 4.45 2.95 7.31-.08 1.19-.1 2.38-.08 3.58.1 5.28.61 10.56 1.12 15.82.1 1 1.67 1.01 1.58 0-.53-5.45-1.08-10.93-1.13-16.41-.01-1.22.1-2.42.12-3.64.06-3.02-1.05-5.89-3.45-7.78-.79-.62-1.91.49-1.12 1.12Zm-22.67 13.14c.99 5.11 1.22 10.34.71 15.52-.1 1.01 1.48 1 1.58 0 .52-5.33.25-10.69-.77-15.94-.19-1-1.71-.57-1.52.42Z"/>
  <g stroke-miterlimit="10" stroke-width=".53">
    <path d="M225.29 223.04c2.04 2.66.2 8.27-2.9 11.59-.72.78-2.65 2.84-5.78 3.54-7.33 1.64-14.86-5.43-14.77-9.29.04-1.65 2.34-2.2 2.57-4.74.2-2.13-1.11-3.24-.4-4.34.75-1.16 2.42-.22 4.1-1.36 2.36-1.6 1.5-5.1 3.06-5.54 1.36-.38 2.1 2.26 4.82 2.9 3.02.71 5.45-1.76 6.26-.88.8.87-1.59 3.14-.73 5.3.68 1.68 2.55 1.22 3.77 2.81Z" fill="none" stroke="#000"/>
    <path d="M236.98 214.5c.3 2.35-1.3 3.1-2.58 7.47-.25.85-.39 1.48-.49 1.99-.37 1.91-.27 2.33-.64 3.07-.45.92-1.1 1.17-2.29 2.02-1.12.79-1.29 1.09-2.2 1.99 0 0-.41.42-1.47 1.36-1.5 1.33-4.59 3.6-4.93 3.24-.15-.16.25-.8 1-2 .36-.58.39-.56.57-.86.52-.89.54-1.62.85-3.13.3-1.5.45-2.24.46-2.44.11-1.43.22-2.82-.53-3.89-1.08-1.55-2.94-.94-3.58-2.45-.36-.85-.15-1.9-.07-2.29.07-.36.15-.53.61-1.91.47-1.4.48-1.48.42-1.56-.44-.62-2.92 1.72-5.69 1.33-2.93-.42-4.46-3.64-5.49-3.06-.27.15-.19.39-.61 1.91-.48 1.72-.73 2.6-1.38 3.28-.8.85-1.82 1.1-1.99 1.14-1.28.3-1.83-.28-2.29.07-.85.66.93 2.75.3 5.11-.61 2.25-2.74 2.3-2.83 4.27-.06 1.29.79 2.47 1.6 3.59.63.88 1.26 1.46 1.68 1.83 1.18 1.07 2.37 1.76 2.9 2.07l1.37.77 1.37.77c1.19.65 1.38.71 1.37.77-.04.17-2.02-.07-8.94-1.41 0 0-8.8-1.93-10.44-4.91-.2-.37-.53-1.07-1.2-2.09-1.62-2.45-2.63-2.73-3.37-3.94-1.4-2.27.83-3.42.57-8.67-.15-3.1-1.03-4.7-.15-7.47.18-.56.45-1.41 1.13-2.33 1.18-1.6 2.34-1.72 3.7-2.97 1.63-1.49 1.54-2.76 2.41-4.01 1.08-1.55 3.64-3.07 10.28-2.56.96-.82 3.04-2.38 6.11-2.89 1.31-.22 4.48-.74 7.07.97 1.59 1.05 1.42 1.93 3.05 2.65 1.71.76 2.57.09 4.9.49 1.14.2 3.2.55 4.58 1.93 2.07 2.08.45 4.33 2.48 8.6 1.25 2.64 2.18 2.42 2.41 4.18Z" stroke="#ff7556"/>
    <path d="M204.2 202.27c-1.02-.1-2.15-.18-2.96.44-.28.21-.5.49-.71.77a17.17 17.17 0 0 0-2.13 3.84c-.21.52-.4 1.08-.79 1.48-.74.76-1.94.77-2.91 1.21-.62.28-1.14.75-1.63 1.23-1.02 1-1.97 2.16-2.31 3.54m16.36-3.14c-.07 1.18-1.09 2.08-2.14 2.63-.58.31-1.2.56-1.83.74-.63.18-1.28.31-1.87.6-.77.38-1.37 1.02-1.95 1.64-.47.5-.96 1.05-.99 1.73-.02.37.1.73.22 1.09.27.81.55 1.63.82 2.44.18.52.35 1.05.32 1.6s-.34 1.11-.86 1.29m15.19-15.44c.24 1.22 1.3 2.15 2.48 2.53s2.46.3 3.68.08c1.46-.26 2.97-.69 4.39-.24.15.05.29.11.4.22.14.15.18.37.22.57.22 1.34.45 2.68.67 4.02.06.35.12.7.28 1.01.43.84 1.44 1.17 2.35 1.42m-17.16-15.07c.76-.81 1.74-1.47 2.84-1.65s2.32.18 3.01 1.06c.25.32.43.7.73.97.61.54 1.54.48 2.36.44 1.33-.06 2.67.02 3.98.26.52.09 1.04.22 1.47.52.59.42.91 1.13 1.2 1.8m-33.97 11.27c.02 1.91-2.25 3.15-2.49 5.04-.09.68.1 1.37.35 2.02.26.67.59 1.32 1.11 1.81.71.67 1.7.95 2.51 1.5.23.15.45.34.57.59.24.51-.01 1.1-.06 1.65-.12 1.32 1.11 2.59 2.43 2.5m33.59-21.16c.82-.18 1.71.02 2.38.53s1.11 1.31 1.17 2.14c.18 2.49-2.71 4.34-2.71 6.84 0 1.03.5 2.02.42 3.04m-24.2-23.14c.26-1.86 1.99-3.39 3.86-3.43 1.34-.03 2.6.61 3.69 1.38.52.37 1.04.78 1.67.9.76.14 1.54-.19 2.32-.12m-12.48 5.72c-.94-.19-1.94.09-2.72.66s-1.33 1.4-1.67 2.3c-.14.36-.24.76-.14 1.14.02.07.05.15.02.22-.03.06-.08.09-.14.12m23.15-8.78c1.13.29 2.25.61 3.33 1.04.72.28 1.43.62 2 1.14s.99 1.25.99 2.02c0 .5-.15 1.08.21 1.43" fill="none" stroke="#ff7556"/>
  </g>
  <path d="M210.24 273.36c-3.27 10.46-5.62 21.08-7.55 31.86-.89 4.96-2.53 9.32-5.84 13.17-2.92 3.39-6.5 6.14-10.14 8.72-4.97 3.52-10.03 6.89-15.09 10.28-.48.32-.54 1.06 0 1.36 3.79 2.15 7.14 4.9 9.99 8.2.18.21.51.27.77.2 9.12-2.25 15.02-10.11 21.94-15.84 3.92-3.25 8.54-5.44 11.57-9.67 3.17-4.42 4.93-9.92 6.47-15.08 1.86-6.23 3.08-12.64 3.71-19.11.1-1.01-1.48-1-1.58 0-.55 5.63-1.57 11.2-3.07 16.66-1.4 5.1-3.04 10.41-5.75 14.99-1.38 2.33-3.14 4.34-5.32 5.95-1.93 1.44-4 2.67-5.91 4.15-3.49 2.71-6.56 5.9-9.84 8.86-3.69 3.33-7.73 6.36-12.64 7.57l.77.2a39.064 39.064 0 0 0-10.31-8.45v1.36c4.67-3.14 9.35-6.27 13.96-9.49 3.71-2.59 7.42-5.29 10.54-8.6s5.52-7.3 6.63-11.83c1.33-5.4 2-10.96 3.21-16.39 1.4-6.29 3.08-12.51 5-18.66.3-.97-1.22-1.39-1.52-.42Z"/>
  <path d="M237.03 271.68c1.14 24.38.35 48.84-2.37 73.1a464.33 464.33 0 0 1-2.81 20.72l.76-.58c-4.89.44-9.79.42-14.67-.04l.79.79c1.82-16.68 4.08-33.39 4.88-50.15.23-4.8.3-9.6.16-14.4-.03-1.01-1.61-1.02-1.58 0 .47 16.88-1.67 33.69-3.5 50.44-.51 4.71-1.03 9.41-1.54 14.12-.05.45.4.75.79.79a79 79 0 0 0 14.67.04c.32-.03.7-.22.76-.58a463.38 463.38 0 0 0 5.75-73.37c-.01-6.96-.19-13.92-.51-20.87-.05-1.01-1.62-1.02-1.58 0Zm-62.9 67.3c-2.75.4-5.51 1.13-8.12 2.08-1.15.42-2.03 1.03-2.01 2.37.03 1.72.46 3.5.69 5.21.07.52.77.7 1.16.47.96-.57 1.96-.94 3.06-1.16l-.89-1.16c-1.39 3.12-.86 6.46.44 9.51.65 1.53 1.38 3.25 2.41 4.56.67.85 1.76 1.41 2.76.74 1.08-.73 1.28-2.32 1.39-3.51.18-1.91.15-3.76.61-5.63.6-2.47 1.55-6.89 4.59-7.43 1-.18.57-1.7-.42-1.52-2.12.37-3.52 2.37-4.33 4.22-1.12 2.55-1.81 5.48-1.93 8.25-.03.73.15 4.24-.94 4.36-.46.05-1.06-1.37-1.22-1.66-.34-.63-.68-1.27-.99-1.92-1.37-2.81-2.35-6.16-1.01-9.17.28-.64-.18-1.3-.89-1.16-1.22.24-2.36.68-3.43 1.32l1.16.47c-.19-1.37-.38-2.74-.56-4.11-.12-.88.06-1.26.91-1.57.52-.19 1.05-.35 1.57-.52 2.1-.65 4.24-1.2 6.42-1.52 1-.14.58-1.66-.42-1.52Z"/>
  <path d="M220.99 366.33c.33 1.04-.15 1.93-.46 2.91s-.49 2-.62 3.02c-.28 2.2-.25 4.43-.21 6.64 0 .4.36.83.79.79l5.59-.48c.34-.03.68-.22.76-.58.36-1.58.48-3.18.34-4.79l-1.47.4c1.28 2.12 3.13 3.95 5.4 4.99 2.12.97 4.6 1.09 6.88.67 1.48-.27 3.07-.9 4.02-2.13.85-1.1.94-2.69-.39-3.46-.66-.38-1.47-.42-2.17-.71s-1.35-.7-1.97-1.12c-2.88-1.94-5.37-4.49-7.76-6.98-.7-.73-1.82.38-1.12 1.12 1.99 2.07 4.04 4.11 6.29 5.9 1.17.93 2.39 1.84 3.76 2.44.4.18.8.32 1.22.43s.88.11 1.08.55-.05.75-.36 1.07c-.52.56-1.29.89-2.01 1.12-1.77.54-3.98.62-5.77.08-2.44-.73-4.44-2.63-5.73-4.77-.38-.63-1.54-.42-1.47.4.13 1.48.04 2.93-.29 4.37l.76-.58-5.59.48.79.79c-.04-2.4-.1-4.83.29-7.2.32-1.9 1.54-3.84.94-5.79-.3-.97-1.82-.55-1.52.42Zm-9.65-91.58c4.18 1.06 8.46 1.36 12.73.74 4.57-.66 9.13-1.87 13.54-3.26.96-.3.55-1.83-.42-1.52-4.17 1.31-8.46 2.43-12.77 3.14s-8.5.43-12.66-.63c-.98-.25-1.4 1.27-.42 1.52Zm-36.86 11.86c.64 2.25 1.77 4.32 3.31 6.09.28.32.83.29 1.12 0 .32-.32.28-.79 0-1.12a14.052 14.052 0 0 1-2.9-5.39c-.12-.41-.56-.66-.97-.55s-.67.56-.55.97Zm36.42-3.97c2.99 2.04 7.49.43 8.68-2.93.14-.4-.16-.86-.55-.97-.44-.12-.83.15-.97.55-.86 2.44-4.26 3.42-6.36 1.99-.35-.24-.87-.07-1.08.28-.23.39-.07.84.28 1.08Zm20.69-4.69c.2 3.13 1.69 6.14 4.14 8.12.33.27.79.32 1.12 0 .28-.28.33-.85 0-1.12-2.13-1.72-3.51-4.26-3.68-7-.03-.43-.34-.79-.79-.79-.41 0-.82.36-.79.79Z"/>
  <path d="M177.9 292.1c-.63 1.03-.84 2.21-.83 3.4s.4 2.4.13 3.51c-.13.03-.1.07.07.13-.03-.16-.06-.32-.08-.48-.06-.37-.1-.73-.16-1.1-.09-.6-.11-1.25-.27-1.83-.12-.47-.41-.93-.91-1.07-.59-.16-1.09.19-1.53.54-.97.76-1.8 1.67-2.47 2.7-.62.96-.93 2.04-1.47 3.04-.13.24-.41.48-.5.71-.26.13-.22.22.1.29 0-.14.01-.28.04-.42.1-.56.37-1.07.65-1.55.56-.99 1.2-1.93 1.5-3.05.18-.68-.76-1.34-1.25-.73-1.14 1.4-2.16 2.94-3.03 4.52l-.16.18c.12.12.18.1.18-.07.12-.11.21-.4.31-.56.25-.38.52-.74.78-1.12l1.71-2.46c.36-.52-.24-1.32-.85-1.1-.67.24-1.05.71-1.41 1.31-.44.73-.91 1.4-1.5 2.01-.1.1-.46.3-.24.39.17.07.21-.18.3-.34.24-.38.53-.74.79-1.1.61-.85 1.23-1.7 1.84-2.55.57-.79-.72-1.51-1.3-.76-.27.36-2.14 3.06-2.43 2.84l.37.65c-.01-.3.74-1.13.93-1.41.34-.5.67-1.01 1.01-1.51.61-.89 1.23-1.77 1.93-2.58 1.57-1.81 3.49-2.89 5.63-3.9.87-.41.11-1.7-.76-1.3-1.78.84-3.5 1.72-4.94 3.08-1.34 1.27-2.41 2.81-3.44 4.34-.56.82-1.2 1.63-1.68 2.5-.43.76-.06 1.66.88 1.65.8 0 1.45-.58 1.92-1.17.64-.79 1.24-1.63 1.85-2.44l-1.3-.76c-.84 1.16-1.7 2.31-2.51 3.48-.53.77-.86 1.87.04 2.53.96.71 1.85-.26 2.45-.94.36-.4.69-.83.99-1.28.23-.35.51-1.15.94-1.31l-.85-1.1c-.83 1.19-1.68 2.37-2.48 3.57-.58.87-.93 2.25.27 2.82 1.13.53 1.93-.7 2.43-1.52.74-1.23 1.45-2.44 2.35-3.55l-1.25-.73c-.51 1.92-2.33 3.42-2.24 5.52.04 1.01.98 1.58 1.89 1.1s1.37-1.51 1.75-2.41c.42-1.02.9-1.99 1.6-2.85a9.6 9.6 0 0 1 1.13-1.17c.09-.08.6-.53.52-.52-.11.01 0-.05-.02.13s.05.39.08.55l.27 1.93c.08.53.11 1.09.55 1.45.66.54 1.65.3 2.14-.34.7-.92.3-2.3.22-3.34-.1-1.27-.12-2.57.57-3.7.51-.82-.79-1.58-1.3-.76Zm82.67-94.02c1.84-1.41 3.72-2.86 5.79-3.92 1.11-.57 3.01-.6 3.34-2.05.11-.47-.01-1.03-.35-1.39-.44-.46-1.01-.4-1.57-.3-.75.14-1.5.3-2.25.45 0 0-.55.15-.6.12.22.12.04.09.17-.13.2-.36.3-.81.48-1.18.69-1.38 1.67-2.39 2.78-3.42.78-.72 1.89-1.92 1.38-3.08-.6-1.36-2.28-.38-3.04.26-1.08.92-1.76 2.24-2.93 3.05l1.03 1.03c.77-1.26 1.69-2.36 2.62-3.5.63-.77 1.53-2.02.49-2.85-.92-.74-1.96-.11-2.57.69-.93 1.21-1.79 2.49-2.68 3.73l1.4.38c.02-.55.75-1.14 1.07-1.58.38-.53.72-1.1 1-1.69.4-.84.53-1.92-.57-2.26-.94-.3-1.62.39-2.12 1.09-.83 1.16-1.63 2.35-2.44 3.53l1.3.76c.54-.82 1.11-1.62 1.61-2.45.41-.69.79-1.64.35-2.42-1.07-1.9-2.97 1.58-3.51 2.31-2.26 3.02-3.79 6.38-4.88 9.99-.28.93 1.17 1.32 1.45.4.63-2.1 1.41-4.18 2.43-6.12.52-1 1.13-1.94 1.8-2.84.32-.43.64-.86.97-1.29.19-.25.38-.51.56-.76.11-.15.39-.71.55-.76l-.58-.08c.12.08-1.86 2.99-2.04 3.27-.53.81.75 1.54 1.3.76l1.48-2.14c.26-.38.52-.76.79-1.13.09-.13.25-.29.31-.44l.15-.15c-.14-.05-.23 0-.25.14-.23.23-.37.7-.55.98-.24.38-.51.74-.8 1.09-.46.57-.84 1.07-.87 1.83-.03.8 1 .94 1.4.38.54-.76 1.09-1.51 1.63-2.27.27-.38.54-.76.82-1.14.12-.16.26-.3.37-.46.25-.34-.21.21-.19.18-1.08 1.34-2.18 2.63-3.08 4.1-.38.62.4 1.46 1.03 1.03.87-.6 1.5-1.38 2.17-2.17.33-.39.66-.79 1.06-1.11.16-.13.42-.22.55-.37l.11-.05c.19-.05.17-.16-.06-.33.02 0-.17.43-.19.46-.59 1.04-1.79 1.73-2.55 2.65s-1.37 1.97-1.8 3.09c-.35.9-.66 2.26.64 2.52.56.11 1.21-.11 1.75-.22l.9-.18c.28-.06.92-.31 1.2-.24-.26-.06.2-.16-.15.03-.1.05-.18.11-.28.16-.15.08-.32.1-.48.14s-.31.07-.46.11c-.48.15-.95.37-1.4.6-2.05 1.06-3.91 2.49-5.73 3.89-.76.58 0 1.88.76 1.3ZM786.3 251.2c2.17.7 4.54.16 6.18-1.42l-1.28-.53c.04.51.3.99.57 1.42.49.81 1.13 1.55 1.82 2.19.82.76 1.75 1.43 2.67 2.07.53.37 1.14.8 1.81.81l-.53-1.28c-1.51 1.38-2.37 3.27-2.5 5.31-.06.96 1.44.96 1.5 0 .1-1.65.85-3.14 2.06-4.25.49-.45.1-1.28-.53-1.28-.08 0-.08 0 0 0-.05-.01-.1-.03-.15-.05.01 0-.14-.07-.17-.09-.28-.15-.54-.33-.8-.51-.79-.56-1.59-1.13-2.3-1.79-.56-.52-1.08-1.09-1.49-1.73a6.38 6.38 0 0 1-.38-.67c-.03-.06-.1-.39-.08-.15-.05-.64-.79-1-1.28-.53-1.27 1.22-3.06 1.57-4.72 1.03-.92-.3-1.31 1.15-.4 1.45Z"/>
  <path d="M799.4 224.83c-2.65.57-5.09 1.69-7.51 2.89-1.18.59-2.36 1.19-3.57 1.72-.89.4-2.05.6-2.29 1.68-.28 1.32-.08 2.93-.1 4.28l-.09 4.9c-.06 3.27-.11 6.53-.17 9.8-.02.97 1.48.97 1.5 0l.3-17.15c.01-.67-.19-1.4.45-1.73.49-.25 1.03-.43 1.53-.66 1.07-.49 2.13-1.02 3.19-1.55 2.3-1.14 4.62-2.2 7.15-2.74.94-.2.54-1.65-.4-1.45Z"/>
  <path d="m806.19 215.6-24.65 5.64c-1.99.46-3.99.87-5.97 1.37-1.4.35-2.46 1.06-2.71 2.56-.3 1.82-.13 3.8-.14 5.64-.01 2.16-.01 4.32 0 6.48.03 4.16.12 8.31.26 12.47.07 2.01.31 4.12-.3 6.07-.57 1.82-1.7 3.42-2.7 5.03a133.76 133.76 0 0 0-5.8 10.4c-.68 1.36-1.46 2.73-.76 4.24.79 1.73 2.16 3.32 3.22 4.89 2.24 3.31 4.29 7.36 7.56 9.78 2.84 2.1 6.7 2.94 8.91 5.83.31.41 1.02.56 1.3 0 3.91-7.8 8.75-15.08 14.44-21.69.63-.73-.43-1.79-1.06-1.06-5.78 6.7-10.71 14.08-14.68 21.99h1.3c-1.76-2.31-4.31-3.46-6.82-4.78-1.32-.69-2.6-1.45-3.66-2.5-1.37-1.36-2.4-3.02-3.47-4.61s-2.14-3.17-3.21-4.75c-.56-.83-1.12-1.65-1.68-2.48-.23-.34-.49-.68-.68-1.05-.42-.81-.17-1.45.18-2.22 1.53-3.39 3.45-6.66 5.37-9.84 1.74-2.89 3.86-5.65 4.12-9.12.12-1.7-.04-3.43-.09-5.13-.07-2.16-.12-4.32-.16-6.48-.07-3.99-.09-7.98-.07-11.97 0-.83.01-1.66.02-2.49s-.2-2.18.24-2.95 1.82-.89 2.62-1.07l3.38-.77 26.1-5.97c.94-.22.54-1.66-.4-1.45Z"/>
  <path d="M795.41 260.36c2.27 2.77 6.1 2.97 9.42 2.86 4.79-.15 9.57-.28 14.36-.19 10.02.18 20.03 1.03 29.94 2.53l-.55-.72c-.38 2.93-.77 5.86-1.15 8.79l.75-.75c-9.11-.05-18.23-.25-27.33-.06-7.45.15-14.94.37-22.39.17-.97-.03-.96 1.47 0 1.5 7.45.21 14.94-.01 22.39-.17 9.1-.19 18.23.02 27.33.06.44 0 .7-.35.75-.75.38-2.93.77-5.86 1.15-8.79.04-.29-.26-.68-.55-.72a232.64 232.64 0 0 0-28.39-2.54c-4.72-.13-9.44-.1-14.16.06-3.5.13-8.02.7-10.51-2.34-.61-.75-1.67.32-1.06 1.06Zm-90-2.19c3-.89 6.07-1.7 9.18-2.12 2.37-.32 4.76-.51 7.12-.88 4.5-.71 8.96-1.68 13.45-2.44 2.07-.35 4.83-1.13 6.89-.33s3.93 2.93 5.49 4.51c1.67 1.71 3.27 3.53 4.71 5.44 1.55 2.06 2.99 4.2 4.52 6.27.92 1.25 1.82 2.54 2.85 3.71 1.15 1.3 2.54 2.38 3.9 3.45.75.59 1.82-.46 1.06-1.06-1.2-.94-2.4-1.9-3.47-2.99-1.14-1.17-2.08-2.55-3.05-3.86-1.42-1.93-2.77-3.91-4.19-5.84s-2.85-3.58-4.4-5.26c-1.84-2-3.96-4.35-6.44-5.56-1.93-.94-4.18-.54-6.21-.25-4.86.7-9.66 1.76-14.49 2.6-2.41.42-4.84.64-7.26.93-3.41.41-6.76 1.25-10.05 2.23-.92.27-.53 1.72.4 1.45Z"/>
  <path d="M704.46 257.45c-.04 1.86-.06 3.72-.09 5.58-.02 1.76-.23 3.6-.06 5.35.32 3.32 4.38 1.73 6.47 1.38 7.65-1.27 15.48-1.94 23.24-1.79 1.62.03 2.69.54 3.36 2.03.22.5.41 1 .65 1.49.69 1.38 1.51 2.71 2.33 4.02 2.29 3.66 4.75 7.22 7.24 10.74 2.25 3.19 4.55 6.36 6.93 9.45.72.93 1.43 1.86 2.21 2.74s1.36 1.69 1.09 2.9c-.35 1.56-1.18 3.12-1.71 4.62-2.46 6.9-4.29 14.02-5.47 21.25-.55 3.4-1.08 6.88-1.22 10.33-.07 1.87.14 3.65.82 5.4 2.23 5.69 8.25 8.94 13.22 11.89 6.48 3.85 13.11 7.44 19.87 10.78.33.17.85.12 1.03-.27 1.69-3.71 3.39-7.43 5.08-11.14.4-.87-.9-1.64-1.3-.76-1.69 3.71-3.39 7.43-5.08 11.14l1.03-.27c-6-2.97-11.9-6.13-17.69-9.5-2.63-1.53-5.27-3.07-7.78-4.79-2.21-1.51-4.41-3.24-5.89-5.5-2.94-4.5-1.67-10.09-.94-15.07 1.04-7.09 2.72-14.09 4.99-20.89.57-1.7 1.18-3.39 1.82-5.06.47-1.23 1.01-2.4.66-3.74s-1.38-2.24-2.22-3.27c-2.17-2.65-4.17-5.44-6.17-8.21-2.56-3.55-5.07-7.14-7.47-10.79-1.62-2.47-3.39-5-4.54-7.74-.43-1.03-.98-2.01-1.94-2.63-1.41-.9-3.3-.67-4.89-.67a135.325 135.325 0 0 0-18.77 1.41c-.97.14-1.94.29-2.91.45-1.06.18-2.31.62-3.38.6-.57-.01-1 .03-1.19-.64-.13-.46-.01-1.07 0-1.54.02-1.08.04-2.17.05-3.25.02-2.01.05-4.03.09-6.04.02-.97-1.48-.97-1.5 0Z"/>
  <path d="M783.43 294.61c-.07 5.85-2.64 11.45-7.26 15.06-1.64 1.28-3 2.74-3.91 4.63-1.27 2.65-2.38 5.4-3.46 8.13s-2.15 5.8-2.74 8.81c-.33 1.71-.54 3.51-.07 5.22.96 3.47 3.74 5.25 6.51 7.18a1569.5 1569.5 0 0 0 15.8 10.79c.8.54 1.55-.76.76-1.3-4.75-3.21-9.49-6.44-14.21-9.7-2.7-1.86-6.03-3.56-7.22-6.81-.6-1.61-.44-3.33-.12-4.99.59-3.01 1.61-5.96 2.74-8.81 1.06-2.68 2.13-5.41 3.41-8 .93-1.89 2.4-3.16 4.02-4.45 4.69-3.73 7.18-9.86 7.25-15.77.01-.97-1.49-.97-1.5 0Zm23.45-70.92-.02.08.72-.55.41.22.08.58.03-.1-.52.52c.06-.02.76.52.81.55.31.19.62.38.94.56.67.38 1.37.72 2.08 1.02s1.39.56 2.1.79c.63.2 1.37.48 2.01.18 1.15-.53.96-2 .22-2.78-.48-.5-1.13-.87-1.69-1.27-.71-.51-1.43-1.01-2.14-1.52l-.38 1.4 10.98.24c.51.01.82-.49.72-.95-.36-1.71-1.97-2.67-3.59-2.94-2.22-.38-4.46.65-6.65.06l-.2 1.47c2.14-.03 4.28-.23 6.39-.62 1.27-.23 3.96-.56 3.69-2.44-.24-1.72-2.9-1.68-4.18-1.72-2.03-.05-4.07.29-5.97.98-.93.34-.54 1.58.4 1.45 1.87-.26 3.75-.56 5.59-1.01.83-.2 2.19-.48 2.43-1.48.16-.67-.31-1.57-1-1.73-.91-.21-2.01-.08-2.93-.02-2 .13-3.96.55-5.84 1.23-.9.33-.53 1.76.4 1.45 1.49-.5 2.97-1.04 4.42-1.67 1.03-.45 2.72-1.41 1.53-2.68-.19-.2-.44-.38-.69-.49-.46-.21-.76-.05-1.21.13-1.02.4-2.04.8-3.05 1.2-2.08.82-4.17 1.63-6.25 2.45-.89.35-.5 1.8.4 1.45 3.3-1.29 6.59-2.59 9.89-3.88l-.58-.08c.08.04.17.08.24.13.14.15.19.11.14-.11-.24.12-.46.27-.71.38-.32.15-.64.28-.96.42-1.17.48-2.37.91-3.57 1.31l.4 1.45c2.66-.97 5.45-1.36 8.28-1.17l-.53-.22c.13.14.2.28.19.06 0-.07.09-.09 0-.02-.04.03-.25.12-.34.16-.59.24-1.25.36-1.87.49-1.57.34-3.16.6-4.76.82l.4 1.45c1.44-.52 2.93-.85 4.45-.92.65-.03 1.31-.02 1.96.03.19.02 1.84.09 1.86.38.04.5-3.39.92-3.79.97-1.6.24-3.21.35-4.82.37-.84.01-1.03 1.25-.2 1.47 1.96.52 3.85-.1 5.82-.12 1.34-.01 3.07.47 3.38 1.95l.72-.95-10.98-.24c-.8-.02-.95.99-.38 1.4.63.45 1.27.9 1.9 1.35.47.33 1.43.76 1.7 1.28.22.41-.19.21-.45.14-.35-.1-.7-.22-1.04-.34-.75-.27-1.49-.58-2.21-.93-.65-.32-1.29-.68-1.9-1.07-.5-.31-1.05-.86-1.69-.79-1.2.13-1.04 1.77.11 1.8.32 0 .64-.24.72-.55l.02-.08c.24-.94-1.21-1.34-1.45-.4Zm42.4 42.86c2.84.61 4.34-2.29 6.11-3.97.26-.24.76-.85 1.15-.91.23-.04 0 0-.04-.04.47.45-.31.86-.57 1.07-1.16.88-1.88 1.97-2.42 3.32-.23.58.42 1.02.92.92 3.48-.69 6.74-1.62 10.03-2.89.43-.16.89-.32 1.35-.32.27 0 1.27.23 1.27.28 0-.04-.56.32-.75.42-.56.29-1.16.52-1.76.75-2 .76-4.04 1.39-6.12 1.91-.8.2-.66 1.59.2 1.47 2.27-.3 4.53-.6 6.8-.91l3.4-.45c.24-.03 1.09-.33 1.24-.08.11.19-.52.33-.63.36-1.75.56-3.63.78-5.42 1.18-1.37.31-2.72.67-4.05 1.09-.82.26-.64 1.42.2 1.47 1.65.11 3.29.14 4.94.05.6-.03 4.26-.64 4.37.11.13.95-3.3.62-3.81.62-1.83 0-3.66 0-5.5.02-.84 0-1.03 1.25-.2 1.47 1.12.3 2.23.62 3.32.98.32.1 2.6.67 2.61 1.06.02.67-4.31-.79-4.59-.87-1.98-.59-3.95-1.12-6.02-1.28s-4.18-.5-6.21-1.25c-.91-.33-1.3 1.12-.4 1.45 1.3.48 2.64.84 4.02 1.05 1.27.2 2.55.19 3.82.38 2.74.41 5.27 1.6 7.98 2.12.74.14 1.52.18 2.16-.29s1-1.4.51-2.13c-.54-.8-1.76-1.12-2.61-1.41a61.49 61.49 0 0 0-4.2-1.27l-.2 1.47c2.42-.02 4.84-.02 7.26 0 1.43.01 3.56-.18 3.57-2.08.02-2.02-2.34-1.94-3.75-1.82-2.37.19-4.71.27-7.08.11l.2 1.47c1.88-.59 3.78-1.05 5.71-1.45 1.25-.26 2.54-.43 3.76-.83.65-.21 1.44-.49 1.71-1.18s-.05-1.4-.6-1.84c-.88-.7-2.15-.21-3.17-.07-3.04.41-6.09.81-9.13 1.22l.2 1.47c2.65-.67 5.34-1.47 7.83-2.62.7-.32 1.67-.78 1.87-1.61s-.56-1.51-1.28-1.81c-1.91-.79-3.72.42-5.47 1.04-2.52.89-5.15 1.45-7.77 1.97l.92.92c.34-.84.8-1.62 1.48-2.22.62-.55 1.55-.93 1.77-1.81.28-1.11-.71-2.43-1.9-2.21-1.09.2-2.06 1.38-2.77 2.12-.99 1.03-2.19 3.17-3.87 2.81-.94-.2-1.34 1.24-.4 1.45Zm-145.22-7.08c-1.08.13-2.15.28-3.23.38s-1.87-.07-2.51-1.04c-.57-.87-1-1.85-1.29-2.85s-.35-2.01-.76-2.95c-1.28-2.96-4.88-3.64-7.77-3.62-.32 0-.65.23-.72.55-.63 2.79-.19 5.59.43 8.34.67 2.99 1.38 5.96 2.06 8.94.19.84.21 2.61 1.16 2.98.48.19 1.11 0 1.6-.06l2.24-.25 9.35-1.05c.95-.11.96-1.61 0-1.5l-6.55.73-3.18.36-1.5.17c-.4.04-1.19.28-1.58.16l.45.34c-.36-.47-.43-1.71-.56-2.28l-.51-2.2c-.37-1.59-.73-3.18-1.1-4.77-.72-3.11-1.61-6.33-.88-9.52l-.72.55c1.59-.01 3.3.14 4.71.93 1.87 1.04 1.86 2.85 2.42 4.7.45 1.51 1.24 3.52 2.64 4.41 1.6 1 4.05.25 5.79.04.95-.11.96-1.61 0-1.5Z"/>
  <path d="M784.95 362.61c1.05.76 2.03 1.59 2.94 2.52.47.48.94.99 1.35 1.52.66.88.24 1.6-.22 2.42-.35.63-.7 1.26-1.06 1.88-.11.19-.31.68-.46.77-.35.21-.7 0-1.04-.05-1-.14-1.91-.11-2.86.29-1.65.69-2.98 2.23-3.23 4.02-.29 2.09.99 3.22 3 3.23 2.83.03 5.69-.22 8.52-.33 1.17-.05 2.67.15 3.8-.22.96-.31 1.36-1.51 1.81-2.3 1.38-2.44 2.84-4.85 4.14-7.33 1.04-1.99 1.81-4.31.86-6.49-1-2.31-3.45-2.69-5.57-3.46-2.95-1.07-5.48-3.05-7.92-4.97-.75-.59-1.82.47-1.06 1.06 1.76 1.38 3.53 2.77 5.48 3.89s3.82 1.52 5.76 2.34c2.62 1.11 2.59 3.81 1.54 6.09s-2.48 4.48-3.73 6.69c-.46.81-1.13 2.77-2.06 3.05-.53.16-1.31.05-1.87.07-.7.03-1.41.05-2.11.08-2.52.1-5.06.32-7.58.29-3.07-.03-.88-3.63.73-4.34s3.62.72 4.79-1.01c.71-1.06 1.38-2.28 1.92-3.44.41-.88.53-1.78.02-2.65-1.16-1.99-3.25-3.65-5.1-4.98-.78-.56-1.53.74-.76 1.3Z"/>
  <path d="M796.16 229.38c-4.22 5.55-4.41 11.65-4.42 13.17-.01 3.06-.03 7.71 3.27 10.53 4.57 3.89 11.76 1.1 12.62.76 4.89-1.9 7.41-5.72 8.91-8.05 4.49-6.99 8.74-20.22 3.23-24.78-5.25-4.35-17.71.6-23.61 8.36Z" fill="none" stroke="#000" stroke-miterlimit="10"/>
  <path d="M805.78 223.84c.45 4.22 1.8 9.51 3.18 14.9 3.29 12.89 5.92 13.83 6.88 14.04 3.21.71 6.94-2.54 8.69-5.05 1.29-1.85 1.47-3.23 2.76-8.29 1.01-3.93 1.92-7.11 2.55-9.19a205.57 205.57 0 0 1-8.35-8.94c-1.92-2.18-2.93-3.44-4.91-4.53-.43-.24-5.89-3.19-8.87-1.29-1.97 1.26-2.36 4.32-1.93 8.35" fill="#c8dea4" stroke="#92a377" stroke-miterlimit="10"/>
  <path d="M826.76 232.07c.05.15.4.16.55.17.7.02 1.6-.23 3.5-1.91 1.77-1.57 1.7-1.99 1.66-2.13-.12-.38-.61-.57-1-.67-.55-.08-1.28-.1-1.76.34-.61.55-.19 1.26-.74 2.24-.72 1.29-2.32 1.62-2.2 1.96Z" fill="#92a377"/>
  <path d="M825.97 230.13c-.91 1.58-1.05 3.58-.35 5.26.09.22.33.47.52.32m-11.47-15.84-1.17-.31c-.76-.2-1.6-.39-2.31-.05-.67.32-1.06 1.06-1.16 1.8s.06 1.48.23 2.21c.5 2.14 1.1 4.27 2 6.27" fill="none" stroke="#92a377" stroke-miterlimit="10"/>
  <path d="M785.68 250.38a129.39 129.39 0 0 0-2.83 12.29c-.11.6.34 1.01.92.92 4.17-.62 8.19-2.07 12.4-2.5.95-.1.96-1.6 0-1.5-4.35.44-8.48 1.91-12.79 2.55l.92.92c.75-4.14 1.69-8.24 2.83-12.29.26-.93-1.18-1.33-1.45-.4Z"/>
  <path d="M76.27 222.59c-1.29 4.8-7.06 8.72-11.76 7.6-5.05-1.21-7.7-8.25-5.91-15.73 1.82-7.6 10.19-12.59 12.38-11.36 1.27.71-.38 3.02.99 7.4 1.09 3.46 1.45 3.56 2.56 5.21" fill="none" stroke="#000" stroke-miterlimit="10"/>
  <path d="M74.23 215.9c.37.64.12 1.26-.22 1.86-.44.77-1.02 1.46-1.67 2.07-.87.82-1.88 1.46-2.98 1.9-.25.1-.39.42-.17.63 1.89 1.79 4.9 1.24 7.17.6.46-.13.27-.86-.2-.72-1.06.3-2.15.5-3.25.56-1.16.05-2.32-.14-3.19-.96l-.17.63c1.33-.54 2.53-1.3 3.55-2.32.71-.71 1.38-1.54 1.79-2.46.32-.72.39-1.45-.02-2.15-.24-.42-.89-.04-.65.38Zm7.4 43.13c1.7-.68 3.22-1.8 4.66-2.9.15-.11.86-.63.91-.56.16.26-.69 1.14-.84 1.33-.31.38-.74.82-.71 1.36.06.98 1.09.87 1.76.68 1.64-.47 3.45-.56 5.15-.7.33-.03.93.08 1.23-.04.02 0 .11.04.13.02l-.3-.66-.12.12c-.18.06-.38.3-.56.4-.49.28-1.06.38-1.6.52l-2.28.61c-.81.22-.66 1.49.2 1.47 1.14-.02 2.28-.11 3.41-.28.65-.09 1.27-.19 1.92-.02.18.04.56.29.71.27.2.14.23 0 .08-.44-.1.06-.2.11-.31.15-.15.07-.32.12-.48.17-.47.15-.94.23-1.44.27-1.13.09-2.24.19-3.36.37-.89.15-.58 1.4.2 1.47 1.08.1 2.15.27 3.21.52.41.1.83.3 1.24.36.07.03.13.06.19.1-.18-.15-.21-.38-.08-.69-.07-.04-.64.17-.78.17-.69 0-1.42-.22-2.1-.35-.47-.09-1.12-.33-1.6-.26-.67.09-1.11 1.01-.38 1.4.26.14.57.16.85.24.49.14.9.35 1.27.71.05.06.08.13.11.2.08.22.18.09.3-.39-.03-.02-.14.02-.17 0-.19-.1-.57-.09-.79-.14-.56-.14-1.11-.33-1.66-.51-2.73-.89-5.55-1.42-8.38-1.8-.95-.13-.94 1.37 0 1.5 1.97.26 3.94.63 5.87 1.13 1.3.34 2.56.84 3.87 1.15.6.14 1.37.32 1.94 0 .67-.37.63-1.17.29-1.77s-.91-1-1.52-1.27c-.28-.12-.56-.22-.86-.3-.11-.03-.67-.22-.36-.05l-.38 1.4.18.03c.21.04.41.07.62.11.46.08.93.17 1.39.26 1.07.2 2.87.52 3.57-.64 1.26-2.08-4.89-2.53-5.83-2.61l.2 1.47c1.4-.23 2.86-.19 4.24-.49.91-.2 2.83-.76 2.32-2.07-.38-.97-1.99-1.27-2.89-1.28-.68 0-1.35.15-2.03.23-.85.1-1.71.15-2.57.17l.2 1.47c1.28-.34 2.68-.55 3.89-1.1.69-.32 1.83-1 1.76-1.89s-1.11-.98-1.82-.96c-1.25.04-2.51.22-3.75.37-.76.09-1.53.16-2.27.35-.13.03-.35.07-.46.14-.26.15-.38-.2.07.42.4.56.14.45.37.22.27-.26.5-.61.73-.91.45-.59.9-1.34.68-2.11s-1.03-1.23-1.8-1.06c-.83.19-1.52.89-2.17 1.39-.54.41-1.11.8-1.7 1.13-.56.31-1.15.72-1.75.96-.89.35-.5 1.8.4 1.45ZM58.84 233.3c1.17 1.65 2.6 3.1 4.09 4.46 1.11 1.01 2.7 2.93 4.38 2.45 2.77-.81 3.47-3.69 5.09-5.68 1.12-1.38 2.61-1.7 4.32-1.74 2.55-.05 5.09.12 7.63.38 5.14.52 10.24 1.32 15.38 1.85 3.08.32 6.16.63 9.24.95.76.08 1.67.02 2.3.48.59.42.86 1.19 1.15 1.83.67 1.48 1.16 3.03 1.52 4.61l.72-.95c-10.29 1.01-20.59 2.04-30.77 3.88-.95.17-.55 1.62.4 1.45 10.05-1.81 20.21-2.82 30.37-3.82.5-.05.84-.44.72-.95-.51-2.23-1.25-5.06-2.71-6.87-.5-.62-1.13-.86-1.9-.97-1.4-.19-2.83-.29-4.24-.44-5.3-.54-10.6-1.06-15.89-1.77-4.95-.66-10.27-1.64-15.28-1.08-3.12.35-4.37 2.56-5.86 4.99-.37.6-.77 1.19-1.31 1.66-.3.26-.76.63-1.15.71-.73.15-1.31-.5-1.82-.92-1.84-1.56-3.68-3.27-5.09-5.25-.56-.78-1.86-.03-1.3.76Z"/>
  <path d="M59.11 232.27c-3.55.48-7.17 1.62-9.82 4.13-2.22 2.09-3.27 5.27-4.43 8-1.43 3.37-2.69 6.87-3.57 10.42-.65 2.64-2.54 7.57 1.18 8.79.84.27 1.73.24 2.58.39.99.17 1.96.45 2.93.73 2.58.75 5.14 1.51 7.79 2.01.41.08.79-.11.92-.52.41-1.26.63-2.58.93-3.88.37-1.6.87-3.17 1.26-4.76.1-.39-.12-.81-.52-.92-1.48-.4-2.96-.82-4.42-1.28-.83-.26-1.67-.32-1.57-1.34.03-.28.16-.59.25-.86.79-2.33 1.94-4.55 2.99-6.76.41-.87-.88-1.63-1.3-.76-1.19 2.5-2.77 5.18-3.37 7.91-.29 1.31.05 2.26 1.3 2.82 1.78.8 3.85 1.21 5.72 1.71l-.52-.92c-.39 1.59-.89 3.16-1.26 4.76-.3 1.29-.51 2.61-.93 3.88l.92-.52c-3.75-.7-7.34-2.25-11.11-2.8-1.14-.17-3.05-.04-3.3-1.52-.12-.7.07-1.5.19-2.18.22-1.2.49-2.39.78-3.57.74-2.98 1.76-5.91 2.89-8.76.82-2.08 1.75-4.13 2.72-6.14.42-.86.85-1.65 1.5-2.35 2.48-2.68 6.14-3.78 9.66-4.25.95-.13.55-1.57-.4-1.45Z"/>
  <path d="M81.87 263.59c-.02 1.5.27 2.88.59 4.33.19.88.36 1.81.31 2.72-.06 1.15-.49 1.68-1.57 1.93-1.86.44-4.02.19-5.93.23l-6.44.12-12.88.24c-.47 0-1.04.12-1.49.03-.79-.16-.62-.37-.49-.95.17-.8.47-1.59.73-2.37.43-1.27.67-2.52.81-3.85.1-.96-1.4-.95-1.5 0-.19 1.76-.75 3.29-1.25 4.97-.41 1.4-.81 3.36 1.15 3.66 1.13.17 2.39 0 3.53-.02 1.32-.02 2.64-.05 3.96-.07 2.56-.05 5.12-.09 7.68-.14s5.12-.09 7.68-.14c1.86-.03 4.22.27 5.94-.64s1.69-2.86 1.48-4.59c-.23-1.85-.83-3.56-.8-5.45.01-.97-1.49-.97-1.5 0Zm-1.12-19.13c1.58 2.05 2.59 4.51 2.79 7.1.04.53.1 1.12 0 1.65-.09.46-.3.92-.5 1.34-.42.89-.96 1.8-1.14 2.78s1.27 1.35 1.45.4c.2-1.03.81-1.97 1.22-2.93.5-1.16.57-2.21.46-3.47-.26-2.77-1.27-5.43-2.97-7.64-.58-.75-1.88 0-1.3.76Zm31.18-8.84c6.02-3.27 12.05-6.54 18.07-9.8.85-.46.09-1.76-.76-1.3-6.02 3.27-12.05 6.54-18.07 9.8-.85.46-.09 1.76.76 1.3Zm3.25 6.4c5.7-4.18 11.39-8.31 17.58-11.74.84-.47.09-1.76-.76-1.3-6.19 3.43-11.88 7.56-17.58 11.74-.77.56-.02 1.87.76 1.3Z"/>
  <path d="M58.4 259.5c7.68-.31 15.36-.13 23.04-.44.96-.04.97-1.54 0-1.5-7.68.31-15.36.13-23.04.44-.96.04-.97 1.54 0 1.5Zm-1.49 6.01c8.32-.56 16.6-2.01 24.95-1.72.97.03.96-1.47 0-1.5-8.36-.29-16.63 1.17-24.95 1.72-.96.06-.97 1.56 0 1.5Zm25.64 8.19c3.4 8.75 10.29 15.29 15.8 22.67 2.68 3.59 5.11 7.46 6.34 11.8 1.68 5.88.62 12.1.08 18.08l-1.8 19.92-.45 4.98c-.15 1.66-.1 3.4-.5 4.97-.43 1.71-2.49 1.8-3.95 1.9-1.66.12-3.35.04-4.99-.27-.6-.11-1.5-.2-1.99-.59-.66-.53-.55-1.44-.51-2.18.07-1.73.16-3.45.24-5.18l.45-9.87c.3-6.5.59-13 .89-19.49.14-3.06.61-6.38-1.33-9.01-.9-1.23-2.06-2.27-3.11-3.37-1.15-1.2-2.3-2.4-3.43-3.62-4.71-5.01-9.34-10.1-14.14-15.03-.68-.69-1.74.37-1.06 1.06 4.48 4.59 8.81 9.33 13.19 14.02 2.15 2.3 4.39 4.53 6.52 6.84 1.18 1.28 1.86 2.61 1.98 4.36.12 1.65-.06 3.33-.13 4.98-.31 6.83-.62 13.65-.94 20.48-.15 3.37-.31 6.74-.46 10.12-.07 1.55-.27 3.15-.19 4.7.06 1.16.52 2.11 1.58 2.64s2.41.67 3.59.81c1.65.2 3.32.19 4.97-.02 1.07-.13 2.2-.31 3.08-.99 1.05-.82 1.26-2.04 1.39-3.29.71-6.96 1.26-13.94 1.89-20.91.31-3.4.61-6.8.92-10.21.3-3.35.72-6.73.61-10.11-.17-4.94-1.83-9.56-4.37-13.77-5.64-9.35-14.71-16.49-18.73-26.84-.35-.89-1.8-.5-1.45.4Z"/>
  <path d="M53.03 274.47c-3.48 6.17-6.97 12.34-10.48 18.49-1.61 2.82-3.18 5.67-4.88 8.44-.09.15-.18.3-.28.44-.85 1.19-1.1-1-1.23-1.62a110.782 110.782 0 0 1-2.17-18.81c-.03-1.05-.05-2.1-.05-3.15 0-.76.06-1.58-.21-2.31-.49-1.32-1.83-1.52-3.06-1.22-3.59.88-7.27 2.6-10.49 4.39-1.37.77-2.1 1.72-2.01 3.34.11 2.06.43 4.14.67 6.19.48 4.09 1.03 8.18 1.65 12.25.63 4.12 1.3 8.24 2.1 12.34.62 3.2 1.58 6.58 4.22 8.72s5.68 2.07 8.48.46c3.09-1.77 5.75-4.47 8.48-6.74 2.68-2.24 5.56-4.34 7.94-6.9 4.87-5.23 9.77-10.41 14.66-15.62 1.42-1.51 2.85-3.03 4.27-4.55.66-.7-.4-1.77-1.06-1.06-5.04 5.38-10.11 10.75-15.15 16.13-1.66 1.77-3.23 3.71-5.01 5.34-.89.82-1.88 1.57-2.81 2.35-2.07 1.72-4.14 3.45-6.2 5.17-2.58 2.15-5.82 5.83-9.5 5.59-3.88-.26-5.73-4.38-6.51-7.64-.9-3.81-1.46-7.72-2.08-11.59a340.481 340.481 0 0 1-2.35-17.64c-.1-.93-.26-1.87-.29-2.8-.04-1.45.94-1.87 2.07-2.46 1.68-.87 3.4-1.66 5.15-2.35.84-.33 1.68-.64 2.54-.93.98-.33 2.9-1.29 3.01.47.24 4 .15 7.98.55 11.98.37 3.77.93 7.52 1.68 11.23.22 1.11.35 2.79 1.53 3.35 1.11.53 1.99-.39 2.56-1.24 1.51-2.29 2.79-4.76 4.15-7.14 3.83-6.69 7.63-13.41 11.42-20.12.48-.84-.82-1.6-1.3-.76Z"/>
  <path d="M32.07 274.79c-.04-2.5-.09-5.01-.13-7.51-.01-.8.21-2.04-.28-2.75-.45-.66-1.56-.88-2.25-1.15a120.465 120.465 0 0 0-16.92-5.22c-.88-.2-1.87-.52-2.77-.25-1.6.48-2.01 2.79-2.2 4.21-.24 1.83.39 3.3 1.89 4.37 1.7 1.22 3.66 2.07 5.64 2.72 1.86.61 4.02 1.09 5.45 2.51 1.64 1.62 1.15 4.14.84 6.19-.15.94 1.3 1.35 1.45.4.44-2.87.84-5.99-1.66-8.04-2.52-2.07-6.1-2.37-8.94-3.86-.81-.42-1.72-.89-2.39-1.52-.85-.79-.94-1.85-.74-2.94.15-.81.39-2.47 1.36-2.66.88-.17 2.27.44 3.13.65a121.21 121.21 0 0 1 15.27 4.8c.42.16 1.34.34 1.6.77.21.34.02 1.34.03 1.77.04 2.5.09 5.01.13 7.51.02.96 1.52.97 1.5 0Zm59.63 83.73c.14 2.77-.82 5.36-1.4 8.03-.43 1.98-1.13 4.88 1.03 6.07 2.61 1.45 5.1 3.07 7.59 4.73 1.08.72 2.14 1.49 3.24 2.18 1.03.65 2.6.59 3.79.62 1.83.04 4.35.07 5.99-.85s1.38-2.89.69-4.35c-.81-1.72-2.15-3.04-3.77-4-1.92-1.14-3.77-2.07-5.31-3.73-.96-1.03-1.76-2.18-2.45-3.4-.76-1.35-.46-3.16-.46-4.68 0-.97-1.5-.97-1.5 0 0 1.2-.03 2.4 0 3.6.03 1.13.82 2.18 1.44 3.11 1.01 1.53 2.23 2.92 3.68 4.05 2.58 2.01 6.51 3 7.37 6.6.51 2.13-2.61 2.06-4.05 2.14-1.03.05-2.06.03-3.08-.06-1.56-.14-2.63-1.05-3.89-1.9-2.54-1.71-5.07-3.59-7.8-5-.67-.35-1.32-.54-1.43-1.44-.15-1.31.24-2.75.54-4.01.61-2.54 1.42-5.05 1.29-7.7-.05-.96-1.55-.97-1.5 0ZM60.89 229.05c0 .09.01.17 0 .26v.1c-.01.17.03-.11 0-.02-.04.17-.08.33-.14.5 0 .02-.07.17-.03.07.04-.09-.01.02-.02.04-.04.09-.09.17-.13.26-.09.17-.19.33-.3.49s-.21.3-.32.45c-.12.16.06-.07-.01.02-.03.04-.06.08-.1.12-.06.07-.11.14-.17.21l-.72.84c-.25.3-.32.77 0 1.06.28.26.79.32 1.06 0 .55-.65 1.12-1.28 1.59-1.99s.85-1.55.78-2.41c-.03-.39-.32-.77-.75-.75-.38.02-.78.33-.75.75Zm9.92-.2c-.32.8-.26 1.8-.04 2.61.27.97.87 1.83 1.85 2.18.37.13.84-.15.92-.52.1-.42-.13-.78-.52-.92-.13-.05-.02-.03.02.01-.03-.03-.09-.05-.13-.07s-.07-.04-.1-.07c-.14-.08.07.07.02.02-.06-.06-.13-.12-.19-.19-.03-.03-.05-.07-.08-.1.06.04.09.12.02.02-.05-.07-.09-.15-.14-.22-.04-.07-.07-.18-.12-.24.05.11.05.13.02.06l-.02-.04-.05-.13c-.03-.09-.06-.19-.08-.28l-.06-.27c0-.04-.01-.09-.02-.13 0-.06 0-.03.01.09 0-.03 0-.06-.01-.09-.02-.18-.03-.35-.02-.53 0-.08 0-.17.02-.25.01-.13.01-.04 0 .04 0-.04.01-.08.02-.12.03-.16.07-.31.13-.46.15-.36-.16-.84-.52-.92-.43-.1-.76.13-.92.52Zm59.1-2.8c1.49-1.4 2.4-3.07 3.41-4.81.12-.2.24-.42.41-.58.12-.11.07-.07.08.08.02.63-.24 1.24-.38 1.84-.13.54-.21 1.21.35 1.54.76.45 1.41-.35 1.95-.76.59-.45 1.25-.81 1.88-1.19.96-.58 1.92-1.18 2.92-1.69.14-.07.47-.15.58-.26.02-.02.11-.02.11-.04a.465.465 0 0 1-.26-.3c-.15-.35-.25-.42-.28-.22-.09.06-.21.44-.28.56-.14.22-.3.43-.49.61-.9.86-1.95 1.6-2.91 2.38-.73.59.2 1.59.95 1.23a29.81 29.81 0 0 0 3.08-1.71c.51-.33 1-.65 1.59-.79.28-.07.62-.02.88-.1h.16c.22.02.17-.15-.17-.51-.07 0-.47.52-.55.6-.35.33-.73.6-1.15.84-1.04.6-2.1 1.16-3.1 1.83-.69.46-.28 1.74.6 1.43 1.07-.38 2.16-.7 3.28-.93.46-.1 1.01-.08 1.46-.22.05.01.1.01.15 0-.1-.61-.25-.79-.44-.53-.22.09-.42.34-.67.44-.67.27-1.43.39-2.13.57-.5.13-1.16.19-1.61.46-.65.4-.39 1.45.39 1.45.28 0 .58-.12.86-.16.22-.03.45-.05.68-.04.29 0 .56.16.82.18l.16.11.12-.51s-.16.09-.2.1c-.26.02-.53.15-.79.2-.52.1-1.05.16-1.57.22-2.57.3-5.1.83-7.59 1.54-.97.27-.56 1.78.42 1.51 1.77-.5 3.56-.92 5.38-1.23 1.37-.23 2.8-.27 4.15-.61.54-.13 1.16-.33 1.47-.83.39-.63 0-1.3-.54-1.68-.59-.42-1.31-.56-2.02-.54-.33 0-.66.05-.98.11-.13.02-.71.09-.37.09l.39 1.45c-.25.15.07 0 .2-.04.21-.06.42-.11.63-.17.47-.12.95-.24 1.43-.36 1.09-.27 2.6-.68 2.97-1.91.82-2.71-5.61-.47-6.47-.17l.6 1.43c1.28-.86 2.75-1.47 3.97-2.4.78-.6 2.47-2.11 1.1-3.02-.86-.57-2.36-.16-3.2.23-.6.28-1.14.68-1.71 1.03-.79.48-1.61.91-2.45 1.32l.95 1.23c.99-.8 2.09-1.55 2.98-2.45.56-.56 1.39-1.67 1.14-2.53s-1.22-.76-1.88-.47c-1.15.49-2.22 1.2-3.29 1.84-.77.46-1.56.9-2.27 1.44-.14.11-.32.22-.43.35l-.18.15.72.61s.02-.1 0-.08c.17-.22.22-.83.29-1.11.19-.74.35-1.63-.09-2.31s-1.44-.89-2.14-.46c-.77.48-1.15 1.48-1.56 2.24-.7 1.27-1.52 2.42-2.58 3.41-.73.69.37 1.79 1.1 1.1Z"/>
  <path d="M71.11 203.23c.97.79-.31 2.23.43 5.59.27 1.24.65 3.35 2.15 5.16.5.61 1.34 1.44 1.29 2.58-.02.47-.19.8-.43 1.29-.12.24-.72 1.4-2.15 2.58-.6.5-1.6 1.2-3.01 1.72.71.33 1.9.77 3.44.86 1.5.09 2.7-.2 3.44-.43a7.625 7.625 0 0 1-3.76 5.22l-.06.34c1.18-.34 9.89-2.99 13.29-11.59.27-.68 3.66-9.65-1.21-15.97-2.16-2.8-5.02-3.89-8.26-5.11-3.92-1.49-7.34-1.73-13.77-2.15-1.82-.12-4.24-.3-7.46-.27-4.8.05-7.51.52-9.75.7-3.58.28-8.84.01-15.72-2.64.33 1.09.99 2.8 2.38 4.52 1.7 2.11 3.65 3.2 4.74 3.71-.48.28-1.21.65-2.15.86-.8.18-1.45.19-1.96.17a19.89 19.89 0 0 1-4.31-.58c-5.41-1.31-10.81-2.63-16.22-3.94 1.15 2.13 2.94 4.9 5.63 7.69a35.5 35.5 0 0 0 7.83 6.12c-1.62.8-3.95 1.72-6.88 2.15-4.54.66-8.25-.2-10.33-.86.63 1.6 2.64 6.11 7.36 8.53.41.21 2.49 1.25 5.43 1.6 2.49.29 3.08-.21 6.84-.51 4.77-.38 8.57.05 10.49.28 0 0 2.58.3 5.16.86 7.53 1.62 14.29 5.23 17.67 7.2-1.63-2.37-2.31-4.55-2.61-5.91-.44-1.95-.39-3.42-.31-6.22.05-1.5.16-2.36.43-3.27.12-.4.45-1.42 1.49-3.08 1.02-1.62 2.23-3.48 4.4-5.07.22-.16 4.84-3.47 6.45-2.15Z" fill="#a5b38e"/>
  <path d="M70.58 203.76c.32.3.12.92.08 1.3-.09.83-.15 1.65-.07 2.49.16 1.77.63 3.65 1.43 5.24.44.88 1.07 1.57 1.65 2.35.66.89.63 1.67.09 2.61-.99 1.74-2.74 2.97-4.57 3.69-.52.21-.83 1.08-.18 1.37 2.37 1.06 4.97 1.26 7.46.51l-.92-.92c-.29 1.38-.91 2.63-1.9 3.63-.65.66-1.74.97-1.92 1.94-.1.54.33 1.09.92.92 4.13-1.19 8.07-3.68 10.8-7 3.21-3.91 4.76-9.17 4.39-14.21-.25-3.4-1.55-6.71-4.1-9.04-2.51-2.29-6.07-3.62-9.3-4.54s-6.71-1.15-10.1-1.38c-3.94-.27-7.87-.5-11.81-.32-3.29.15-6.57.75-9.87.71-4.43-.06-8.76-1.13-12.89-2.69-.54-.2-1.08.41-.92.92 1.18 3.8 3.86 6.96 7.46 8.68v-1.3c-3.16 1.81-6.94.6-10.23-.2-4.61-1.12-9.22-2.24-13.84-3.36-.64-.16-1.17.52-.85 1.1a36.77 36.77 0 0 0 13.73 14.08v-1.3c-5.19 2.53-11.13 2.93-16.63 1.22-.51-.16-1.13.39-.92.92 2.47 6.24 8.31 11.04 15.28 10.76 1.86-.08 3.7-.5 5.56-.62 2.46-.17 4.93-.15 7.38.05 4.03.32 8.05 1.03 11.9 2.25 4.61 1.46 9 3.54 13.17 5.97.62.36 1.46-.38 1.03-1.03-1.71-2.55-2.78-5.4-2.87-8.49-.08-2.75-.11-5.63 1.22-8.11 1.29-2.41 2.97-4.71 5.26-6.24 1.12-.75 3.87-2.78 5.23-1.83.79.56 1.54-.74.76-1.3-1.85-1.3-4.72.53-6.29 1.53-2.5 1.59-4.33 3.83-5.84 6.35-1.73 2.91-1.88 5.91-1.84 9.24.04 3.47 1.15 6.72 3.08 9.6l1.03-1.03c-7.19-4.17-14.91-7.14-23.18-8.16-4.05-.5-8.16-.6-12.22-.11-1.56.19-3.09.52-4.67.38-1.84-.16-3.72-.66-5.38-1.48-3.34-1.65-5.79-4.72-7.14-8.14l-.92.92a24.11 24.11 0 0 0 17.79-1.37c.52-.25.46-1.03 0-1.3a35.369 35.369 0 0 1-13.19-13.54l-.85 1.1c5.09 1.24 10.18 2.47 15.27 3.71 3.29.8 6.86 1.47 9.96-.3.46-.26.52-1.05 0-1.3-3.26-1.55-5.7-4.33-6.77-7.78l-.92.92c3.49 1.32 7.1 2.28 10.82 2.62 2.57.24 5.09.06 7.65-.21 7.07-.75 14.26-.45 21.32.35 3.11.35 6.01 1.18 8.9 2.37 3.55 1.46 6.46 3.75 7.66 7.53 1.45 4.57.53 10.15-1.92 14.26-2.5 4.2-6.89 7.31-11.57 8.66l.92.92s.09-.12.34-.29c.18-.12.35-.26.52-.4.49-.4.93-.84 1.32-1.34a8.62 8.62 0 0 0 1.63-3.54c.11-.54-.34-1.1-.92-.92-2.08.63-4.31.53-6.31-.35l-.18 1.37c3.28-1.28 8.09-5.11 5.1-8.86-1.6-2.01-2.55-4.43-2.64-7.03-.05-1.33.7-3.24-.41-4.29-.7-.66-1.76.4-1.06 1.06Z" fill="#c8dea4"/>
  <path d="M317.46 221.63c-.52-.96-.96-1.95-1.32-2.98-.19-.55-.37-1.14-.9-1.46-.59-.35-1.23-.2-1.81.06-.85.38-1.65.84-2.5 1.2-1.01.42-2.09.8-3.2.85-.87.04-1.69-.13-2.53-.28-.53-.1-1.12-.19-1.61.13-.6.4-.68 1.14-.48 1.78.26.83.91 1.64.8 2.55-.13 1.08-1.35 1.66-2.25 2s-.51 1.78.4 1.44c1.52-.58 3.17-1.55 3.34-3.34.07-.82-.2-1.57-.53-2.31-.12-.28-.22-.63-.36-.89 0 0-.21 0-.04.05.54.18 1.23.23 1.8.3.97.13 1.94.09 2.9-.12 1.8-.4 3.3-1.36 4.98-2.04.51-.2.44.16.62.66.39 1.09.86 2.15 1.41 3.16.46.85 1.75.09 1.29-.75Zm10.22 9.03c1.74 10.63 1.86 21.46 2.34 32.2.04.96 1.54.96 1.5 0-.48-10.88-.63-21.83-2.39-32.6-.16-.95-1.6-.55-1.44.4Zm-28.03 9.15c-.51 8.03-1.02 16.07-1.54 24.1-.06.96 1.43.96 1.5 0 .51-8.03 1.02-16.07 1.54-24.1.06-.96-1.43-.96-1.5 0Z"/>
  <path d="M329.59 262.38c.4 27.54-1.3 55.08-5.15 82.35-1.09 7.7-2.34 15.38-3.73 23.03l.72-.55c-5.35.33-10.7.13-16.01-.58l.75.75c1.29-9.6 2.75-19.2 3.81-28.82 1.06-9.62 1.4-19.3 1.52-28.98.07-5.45.06-10.9.07-16.34 0-.96-1.49-.96-1.5 0-.02 9.6.01 19.2-.39 28.8-.4 9.72-1.52 19.31-2.82 28.94l-2.2 16.4c-.06.44.39.7.75.75 5.31.71 10.66.91 16.01.58.31-.02.66-.22.72-.55 4.92-27.06 7.97-54.44 8.77-81.94.23-7.95.28-15.9.16-23.84-.01-.96-1.51-.96-1.5 0Zm-32.87 104.55c.02 2.05 0 4.09-.07 6.13-.06 1.53.02 3.17-.42 4.64l.72-.55c-4.61.26-9.21.61-13.82.79-1.91.08-4.04.35-5.94.02-.34-.06-1.06-.29-1.34-.66-.61-.79.64-1.88 1.16-2.37 1.15-1.09 2.54-1.84 4.03-2.36 3.47-1.22 6.16-3.64 8.39-6.51.59-.75-.47-1.82-1.06-1.06-2.26 2.89-4.78 5.01-8.21 6.29-1.67.62-3.24 1.56-4.48 2.85-1.03 1.06-2.13 2.62-1.05 4.02 1.32 1.72 4.01 1.4 5.9 1.36 2.99-.06 5.98-.23 8.97-.41 2.48-.15 4.97-.33 7.45-.47.34-.02.62-.22.72-.55.44-1.48.4-3.06.46-4.6.09-2.19.11-4.38.09-6.57-.01-.96-1.51-.96-1.5 0Z"/>
  <path d="M307.82 379.23c4.55-.08 9.11-.17 13.66-.25 2.28-.04 4.56-.04 6.83-.12.89-.03 1.14-.36 1.69-1.04.45-.57.86-1.17 1.14-1.84 1.41-3.5-2.45-4.28-4.96-4.84-3.48-.77-6.87-1.85-10.17-3.19-.89-.36-1.28 1.09-.4 1.44 2.82 1.14 5.71 2.11 8.67 2.84 1.37.34 2.8.54 4.14.98.53.18 1.23.4 1.47.97.28.69-.25 1.55-.6 2.09-.18.28-.37.58-.61.82-.35.34-.24.29-.81.27-.91-.02-1.82.03-2.73.05-1.9.03-3.8.07-5.69.1l-11.61.21c-.96.02-.96 1.51 0 1.5Z"/>
  <path d="M307.09 367.62c.05 3.62.09 7.24.14 10.87.01.96 1.51.96 1.5 0-.05-3.62-.09-7.24-.14-10.87-.01-.96-1.51-.96-1.5 0Zm-6.43-95.82c1.5 1.15 3.56 1.37 5.33.8 1.87-.59 3.38-1.95 4.06-3.8.14-.38-.16-.82-.52-.92-.42-.11-.78.14-.92.52-1.04 2.81-4.84 3.91-7.19 2.1-.32-.25-.84-.05-1.02.27-.23.39-.05.78.27 1.02Zm22.77-4.48c.11 3.52 1.61 6.97 4.23 9.34.71.64 1.77-.41 1.06-1.06-2.33-2.11-3.7-5.14-3.79-8.28-.03-.96-1.53-.96-1.5 0Z"/>
  <path d="M320.67 205.68c.93 4.5-4.52 14.39-13.3 14.33-8.85-.06-14.34-10.19-13.09-14.54.36-1.26 1.22-1.84 2.17-4.72.98-2.99.61-4.08 1.71-5.18 1.26-1.26 2.3-.37 4.86-1.41 3.3-1.35 3.2-3.49 5.48-3.77 1.66-.2 1.81.94 6.11 2.83 3.31 1.45 4.4 1.3 5.06 2.58.66 1.3-.1 2.19.01 4.99.1 2.5.78 3.84 1 4.89Z" fill="none" stroke="#000" stroke-miterlimit="10" stroke-width="1.99"/>
  <path d="M290.47 290.23c.92 2.48 3.07 3.44 5.05 4.92.07.05.82.65.51.78.07-.03-.79-.55-.87-.6-.68-.4-1.35-.83-2.05-1.19-1.11-.58-2.17-.19-2.26 1.13-.09 1.44.2 3 .66 4.36s1.41 2.61 1.88 4.01c.1.29.06.7.17.96.36.03.39-.04.1-.2-.11-.11-.22-.22-.32-.34-.39-.48-.65-1.07-.89-1.64-.47-1.15-.84-2.35-1.59-3.36-.49-.66-1.58-.3-1.37.58.48 2.04 1.34 3.91 1.95 5.9.05.15.2.4-.02.1-.14-.19-.2-.45-.27-.67-.15-.47-.3-.95-.44-1.42-.35-1.11-.69-2.21-1.04-3.32-.22-.69-1.25-.74-1.45 0-.22.85.07 1.54.36 2.34.19.5.34 1.02.46 1.54.1.42.07 1.14.25 1.5.12.24-.02-.2-.04-.28-.05-.22-.15-.47-.22-.68-.14-.47-.28-.94-.41-1.41l-.87-2.98c-.27-.92-1.7-.54-1.45.4.08.3 1.31 4.29.95 4.39l.58.08c.11.18.1.11-.04-.21l-.2-.61-.3-.91c-.23-.71-.47-1.42-.7-2.13-.42-1.33-.82-2.67-1.06-4.04-.47-2.65-.06-5.26.46-7.88.19-.94-1.26-1.35-1.45-.4-.41 2.04-.82 4.16-.74 6.25.09 2.43.79 4.78 1.53 7.08.36 1.11.69 2.25 1.1 3.35.28.74 1.01 1.23 1.72.64.65-.54.66-1.56.53-2.32-.21-1.24-.63-2.46-.95-3.67l-1.45.4c.43 1.46.85 2.93 1.29 4.39.28.95.7 2.14 1.9 2.12s1.36-1.23 1.23-2.18c-.1-.74-.26-1.48-.49-2.2-.2-.64-.75-1.47-.57-2.15h-1.45c.51 1.65.97 3.33 1.55 4.96.34.96 1.12 2.02 2.29 1.6 1.37-.48.86-2.13.48-3.13-.61-1.6-1.21-3.16-1.6-4.83l-1.37.58c1.3 1.75 1.43 4.23 3.12 5.72.72.63 1.78.74 2.22-.27s-.12-2.33-.62-3.25c-.66-1.25-1.3-2.42-1.63-3.81-.18-.73-.28-1.47-.3-2.23 0-.13-.09-.71 0-.81-.27.25.73.69.87.77.63.37 1.26.74 1.9 1.11.49.28.96.48 1.51.25.87-.37 1.12-1.48.74-2.29-.5-1.06-1.82-1.61-2.75-2.23-1.12-.76-2.23-1.64-2.71-2.95-.33-.9-1.78-.51-1.45.4Zm-6.16-2.01c-2.33-18.72 2.58-37.18 8.36-54.84.2-.62.4-1.23.61-1.84.06-.18.11-.49.22-.64.04-.06.03-.18.08-.23.07.2.18.22.34.05.22-.1.44-.21.66-.31 3.22-1.54 6.43-3.07 9.65-4.61.87-.41.11-1.7-.75-1.29-2.92 1.4-5.85 2.79-8.77 4.19-.88.42-2.2.71-2.59 1.66-.16.39-.27.81-.41 1.21-1.12 3.37-2.18 6.76-3.18 10.17-2.69 9.21-5.05 18.6-5.98 28.17-.59 6.09-.48 12.24.27 18.31.12.94 1.61.95 1.5 0Z"/>
  <path d="M300.14 239.62c-4.56 13.02-7.03 26.49-7.89 40.24-.22 3.52-.37 7.03-.42 10.55l.95-.72c-3-.73-6-1.46-9-2.2-.93-.23-1.33 1.21-.4 1.44 3 .73 6 1.46 9 2.2.48.12.94-.23.95-.72.19-12.8 1.39-25.63 4.53-38.06 1.05-4.17 2.31-8.28 3.73-12.34.32-.91-1.13-1.3-1.44-.4Zm41.13 39.48c.15 1.38-.29 2.63-.92 3.85-.51.99-1.33 2-1.52 3.12-.15.86.25 1.82 1.14 2.09 1.17.35 1.71-.85 2.21-1.66.36-.59.75-1.17 1.09-1.77.19-.33.12-.43.29-.07s.33.71.46 1.08c.46 1.29.7 2.64.69 4 0 1.17-.19 2.39.19 3.53.28.83 1.04 1.73 2 1.28s1.1-2.1 1.1-3.03c0-1.47-.4-2.93-.17-4.4h-1.45c.4 1.65.56 3.29.73 4.97.11 1.06.38 2.84 1.86 2.59 1.36-.23 1.41-1.72 1.24-2.79-.26-1.64-.55-3.28-.82-4.92l-1.25.73c.41.44.32 1.31.4 1.88.11.74.27 1.48.5 2.19.3.92.83 2.12 2.02 1.66s1.05-1.85.86-2.88c-.27-1.5-.55-3.01-.83-4.51l-1.45.4c.24 1.15.42 2.33.73 3.47.21.77.61 1.62 1.41 1.93 2.27.88 1.09-3.36.96-4.21-.34-2.24-.68-4.5-1.5-6.62-.72-1.86-1.76-3.5-3-5.06-.6-.76-1.65.31-1.06 1.06 1.53 1.93 2.65 4.06 3.26 6.44.31 1.2.52 2.43.71 3.65.1.62.19 1.25.29 1.87.06.37.11.74.17 1.11l.07.48c.03.32.04.38.03.2l.45-.34c-.25.06-1.02-4.09-1.08-4.38-.2-.95-1.62-.54-1.45.4s.36 1.93.53 2.9l.3 1.61c.04.24.07.49.11.73.09.5.06.16-.05-.16-.32-.95-.51-1.92-.61-2.91-.08-.76-.19-1.41-.73-1.98s-1.37.05-1.25.73c.17 1.04.35 2.08.52 3.11.08.49.17.98.25 1.48.04.27.08.54.1.82.01.18.11.73-.07.08-.26-.97-.22-2.04-.35-3.04s-.33-2.07-.57-3.09c-.16-.68-1.33-.75-1.45 0-.21 1.33-.02 2.61.08 3.94.05.67.09 1.38-.09 2.04-.05.19-.11.37-.2.55.33.05.41-.02.25-.22.02-.27-.24-.77-.26-1.08-.09-1.37.1-2.71-.09-4.09s-.58-2.61-1.16-3.82c-.44-.92-1.34-1.81-2.33-.92-.5.45-.82 1.17-1.16 1.74-.21.34-.42.69-.64 1.03-.06.1-.45.81-.42.81-.21.06.08-.82.13-.92.17-.35.38-.68.57-1.02.34-.61.69-1.23.97-1.88.54-1.21.88-2.46.73-3.79-.1-.95-1.6-.96-1.5 0Z"/>
  <path d="M349.44 275.23c-2.74-17.91-8.86-35.32-18.05-50.94-.43-.73-.76-1.75-1.61-1.99-1.3-.36-2.97-.24-4.32-.35-2.88-.23-5.76-.47-8.64-.7-.96-.08-.95 1.42 0 1.5l12.96 1.05-.65-.37c7.76 12.83 13.42 26.86 16.81 41.46.82 3.55 1.51 7.13 2.06 10.74.15.95 1.59.55 1.44-.4Z"/>
  <path d="M329.05 241.06c3.09 10.67 5.89 21.44 8.5 32.23.53 2.17 1.06 4.34 1.47 6.53.09.5.7.66 1.1.45 2.92-1.55 6.06-2.64 8.97-4.19.85-.45.1-1.74-.75-1.29-2.92 1.55-6.06 2.64-8.97 4.19l1.1.45c-.88-4.66-2.13-9.26-3.3-13.85-1.52-5.97-3.1-11.93-4.72-17.88-.64-2.35-1.28-4.7-1.96-7.03-.27-.92-1.71-.53-1.44.4ZM289 305.91c-2.58 15.48-4.35 31.1-5.27 46.76-.25 4.28-.44 8.56-.57 12.85-.01.39.35.77.75.75 5.08-.25 10.14.16 15.11 1.26.51.11.89-.23.95-.72 1.06-9.62 2.02-19.26 3.21-28.87s2.83-19.22 4.8-28.73a428.08 428.08 0 0 1 3.58-15.78c.23-.93-1.21-1.33-1.44-.4-2.31 9.4-4.33 18.87-5.98 28.41-1.64 9.51-2.76 19.07-3.82 28.66-.61 5.57-1.23 11.13-1.84 16.7l.95-.72a58.56 58.56 0 0 0-15.51-1.31l.75.75c.6-19.84 2.53-39.63 5.79-59.22.16-.94-1.28-1.35-1.44-.4Zm9.14-42.2c-2.33 9.08-4.65 18.16-6.98 27.24-.24.93 1.2 1.33 1.44.4 2.33-9.08 4.65-18.16 6.98-27.24.24-.93-1.2-1.33-1.44-.4Z"/>
  <path d="M320.75 207.58c2.85-5.43 2.66-8.35 1.89-10.02-.38-.83-1.42-2.88-1.61-5.04-.07-.77.02-1.55.11-2.33.08-.67.15-1.34.23-2.01.08-.68-.07-1.65-.73-1.64-.27 0-.5.21-.76.31-.58.23-1.25-.09-1.64-.59-.39-.5-.58-1.14-.75-1.76-.38.11-.72.36-.95.71l-1.74-2.02c-.07.63-.65 1.15-1.26 1.13-.61-.02-1.15-.59-1.17-1.23-.47.76-1.05 1.59-1.91 1.69-.54.06-1.06-.19-1.54-.45a32.4 32.4 0 0 1-3.83-2.41c-.14-.1-.29-.21-.45-.2-.33 0-.51.4-.61.73-.18.56-.39 1.17-.87 1.49-.48.32-1.28.1-1.34-.49-.32 1.94-1.84 3.36-3.27 4.63-.44.39-.93.8-1.51.8-.65 0-1.34-.54-1.89-.16-.43.3-.5 1.04-.98 1.22-.67.24-1.23-.86-1.93-.75.27.8-.58 1.73-1.35 1.48-.5-.16-1.16-.64-1.42-.15-.08.16-.06.35-.03.53l.42 2.69c-.29-.14-.59-.29-.88-.43.73 1.73 1.46 3.45 2.19 5.18.35.83.71 1.68.78 2.58.05.65-.04 1.31-.06 1.96 0 0 0 .36.01.69.02.46 2.18 6.9 2.57 6.73.17-.08-.55-1.15-.22-2.56.32-1.39 1.34-1.74 2.21-2.79 2.11-2.53.03-5.11 1.83-7.26 1.65-1.97 3.69-.17 5.92-2.5 1.05-1.09 1.84-2.8 3.43-2.9.22-.01.38 0 .61.03 1.6.19 2.66 1.13 3.21 1.54 2.61 1.94 4.89.1 6.31 1.98.56.74.69 1.68.88 3.14.19 1.41-.02 1.82.28 3.2.1.48.19.74.83 2.5.22.62.57 1.58 1 2.78Z" fill="#ff7556"/>
  <path d="M321.4 207.96c1.83-3.54 3.4-7.46 1.65-11.29-.6-1.3-1.14-2.71-1.26-4.15-.13-1.55.35-3.06.35-4.6 0-.78-.23-1.78-1.07-2.05-.4-.13-.68 0-1.06.1-.6.14-.92.26-1.33-.39-.24-.37-.34-.85-.46-1.27-.1-.36-.54-.67-.92-.52-.53.21-.92.44-1.28.9h1.06c-.58-.67-1.16-1.35-1.74-2.02-.37-.43-1.12-.19-1.25.33-.65.56-.97.53-.99-.1-.12-.67-1.05-.68-1.37-.18-.25.4-.58 1.04-1.05 1.22-.76.29-1.56-.34-2.17-.69-1.05-.6-1.99-1.4-3.04-1.98-.54-.3-1.05-.44-1.58-.02-.24.19-.37.46-.49.74-.04.09-.73 1.64-.86 1.25-.22-.66-1.28-.77-1.44 0-.28 1.31-1.01 2.31-1.94 3.24-.42.42-.86.88-1.34 1.22-.74.53-1.08.25-1.88.15-.75-.1-1.24.19-1.69.76-.42.54-.33.5-.89.16-.37-.23-.69-.34-1.12-.35-.53-.02-.8.49-.72.95.17.98-1.34.17-1.71.19-.4.02-.77.2-.98.56-.54.95.16 2.81.32 3.79l1.1-.84-.88-.43c-.71-.35-1.31.34-1.02 1.02.55 1.3 1.1 2.59 1.64 3.89.58 1.37 1.27 2.71 1.23 4.23-.03 1.29-.04 2.21.34 3.44.43 1.34.89 2.68 1.42 3.98.25.61.62 2.01 1.5 1.98.25 0 .53-.13.65-.37.18-.36.1-.64 0-1-.23-.94-.34-1.86.31-2.66 1.04-1.28 2.29-2.02 2.67-3.77.35-1.62-.4-3.73.78-5.08 1.03-1.18 2.87-.72 4.21-1.29 1.49-.64 2.18-2 3.27-3.1 1.36-1.37 3.07-.48 4.4.48s2.55 1.3 4.13 1.35c.73.02 1.54-.05 2.12.49s.68 1.51.8 2.25c.23 1.51.09 3.07.53 4.55.48 1.6 1.12 3.17 1.69 4.74.32.9 1.77.51 1.44-.4-.57-1.57-1.22-3.14-1.69-4.74-.43-1.46-.29-3.05-.53-4.55-.23-1.43-.68-2.95-2.15-3.55-.65-.27-1.35-.27-2.04-.29-1.2-.03-2.22-.2-3.23-.91-1.23-.87-2.47-1.69-4.04-1.67-1.73.02-2.68 1.42-3.67 2.62-.7.84-1.48 1.43-2.58 1.6-.76.12-1.54.1-2.28.36-1.53.54-2.38 2.05-2.51 3.6-.09 1.1.14 2.23-.14 3.31-.32 1.26-1.27 1.87-2.1 2.76-.62.65-1.01 1.45-1.08 2.35-.04.42 0 .86.08 1.27.03.16.07.38.14.54.16.39-.08.47.18-.05l.65-.37c.84-.03.41.47.31-.06-.03-.2-.21-.44-.29-.63-.25-.58-.47-1.18-.68-1.77-.39-1.08-.83-2.19-1.09-3.31-.09-.37-.09-.39-.08-.9.02-1.22.13-2.3-.25-3.48-.72-2.26-1.84-4.44-2.76-6.62l-1.02 1.02.88.43c.62.3 1.2-.19 1.1-.84-.03-.2-.5-2.26-.39-2.34.06-.05 1.16.28 1.47.18 1.05-.32 1.47-1.4 1.29-2.39l-.72.95c.53.02.93.66 1.48.75.4.07.79-.04 1.11-.3.39-.31.48-.97 1.02-1.01.57-.05 1.08.34 1.72.18 1.11-.29 2.16-1.48 2.92-2.28.99-1.04 1.75-2.21 2.05-3.63h-1.44c.33.99 1.34 1.46 2.31.99.54-.26.87-.78 1.1-1.31.05-.11.25-.78.21-.76.08-.04 1.04.73 1.12.78 1.19.8 2.76 2.05 4.23 2.18 1.4.12 2.28-.99 2.95-2.05l-1.37-.18c.39 2.25 3.33 2.26 3.87.1l-1.25.33 1.74 2.02c.24.28.82.3 1.06 0 .14-.24.35-.41.62-.52l-.92-.52c.3 1.05.68 2.17 1.7 2.71.38.2.79.3 1.21.25.56-.06.85-.64.94-.02.18 1.25-.32 2.69-.36 3.95-.04 1.42.28 2.82.77 4.15.55 1.47 1.35 2.72 1.34 4.33-.01 2.51-1.15 4.96-2.28 7.14-.44.85.85 1.61 1.29.75Z" fill="#ff5600"/>
  <path d="M315.72 220.65c-.54.36-.72.92-1.03 1.46s-.63 1.08-.92 1.63c-.91 1.73-1.59 3.55-2.09 5.44-.25.93 1.2 1.33 1.44.4.45-1.73 1.06-3.4 1.89-4.98.28-.53.58-1.05.88-1.57.09-.15.18-.3.26-.46.09-.18.16-.51.32-.62.79-.54.05-1.83-.75-1.29Zm-5.55 8.49c-2-1.3-4.05-2.54-6.13-3.71-.84-.47-1.59.82-.75 1.29 2.08 1.17 4.13 2.41 6.13 3.71.34.22.83.07 1.02-.27.21-.36.07-.8-.27-1.02Z"/>
  <path d="M315.45 221.09c.5 1.54 1.91 2.56 3.55 2.21l-.92-.92c-.88 2.57-2.31 4.88-3.66 7.23l.84-.34c-.89-.21-1.78-.41-2.67-.62-.94-.22-1.34 1.22-.4 1.44.89.21 1.78.41 2.67.62.32.08.68-.05.84-.34 1.41-2.46 2.88-4.89 3.81-7.59.2-.57-.4-1.03-.92-.92s-1.03-.1-1.37-.53c-.11-.14-.18-.29-.26-.44l-.06-.12c.04.09.04.1.01.03-.01-.04-.03-.07-.04-.11-.3-.91-1.74-.52-1.44.4Zm-12.28 4.31-1.66 1.16c-.53.37-1.17.75-.96 1.51.16.6.68.94 1.22 1.17.6.25 1.2.47 1.81.7 1.27.49 2.55.98 3.82 1.48.32.12.64.25.96.37.29.11.61.29.92.3.8.02 1-.85 1.24-1.43.16-.37.11-.8-.27-1.02-.31-.18-.86-.11-1.02.27-.09.21-.22.76-.39.91l.53-.22c-.16 0-.71-.28-.93-.37-.32-.12-.64-.25-.96-.37-.69-.27-1.38-.53-2.07-.8s-1.38-.53-2.07-.8c-.32-.12-.64-.24-.96-.37-.08-.04-.17-.07-.25-.12a.38.38 0 0 1-.13-.09c-.03-.04-.03-.03.01 0l-.1.38s.33-.2.41-.26l.53-.37 1.06-.74c.33-.23.48-.65.27-1.02-.19-.33-.69-.5-1.02-.27Z"/>
  <path d="m311.53 229.82.06 3.6 1.39-.38c-.64-1.27-1.45-2.45-2.4-3.52-.26-.29-.8-.29-1.06 0-.29.31-.28.74 0 1.06.22.25.44.51.65.78-.11-.14.06.08.08.1l.15.21.27.39c.38.56.71 1.14 1.02 1.74.14.28.55.44.84.34s.55-.38.55-.72l-.06-3.6c0-.39-.34-.77-.75-.75s-.75.33-.75.75Zm19.24 32.29c-10.48.77-20.98 1.18-31.48 1.22-.96 0-.96 1.5 0 1.5 10.5-.05 21-.45 31.48-1.22.95-.07.96-1.57 0-1.5Zm283.52-13.41a4.49 4.49 0 0 1-4.46-1.33c-.35-.38-1.17-.23-1.25.33 0 .05-.02.1-.04.15.07-.18-.03.06-.05.09-.13.22-.26.44-.41.64-.43.58-.96 1.1-1.52 1.55-.71.58-1.5 1.06-2.28 1.55-.27.17-.55.34-.84.48-.21.1-.29.14-.41.13-.67-.04-.96.84-.53 1.28a5.964 5.964 0 0 1 1.68 4.23c0 .97 1.5.97 1.5 0 0-1.98-.75-3.86-2.12-5.29l-.53 1.28c.61.04 1.24-.35 1.74-.65.93-.55 1.85-1.15 2.7-1.82.7-.56 1.33-1.21 1.86-1.93.27-.36.63-.84.7-1.3l-1.25.33c1.5 1.64 3.78 2.26 5.92 1.72.94-.24.54-1.68-.4-1.45Zm13.28 1.43c-.52 1.45-1.7 2.69-1.71 4.3 0 1.08.43 2.17.84 3.15 1.46 3.47 3.45 6.73 5.03 10.16.42.92.84 1.85 1.24 2.78.38.88 1.14 2.08 1.14 3.08s-1.1 2.01-1.69 2.76c-.64.83-1.28 1.65-1.92 2.48-2.31 2.97-4.51 6.76-7.82 8.71-2.98 1.75-6.57 2.44-8.93 5.14l1.18.15-12.69-22.02c-.48-.84-1.78-.08-1.3.76l12.69 22.02c.23.4.86.52 1.18.15 2.22-2.54 5.65-3.2 8.47-4.81 3.29-1.88 5.42-5.34 7.69-8.27 1.22-1.58 2.47-3.14 3.67-4.73 1.09-1.44 1.12-2.62.43-4.27-1.57-3.81-3.34-7.55-5.27-11.19-.84-1.59-1.77-3.19-2.25-4.94-.52-1.94.84-3.27 1.46-5 .32-.91-1.12-1.3-1.45-.4Z"/>
  <path d="M604.25 257.33c-2.6 2.78-7 1.89-10.37 1.55-4.51-.46-9.04-.77-13.57-.95-9.15-.36-18.31-.13-27.43.64-.38.03-.78.32-.75.75.19 2.85.37 5.71.56 8.56.03.42.32.72.75.75 8.87.54 17.76.93 26.61 1.69 7.13.61 14.28 1.29 21.43 1.56.97.04.96-1.46 0-1.5-7.15-.27-14.3-.95-21.43-1.56-8.85-.76-17.74-1.15-26.61-1.69l.75.75c-.19-2.85-.37-5.71-.56-8.56l-.75.75c9.61-.82 19.28-1.02 28.92-.58 4.72.22 9.41.63 14.1 1.1 3.27.32 6.99.38 9.41-2.2.66-.7-.4-1.77-1.06-1.06Zm8.95 34.88c-.26 4.87 1.15 10.05 4.33 13.82 1.58 1.87 3.84 2.96 5.4 4.86 1.46 1.79 2.23 4 2.73 6.23 1.2 5.23 1.78 10.79 1.73 16.15-.03 3.58-.05 7.16.03 10.75.15 6.71.49 13.42.93 20.12.03.38.32.78.75.75 4.54-.29 9.08-.58 13.61-.88.39-.03.77-.32.75-.75-.41-10.51-.55-21.01-.69-31.52-.1-7.37-.86-14.79-1.73-22.1-.17-1.45-.43-2.86-.71-4.29-.66-3.43-.76-6.78.68-10.04 1.57-3.56 4.65-6.23 7.01-9.26 3.21-4.12 6.06-8.51 8.72-13 3.03-5.11 5.53-10.51 8.48-15.67 2.62-4.6 5.43-9.07 7.94-13.74 2.78-5.18 5.56-10.34 8.54-15.41.15-.26.14-.71-.12-.91-2.99-2.36-5.98-4.71-8.97-7.07-.38-.3-.9-.29-1.18.15-5.96 9.47-11.91 18.95-17.97 28.35-2.48 3.85-5.02 7.7-7.84 11.31-3.55 4.52-7.37 8.83-11.13 13.17-.63.73.43 1.79 1.06 1.06 3.56-4.11 7.15-8.21 10.56-12.45 1.8-2.24 3.42-4.62 5.1-6.94 3.32-4.59 6.21-9.53 9.25-14.31 4.11-6.47 8.19-12.94 12.27-19.42l-1.18.15c2.99 2.36 5.98 4.71 8.97 7.07l-.12-.91c-5.18 8.79-9.74 17.92-15.02 26.66-2.81 4.64-5.19 9.5-7.7 14.29-2.71 5.17-5.99 10.19-9.46 14.89a72.343 72.343 0 0 1-3.63 4.55c-1.19 1.37-2.46 2.66-3.48 4.17-1.59 2.35-2.58 5.08-2.77 7.91-.18 2.62.46 5.13.91 7.69.64 3.66.84 7.42 1.16 11.11s.71 7.31.82 10.97c.32 11.18.3 22.36.73 33.54l.75-.75c-4.54.29-9.08.58-13.61.88l.75.75c-.66-9.99-1.14-20.01-.97-30.02.08-4.89-.46-9.76-1.24-14.59s-2.08-8.87-5.9-11.81c-2.15-1.66-3.89-3.36-5.1-5.81-1.49-3.01-2.12-6.35-1.94-9.69.05-.96-1.45-.96-1.5 0Z"/>
  <path d="M552.47 259.55c-1.47.22-2.39-1.6-3.17-2.56-.71-.87-1.7-2.35-2.89-2.64-1.12-.27-2.15.91-2 1.98.11.83.86 1.25 1.43 1.77.73.68 1.18 1.5 1.48 2.45l.92-.92c-2.45-.65-4.92-1.34-7.25-2.34-1.65-.71-3.32-2-5.21-1.42-.78.23-1.65.85-1.46 1.78.16.77.98 1.25 1.61 1.6 2.35 1.32 4.99 2.26 7.54 3.09l.4-1.45c-2.92-.58-5.83-1.17-8.75-1.75-.95-.19-2.22-.76-3.12-.23-.64.37-1.08 1.15-.81 1.89.25.68 1 1 1.62 1.24 1.16.45 2.39.71 3.58 1.04 1.84.5 3.65 1.07 5.43 1.76l.2-1.47c-2.27 0-4.48-.22-6.73-.54-1.38-.2-3.64-.48-3.82 1.49-.17 1.86 1.87 2.22 3.28 2.31 2.37.15 4.75.29 7.12.47l-.2-1.47c-1.45.29-2.89.61-4.31 1.01-.82.23-2.03.48-2.51 1.29-.43.72-.04 1.64.61 2.09s1.39.39 2.1.28c2.53-.38 4.97-1.28 7.54-1.51 1.24-.11 2.48-.02 3.72-.13 1.41-.13 2.79-.39 4.15-.79.92-.27.53-1.72-.4-1.45-2.05.6-4.07.77-6.2.8-1.97.03-3.88.44-5.79.87-.35.08-4.35 1.25-4.43.59-.06-.49 5.42-1.51 5.92-1.61.87-.18.6-1.41-.2-1.47-1.72-.13-3.43-.25-5.15-.35-.69-.04-1.38-.07-2.08-.12-.3-.02-2.22-.19-1.55-.88.31-.32 1.6 0 1.96.06.68.1 1.37.21 2.05.29 1.63.2 3.27.28 4.91.28.89 0 .96-1.18.2-1.47-2.86-1.11-5.86-1.67-8.74-2.7-.14-.05-.8-.22-.85-.39-.06-.19 1.03.08 1.07.09 1.08.22 2.17.44 3.25.65 2.17.44 4.34.87 6.51 1.31.94.19 1.32-1.15.4-1.45-2.03-.66-4.04-1.41-5.97-2.32-.45-.21-.9-.43-1.34-.68-.18-.11-.36-.22-.54-.34-.16-.11-.17-.24-.2-.16.04-.1 1.1-.15 1.33-.12.45.06.89.26 1.3.46 3 1.5 6.15 2.5 9.39 3.36.53.14 1.1-.37.92-.92-.46-1.42-1.17-2.5-2.3-3.47-.31-.27-.78-.51-.33-.89-.08.07-.03.02-.11 0 .38.08.79.65 1.04.91 1.68 1.78 2.91 4.72 5.79 4.29.95-.14.55-1.59-.4-1.45Zm121.33-37.72c.94-1.28 2.52-2.79 2.71-4.45.18-1.56-.98-3.1-1.92-4.23-1.12-1.34-2.95-2.22-3.27-4.07s.53-3.65 1.4-5.16l-.85.34c2.82.85 4.99 2.88 7.12 4.82 1.15 1.05 2.3 2.11 3.45 3.16.63.57 1.25 1.15 1.88 1.72.6.54 1.47 1.13 1.92 1.8l-.08-.58c-.37.91-1.26 1.78-1.84 2.58l-1.82 2.51c-1.21 1.67-2.42 3.35-3.63 5.02-.57.78.73 1.53 1.3.76 1.82-2.51 3.63-5.02 5.45-7.53.48-.66.95-1.32 1.43-1.97.28-.38.69-.85.57-1.37-.12-.48-.64-.83-.97-1.14l-1.73-1.58c-2.13-1.95-4.22-3.93-6.39-5.83-1.86-1.64-3.85-3.11-6.25-3.83a.775.775 0 0 0-.85.34c-1.45 2.53-2.6 6.02-.48 8.53 1.19 1.4 2.65 2.31 3.57 3.96.63 1.13.57 1.83-.12 2.85-.6.88-1.26 1.72-1.89 2.58-.57.78.73 1.53 1.3.76Z"/>
  <path d="M606.5 228.42c3.98 4.83 3.57 10.87 3.44 13.01-.18 2.95-.46 7.45-3.83 9.97-4.66 3.47-11.43.32-12.24-.06-5-2.33-7.25-6.64-8.1-8.35-2.24-4.5-4.87-14.1.33-18.72 5.23-4.64 15.56-1.74 20.41 4.15Z" fill="none" stroke="#000" stroke-miterlimit="10" stroke-width=".5"/>
  <path d="M613.86 249.73c.83 3.92 1.48 7.88 1.93 11.86l.95-.72c-4.06-.88-7.91-2.55-12.01-3.24-.94-.16-1.35 1.29-.4 1.45 4.1.69 7.95 2.36 12.01 3.24.43.09 1.01-.21.95-.72-.47-4.11-1.13-8.2-1.99-12.25-.2-.94-1.65-.54-1.45.4Zm25.15 113.97c-.04 1.98-.63 4.82 1.18 6.21s4.03 1.53 6.15 1.86c1.25.2 2.62.54 3.68 1.25 1.81 1.2 1.34 3.21.21 4.73l.65-.37c-6.33-.22-12.67-.22-19 0l.75.75c.08-4.74.15-9.48.23-14.22.02-.97-1.48-.97-1.5 0-.08 4.74-.15 9.48-.23 14.22 0 .39.35.76.75.75 3.51-.12 7.02-.18 10.54-.17 1.88 0 3.75.03 5.63.08 1.13.03 2.93.54 3.65-.52 1.3-1.9 1.6-4.46-.29-6.09-1.32-1.13-3.17-1.65-4.87-1.9s-3.38-.42-4.93-1.26c-.99-.54-1.16-1.27-1.15-2.33 0-1 .03-2 .05-3.01s-1.48-.97-1.5 0Z"/>
  <path d="M613.59 250.36c3.54-.65 5.5-3.97 6.99-6.93 2.15-4.26 4.37-8.47 6.76-12.6 4.78-8.25 10.1-16.18 15.9-23.74l-1.03.27 6.91 5.08-.27-1.03c-4.03 7.22-8.22 14.37-12.06 21.68-2.92 5.56-5.84 11.14-8.88 16.64-.47.85.83 1.6 1.3.76 3.04-5.5 5.95-11.08 8.88-16.64 3.85-7.31 8.04-14.46 12.06-21.68.21-.38.06-.78-.27-1.03l-6.91-5.08c-.35-.26-.8-.02-1.03.27-5.52 7.2-10.61 14.73-15.21 22.56-2.28 3.88-4.44 7.83-6.48 11.84-1.58 3.11-3.2 7.47-7.07 8.19-.95.18-.55 1.62.4 1.45Z"/>
  <path d="M644.04 207.57c1.86-2.14.1-4.75-.49-7.06-.07-.26-.39-1.1-.24-1.39.07-.14-.08-.03.02-.09.4-.22.47.66.48.78.22 1.53.73 2.7 1.72 3.91.38.46 1.1.16 1.25-.33 1.04-3.26 1.81-6.46 2.24-9.85.11-.88.41-1.45 1-2.08.22-.24.1-.17.1-.17.08.14.05.36.05.52 0 .45-.04.9-.09 1.35-.26 2.3-.75 4.58-1.33 6.82-.25.95 1.1 1.28 1.45.4.8-2.06 1.61-4.12 2.41-6.19.35-.9.7-1.8 1.05-2.71.11-.28.28-1.03.41-1.21.43-.57.2.37.17.54-.3 1.75-1.04 3.46-1.54 5.17-.38 1.3-.7 2.62-.97 3.95-.17.83.9 1.31 1.37.58.86-1.34 1.66-2.73 2.35-4.17.28-.57.53-1.15.79-1.73.17-.37.58-1.7 1.03-1.87.9-.33.11 1.49-.07 1.81-.32.58-.66 1.16-.98 1.74-.84 1.5-1.66 3.01-2.48 4.53-.4.73.57 1.54 1.18.91.78-.81 1.57-1.6 2.39-2.36.26-.24 1.73-1.87 2.11-1.71.5.21-2.39 2.94-2.61 3.15-1.44 1.42-2.87 2.83-4.01 4.51-1.23 1.82-2.47 3.5-4.14 4.96-.73.63.34 1.69 1.06 1.06 1.06-.93 2.03-1.95 2.89-3.07s1.48-2.29 2.34-3.35c1.63-2 3.81-3.53 5.38-5.57.78-1.02.89-3.34-.98-3.2-.95.07-1.79.96-2.45 1.55-1.05.95-2.06 1.94-3.04 2.96l1.18.91c1.09-2.02 2.2-4.03 3.32-6.03.73-1.29 1.69-3.42-.18-4.25-1.75-.78-2.67 1.29-3.23 2.55-.92 2.04-1.93 4.01-3.15 5.9l1.37.58c.38-1.87.88-3.7 1.44-5.52.37-1.19.83-2.37 1.06-3.59.13-.68.26-1.5-.24-2.07s-1.37-.57-2.01-.23c-.93.5-1.16 2.01-1.52 2.94-1.05 2.71-2.11 5.41-3.16 8.12l1.45.4c.7-2.67 1.41-5.53 1.47-8.3.02-.69-.02-1.62-.67-2.05-.78-.51-1.75.04-2.32.62-1.27 1.29-1.1 3.19-1.38 4.84-.42 2.55-1.18 5.05-1.96 7.51l1.25-.33c-.64-.78-1.08-1.62-1.25-2.62-.12-.7-.09-1.52-.66-2.04-.82-.75-2.4-.54-2.79.56-.36 1.02.2 2.42.5 3.37.4 1.3 1.66 3.33.58 4.58-.63.73.43 1.79 1.06 1.06Z"/>
  <path d="M586.63 220.48c-3.94 1.64-6.02.9-7.86 3.02-.3.35-1.17 1.38-1.37 2.86-.16 1.19.25 1.76.39 2.97.24 1.96-.56 2.5-.89 4.66-.52 3.36 1.16 3.78.68 7.04-.41 2.84-1.64 2.98-1.45 4.78.25 2.31 3.16 3.38 4.08 5.51.57 1.32.32 2.95 1.13 4.14.87 1.29 2.69 1.66 3.61 2.92.87 1.19.77 2.96 1.85 3.96.44.41.64.79 1.08 1.07 1.46.94 3.09.3 5.38-.05 3.67-.56 3.58.45 5.91-.2.65-.18 4.98-1.43 5.63-4.94.51-2.79-1.67-5.09-2-5.44-.97.24-2.42.48-4.15.32-3.31-.3-5.52-1.94-6.89-2.81-1.78-1.12-4.89-3.51-5.99-7.47-.55-1.95-.18-4.26.58-8.8.93-5.61 1.43-8.43 2.96-9.24 1.5-.79 2.23.25 8.22.54 3.13.15 3.42-.12 4.7.31 3.04 1.02 4.68 3.66 5.56 5.08 2.3 3.7 2.39 7.4 2.4 8.41.02 1.81-.28 4.44-.31 4.7-.3 2.61-.57 3.08-.27 4.11.31 1.04 1.31 1.95 3.29 3.75 2.66 2.42 3.44 2.58 3.95 2.62 1.57.1 2.85-.86 3.01-.98 1.07-.83.87-1.47 1.91-2.23 1.14-.82 1.78-.35 3.01-.98 1.38-.71 2.69-2.38 2.62-3.95-.07-1.46-1.26-1.29-3.25-4.34-1.3-1.99-1.54-3.21-2.88-3.75-.36-.14-.93-.3-1.55-.82-.68-.58-.98-1.24-1.11-1.52-.65-1.39-1.61-2.62-2.28-3.99-1.3-2.65-2.84-2.63-5.7-6.03-3.39-4.02-2.72-5.79-5.56-7.53-1.74-1.07-3.42-1.29-5.21-1.52-1.19-.16-4.26-.52-7.71.67-2.93 1.02-2.29 1.83-5.51 3.18Z" fill="#92a377"/>
  <path d="M586.43 219.76c-2.04.82-4.3.96-6.3 1.83-1.57.69-2.8 2.18-3.29 3.81-.3 1.01-.23 1.96 0 2.97.33 1.49.15 2.48-.3 3.89-.66 2.11-.48 3.9.11 5.97.32 1.13.33 2.25.05 3.4-.22.89-.7 1.61-1.05 2.44-.7 1.67 0 3.29 1.18 4.54.69.73 1.51 1.34 2.14 2.13.92 1.15.79 2.51 1.17 3.85.26.91.74 1.64 1.48 2.23.98.78 2.32 1.21 2.93 2.36.51.95.58 2.09 1.17 3.01.54.86 1.42 1.76 2.37 2.15 2.2.9 4.82-.39 7.08-.42 1.49-.02 2.77.34 4.25-.07 1.27-.36 2.52-.93 3.58-1.73 3.27-2.45 3.2-6.52.65-9.51-.53-.62-.85-.6-1.64-.44-1.45.28-2.97.3-4.41 0-2.1-.42-3.88-1.51-5.65-2.66-3.39-2.23-5.96-5.64-5.67-9.84.19-2.72.75-5.43 1.22-8.11.31-1.74.49-4.03 1.53-5.54.57-.82 1.32-.85 2.22-.71 1.85.29 3.67.59 5.55.71 1.65.1 3.6-.21 5.2.32 2.17.72 3.7 2.5 4.89 4.37 2.51 3.96 2.74 8.1 2.27 12.61-.15 1.45-.71 3.14-.34 4.6.44 1.8 2.23 3.1 3.53 4.27 1.11 1 2.45 2.4 3.97 2.77 1.38.33 2.99-.26 4.06-1.13.82-.67 1.17-1.85 2.12-2.35.54-.28 1.15-.24 1.72-.39s1.1-.43 1.59-.78c1.43-1.03 2.79-3.06 2.21-4.9-.18-.57-.59-.98-1.01-1.39-.83-.81-1.59-1.64-2.23-2.61-.61-.92-1.05-1.96-1.72-2.84s-1.38-1.04-2.27-1.52c-1.15-.63-1.52-1.76-2.14-2.83-.71-1.22-1.38-2.5-2.14-3.68-.94-1.46-2.4-2.39-3.65-3.56-1.88-1.76-3.29-3.81-4.48-6.08-.81-1.55-1.79-2.79-3.36-3.63-1.98-1.07-4.33-1.38-6.55-1.53-2.49-.16-5.08.18-7.38 1.16-1.76.76-3.08 2.16-4.86 2.93-.88.38-.12 1.68.76 1.3 1.24-.54 2.21-1.24 3.28-2.04 1.3-.98 2.96-1.44 4.54-1.69 2.94-.47 6.78-.26 9.44 1.17 2.27 1.22 2.91 3.59 4.26 5.61.97 1.45 2.11 2.8 3.39 3.98.85.78 1.81 1.44 2.6 2.28 1.02 1.08 1.62 2.57 2.39 3.83s1.25 2.7 2.4 3.61c.57.45 1.19.59 1.8.94s.92.91 1.25 1.48c.81 1.42 1.64 2.82 2.77 4.01.5.53 1.39 1.05 1.49 1.83.23 1.89-1.87 3.35-3.46 3.63-1.38.24-2.23.88-3.02 2.02-.73 1.07-1.99 1.94-3.37 1.75-.47-.06-1.21-.58-1.69-.95-1.3-.99-2.53-2.13-3.67-3.29-.69-.71-1.27-1.41-1.23-2.45.04-1.11.31-2.22.43-3.33.59-5.43 0-10.46-3.41-14.95-1.43-1.89-3.53-3.66-5.97-3.92-1.08-.11-2.19-.02-3.27-.06-1.64-.06-3.28-.2-4.9-.46-1.3-.21-2.73-.69-3.99-.08-1.6.77-2.11 2.74-2.48 4.33-.76 3.24-1.28 6.6-1.69 9.91-.31 2.51-.17 4.75 1.03 7.04s3.05 4.05 5.15 5.44 4.45 2.71 7.11 3.04c1.6.2 3.2.07 4.77-.3l-.73-.19c1.63 1.7 2.59 4.32 1.08 6.42-1 1.38-2.7 2.23-4.31 2.68-.84.24-1.56.22-2.41.11-1.2-.15-2.37-.07-3.56.11-1.36.21-3.18.92-4.5.29-1.54-.74-1.86-2.43-2.41-3.85-.42-1.08-1.11-1.81-2.06-2.44-.59-.39-1.28-.69-1.79-1.21-.75-.76-.8-1.79-.97-2.79-.2-1.2-.6-2.2-1.42-3.12s-1.97-1.66-2.64-2.74c-.6-.97-.42-1.77.06-2.7.63-1.21 1.02-2.47 1.08-3.85.05-1.05-.2-2.02-.5-3.01-.44-1.43-.44-2.77-.02-4.23.38-1.35.83-2.43.63-3.86-.14-1.01-.54-1.94-.33-2.97.14-.67.46-1.31.87-1.85.75-.99 1.73-1.46 2.91-1.75 1.65-.4 3.27-.72 4.85-1.36.88-.36.5-1.81-.4-1.45Z" fill="#006837"/>
  <path d="M664.98 100.63c-6.36 9.97-15.54 21.03-58.79 49-21.16 13.69-49.9 31.04-85.42 49 2.31 35.28 5.94 63.25 8.93 82.78 3.51 22.85 2.14 46.39 5.76 69.22 1.5 9.46 3.84 22.18-2.76 30-5.75 6.82-15.76 6.93-22.04 7-13.46.15-15.21-5.35-29.39-6-13.68-.63-19.39 4.15-22.71.11-3.4-4.13 2.49-10.8 3.11-26.03.73-18.13-2.51-28.03 2.16-73.08 1.79-17.24 3.6-28.68 5.25-37.29 1.87-9.75 3.56-18.17 5.44-26.88 1.93-8.97 3.66-16.45 4.93-21.83-7.59-27.7-14.8-62.09-18.37-102a587.263 587.263 0 0 1-.92-93c78.07-.67 161.66.67 239.73 0-1.73 8.37-4.44 20.11-8.54 33.87-5.59 18.75-13.34 44.73-26.36 65.13Z" fill="#c1272d"/>
  <path d="M663.74 99.9c-7.04 11.01-17.08 19.45-27.44 27.25-21.5 16.2-44.63 30.45-67.88 43.97-15.86 9.23-32 17.98-48.37 26.26-.42.21-.74.77-.71 1.24 1.53 23.24 3.82 46.42 6.99 69.49 1.49 10.86 3.21 21.63 3.95 32.58.91 13.56 1.09 27.16 2.54 40.68.62 5.82 1.73 11.57 2.41 17.39.6 5.15.9 10.59-.71 15.59-3.31 10.25-14.13 11.72-23.45 11.82-4.7.05-9.06-.69-13.47-2.29-3.99-1.44-7.89-2.78-12.12-3.34-5.43-.71-10.89-.46-16.28.4-2.39.38-6.35 1.87-8.67.59-2.17-1.2-1.61-3.99-1.14-5.96.98-4.14 2.28-8.16 2.96-12.38 1.04-6.52.96-13.16.77-19.74-.43-14.63-.47-29.12.61-43.74 1.66-22.39 4.76-44.48 9.18-66.48 2.34-11.66 4.88-23.28 7.6-34.86.26-1.09.41-1.85.11-2.94-.34-1.24-.67-2.49-1.01-3.74a569.528 569.528 0 0 1-5.7-23.44c-5.48-24.77-9.34-49.9-11.53-75.18a586.12 586.12 0 0 1-1.68-75.43c.23-5.35.53-10.7.89-16.04l-1.44 1.44c31.13-.26 62.26-.21 93.39-.1 31.38.11 62.75.29 94.13.3 17.4 0 34.81-.04 52.21-.19l-1.39-1.82c-2.72 13.08-6.15 25.96-10 38.74-3.92 13.04-8.1 26.04-13.55 38.53-3.22 7.38-6.89 14.58-11.21 21.39-.99 1.57 1.49 3.01 2.48 1.45 7.64-12.03 13.24-25.25 17.98-38.65s8.64-26.37 12.15-39.75C698.16 16 699.8 9.02 701.26 2c.19-.9-.4-1.83-1.39-1.82-31.13.26-62.26.21-93.39.1C575.11.19 543.74 0 512.36 0c-17.4 0-34.81.04-52.21.19-.82 0-1.38.66-1.44 1.44a589.216 589.216 0 0 0-.5 73.51c1.48 26.51 4.76 52.93 9.82 78.99a584.83 584.83 0 0 0 7.51 33.43c.65 2.54 1.32 5.07 2 7.6.31 1.16.34 1.79.06 2.96-.31 1.3-.61 2.61-.91 3.91a1160.1 1160.1 0 0 0-4.08 18.39c-2.33 10.94-4.62 21.91-6.43 32.95s-3.22 22.93-4.32 34.45c-1.64 17.06-2.37 34.08-1.78 51.2.18 5.36.36 10.72.17 16.09s-1.07 10.19-2.42 15.17c-.79 2.93-2.09 6.18-1.69 9.28.96 7.45 9.66 4.81 14.52 4.08 5.65-.85 11.56-.93 17.18.22 4.07.84 7.82 2.57 11.78 3.76 4.5 1.35 9.11 1.54 13.78 1.41s9.1-.62 13.29-2.37c4.48-1.88 8.03-5.25 9.93-9.75 2.01-4.79 2.17-10.15 1.76-15.25-.45-5.68-1.62-11.27-2.32-16.92-.86-6.92-1.33-13.88-1.71-20.84-.74-13.81-1.08-27.67-3.06-41.38-3.06-21.17-5.76-42.34-7.58-63.66-.57-6.73-1.08-13.47-1.52-20.21l-.71 1.24c27.06-13.69 53.47-28.67 79.07-44.93 11.76-7.47 23.43-15.14 34.64-23.41 7.07-5.21 14.05-10.66 20.29-16.87 4.06-4.05 7.64-8.48 10.73-13.31 1-1.56-1.49-3.01-2.48-1.45ZM381.6 215.61c-2.15.37-4.32.65-6.49.84-.43.04-.8.34-.8.8 0 .4.37.84.8.8 2.32-.2 4.63-.5 6.92-.9.43-.07.67-.6.56-.99-.12-.45-.56-.63-.99-.56Z"/>
  <path d="M376.78 180.34c-2.13 13.58-3.13 27.31-3.06 41.06.02 3.29.09 6.58.21 9.86.04 1.03 1.64 1.03 1.6 0-.51-13.67-.1-27.35 1.47-40.95.37-3.19.81-6.38 1.31-9.55.16-1.01-1.38-1.44-1.54-.43Z"/>
  <path d="M378.39 180.77c.95-3.88 1.53-7.87 2.39-11.78.16-.74.44-1.49.57-2.22 0-.02.12-.25.12-.25-.05-.04-.36.23-.35.2-.02.05.23.51.25.63.1.76-.14 1.65-.18 2.41-.04.57-.22 1.48.12 1.99.25.39.69.48 1.1.29.86-.4 1.05-2.28 1.13-3.05.11-.94.02-1.84-.12-2.77-.07-.46-.16-.91-.04-1.37.04-.15.09-.3.17-.43.05-.08-.13-.28.03.05.62 1.34.14 2.91 0 4.31-.08.82-.14 1.65-.13 2.48 0 .44-.03 1.12.36 1.44.21.17.5.32.78.21.68-.27.83-1.02 1.01-1.67.26-.93.47-1.88.66-2.82.16-.8.31-1.6.43-2.41.08-.5.12-1.04.27-1.54.08-.27.49-.82.72-.45.15.24-.34 1.59-.4 1.9-.13.72-.23 1.44-.38 2.16-.27 1.28-.68 2.53-.91 3.82-.11.62-.26 1.55.54 1.78.52.15.9-.23 1.18-.6 1.16-1.57 2.08-3.34 3.16-4.97.27-.41.64-1.21 1.11-1.44.33-.16.36.08.29.41-.21.91-1.35 1.87-1.91 2.58-.77.98-1.53 1.98-2.18 3.05-.34.57-.93 1.44-.56 2.13.77 1.43 3.09-.77 4.22-.47.29.08.58.63.53.13-.04-.39-.07-.19-.38-.01-.53.31-1.1.56-1.65.83-1.18.56-2.31 1.15-3.33 1.98-1.56 1.26-2.75 2.9-3.66 4.67-.47.92.91 1.73 1.38.81 1.35-2.62 3.25-4.55 5.92-5.84.92-.45 2.84-.98 3.2-2.1.41-1.26-1.33-2.1-2.32-2.08-.66.01-1.29.24-1.9.48-.28.11-.55.23-.83.34 0 0-.26.08-.28.11-.13.03-.15.04-.06.04l.65.74.35-.73c.21-.36.43-.7.66-1.04.6-.88 1.25-1.73 1.92-2.56.73-.9 1.89-2 1.89-3.25s-1.26-2.34-2.47-1.76c-.65.31-1.1.96-1.51 1.53-.64.9-1.23 1.85-1.81 2.79-.42.67-.83 1.34-1.24 2.01-.14.22-.31.43-.43.66-.01.02-.08.18-.08.11.03-.03.01-.02-.03.03-.16.15-.02.1.41-.14l.57.23c.44.45.08.41.2.09.08-.21.09-.48.14-.71.14-.63.3-1.25.46-1.87.34-1.33.53-2.67.81-4 .19-.92.69-2.11 0-2.94-.6-.72-1.75-.69-2.51-.26-1.25.71-1.18 2.49-1.4 3.74-.19 1.09-.4 2.17-.66 3.25-.08.32-.16.64-.24.97-.05.19-.15.4-.17.6-.05.39-.36.38.22.15l.78.21c.38.31.06.31.12.11.04-.14-.01-.38-.01-.53 0-.45.02-.91.05-1.36.06-1.04.22-2.07.32-3.1.13-1.25.03-3.25-1.29-3.92-1.63-.82-2.49 1.63-2.41 2.82.07 1.12.36 2.16.22 3.29-.05.44-.15.88-.28 1.31-.05.15-.13.31-.16.46-.04.21-.28.18.09 0l1.1.29c.15.23.06-.21.06-.32 0-.26.02-.51.04-.77.03-.59.1-1.18.16-1.77.07-.71.02-1.37-.34-2.01s-1.07-1.33-1.88-.96c-.58.26-.82.91-1 1.47-.8 2.46-1.19 5.12-1.68 7.65-.4 2.03-.7 4.1-1.19 6.11-.25 1 1.3 1.43 1.54.43Z"/>
  <path d="M384.79 182.49c.07-.22.15-.43.23-.64l-.08.19c.14-.33.31-.64.49-.95.11-.17.13-.42.08-.62a.777.777 0 0 0-.37-.48c-.19-.1-.41-.15-.62-.08s-.37.19-.48.37a8.4 8.4 0 0 0-.81 1.78c-.06.19-.02.44.08.62s.29.32.48.37c.2.05.44.04.62-.08s.3-.27.37-.48Z"/>
  <path d="M386.88 232.17c-2.38-7.34-3.58-14.94-3.63-22.66-.04-5.65.38-11.33.57-16.97.11-3.28 0-6.88.97-10.05.3-.99-1.24-1.41-1.54-.43-.78 2.58-.81 5.45-.94 8.12-.19 3.98-.2 7.96-.42 11.93-.34 5.91-.32 11.79.49 17.68.6 4.35 1.61 8.63 2.96 12.81.32.98 1.86.56 1.54-.43Zm-10.06 13.85c-.02 4.31.01 8.62.15 12.92.07 2.16.15 4.31.3 6.47.1 1.45.29 2.92.21 4.38-.18 3.33-1.88 6.2-3.96 8.7s-4.22 4.91-6.01 7.62c-2.2 3.32-3.94 6.92-5.33 10.64-.15.4.17.88.56.99 4.5 1.18 9.06 2.13 13.69 2.67 3.85.45 7.74.43 11.57 1.05 3.5.56 6.87 1.76 10.42.83 1.8-.47 3.53-1.14 5.36-1.52 1.52-.32 3.06-.48 4.61-.62 2.39-.21 4.79-.39 7.19-.55 1.41-.1 2.9-.07 4.3-.36 2.29-.47 2.28-3.15 1.8-4.99-1-3.9-3.62-7.53-6.27-10.47-1.31-1.45-2.82-2.69-4.23-4.04-1.5-1.43-2.84-3.03-4.05-4.72-1.52-2.13-2.75-4.46-3.88-6.82s-2.21-5.03-2.21-7.72c0-1.26.29-2.48.96-3.56.57-.93 1.38-1.7 1.82-2.71 1-2.3-.05-4.68-1.49-6.51-.64-.81-1.76.33-1.13 1.13.73.93 1.36 2.04 1.41 3.25s-.56 2.09-1.28 3.03c-1.22 1.6-1.88 3.34-1.89 5.37-.01 4.13 2.12 8.11 4.01 11.66s4.36 6.71 7.29 9.38c3.08 2.8 5.83 5.75 7.84 9.43.82 1.49 1.65 3.2 1.77 4.93.03.51.02 1.09-.28 1.53-.14.21-.15.16-.3.21-1.03.36-2.37.25-3.45.32-2.37.16-4.74.33-7.1.53-3.33.28-6.52.76-9.71 1.8-1.47.48-2.86.81-4.43.78s-3.09-.48-4.63-.78c-4.28-.85-8.58-.91-12.89-1.35-4.87-.49-9.67-1.5-14.39-2.73l.56.99c1.29-3.45 2.91-6.76 4.91-9.86 1.85-2.86 4.11-5.36 6.26-7.98 2.01-2.45 3.6-5.15 4.07-8.33s-.17-6.65-.3-9.87c-.21-5.04-.26-10.08-.24-15.12 0-1.03-1.6-1.03-1.6 0Z"/>
  <path d="M407.02 245.55c3.27 5.39 7.64 9.75 12.7 13.48 2.54 1.88 5.2 3.59 7.9 5.23s5.32 3.36 8.19 4.55c4.57 1.89 9.37 1.3 14.09.44.29-.05.67-.05.95-.14 0 0 .29-.02.28 0l-.49-.36c-.16.17-.33.33-.51.48-1.34 1.1-2.74 1.25-4.35 1.55-.62.11-1.29.5-.97 1.25.27.62 1.14.72 1.71.86 1.46.36 2.91.71 4.33 1.18 1.04.35 2.09.72 3.07 1.22.17.08.33.18.49.26.1.06.19.12.28.18.12.13.12.1 0-.09.63-.88-.17-.54-.51-.52-.39.03-.8.02-1.18-.05-.56-.1-1.09-.33-1.63-.52-1.18-.41-2.86-1.13-4.14-.91-.61.11-.74.94-.35 1.34.58.6 1.9.82 2.65 1.07.94.3 1.91.53 2.85.84.52.17.96.39 1.39.73.18.15.35.32.52.49.14.41.29.47.46.17.66-.16 0-.21-.23-.23-.62-.04-1.23-.18-1.84-.3a87.73 87.73 0 0 1-5.05-1.15c-1.02-.26-1.36 1.17-.43 1.54 1.51.61 3.61 1.36 4.83 1.96l.62-1.46c-.42-.13-.89-.38-1.35-.37-.67.02-1.09.88-.57 1.37.28.26.68.34 1.01.52.18.1.73.3.24.49-.23.09-.98-.36-1.2-.45-.93-.38-1.93-.85-2.93-1.05s-1.43 1.27-.43 1.54c.56.15 1.09.41 1.56.76.21.16.38.37.58.52l.13.14c.12.33.28.33.49 0-.34-.19-.87-.14-1.25-.34-.7-.37-1.32-.9-2.01-1.29-1.11-.63-2.25-1.21-3.39-1.79-1.56-.79-2.83-1.78-4.25-2.79s-2.97-1.78-4.57-2.47c-3.25-1.41-6.68-2.47-9.83-4.09s-5.75-3.43-8.43-5.47c-4.33-3.29-8.49-6.79-12.59-10.37-.77-.68-1.91.45-1.13 1.13 4.12 3.6 8.31 7.11 12.66 10.43 2.95 2.25 5.97 4.34 9.31 5.98 3.73 1.83 7.79 2.91 11.48 4.85 1.74.91 3.14 2.24 4.8 3.26 2.04 1.25 4.32 2.1 6.32 3.44.96.65 3.98 2.21 4.29.11.26-1.73-2.36-3.18-3.73-3.55l-.43 1.54c.71.14 1.41.45 2.08.71.96.37 2.27 1.21 3.34.75.86-.37 1.3-1.44.88-2.29-.2-.41-.58-.72-.96-.96-.2-.13-.42-.23-.64-.32-.09-.03-.51-.3-.27-.07l-.57 1.37c.18 0 .67.23.92.31.85.27 1.44-1.06.62-1.46-1.67-.82-3.49-1.42-5.21-2.12l-.43 1.54c2.13.54 4.29 1.08 6.47 1.4.74.11 1.92.37 2.41-.42.86-1.4-1.51-3.05-2.53-3.5-1.08-.48-2.28-.7-3.41-1.06-.5-.16-1-.32-1.49-.5-.14-.05-.8-.37-.65-.21l-.35 1.34c.26-.05 1.29.3 1.69.41.79.21 1.55.5 2.32.76 1.06.35 2.2.5 3.31.27.7-.15 1.5-.61 1.25-1.45s-1.34-1.21-2-1.51c-1.58-.71-3.23-1.27-4.9-1.73-.63-.17-1.26-.33-1.89-.48-.27-.06-1.07-.42-1.33-.34-.17.05-.29 1.19-.21 1.24.09.06.56-.06.68-.07.75-.09 1.49-.22 2.2-.48 1.2-.44 2.71-1.28 3.37-2.43 1.13-1.95-1.43-1.91-2.57-1.71-3.16.56-6.26 1.13-9.48.64-2.29-.35-4.35-1.19-6.38-2.31-2.97-1.65-5.88-3.44-8.73-5.29-6.57-4.26-12.51-9.23-16.6-15.99-.53-.88-1.92-.08-1.38.81Zm-8.84-6.3c.66.22 1.32.43 1.98.65l.96.33c.16.06.33.12.49.18.07.03.14.05.21.08.03.01.3.13.15.06.21.09.39.14.62.08.19-.05.39-.19.48-.37.18-.34.12-.92-.29-1.1-1.36-.58-2.78-1-4.18-1.48-.4-.14-.89.16-.99.56-.1.44.13.84.56.99Zm8.96 60.65c1.5 13.02.66 26 .87 39.06.1 5.82.06 11.67.34 17.48.11 2.19.25 4.37.41 6.56.09 1.15-.16 3.31.77 4.1 2.86 2.4 6.5 3.11 9.79 4.67 1.57.74 5.87 2.72 5.01 5.1-.53 1.47-2.91.96-4.08.93-1.4-.03-2.79-.07-4.19-.1l-16.76-.42.77.59c-.86-2.61-.94-5.4-.15-8.04.3-1 .79-1.85 1.21-2.79.45-.99.17-2.32.14-3.4-.16-4.64-.55-9.26-1.08-13.88-1.16-10.06-2.98-20.05-3.86-30.14-.52-5.9-.62-11.83-.34-17.75.05-1.03-1.55-1.03-1.6 0-.52 10.92.65 21.63 2.11 32.43 1.26 9.35 2.72 18.65 3.12 28.09.05 1.19.39 2.91.02 4.03s-1.05 2.15-1.37 3.34c-.76 2.8-.66 5.78.25 8.53.11.34.41.58.77.59l14.29.36 7.39.18c.9.02 2.01.25 2.87-.05.67-.23 1.53-.98 1.85-1.62 1.8-3.6-3.46-6.4-5.94-7.53-1.54-.7-3.15-1.21-4.73-1.83-1.73-.68-3.32-1.62-4.79-2.75l.4.69c-1.51-16.59-.82-33.24-.92-49.87-.03-5.54-.37-11.06-1-16.56-.12-1.01-1.72-1.02-1.6 0Z"/>
  <path d="M373.53 232.92c.38-1.78 2.59-1.47 3.72-3.5 1.3-2.32-.75-4.23.26-6.75.46-1.14 1.61-2.59 4.84-3.65-.36-3.37.14-6.01.58-7.59.46-1.7.94-3.38 2.34-5.04 1.33-1.58 2.79-2.32 4.35-3.12 2.83-1.44 5.28-1.82 5.84-1.9 1.14-.17 4.28-.5 8.02.66 5.06 1.57 8.11 4.92 9.48 6.73 1.14 1.51 2.68 3.54 3.14 6.65.53 3.62-.77 6.46-1.35 7.84-.6 1.44-1.84 3.66-4.55 5.83 1.82 2.91 1.83 4.9 1.52 6.16-.61 2.47-2.74 3.36-2.61 5.86.1 1.74 1.16 2.08.84 3.29-.53 2.01-3.67 1.79-4.17 3.72-.4 1.53 1.39 2.33 1.01 3.91-.43 1.8-2.91 1.48-4.06 3.39-1.48 2.46 1.34 5.08.26 7.39-.62 1.32-2.55 2.64-8.3 2.66 1.04-.65 3.27-2.26 4.24-5.14.61-1.8.49-3.39.45-3.81-.31-3.35-2.26-4.22-1.75-6.31.4-1.64 1.68-1.44 2.16-3.28.57-2.17-1.05-3.13-.36-4.79.77-1.85 3.14-1.55 3.38-3.04.23-1.45-1.8-3.05-1.79-4.37.01-.96.29-1.86.29-1.86.02-.31.05-.62.07-.93a8.8 8.8 0 0 0 3.21-1.31c.76-.51 2.87-1.92 2.8-3.59-.05-1.14-1.07-1.45-2.67-3.24-.54-.61-2.29-2.64-3.1-5.07-1.18-3.55.63-4.92-.79-6.85-1.34-1.82-4.15-2.2-5.42-2.37-.95-.13-1.77-.1-3.19-.06-2.03.07-2.51.28-2.74.41-1.05.56-1.49 1.64-1.87 2.7-1.44 3.99-2.15 5.98-1.97 8.16.32 3.74 2.21 6.32 3.06 7.34-3.99 1.2-4.97 2.51-5.11 3.5-.24 1.64 1.74 2.63 1.38 4.21-.39 1.69-3.08 1.33-4.06 3.39-.85 1.79.82 2.81.02 4.68-.82 1.9-2.81 1.46-4.61 3.94-.74 1.03-1.02 1.95-1.37 3.16-.38 1.3-.83 3.49-.5 6.32-4.29-3.76-4.92-5.88-4.47-7.17.58-1.66 2.88-1.65 3.38-3.61.54-2.09-1.8-3.2-1.28-5.44.45-1.95 2.43-1.92 2.7-3.82.28-1.91-1.6-2.66-1.25-4.35Z" stroke="#ff7556" stroke-miterlimit="10" stroke-width=".53"/>
  <path d="M385.71 220.38c.05 1.05.18 3.31 1.56 5.73.24.42 2.52 4.28 7.2 5.64 5.51 1.6 12.32-.87 12.8-3.82.39-2.33-3.51-2.99-5.32-8.04-1.42-3.96.12-5.93-1.41-8.02-1.16-1.59-3.93-3.02-11.16-1.93-1.04 1.27-3.91 5.15-3.67 10.44Z" fill="none" stroke="#000" stroke-miterlimit="10" stroke-width=".53"/>
  <path d="M390.48 206.81c2.84-.36 5.76-.18 8.54.52.65.17 1.31.37 1.84.77.66.5 1.06 1.26 1.42 2 .83 1.67 1.59 3.39 2.06 5.2.44 1.72.61 3.5 1.23 5.16.62 1.66 1.84 3.23 3.56 3.67" fill="none" stroke="#ff7556" stroke-miterlimit="10" stroke-width=".53"/>
  <path d="M392.75 204.51c2.36-.6 4.86-.15 7.2.54 1.36.4 2.73.89 3.82 1.8 1.83 1.53 2.58 3.95 3.34 6.21s1.79 4.65 3.88 5.8m-2.92-10.71c2.02 2.21 3.43 4.98 4.05 7.91m-3.96 15.19c-.5 1.21.06 2.56.2 3.86.2 1.97-.69 4.02-2.27 5.22m-5.19 2.54c.97.82 1.1 2.24 1.16 3.51.03.61.05 1.23-.18 1.79-.29.7-.92 1.18-1.45 1.72s-.99 1.28-.8 2.01m7.49-7.27c-.77.55-1.54 1.14-2.09 1.92s-.84 1.78-.58 2.7c.13.43.37.83.48 1.26.28 1.15-.6 2.44-1.77 2.6m-2.36 5.79c.63.99.7 2.32.16 3.36s-1.65 1.77-2.82 1.83m-15.55-42.28c-1.12.82-1.52 2.31-1.59 3.69s.08 2.8-.26 4.14-1.4 2.65-2.79 2.7m4.45 2.57c-1.64.82-3.48 1.89-3.79 3.7-.16.92.13 1.85.15 2.78.02 1.16-.39 2.33-1.15 3.22m-2.82-2.74c-.49.58-.03 1.43.25 2.14.66 1.64.17 3.69-1.17 4.85-.47.41-1.06.76-1.24 1.35-.14.45 0 .93.12 1.38.23.78.45 1.57.68 2.35" fill="none" stroke="#ff7556" stroke-miterlimit="10" stroke-width=".53"/>
  <path d="M385.71 220.34c.05 1.05.18 3.31 1.56 5.73.24.42 2.52 4.28 7.2 5.64 5.51 1.6 12.32-.87 12.8-3.82.39-2.33-3.51-2.99-5.32-8.04-1.42-3.96.12-5.93-1.41-8.02-1.16-1.59-3.93-3.02-11.16-1.93-1.04 1.27-3.91 5.15-3.67 10.44Z" fill="none" stroke="#000" stroke-miterlimit="10" stroke-width=".53"/>
  <path d="M398.47 231.9c-.59 1.05-1.13 2.18-1.35 3.38-.22 1.26-.08 2.48.48 3.64.19.39.74.49 1.1.29.4-.23.48-.7.29-1.1-.87-1.81-.04-3.79.87-5.41.51-.9-.88-1.71-1.38-.81Zm-9.75-3.08c-.19.38-.4.76-.64 1.11l-.09.12c-.12.16.1-.12.02-.02l-.15.18c-.11.12-.22.23-.34.33-.06.05-.13.1-.19.16.22-.2.01-.01-.05.03-.14.1-.29.19-.44.29-.38.23-.76.45-1.14.67s-.52.73-.29 1.1.71.51 1.1.29c.74-.43 1.5-.83 2.14-1.39s1.07-1.3 1.45-2.05c.19-.37.11-.89-.29-1.1-.36-.19-.89-.11-1.1.29Z"/>
  <path d="M398.19 238.12c-2.24 1.33-5.12 1.46-7.43.2-2.12-1.16-3.61-3.38-3.87-5.78-.11-1.01-1.71-1.03-1.6 0 .31 2.97 2.02 5.72 4.66 7.16 2.8 1.53 6.31 1.42 9.04-.2.89-.53.08-1.91-.81-1.38Zm14.98 13.87a58.324 58.324 0 0 1-5.35 5.54c-.32.29-.3.84 0 1.13.32.32.81.29 1.13 0a59.54 59.54 0 0 0 5.35-5.54c.28-.33.32-.81 0-1.13-.29-.29-.85-.33-1.13 0Zm-38.31 47.91c-1.08 9.12-1.02 18.14-.69 27.29.3 8.14.08 16.28-.01 24.42-.06 5.04-.41 10.09-.86 15.11l.4-.69c-1.77 1.35-3.67 2.35-5.75 3.11s-4.29 1.58-6.25 2.79c-1.74 1.07-3.69 2.53-3.74 4.79-.02.85.26 1.6.88 2.17 1.11 1.02 1.96.96 3.39.9 5.87-.26 11.74-.51 17.61-.77.74-.03 1.49-.07 2.23-.1.48-.02 1.21.11 1.64-.16.46-.28.83-1 1.09-1.46a9.752 9.752 0 0 0 1.23-6.14c-.22-1.69-.91-3.11-1.82-4.52-.05-.08-.19-.2-.21-.27.09.41.17-.07.19-.14.1-.42.03-.97.05-1.4.05-1.36.1-2.72.16-4.08.14-3.27.32-6.53.52-9.79.4-6.47 1.01-12.9 1.75-19.34 1.19-10.24 2.37-20.48 3.48-30.73.11-1.02-1.49-1.02-1.6 0-1.3 12.04-2.79 24.07-4.09 36.11-.5 4.64-.86 9.3-1.15 13.96-.18 2.89-.33 5.77-.47 8.66-.04.77-.07 1.53-.1 2.3-.04.91-.07 1.82-.1 2.72-.02.69-.19 1.53-.07 2.21.13.79.93 1.56 1.26 2.31a8.1 8.1 0 0 1 .44 5.25c-.18.69-.44 1.35-.78 1.97-.12.22-.26.44-.4.65-.05.07-.11.21-.18.26-.19.14-.12.02-.1 0-.8.29-2.12.09-2.98.13-1.08.05-2.15.09-3.23.14-4.22.18-8.44.37-12.65.55-.95.04-2.04.25-2.98.13-1.49-.18-1.67-1.68-1.01-2.77.93-1.56 3.07-2.56 4.65-3.31 2.86-1.36 5.92-2.05 8.59-3.82.44-.29 1.12-.63 1.46-1.05s.28-1.03.32-1.54c.13-1.52.25-3.03.35-4.55.39-5.82.32-11.61.45-17.43.15-6.51.12-12.96-.13-19.46s-.27-12.36.21-18.55c.15-1.96.35-3.91.58-5.86.12-1.02-1.48-1.01-1.6 0Z"/>
  <path d="M744.28 100.85c6.36 9.97 15.54 21.03 58.79 49 21.16 13.69 49.9 31.04 85.42 49-2.31 35.28-5.94 63.25-8.93 82.78-3.51 22.85-2.14 46.39-5.76 69.22-1.5 9.46-3.84 22.18 2.76 30 5.75 6.82 15.76 6.93 22.04 7 13.46.15 15.21-5.35 29.39-6 13.68-.63 19.39 4.15 22.71.11 3.4-4.13-2.49-10.8-3.11-26.03-.73-18.13 2.51-28.03-2.16-73.08-1.79-17.24-3.6-28.68-5.25-37.29-1.87-9.75-3.56-18.17-5.44-26.88-1.93-8.97-3.66-16.45-4.93-21.83 7.59-27.7 14.8-62.09 18.37-102 3.15-35.21 2.75-66.66.92-93-78.07-.67-161.66.67-239.73 0 1.73 8.37 4.44 20.11 8.54 33.87 5.59 18.75 13.34 44.73 26.36 65.13Z" fill="#c1272d"/>
  <path d="M743.03 101.58c7.15 11.18 17.22 19.75 27.72 27.71 21.53 16.32 44.76 30.63 68.09 44.22 16.04 9.34 32.36 18.2 48.92 26.58l-.71-1.24c-1.56 23.73-3.9 47.41-7.2 70.96-1.57 11.24-3.22 22.39-3.91 33.73-.85 13.93-1.06 27.91-2.8 41.78-1.3 10.3-4.77 21.94-.43 31.97 4.09 9.46 14.24 11.74 23.59 11.96 4.67.11 9.26-.15 13.75-1.55 3.9-1.21 7.6-2.89 11.63-3.69 5.62-1.12 11.52-1.01 17.16-.13 3.08.48 6.65 1.69 9.78.98 6.98-1.6 3.98-10.02 2.75-14.58-2.07-7.7-2.56-15.42-2.42-23.35.25-13.85.7-27.57-.16-41.42-1.38-22.34-4.12-44.57-8.42-66.53-2.42-12.38-5.04-24.72-7.88-37.01-.28-1.21-.56-2.42-.85-3.63-.3-1.29-.21-1.95.14-3.22.68-2.53 1.35-5.07 2-7.61 1.37-5.36 2.66-10.74 3.88-16.14 5.62-24.95 9.59-50.29 11.9-75.76a586.586 586.586 0 0 0 .98-93.76c-.05-.78-.62-1.43-1.44-1.44-31.13-.26-62.26-.21-93.39-.1s-62.75.29-94.13.3c-17.4 0-34.81-.04-52.21-.19-.98 0-1.57.92-1.39 1.82 2.73 13.17 6.2 26.13 10.08 39.01 3.94 13.09 8.18 26.1 13.63 38.65 3.26 7.49 6.96 14.79 11.34 21.69.99 1.56 3.48.12 2.48-1.45-7.68-12.1-13.28-25.37-18-38.86s-8.47-26-11.92-39.18c-1.79-6.83-3.39-13.7-4.83-20.61l-1.39 1.82c31.13.26 62.26.21 93.39.1 31.38-.11 62.75-.29 94.13-.3 17.4 0 34.81.04 52.21.19l-1.44-1.44c1.65 23.85 1.86 47.8.6 71.68a579.615 579.615 0 0 1-9.45 78.13 585.847 585.847 0 0 1-9.24 40.55l-.93 3.47c-.31 1.16-.11 2.01.17 3.18a1196.4 1196.4 0 0 1 3.75 16.55c4.81 21.96 8.96 43.94 11.31 66.31 1.89 17.96 3.08 35.97 2.53 54.04-.16 5.29-.41 10.57-.36 15.86.04 4.06.25 8.1.92 12.11s2 8.15 2.95 12.25c.45 1.98.94 4.8-1.33 5.88-2.41 1.15-6.32-.33-8.75-.71-5.42-.86-10.9-1.07-16.34-.33-4.27.58-8.19 2-12.22 3.44-4.35 1.55-8.66 2.2-13.28 2.14s-8.97-.27-13.22-1.75c-5-1.74-8.69-5.49-10.19-10.58s-1.13-10.29-.52-15.36c.7-5.84 1.8-11.62 2.42-17.48.72-6.82 1.12-13.66 1.46-20.5.66-13.38 1.18-26.75 3.2-40.01 3.13-20.58 5.53-41.27 7.29-62.02.56-6.62 1.06-13.24 1.49-19.86.03-.47-.29-1.03-.71-1.24-26.75-13.54-52.86-28.32-78.19-44.37-11.71-7.42-23.31-15.03-34.5-23.22-7.16-5.24-14.22-10.72-20.53-16.97-3.97-3.94-7.47-8.22-10.48-12.93-.99-1.55-3.48-.11-2.48 1.45Z"/>
  <path d="M687.84 230.18c3.66-3.17 5.73-7.75 6.58-12.45.48-2.67.63-5.39.64-8.11s.07-5.7-.71-8.41c-.4-1.39-2.57-.8-2.17.6.7 2.43.62 5.06.63 7.57s-.1 5.2-.56 7.75c-.79 4.36-2.6 8.52-6 11.46-1.1.95.5 2.53 1.59 1.59Zm9.96.32c1.64-1.27 2.63-3.08 3.44-4.96.89-2.07 1.63-4.21 2.2-6.39 1.18-4.49 1.66-9.15 1.47-13.79-.06-1.44-2.31-1.45-2.25 0 .18 4.3-.22 8.59-1.27 12.76-.51 2.02-1.16 4.01-1.95 5.94s-1.63 3.61-3.23 4.85c-1.14.89.46 2.47 1.59 1.59Zm155.68 24.73c3.01-1.36 6.48-1.09 9.66-.62 2.3.34 5.79.5 6.93 2.91.62 1.31 2.56.17 1.94-1.14-1.45-3.06-5.31-3.51-8.27-3.94-3.86-.57-7.76-.8-11.39.84-1.32.6-.17 2.54 1.14 1.94Zm1.4-9a24.983 24.983 0 0 1 18.86-2.36c1.4.38 2-1.79.6-2.17-6.9-1.89-14.38-.95-20.6 2.59-1.26.72-.13 2.66 1.14 1.94Zm-297.6 27.19a75.664 75.664 0 0 1-14.54 2.67c-1.43.12-1.45 2.37 0 2.25a79.4 79.4 0 0 0 15.14-2.75c1.39-.4.8-2.57-.6-2.17Zm6.59 3.42c-2.45 3.7-6.37 6.24-10.71 7.08-.6.11-.94.83-.79 1.38.17.62.79.9 1.38.79 4.92-.94 9.31-3.94 12.06-8.11.8-1.21-1.15-2.34-1.94-1.14Zm133.1 2.54c-2.58.63-5.07-.47-7.22-1.83-2.39-1.51-4.54-3.41-6.75-5.17-.48-.38-1.12-.46-1.59 0-.4.39-.47 1.21 0 1.59 4.46 3.57 9.87 9.1 16.16 7.58 1.41-.34.81-2.51-.6-2.17Zm-2.07 7.97c-5.86.8-11.88-.91-16.56-4.48-1.15-.88-2.27 1.08-1.14 1.94 5.21 3.96 11.84 5.58 18.3 4.71.61-.08.93-.85.79-1.38-.17-.65-.78-.87-1.38-.79ZM37.16 230.37c-4.82-.22-9.66.22-14.36 1.34-2.22.53-4.36 1.31-6.57 1.89s-4.51.94-6.57-.21c-1.27-.7-2.4 1.24-1.14 1.94 4.22 2.34 8.85.17 13.07-1 5.07-1.4 10.31-1.96 15.56-1.72 1.45.07 1.44-2.18 0-2.25Zm2.25 8.02c-3.49-1.09-6.95-.57-10.18 1.04-2.71 1.35-6.16 3.77-9.22 1.98-1.25-.73-2.39 1.21-1.14 1.94 3.05 1.78 6.51.61 9.4-.89 1.61-.84 3.18-1.76 4.97-2.17s3.75-.29 5.56.27c1.39.43 1.98-1.74.6-2.17Zm138.43 86.59c-3.14 3.24-7.36 5.44-11.85 6.04-.6.08-1.12.46-1.12 1.12 0 .55.52 1.21 1.12 1.12 5.1-.68 9.85-3 13.44-6.7 1.01-1.04-.58-2.63-1.59-1.59Zm-3.01-5.63c-.21 1.74-1.5 3.24-2.97 4.09-1.88 1.09-4.12 1.24-6.24 1.05-.61-.06-1.12.56-1.12 1.12 0 .65.52 1.07 1.12 1.12 2.6.24 5.39-.1 7.63-1.52 2.09-1.32 3.53-3.41 3.83-5.88.07-.6-.57-1.12-1.12-1.12-.67 0-1.05.52-1.12 1.12Zm86.03-146.49c-4 4.32-6.8 9.68-8.01 15.45-.29 1.41 1.87 2.02 2.17.6 1.13-5.4 3.68-10.41 7.43-14.46.98-1.06-.6-2.66-1.59-1.59Zm-.85-4.69c-4.56 1.72-7.77 6.14-7.9 11.03-.04 1.45 2.21 1.45 2.25 0 .1-3.79 2.64-7.5 6.25-8.86.57-.21.96-.76.79-1.38-.15-.55-.81-1-1.38-.79Zm17.24 114.61c-.52 1.46-.6 3.11-.28 4.62.44 2.08 1.84 3.85 3.67 4.89.53.3 1.23.12 1.54-.4s.13-1.24-.4-1.54c-.13-.07-.25-.15-.37-.23-.06-.04-.13-.08-.19-.13-.01 0-.27-.2-.1-.07-.31-.24-.6-.52-.86-.82-.58-.66-.97-1.54-1.14-2.44-.04-.21-.04-.18-.06-.46-.02-.22-.02-.44-.02-.66 0-.18.01-.37.03-.55 0-.1.02-.21.03-.31-.02.16-.01.07 0-.04.08-.44.18-.87.32-1.28.2-.57-.23-1.23-.79-1.38-.62-.17-1.18.21-1.38.79Z"/>
  <path d="M276.81 276.42c-3.57 1.94-6.27 5.74-6.39 9.87-.1 3.46 1.65 6.88 3.96 9.37.99 1.06 2.58-.53 1.59-1.59-1.86-2-3.3-4.74-3.31-7.51 0-3.46 2.33-6.59 5.28-8.2 1.27-.69.14-2.63-1.14-1.94Zm154.63 4.34c-.2 3.1 2.64 4.9 5.21 5.8 3.05 1.07 6.14 2.02 9.21 3.02 1.38.45 1.97-1.72.6-2.17-2.69-.88-5.38-1.76-8.07-2.65-1.88-.62-4.85-1.51-4.69-4.01.09-1.45-2.16-1.44-2.25 0Zm-4.32 5.28c1.23 2.87 3.48 5.31 6.25 6.74s6.11 1.71 8.46 3.78c1.08.95 2.68-.63 1.59-1.59-2.39-2.11-5.48-2.57-8.3-3.83s-4.87-3.46-6.06-6.23c-.24-.56-1.06-.69-1.54-.4-.58.34-.64.98-.4 1.54Z"/>
</svg>
