<svg xmlns="http://www.w3.org/2000/svg" viewBox="0 0 300.66 97.28">
  <path d="M61.09 26.94c-.2.91-.48 2.23-.74 3.83-.37 2.24-.51 3.82-.67 5.56-.6 6.26-.65 5.15-.88 8.32-.2 2.71-.33 5.08-.9 8.28-.09.5-.2.99-.33 1.55-.61 2.58-1.36 4.7-1.74 5.77-.99 2.78-1.95 4.8-2.96 6.97-1.39 3-2.56 5.17-2.92 5.84-.94 1.75-1.82 3.27-2.56 4.49l4.75 1.2c.12-1.47.39-3.53 1.09-5.96.65-2.26 1.51-4.25 2.45-6.43 0 0 1.61-3.75 2.36-5.95.24-.72.45-1.44.45-1.44l.06-.2c.79-2.86 1.54-8.9 1.54-8.9.72-5.83.75-5.8.9-7.41.24-2.67.13-2.52.35-4.43.57-5.06 1.41-7.03 1.79-7.85.65-1.4 1.37-2.48 1.87-3.16-1.3-.03-2.6-.06-3.9-.08Z"/>
  <path d="M60.64 26.82c-1.23 5.54-1.76 11.31-2.24 16.97-.34 4.01-.57 7.99-1.62 11.9s-2.44 7.28-4.07 10.77c-1.73 3.72-3.62 7.35-5.73 10.87a.48.48 0 0 0 .28.69l4.75 1.2c.31.08.57-.15.59-.45.39-4.68 2.1-8.86 3.9-13.14 1.45-3.45 2.66-6.82 3.29-10.52.92-5.38 1.43-10.8 1.93-16.23.38-4.23 1.16-8.13 3.68-11.62.22-.3-.08-.7-.4-.7-1.3-.03-2.6-.06-3.9-.08-.6-.01-.6.92 0 .93 1.3.03 2.6.06 3.9.08l-.4-.7c-3.78 5.23-3.52 11.45-4.28 17.58-.38 3.08-.74 6.16-1.22 9.22-.61 3.85-1.65 7.33-3.14 10.93-1.93 4.66-3.86 9.16-4.29 14.24l.59-.45-4.75-1.2.28.69c3.75-6.25 7.15-12.94 9.33-19.91 1.8-5.76 1.95-11.74 2.64-17.69.51-4.41.84-8.79 1.8-13.13.13-.59-.77-.84-.9-.25Z"/>
  <path d="M37.6 76.88c1.67-1.29 4.29-.93 5.54.77.48.66 1.03 1.3 1.94 1.22.48-.04.94-.27 1.38-.45.52-.22 1.03-.47 1.53-.75.31-.17.03-.65-.28-.48-.52.29-1.06.55-1.61.78s-1.16.52-1.73.19c-.44-.25-.67-.73-.98-1.11a3.84 3.84 0 0 0-.94-.81c-1.52-.95-3.68-.96-5.12.15-.28.21 0 .69.28.48Z"/>
  <path d="M37.16 79.99c1.06-.34 2.22-.26 3.26-.67s1.93-1.05 3.04-1.18c.35-.04.35-.59 0-.55-1.13.12-2.04.71-3.06 1.15-1.08.46-2.28.36-3.38.72-.34.11-.19.64.15.53Zm2.61 3.62c1-.78 1.93-1.7 3.25-1.81 1.16-.09 2.32.22 3.48.09.84-.09 1.73-.41 2.14-1.21.21-.41.28-.86.41-1.29.17-.58.43-1.14.66-1.69.13-.33-.4-.47-.53-.15-.21.51-.43 1.01-.61 1.53-.15.45-.19.96-.43 1.38-.57 1-2.03.94-3.02.87s-2.06-.23-3.05.08-1.86 1.16-2.68 1.8c-.28.22.11.61.39.39Z"/>
  <path d="M48.28 77.3c-.24.61-.55 1.18-.93 1.72-.34.48-.73.95-1.24 1.25s-1.15.4-1.76.29c-.29-.06-.58-.15-.84-.29-.17-.09-.24-.14-.12-.31.1-.15.24-.28.39-.38.28-.21 0-.69-.28-.48s-.65.52-.74.9c-.09.41.26.65.58.81.71.34 1.56.46 2.33.25s1.34-.72 1.81-1.32c.55-.69.99-1.46 1.31-2.28.13-.33-.4-.47-.53-.15Zm2.3.45c.62.89 1.34 1.75 2.18 2.44s1.9 1.09 2.94 1.25c.55.08 1.11.01 1.66-.06.47-.06.94-.16 1.35-.42.35-.22.64-.54.84-.9.24-.42.26-1 .62-1.33.26-.24-.13-.63-.39-.39-.57.53-.51 1.4-1.09 1.94-.38.35-.87.48-1.37.55s-1.04.14-1.55.06c-.98-.15-1.99-.55-2.74-1.19s-1.41-1.42-1.97-2.23c-.2-.29-.68-.01-.48.28Z"/>
  <path d="M56.04 81.49c.33 0 .47.25.52.54.06.37.09.74.02 1.11s-.11.68-.05 1.04.2.69.34 1.02c.06.14.26.17.38.1.14-.08.16-.24.1-.38-.15-.35-.3-.73-.3-1.12 0-.42.15-.82.13-1.24-.02-.37-.04-.81-.24-1.13s-.53-.49-.89-.49-.36.55 0 .55Z"/>
  <path d="M57.02 83.25c.33.05.34.47.51.71.21.29.53.49.88.59.37.1.75.08 1.13.16s.65.3.92.55c.26.24.65-.15.39-.39-.29-.27-.6-.53-.99-.65s-.79-.09-1.18-.17c-.32-.07-.64-.23-.78-.54-.08-.18-.13-.36-.26-.51a.8.8 0 0 0-.48-.27c-.15-.02-.3.04-.34.19-.04.13.04.32.19.34Zm1.24-1.92c.18.24.4.43.68.55.31.14.64.18.97.25s.64.14.95.22c.22.06.52.13.66.32.09.12.24.18.38.1.12-.07.19-.26.1-.38-.36-.49-1.03-.59-1.58-.72s-1.3-.12-1.68-.62c-.09-.12-.24-.18-.38-.1-.12.07-.19.26-.1.38Zm-5.61-1.08c.47.44.64 1.04.88 1.62.11.26.23.52.4.75.21.29.47.53.57.89.34 1.29.19 2.82-.61 3.9-.21.29.27.56.48.28.89-1.2.98-2.78.69-4.21-.07-.34-.22-.6-.43-.87-.25-.31-.45-.62-.6-.99-.26-.64-.46-1.27-.98-1.76-.26-.24-.65.15-.39.39Z"/>
  <path d="M54.72 84.11c.43.84.92 1.65 1.47 2.42.27.37.55.73.83 1.09.24.31.54.78.22 1.15-.23.27.16.66.39.39.77-.88-.16-1.82-.69-2.53-.66-.88-1.24-1.82-1.74-2.79-.16-.32-.64-.04-.48.28Zm-9.54 5.42c.66-2.45 2.36-4.13 3.8-6.13.34-.47.63-.94.7-1.53.04-.38-.02-.72-.07-1.09-.12-1 .17-2.05.43-3 .09-.34-.44-.49-.53-.15-.26.94-.51 1.95-.46 2.94.01.31.1.62.1.93.02.79-.45 1.37-.9 1.97-1.42 1.9-2.97 3.56-3.6 5.91-.09.34.44.49.53.15Z"/>
  <path d="M43.46 87.99c.34-.09.68-.22.96-.42.25-.17.43-.39.65-.6.1-.1.11-.1.22-.17.09-.06.18-.11.28-.15.28-.12.59-.18.89-.21.15-.02.28-.12.28-.28 0-.14-.13-.29-.28-.28-.58.06-1.17.2-1.64.57-.21.17-.37.39-.58.56-.27.22-.6.35-.93.44s-.2.62.15.53Z"/>
  <path d="M46.17 86.71c.26.63.46 1.29.56 1.97s.06 1.33.19 1.99c.12.62.14 1.19-.07 1.79s-.61 1.1-1.08 1.51c-.27.23.12.62.39.39.95-.83 1.56-2.04 1.39-3.32-.05-.37-.14-.73-.17-1.1s-.03-.76-.07-1.14c-.09-.78-.3-1.52-.6-2.25-.13-.32-.67-.18-.53.15Zm5.53 7.92c.51-.83-.09-1.58-.56-2.26-.14-.21-.31-.44-.35-.69-.06-.33.11-.63.18-.95.09-.42.05-.85-.08-1.26-.31-.95-1.01-1.69-1.58-2.49-.32-.45-.69-.99-.73-1.56s.17-1.26.28-1.85c.07-.35-.47-.5-.53-.15-.17.92-.48 1.87-.11 2.77s1.13 1.66 1.67 2.5c.29.45.57.98.57 1.53 0 .47-.27.89-.24 1.37.05.91 1.55 1.86 1.01 2.76-.19.3.29.58.48.28Z"/>
  <path d="M50.73 90.2c.47.35 1.08.46 1.65.52.52.05 1.17.16 1.65-.14.3-.19.02-.67-.28-.48-.18.12-.4.12-.61.12-.25 0-.5-.03-.75-.05-.48-.05-.98-.14-1.37-.44-.12-.09-.31-.02-.38.1-.08.14-.02.29.1.38Zm-1.25-7.59s.05.11.08.15a3.958 3.958 0 0 1 .34.7c.12.34.21.69.31 1.03.2.7.45 1.38.95 1.93.24.26.63-.13.39-.39-.54-.6-.72-1.38-.93-2.13-.11-.38-.23-.75-.4-1.11s-.41-.79-.87-.72c-.15.02-.23.21-.19.34.04.16.19.21.34.19Zm3.3-.28c.13-.7-.17-1.33-.55-1.89-.19-.28-.41-.54-.59-.83-.19-.32 0-.59.19-.87.2-.29-.28-.57-.48-.28s-.39.6-.36.95.28.65.48.93c.37.52.9 1.16.77 1.84-.07.35.46.5.53.15Zm-5.94 14.94c.72-.3.87-1.24.93-1.94.06-.81-.17-1.58-.68-2.21-.1-.12-.29-.1-.39 0-.12.11-.09.28 0 .39.39.48.55 1.09.52 1.7-.01.3-.07.6-.15.89-.06.22-.14.53-.38.63-.14.06-.24.18-.19.34.04.13.2.25.34.19Zm-2.53-3.54c.18-1.48 1.66-2.37 3-2.64.35-.07.2-.6-.15-.53-1.62.32-3.19 1.44-3.41 3.17-.02.15.14.28.28.28.16 0 .26-.13.28-.28Zm5.09.16c.48-.5.93-1.05 1.32-1.62.08-.12.03-.31-.1-.38-.14-.07-.29-.03-.38.1s-.19.26-.28.39c-.03.03-.05.07-.08.1 0 0-.03.04-.02.03s-.02.02-.02.03c-.05.07-.11.14-.16.2-.21.26-.44.51-.67.75-.1.1-.11.29 0 .39s.28.11.39 0Zm-6.61-1.83c-.74-.85-1.45-2.05-1.37-3.22s1.14-2.12 1.94-2.94c.73-.74 1.29-1.64 2.06-2.35s1.65-1.12 2.29-1.91c.22-.27-.17-.67-.39-.39-.73.9-1.83 1.38-2.61 2.23-.41.44-.74.94-1.14 1.39-.45.51-.95.96-1.41 1.45-.77.83-1.4 1.79-1.27 2.97s.75 2.26 1.52 3.14c.23.27.62-.12.39-.39Z"/>
  <path d="M35.37 83.73c.64.38 1.15.98 1.86 1.25.36.14.71.16 1.09.14.43-.02.86.02 1.29.03.82.02 1.61-.26 2.42-.39s1.66-.11 2.43-.4c.33-.12.19-.66-.15-.53-.72.27-1.51.26-2.27.37s-1.51.4-2.27.4c-.38 0-.77-.05-1.15-.05s-.74.06-1.11-.06c-.72-.23-1.23-.86-1.86-1.24-.31-.18-.58.29-.28.48Zm2.09 6.24c.33-.14.61-.35.91-.55s.61-.38.94-.54.66-.29 1-.4.69-.18.97-.41c.12-.09.1-.29 0-.39-.11-.12-.27-.09-.39 0s-.27.13-.41.17c-.17.05-.34.11-.52.17-.34.12-.67.26-1 .42s-.62.33-.91.53-.57.39-.88.53c-.14.06-.17.26-.1.38.08.14.24.16.38.1Z"/>
  <path d="M38.68 90.23c.13-.14.2-.31.27-.49 0-.02.02-.04.02-.06.02-.05-.01.02 0 0 .02-.04.03-.07.06-.11.02-.03.03-.06.06-.08-.05.04 0 0 0 0 .01-.01.02-.03.03-.04.21-.25.46-.48.48-.83 0-.14-.13-.28-.28-.28-.15 0-.27.12-.28.28v.04c0 .01-.01.03-.01.04 0 .03.03-.06 0 0-.02.03-.03.05-.05.08 0 .01-.01.02-.02.03-.04.05.04-.05 0 0-.08.1-.18.2-.26.3-.11.14-.19.27-.25.44-.01.03-.03.07-.04.1 0 .01-.01.03-.02.04-.03.07.03-.05 0 .02-.01.03-.03.06-.05.09 0 .02-.02.03-.03.05.03-.04 0 0-.02.02-.1.11-.11.29 0 .39s.28.11.39 0Zm-4.18-2.2c.4-.62.71-1.29 1.14-1.89.37-.51.83-.94 1.39-1.22.32-.16.04-.63-.28-.48-.62.31-1.12.79-1.54 1.34-.46.62-.78 1.33-1.2 1.97-.2.3.28.58.48.28Z"/>
  <path d="M33.05 87.1h.01s.05.09.07.13c0 .02-.02.07-.01.08 0 0 .03-.05.03-.06a.574.574 0 0 1 .3-.24c.23-.09.48-.14.71-.23.46-.18.9-.42 1.34-.66.31-.17.03-.65-.28-.48-.52.29-1.04.57-1.61.74-.29.09-.58.16-.79.4-.2.22-.39.59-.05.79.31.18.59-.3.28-.48Zm2.22 7.72c.49-.24.86-.64 1.26-1 .47-.42 1.06-.67 1.56-1.04s.98-.79 1.58-1.06 1.25-.44 1.88-.62c.34-.09.2-.63-.15-.53-.62.17-1.24.35-1.83.6-.62.26-1.12.64-1.64 1.05-.49.38-1.07.64-1.57 1.02-.46.37-.83.83-1.37 1.09-.32.16-.04.63.28.48Z"/>
  <path d="M39.75 93.5c.18-.13.34-.27.48-.44s.29-.35.41-.54c.13-.21.17-.43.18-.67.01-.19 0-.39.08-.56.07-.13.04-.3-.1-.38-.12-.07-.31-.04-.38.1-.1.2-.13.42-.14.64 0 .18 0 .36-.08.52s-.21.32-.32.46c-.12.15-.25.29-.4.39-.12.08-.18.24-.1.38.07.12.25.18.38.1Z"/>
  <path d="M39.19 92.91c-.05.04.03-.02.03-.02.02-.02.05-.04.08-.05.05-.03.1-.07.16-.1.11-.06.21-.12.33-.17.01 0 .02 0 .03-.01-.03.01-.03.01 0 0l.09-.03.18-.06c.13-.04.25-.07.38-.1.14-.03.24-.21.19-.34-.05-.15-.19-.22-.34-.19-.56.11-1.08.34-1.53.69-.11.09-.1.3 0 .39.12.11.27.09.39 0Zm-4.52.97c.12-.06.24-.1.38-.15s.28-.08.42-.11c.28-.06.56-.09.87-.08.14 0 .28-.13.28-.28s-.12-.28-.28-.28c-.67 0-1.34.14-1.95.42-.14.06-.17.26-.1.38.08.14.24.16.38.1Zm-.02-2.29c.57-.06 1.12.1 1.66.24s1.1.32 1.65.51c.34.12.48-.42.15-.53-.56-.2-1.13-.38-1.71-.53s-1.15-.31-1.75-.25c-.15.02-.28.12-.28.28 0 .14.13.29.28.28Z"/>
  <path d="m35.71 92.63 1.12-.61c.13-.07.18-.26.1-.38a.286.286 0 0 0-.38-.1l-1.12.61c-.13.07-.18.26-.1.38.08.13.24.17.38.1Zm7-11.41c-.09-.02-.18-.05-.27-.08-.01 0-.08-.03-.03-.01-.02 0-.04-.02-.06-.03l-.12-.06c-.04-.02-.07-.04-.1-.06-.02-.01-.04-.03-.06-.04-.04-.03.01.01-.01 0-.07-.06-.13-.11-.19-.18-.01-.01-.02-.03-.04-.04.04.05 0 0-.01-.02l-.06-.09c-.01-.03-.03-.05-.04-.08 0 0-.03-.07-.02-.05 0-.02-.03-.09-.04-.13-.01-.04-.03-.09-.04-.14 0-.02-.01-.05-.02-.07v-.03.02c-.01-.02 0-.12 0-.04 0-.06-.03.05 0 0 0 .02-.07.06-.02.03.13-.07.18-.25.1-.38s-.24-.17-.38-.1c-.26.14-.28.43-.21.69.06.24.15.48.3.68.29.38.72.63 1.19.74.14.03.31-.04.34-.19.03-.14-.04-.31-.19-.34Zm1.06.17c-.19.1-.39.21-.54.37s-.25.36-.32.57c-.03.1-.07.2-.1.29-.02.06-.04.11-.06.17 0 .02-.02.05-.02.07 0 0-.02.06 0 .02 0 0-.04.07-.02.04l-.03.03c-.04.04.02 0-.01 0-.02 0-.04.02-.05.03 0 0-.08.03-.03.02-.02 0-.04.02-.06.02-.05.02-.09.03-.14.05-.14.04-.24.2-.19.34s.19.24.34.19c.2-.06.41-.13.56-.28.16-.17.22-.43.29-.65.03-.1.07-.2.1-.29.02-.04 0 0 0-.02s.02-.04.03-.06c.02-.04.06-.1.07-.12s.06-.07.09-.09l.01-.01c.02-.02.05-.03.07-.05.09-.06.19-.11.29-.16.13-.07.18-.26.1-.38a.286.286 0 0 0-.38-.1Zm3.31-2.27-.53.19c-.08.03-.15.06-.23.08-.02 0-.04.01-.06.02h.02c.02 0 .01 0-.02-.01-.02 0-.03-.02-.05-.03l-.06-.04c-.03-.02-.06-.05-.09-.07-.06-.05-.12-.1-.19-.14a.848.848 0 0 0-.51-.15c-.14 0-.28.12-.28.28s.12.28.28.28h.07c.02 0 .04 0 .05.02.03.01.04.01.01 0 .03.02.07.03.1.05.02 0 .03.02.05.03.03.02.03.02.01 0 .14.11.28.23.45.3.21.08.4-.01.6-.09l.53-.19c.14-.05.24-.19.19-.34-.04-.13-.19-.25-.34-.19Zm-6.69-1.84c.34.01.68 0 .99-.15.27-.13.45-.37.63-.6.09-.12.02-.31-.1-.38-.14-.08-.28-.02-.38.1-.01.01-.05.05-.05.06.02-.03.02-.03.01-.02 0 0 0 .01-.01.02 0 .01-.02.02-.03.03-.04.04-.07.09-.11.13l-.06.06c-.01 0-.02.02-.03.03 0 0-.05.04-.02.02.03-.02 0 0-.01 0s-.02.02-.04.02c-.03.02-.06.03-.08.05-.01 0-.03.01-.04.02.02-.01.03-.01 0 0-.03 0-.06.02-.09.03-.03 0-.07.01-.11.02-.04 0 .04 0 0 0h-.05c-.14.01-.29 0-.43 0s-.28.13-.28.28c0 .15.12.27.28.28Zm-1.21 3.35c.25-.14.47-.34.61-.6.07-.12.11-.24.16-.37 0-.01.01-.03.02-.04-.01.06-.01.03 0 0s.02-.05.04-.07c0-.01.02-.03.03-.04.02-.03 0 0-.01.01.03-.02.05-.05.08-.08.11-.09.1-.29 0-.39-.12-.11-.27-.1-.39 0-.1.09-.18.2-.23.33-.03.07-.06.14-.08.21l-.03.09c-.01.03 0 0 0-.02 0 .01-.01.03-.02.05-.03.05-.05.1-.09.15 0 .01-.03.05 0 .01s0 0-.01.01c-.02.02-.04.04-.06.07s-.04.04-.07.06c-.01.01-.03.02-.04.04-.04.03.03-.02 0 0a.99.99 0 0 1-.17.11c-.13.07-.18.25-.1.38s.24.18.38.1Zm-.33-1.58c-.24-.27-.55-.45-.87-.58-.06-.02-.16 0-.21.03s-.11.1-.13.16c-.02.07-.01.15.03.21l.04.06s.08.06.12.07c.01 0 .02 0 .04.01l-.07-.03c.17.07.33.16.48.28l-.06-.04c.08.07.16.14.24.22.1.11.29.11.39 0a.28.28 0 0 0 0-.39Z"/>
  <path d="M42.55 76.47c.17-.29.18-.62.05-.93-.06-.13-.15-.25-.24-.36-.04-.05-.09-.1-.13-.16.02.02.02.03 0 0 0-.01-.02-.06-.02-.02 0 .04.01.05 0 .1-.02.07-.04.09-.11.12.13-.05.24-.19.19-.34-.04-.13-.2-.25-.34-.19-.1.04-.19.1-.24.2-.06.12-.05.26 0 .38.04.07.1.14.15.2.02.03.05.06.07.08.01.02.03.03.04.05 0 0 .04.05 0 0 .04.06.08.11.11.18.01.03 0 .02 0 0 0 .02.01.04.02.05s0 .04.01.05c0 .03 0 .01 0 0 .01.03 0 .08 0 .11v.04V76v.03c0 .03-.02.06-.03.1 0-.02.01-.03 0 0l-.03.06c-.07.12-.03.31.1.38s.3.03.38-.1Zm6.39-20.31c.7-.11 1.46.18 1.79.66.25.37.26.81.43 1.21.34.81 1.42 1.39 2.51 1.36.23 0 .47-.04.64-.15.34-.22.3-.63.19-.95-.1-.28-.23-.57-.45-.8-.29-.31-.73-.53-1.15-.73-.78-.38-1.59-.77-2.5-.86-.57-.06-1.15 0-1.7.11"/>
  <path d="M48.94 56.52c.46-.06.97.02 1.34.33.39.33.37.92.57 1.36.39.87 1.36 1.38 2.27 1.5.49.07 1.12.09 1.51-.27.35-.32.35-.83.21-1.25-.16-.5-.44-.92-.86-1.23-.45-.34-.99-.56-1.5-.8-.59-.27-1.19-.5-1.84-.59-.69-.1-1.37-.03-2.05.09-.45.08-.26.77.19.69 1.05-.19 2.01-.12 3 .29.44.18.87.39 1.29.61s.79.48.99.93c.15.35.29.77-.21.85-.42.07-.9-.03-1.29-.18-.35-.14-.7-.36-.93-.67-.25-.33-.27-.74-.41-1.11-.34-.93-1.35-1.38-2.3-1.25-.19.02-.36.15-.36.36 0 .17.17.38.36.36Z"/>
  <path d="M54.49 59.48c.58.16 1.1.44 1.5.8"/>
  <path d="M54.39 59.82c.14.04.27.08.4.14.02 0 .03.01.05.02.04.02-.07-.03 0 0 .03.01.06.03.09.04.06.03.13.06.19.1.12.06.23.13.35.21.03.02.05.04.08.06.01 0 .03.02.04.03.04.03 0 0-.02-.01.06.02.12.1.16.14.14.12.37.15.51 0 .12-.14.15-.37 0-.51-.48-.42-1.05-.72-1.66-.9-.18-.05-.4.06-.44.25s.06.38.25.44Zm4.16-2.67 1.39-.17c.06 0 .12-.02.17-.05.07-.06.05-.15.03-.22-.15-.64.47-1.27 1.24-1.53s1.64-.24 2.47-.19 1.69.14 2.5 0c-.49.27-.98.54-1.46.81-.39.22-.79.44-1.13.7-.22.17-.41.36-.64.52-.41.28-.95.46-1.5.46s-1.1-.17-1.47-.49"/>
  <path d="M58.55 57.46c.44-.05.87-.11 1.31-.16.26-.03.53-.09.59-.39.06-.29-.07-.5.1-.78.2-.31.56-.53.9-.65 1.58-.56 3.34.07 4.97-.19l-.24-.57c-.95.52-1.98.99-2.81 1.69-.45.38-.89.67-1.48.74-.53.06-1.1-.04-1.52-.38-.31-.25-.75.19-.44.44.9.72 2.2.75 3.19.17.54-.31.97-.78 1.51-1.09.62-.36 1.25-.69 1.87-1.04.33-.18.09-.62-.24-.57-1.64.27-3.37-.37-4.97.19-.56.19-1.11.56-1.36 1.11-.06.13-.1.25-.11.39 0 .06.04.39.02.41.09-.09-.2-.08-.21-.08-.1 0-.21.03-.31.04l-.77.09c-.39.05-.4.67 0 .62Zm-.2.94c.36.3.89.49 1.42.5.32 0 .63-.04.95-.04.55 0 1.08.15 1.6.3.46.14.93.27 1.34.49.54.29 1 .71 1.64.82-.36 0-.73.04-1.07.13-.36.1-.7.24-1.07.28-.25.02-.51 0-.75-.06-1.26-.25-2.33-.98-2.81-1.92"/>
  <path d="M58.18 58.57c.43.34.93.53 1.48.56.36.02.71-.04 1.06-.04.38 0 .75.08 1.12.18.63.17 1.28.34 1.84.66.51.29.97.65 1.56.76l.07-.48c-.56 0-1.07.12-1.6.28-.57.17-1.09.14-1.66-.03-.92-.27-1.77-.84-2.23-1.7-.15-.28-.57-.03-.42.25.48.9 1.36 1.52 2.31 1.85.52.18 1.1.31 1.65.22.33-.05.63-.18.95-.26s.66-.12 1-.12c.27 0 .34-.43.07-.48-.57-.11-.99-.47-1.49-.74-.52-.29-1.1-.45-1.67-.62-.6-.17-1.2-.29-1.83-.25-.66.04-1.31.03-1.86-.4-.25-.19-.59.15-.35.35Z"/>
  <path d="M77.97 16.57c.29.51.38.51 1.33 1.8.34.46.69.93.86 1.49.17.55.13 1.21-.24 1.65-.4.46-1.07.56-1.66.47-.59-.09-1.15-.34-1.73-.47-.87-.19-1.79-.11-2.61.23-1.17.49-2.15 1.49-3.4 1.67-1.31.19-2.56-.57-3.72-1.23-1.52-.86-3.14-1.61-4.87-1.79-.77-.08-1.62-.07-2.22-.58-.58-.49-.75-1.32-.97-2.06a9.598 9.598 0 0 0-1.97-3.58c-.66-.75-1.05-1.16-1.12-1.91-.04-.42.08-.51.22-1.44.2-1.39-.03-1.51.19-2.06.34-.88 1.27-1.54 2.16-1.63.9-.1.99.47 2.05.57.28.03.77.04 3.59-1.18 1.45-.63 1.57-.74 1.99-.73 1.05.02 1.33.74 2.6 1.17.93.31 1.94.07 2.92.18 1.57.18 2.92 1.24 4.04 2.39.57.58 1.16 1.26 1.48 2.32.27.91.06 1.22.4 2.69.18.8.32 1.37.7 2.05Z" fill="#bd0e0d"/>
  <path d="M77.77 16.69c.3.52.71.97 1.07 1.45.29.39.61.78.85 1.21.5.93.44 1.12-.35 1.81-.35.62-.82.78-1.43.49-.22-.06-.43-.13-.65-.2-.89-.26-1.75-.39-2.66-.18-1.11.25-1.96.98-2.95 1.48-2.68 1.36-5.43-1.48-7.95-2.25-1.03-.31-2.34-.19-3.31-.62-1.28-.56-1.35-2.28-1.86-3.43-.47-1.04-1.12-1.9-1.84-2.77-.85-1.01-.73-1.67-.56-2.88.14-1.01-.1-1.98.71-2.76.62-.6 1.44-.82 2.24-.51.42.16.7.36 1.17.39.92.06 1.87-.43 2.69-.77s1.66-.86 2.51-1.08c.98-.25 1.71.59 2.55.94 1.31.56 2.73.1 4.07.49 1.42.4 2.66 1.53 3.59 2.63 1.58 1.86 1.03 4.45 2.11 6.55.14.27.55.03.41-.24-1.13-2.2-.52-4.69-2.19-6.65-.82-.97-1.86-1.89-3.02-2.44-1.48-.7-2.98-.18-4.47-.64-.96-.3-1.7-1.25-2.78-1.17-.92.06-1.93.75-2.75 1.08-.72.3-1.58.74-2.38.82s-1.34-.51-2.08-.57c-.87-.07-1.81.49-2.31 1.15-.59.77-.43 1.46-.52 2.37s-.46 1.69-.1 2.56c.17.41.47.74.75 1.08.77.95 1.45 1.85 1.91 3 .38.96.47 2.24 1.3 2.95s2.15.56 3.18.78c1.7.35 3.16 1.22 4.67 2.03 1.1.59 2.3 1.11 3.57.77 1.76-.46 2.87-2 4.83-1.91 1.28.06 2.83 1.16 4.05.27 2.09-1.52-.87-4.12-1.65-5.46-.16-.27-.57-.03-.41.24Z"/>
  <path d="M75.57 21.05c.3-.48-.29-1.48-.83-2.08-.74-.81-1.2-.67-1.83-1.49-.31-.41-.49-.92-.67-1.41-.32-.88-.67-1.77-1.2-2.54s-1.23-1.45-2.1-1.76c-.63-.23-1.3-.26-1.97-.28-.82-.03-1.65-.07-2.46.04-.6.08-1.2.22-1.79.1-.97-.2-1.06-.54-1.76-.62-1.02-.1-2.12.6-2.68 1.52-.58.95-.46 1.95-.38 2.66.07.56.35 1.24.91 2.58.83 1.99 1.05 2.18 1.24 2.31.66.43 1.04.05 2.44.24 1.13.15 1.94.54 2.82.96 1.69.82 1.56 1.21 2.75 1.65.63.23 2.04.75 3.44.22 1.33-.5 1.54-1.52 3.06-1.78.49-.08.84-.04 1.01-.31Z" fill="#e9afaf"/>
  <path d="M75.81 21.11c.25-.64-.17-1.36-.53-1.87-.51-.71-1.2-.99-1.83-1.54-.82-.71-1.03-1.96-1.45-2.92s-.92-1.81-1.69-2.48c-1.44-1.25-3.68-1.21-5.47-1.05-.6.05-1.2.23-1.8.18-.51-.04-.92-.29-1.38-.48-.64-.25-1.28-.23-1.92.03-3.61 1.49-1.71 5.85-.5 8.3.35.71.69 1.19 1.54 1.24.97.06 1.82-.04 2.79.26s1.95.77 2.78 1.34c1.37.95 2.84 1.72 4.59 1.41.9-.16 1.53-.65 2.21-1.22.45-.37.92-.63 1.5-.74.43-.08.8-.04 1.11-.37.21-.22-.13-.56-.34-.34-.24.25-.99.25-1.29.34-.28.08-.54.2-.78.36-.53.34-.94.83-1.5 1.14-1.42.8-3.43.35-4.7-.58-1.05-.77-2.2-1.42-3.46-1.81a6.97 6.97 0 0 0-2.22-.31c-.44.01-.96.13-1.33-.18-.21-.18-.33-.47-.45-.71-.41-.8-.74-1.65-1.07-2.49-.57-1.43-.92-3.17.23-4.44.6-.67 1.56-1.15 2.46-.87.6.19 1.06.54 1.73.58.85.06 1.71-.2 2.57-.21.97-.01 2.08-.04 3.02.22 2.31.64 2.84 3.13 3.71 5.01.29.62.69 1.09 1.26 1.46.71.46 2.17 1.58 1.76 2.6-.11.29.35.41.46.13Z"/>
  <path d="M68.79 22.86c1.04-.02 2.23-.97 2.38-2.17.12-.93-.43-1.66-.76-2.12-.43-.58-.89-.96-1.56-1.36-.46-.27-.95-.5-1.39-.81-1.21-.87-1.04-1.37-2.06-2.02-.24-.15-1.4-.89-2.54-.49-.38.13-.65.36-.95.6-.46.38-.93.76-1.13 1.39-.18.55-.03.88-.36 1.32-.18.24-.26.2-.4.42-.34.55-.12 1.26-.08 1.39.03.09.25.76.9 1.13.36.2.63.19 1.09.23.93.09 1.61.3 2.52.59.86.27 1.3.41 1.83.75.5.32.69.56 1.27.81.34.15.77.34 1.25.33Z" fill="#bd0e0d"/>
  <path d="M68.79 23.1c.99-.05 1.9-.67 2.35-1.55.52-1 .23-2.03-.38-2.91-.75-1.08-1.75-1.56-2.85-2.23-.58-.36-1.02-.79-1.42-1.32-.28-.36-.59-.67-.98-.92-.79-.51-1.81-.83-2.73-.51s-1.95 1.24-2.25 2.16c-.1.3-.08.61-.16.91s-.3.44-.48.65c-.31.38-.36.9-.28 1.36.13.73.6 1.43 1.3 1.7s1.5.2 2.21.37 1.4.4 2.08.65c1.26.46 2.15 1.58 3.57 1.63.31.01.31-.47 0-.48-1.15-.05-1.85-.88-2.81-1.35-.84-.42-1.81-.68-2.72-.91-.96-.24-2.24-.04-2.86-.95-.13-.19-.22-.4-.27-.63s-.07-.43-.03-.65c.07-.38.3-.5.51-.77.23-.3.26-.62.31-.98.09-.64.43-1.09.91-1.5.38-.33.78-.68 1.27-.8.57-.14 1.18 0 1.71.25.69.32 1.1.82 1.57 1.39.68.83 1.62 1.24 2.52 1.79s1.81 1.48 2.02 2.54c.25 1.26-.88 2.5-2.12 2.57-.31.02-.31.5 0 .48Z"/>
  <path d="M65.31 21.27c.68.2 1.53.45 1.99.04.11-.1.18-.23.3-.5.15-.34.31-.71.3-1.08-.02-.61-.46-1.11-.93-1.48-.54-.43-1.14-.78-1.78-1.03-.6-.23-1.25-.38-1.88-.26-.16.03-1.1.31-1.4 1.2-.26.78.09 1.63.58 2.05.3.26.43.16 1.63.6.75.28.72.32 1.19.46Z" fill="#e9afaf"/>
  <path d="M65.24 21.5c.59.18 1.34.44 1.95.16.25-.12.41-.31.53-.55.17-.33.33-.69.39-1.06.24-1.48-1.52-2.51-2.67-2.99-1.07-.45-2.32-.62-3.24.23s-.78 2.49.25 3.19c.32.22.77.28 1.13.4.56.19 1.1.46 1.66.63.3.09.42-.37.13-.46-.33-.1-.63-.25-.95-.37-.45-.17-.91-.32-1.37-.45-.82-.24-1.2-1.33-.87-2.09.37-.85 1.34-1.09 2.17-.92.64.13 1.26.42 1.81.76.49.31 1.03.68 1.31 1.2.19.34.2.68.09 1.05-.09.28-.21.66-.41.88-.41.45-1.32.08-1.79-.06-.3-.09-.42.37-.13.46Z"/>
  <path d="M65.39 19.63c-.06-.19-.16-.53-.48-.75-.1-.07-.44-.3-.67-.16-.23.15-.21.49-.12.75.03.07.15.6.57.7.3.07.67-.11.73-.34 0-.04 0-.09-.02-.2Z" fill="#961710"/>
  <path d="M65.56 19.58c-.05-.15-.1-.31-.18-.45-.1-.18-.25-.32-.42-.44-.14-.1-.3-.17-.47-.2a.51.51 0 0 0-.53.28c-.14.29-.07.62.04.91.12.33.35.62.72.67.24.03.49-.04.68-.2.08-.07.15-.16.18-.27s0-.21-.02-.31c-.06-.22-.41-.13-.35.1 0 .02.01.05.02.07v.06c0-.04 0-.03 0 0 0 .04 0-.01 0 0s-.01.02-.02.04c-.03.04.02-.02-.01.02l-.03.03a.52.52 0 0 1-.38.11c-.05 0-.13-.03-.16-.05 0 0-.02-.01-.03-.02 0 0-.05-.03-.02-.01a.304.304 0 0 1-.08-.08.138.138 0 0 1-.03-.04s.02.03 0 0-.03-.05-.05-.08-.03-.05-.04-.08c0 0 0-.02-.01-.03 0 0 0-.02-.01-.03 0 .02.01.02 0 0-.02-.07-.05-.14-.07-.21a.81.81 0 0 1-.04-.19v-.12c0-.05 0-.05.01-.09s.02-.06.03-.08c0 0 .03-.05.01-.02 0 0 .02-.02.02-.03.03-.04-.02 0 .02-.02 0 0 .05-.02.02-.01 0 0 .06-.01.02 0h.07s-.03 0 0 0c.02 0 .04 0 .05.01s.04.01.05.02c.06.02-.03-.01.03 0 .06.03.12.06.17.09.13.08.23.18.31.31l.06.12c0 .02.02.03.02.05-.01-.03 0 .02 0 .02.02.06.04.13.06.19.07.22.41.13.35-.1Z"/>
  <path d="M55.93 10.12c-.17-.09-.91.94-1.46 1.96-.44.82-.64 1.23-.69 1.73-.09.98.49 1.9 1.13 2.63.64.73 1.4 1.39 1.81 2.28.52 1.13.26 1.43.7 2.43.9 2.06 3.19 2.84 3.39 2.91 1.82.59 2.25-.38 4.23.18 1.67.47 1.6 1.23 3.39 1.75.59.17 2.25.66 3.94 0 1.46-.58 2.68-1.92 3.1-2.37.56-.61.9-1.21 1.7-1.48.82-.28 1.58-.07 1.59-.13 0-.06-.71-.19-2.19-.44-1.67-.29-1.86-.31-2.21-.21-.67.19-1.26.67-1.65.99-.5.4-.49.51-.85.72-.68.4-1.36.41-1.71.41-.78 0-1.35-.23-1.75-.4-.66-.27-.82-.48-1.59-.96-.75-.47-1.8-1.13-3.22-1.46-.89-.21-1.65-.27-1.65-.27-.76-.06-1.16-.01-1.65-.27-.23-.12-.49-.32-.82-.77-1.03-1.39-.64-2.29-1.56-3.72-.32-.49-.33-.33-1.1-1.37-.7-.94-1.06-1.43-1.16-1.96-.23-1.16.47-2.07.31-2.16Z" fill="#bd0e0d"/>
  <path d="M55.87 9.89c-.87.16-1.66 2.12-1.97 2.77-.45.97-.46 1.88.06 2.85.78 1.47 2.33 2.34 2.81 4 .35 1.22.5 2.23 1.43 3.19 1.34 1.38 2.99 1.93 4.86 1.68.9-.12 1.75-.04 2.57.35.6.28 1.06.73 1.63 1.05 1.09.61 2.51.88 3.75.77 1.56-.14 2.86-1.02 3.96-2.07.51-.49.91-1.07 1.42-1.55.76-.72 1.54-.52 2.43-.69.18-.04.22-.28.11-.4-.47-.49-2.12-.48-2.72-.58-.81-.14-1.54-.33-2.31 0-.63.27-1.14.73-1.66 1.16-.83.7-1.79.96-2.87.73-1.48-.31-2.63-1.47-3.97-2.1-1.16-.55-2.4-.82-3.67-.92s-1.94-.46-2.5-1.63c-.34-.71-.41-1.51-.72-2.24-.47-1.1-1.39-1.93-2.06-2.9-.53-.77-.74-1.42-.5-2.36.07-.26.34-.66.22-.94s-.58-.16-.46.13c.1.25-.33 1.03-.35 1.37-.04.52.06.99.3 1.45.6 1.14 1.67 1.97 2.26 3.1.71 1.36.64 3.08 2.02 4.05.92.65 2.31.44 3.37.67 1.73.38 2.95 1.32 4.43 2.18 1.11.64 2.54.95 3.78.47s1.94-1.95 3.38-1.95c.79 0 1.64.25 2.42.39.29.05 1.15.1 1.29.24l.11-.4c-.55.11-1.09-.05-1.65.16-.67.25-1.07.74-1.53 1.26-1.11 1.26-2.42 2.51-4.13 2.83-1.85.35-3.42-.37-4.9-1.35-1.04-.69-2.21-.93-3.44-.77s-2.17.06-3.22-.54c-.74-.42-1.41-.99-1.87-1.71s-.51-1.45-.73-2.26c-.43-1.54-1.7-2.38-2.56-3.64-.74-1.08-.76-2.03-.18-3.16.27-.54.92-2.12 1.52-2.23.3-.05.17-.52-.13-.46Z"/>
  <path d="M55.49 17.07c-.12.49-.79 3.41.93 6.11.12.18 1.59 2.44 3.83 3.03.23.06.95.23 1.78.39 1.5.29 1.67.23 2.27.47.92.38.97.66 1.75.95.61.22 1.17.19 1.9.06 2.07-.39 5.01-2.31 5.45-2.57-.58.22-1.88.93-2.98.86-1.14-.06-2.01-.44-2.62-.71-1.78-.79-2.07-1.57-3.32-1.59-.4 0-.47.07-1.35.1-.73.02-1.29.04-1.89-.07-.34-.06-1.81-.32-2.87-1.54-.49-.57-.73-1.15-.96-1.71-.4-.98-.33-1.36-.7-2.14-.21-.44-.56-1.03-1.22-1.65Z" fill="#bd0e0d"/>
  <path d="M55.26 17c-.75 3.13.33 6.41 2.88 8.38 1.56 1.2 3.49 1.35 5.37 1.71.84.16 1.44.69 2.19 1.04.85.39 1.76.32 2.64.11 1.87-.46 3.56-1.54 5.19-2.53.22-.13.08-.54-.18-.44-.94.39-1.87.88-2.92.86s-2.14-.47-3.07-.96c-.69-.37-1.31-.95-2.05-1.2-.59-.2-1.15-.1-1.76-.06-1.92.14-3.93-.08-5.17-1.74-.69-.92-.89-1.99-1.24-3.05-.29-.87-.83-1.59-1.48-2.23-.22-.22-.56.12-.34.34.96.94 1.27 1.87 1.65 3.11.29.94.73 1.89 1.42 2.59 1.24 1.25 2.91 1.53 4.59 1.48.83-.02 1.67-.26 2.45.13.87.43 1.61 1.04 2.51 1.43.85.37 1.79.66 2.73.63.99-.03 1.89-.51 2.79-.87l-.18-.44c-1.68 1.01-3.43 2.17-5.39 2.55-.82.16-1.58.12-2.32-.32-.4-.24-.77-.51-1.21-.68-.81-.32-1.73-.36-2.58-.54-1.14-.23-2.23-.48-3.19-1.18-.72-.52-1.38-1.2-1.88-1.94-1.19-1.74-1.49-4.03-1-6.06.07-.3-.39-.43-.46-.13Z"/>
  <path fill="none" stroke="#000" stroke-miterlimit="10" stroke-width=".16" d="m75.51 20.76-4.36.15m4.01-1.11-3.85.55m3.24-1.3-3.2.85m2.48-1.49-2.76.88m2.14-1.4-2.44 1.03m1.71-1.68-2.01 1.3m1.75-2.13-1.93 1.66m1.65-2.26-2.17 1.86m1.91-2.69-2.66 2.27m2.38-2.88-2.9 2.49m2.52-3.21-3.27 2.79m2.77-3.42-3.39 2.9m2.67-3.54-3.19 3.14m2.34-3.69-2.74 3.19m1.42-3.31-1.92 2.69m.59-2.82-1.02 2.55m.23-2.51-.77 2.34m-.36-2.22-.4 2.03m-.7-2.14-.09 2.18m-.9-2.39.34 2.45m-1.32-2.66.95 2.97m-1.84-3.05 1.38 3.24m-2.43-2.77 2.19 2.98m-2.91-2.36 2.42 2.77m-2.93-2.13 2.67 2.56m-2.75-1.64 2.59 2.2m-2.7-1.06 2.54 1.63m-2.1-.32 1.93.88m-1.57.07 1.09.34m-.73.62.57-.06m-.19.79.35-.08m13.46 3.02-2.32-.34m1.25 1.05-1.39-.71m.68 1.1-.92-.9m.12 1.17-.38-.73m-.41.77-.18-.48m-4.86-5.54-.02 1.5m.79-1.31-.59 1.56m1.43-1.02-1.33 1.14m2.18-.6-1.98.85m2.24-.01-2.16.36m2.19.45-2.21-.22m1.79 1.21-1.91-1.1m1.1 1.37-1.22-1.27m-1.06-3.1.42 1.54m-1.21-1.5.97 1.71m-1.65-1.54 1.4 1.74m-1.91-1.1 1.87 1.56M62.05 19l2.17.67m-1.81.29 1.69-.19m-.4.77.6-.52m.16.71.16-.56m.81 1-.48-.85"/>
  <path d="M93.29 9.28c.28 7.94.44 16.11.46 24.51.02 9.73-.14 19.16-.46 28.28 4.49.16 8.97.31 13.46.47v8.01H83.54c.61-9.77.95-20.16.93-31.1-.02-10.08-.36-19.67-.93-28.75a63.026 63.026 0 0 1 9.74-1.41Zm21.46-.05c2.8-.59 13.51-2.51 22.63 3.82 3.87 2.69 6.03 5.87 6.5 6.58 3.4 5.15 3.8 10.18 4.18 15.05.69 8.86-1.38 15.47-1.86 16.93-1.14 3.49-2.73 8.35-6.5 12.23-8.68 8.94-22.95 6.5-25.06 6.11l.12-60.72Zm8.24 6.64c-.15 14.89-.31 29.78-.46 44.67 2.68-.03 7.88-.52 12.07-4.23 6.95-6.16 5.79-16.52 5.11-22.57-.62-5.52-1.34-11.89-6.5-15.52-3.78-2.66-8.1-2.56-10.21-2.35Zm60.34 11.51h-6.03c-.15-1.39-.31-2.78-.46-4.18-.12-.87-.63-3.9-3.25-6.03-.76-.62-2.58-2.1-5.11-1.86-2.73.26-4.3 2.34-4.64 2.78-1.95 2.58-1.51 5.64-1.39 6.5.6 4.24 3.78 6.96 6.5 9.28 2.48 2.12 2.86 1.75 7.43 5.11 3.57 2.63 5.36 3.94 6.5 5.57 2.86 4.1 2.8 8.62 2.78 10.21-.02 1.55-.11 5.07-2.28 8.79-1.78 3.06-4.07 4.71-4.68 5.13-3.87 2.68-7.83 2.77-9.28 2.78-1.52.01-6.11 0-10.34-3.25-.55-.42-3.31-2.6-4.98-6.5-.99-2.33-1.14-4.37-1.39-8.35-.15-2.32-.2-5.14 0-8.35h6.96c0 3.52.01 6.49 0 9.28 0 .8-.01 1.91.46 3.25.92 2.58 2.89 3.94 3.25 4.18 2.2 1.47 4.41 1.42 5.11 1.39 2.67-.1 4.49-1.38 5.11-1.86.35-.27 2.62-2.08 3.25-5.11.74-3.56-1.25-6.57-2.78-8.82-2.2-3.22-3.4-3.32-10.21-9.28-4.88-4.26-6.09-5.91-6.96-7.89-1.33-3.02-1.38-5.79-1.39-6.96-.02-2.1-.05-5.22 1.86-8.35 2.91-4.78 8.1-5.89 8.82-6.03.33-.07 6.11-1.12 10.93 2.56 1.83 1.4 2.83 2.96 3.46 3.94.41.63 2.35 3.75 2.78 8.35.15 1.54.08 2.82 0 3.71Zm38.1-17.61c-4.81 9.17-11.02 19.29-15.83 28.45 4.62 11.4 10.64 21.85 15.26 33.25-3.09 0-4.75-.02-7.84-.02-4.18-9.49-8.35-18.51-12.99-28-.02 9.65.46 17.56.46 28h-7.43c0-20.59-.45-41.11-.46-61.7 2.83.03 4.65-.04 7.48-.01-.05 9.03-.04 16.62-.05 24.22 4.5-7.59 9.01-16.61 13.51-24.2h7.89Zm22.69 52.89c.67-.01 2.47-.14 4.18-1.39 1.8-1.32 2.43-3.12 2.78-4.18.28-.85.4-1.56.46-5.11.06-3.15.01-5.54 0-8.35V10.67h8.82v8.82c0 6.65-.06 13.3 0 19.96.01 1.64.11 11.89-1.39 19.96-.17.93-.57 2.92-1.86 5.11-.55.94-2.22 3.69-5.64 5.47-3.16 1.65-6.07 1.57-7.73 1.49-1.55-.07-6.64-.31-10.76-4.18-3.01-2.83-4.01-6.2-4.64-8.35-.72-2.43-.82-4.33-.93-6.5-.47-9.82-.46-15.78-.46-15.78 0-9.47.01-12.18 0-15.32-.02-4.57-.07-8.3-.1-10.74l8.92.06v28.31c-.23 4.33.02 8.66 0 13 0 .6 0 1.98.46 3.71.59 2.14 1.61 3.7 2.32 4.64.4.4 2.45 2.38 5.57 2.32Zm23.1-52.21c2.8-.58 13.51-2.47 22.63 3.77 3.87 2.65 6.03 5.79 6.5 6.5 3.4 5.09 3.8 10.04 4.18 14.85.69 8.75-1.38 15.27-1.86 16.71-1.14 3.45-2.73 8.24-6.5 12.07-8.68 8.82-22.95 6.42-25.06 6.03l.12-59.93Zm8.24 6.56c-.15 14.7-.31 29.39-.46 44.09 2.68-.03 7.88-.52 12.07-4.18 6.95-6.08 5.79-16.31 5.11-22.28-.62-5.45-1.34-11.73-6.5-15.32-3.78-2.62-8.1-2.53-10.21-2.32ZM50.59 0c-7.12 23.82-14.23 47.65-21.35 71.47h-11.6c-3.19-10.09-6.3-20.62-9.28-31.56C5.23 28.44 2.46 17.29 0 6.5h9.28c1.43 9.47 3.11 17.6 4.64 24.13.52 2.23 2.27 9.55 5.11 19.03 1.54 5.15 2.99 9.55 4.18 13 3.07-8.61 5.17-15.69 6.5-20.42 2.5-8.94 3.36-13.61 6.5-25.53C38.12 9.45 39.79 3.62 40.85 0h9.75Z"/>
</svg>
