<?xml version="1.0" encoding="UTF-8"?><svg id="Layer_3" xmlns="http://www.w3.org/2000/svg" width="247.8" height="373.15" viewBox="0 0 247.8 373.15"><defs><style>.cls-1{fill:#006837;}.cls-2{fill:#92a377;}</style></defs><g><path d="M143.96,212.21c.55,3.05,.72,6.56,.68,9.87-.08,6.71-1.18,13.42-3.56,19.71-3.04,8.06-8.35,15.18-15.34,20.25-2.54,1.85-5.27,3.4-8.09,4.79-2.48,1.23-5.4,2.69-8.27,2.49-2.6-.19-4.77-1.99-6.65-3.63-3.27-2.85-6.47-5.89-9.44-9.05-2.65-2.82-4.38-5.94-5.09-9.78-.84-4.54-1-9.35-1.21-13.95-.43-9.48,.31-19.12,5.19-27.48,2.31-3.95,5.14-7.82,8.29-11.15,3.08-3.25,6.98-5.55,11.31-6.67,5.41-1.4,10.9-1.02,16.03,1.07,4.11,1.68,7.83,4.47,10.46,8.07,2.31,3.15,3.73,6.79,4.66,10.56,.4,1.62,.71,3.27,1.01,4.91,.26,1.42,2.43,.82,2.17-.6-.68-3.74-1.5-7.44-3.02-10.94-1.82-4.2-4.67-7.82-8.31-10.59-4.9-3.72-11.07-5.71-17.21-5.54-4.49,.12-8.96,1.27-12.86,3.53-3.9,2.25-6.78,5.49-9.49,9.01-3.07,3.98-5.9,8.14-7.7,12.86-1.78,4.64-2.56,9.61-2.8,14.55s.07,10.19,.49,15.26c.38,4.68,.62,9.42,2.88,13.65,1.83,3.44,4.86,6.13,7.63,8.79,2.92,2.8,5.86,6.05,9.42,8.05,5.36,3.02,11.13-.07,16.01-2.69,7.72-4.16,14.27-10.25,18.67-17.87,6.33-10.94,8.26-24.45,6.5-36.89-.06-.4-.12-.8-.19-1.19-.26-1.42-2.43-.82-2.17,.6Z"/><path d="M95.92,261.91c-.38,2.85-.86,5.7-1.39,8.53-.29,1.56-.59,3.16-1.25,4.62-1.69,3.73-4.66,6.41-8.54,7.77-1.36,.47-.77,2.65,.6,2.17,4.37-1.52,7.89-4.48,9.84-8.69,.76-1.64,1.16-3.35,1.49-5.12,.58-3.07,1.08-6.17,1.5-9.27,.19-1.43-2.06-1.42-2.25,0h0Z"/><path d="M124.8,263.14c-.77,5.45-1.62,11.25,.2,16.59,1.42,4.16,4.3,7.77,8.52,9.27,1.37,.49,1.95-1.69,.6-2.17-3.67-1.31-6.09-4.75-7.16-8.37-1.41-4.77-.67-9.89,.01-14.72,.2-1.42-1.97-2.03-2.17-.6h0Z"/><path d="M84.07,284.48c3.52,5.81,9.35,9.85,15.85,11.66,8.05,2.24,16.49,.47,24.49-1.1,4.4-.87,8.76-2.01,12.67-4.26,1.26-.72,.12-2.67-1.14-1.94-4.13,2.38-8.8,3.4-13.43,4.28-4.97,.94-10,1.94-15.08,1.84-8.49-.17-16.95-4.22-21.42-11.61-.75-1.24-2.69-.11-1.94,1.14h0Z"/><path d="M133.25,288.7c2.31,1.85,5.15,2.22,8.01,2.46,3.29,.28,6.51,.75,9.71,1.59,6.49,1.7,12.63,4.61,18.07,8.54,10.24,7.4,17.19,18.26,24.84,28.08,4.33,5.56,8.97,10.91,14.53,15.28,1.13,.88,2.73-.7,1.59-1.59-9.86-7.75-16.66-18.42-24.34-28.16-3.88-4.91-8.04-9.65-12.92-13.6-5.11-4.13-10.9-7.34-17.11-9.5-3.58-1.24-7.28-2.1-11.03-2.59-3.16-.41-7.13-.02-9.76-2.13-1.12-.9-2.72,.69-1.59,1.59h0Z"/><path d="M51,334.49c-6.98,6.67-15.38,11.82-24.51,14.98-4.38,1.52-9.17,2.91-13.83,3.11-2.31,.1-4.76-.23-6.57-1.8-1.62-1.41-2.46-3.46-2.96-5.5-1.9-7.69-.48-16.17,1.16-23.77,1.96-9.07,4.68-17.95,6.9-26.96,2.56-10.39,4.43-20.94,4.97-31.64l-.83,1.08c9.14-1.92,18.39-3.24,27.7-3.96l-1.08-1.42c-5.35,14.48-8.07,29.86-8.04,45.3,0,.78,.99,1.5,1.69,.97,1.57-1.17,3.41-2.26,4.71-3.72s2.78-2.99,4.26-4.4c2.32-2.2,4.76-4.29,7.38-6.12,1.72-1.2,3.48-2.42,5.35-3.38s4-1.4,6.15-1.45c3.51-.09,7,.52,10.51,.54,4.11,.02,8.22-.48,12.24-1.31,1.42-.29,.82-2.46-.6-2.17-3.68,.76-7.4,1.22-11.16,1.23s-7.17-.61-10.77-.55c-1.89,.03-3.82,.27-5.61,.92-1.98,.73-3.75,1.87-5.5,3.03-2.81,1.87-5.45,3.92-7.97,6.17-1.55,1.38-3.03,2.83-4.46,4.34-.9,.96-1.72,1.95-2.78,2.75-.97,.73-1.94,1.45-2.91,2.18l1.69,.97c-.03-15.25,2.67-30.4,7.96-44.7,.24-.66-.39-1.48-1.08-1.42-9.51,.74-18.96,2.08-28.3,4.04-.5,.1-.8,.61-.83,1.08-.51,10.07-2.21,19.99-4.58,29.79-2.29,9.49-5.2,18.84-7.25,28.39-1.71,7.96-3.1,16.75-1.12,24.79,1.08,4.37,3.81,8.02,8.46,8.77,4.7,.76,9.83-.64,14.32-1.94,10.78-3.12,20.73-8.88,28.84-16.62,1.05-1-.54-2.59-1.59-1.59h0Z"/><path d="M50.92,334.91c-1.21,12.33-2.12,24.77-1.73,37.16,.05,1.44,2.3,1.45,2.25,0-.39-12.39,.52-24.83,1.73-37.16,.14-1.44-2.11-1.43-2.25,0h0Z"/><path d="M166.73,341.24c-.32,7.11,7.31,10.77,8.96,17.16,.36,1.4,2.53,.81,2.17-.6-.84-3.26-3.06-5.85-5.12-8.42-1.89-2.36-3.9-4.95-3.76-8.14,.07-1.45-2.19-1.44-2.25,0h0Z"/><path d="M166.16,341.53c-3.4,9.53-6.13,19.28-8.17,29.18-.29,1.41,1.88,2.02,2.17,.6,2.04-9.91,4.77-19.66,8.17-29.18,.49-1.37-1.69-1.95-2.17-.6h0Z"/><path d="M42.43,258.54c1.45-3.76,3.44-7.34,6.05-10.42,1.41-1.66,2.98-3.15,4.54-4.65,1.03-.99,2.29-2.05,2.87-3.39,1.32-3.04-2.66-3.79-4.81-3.77-4.21,.03-7.42,3.14-10.16,5.97l1.92,.8c-.89-10.75-2.31-21.46-4.28-32.07-.44-2.37-.71-4.94-1.56-7.2-.67-1.8-1.98-3.39-3.96-3.75-4.71-.86-4.88,5.9-4.82,8.96,.05,2.39,.52,4.73,.86,7.09,.38,2.59,.64,5.2,.83,7.81,.1,1.44,2.35,1.45,2.25,0-.26-3.71-.75-7.38-1.32-11.06-.31-2.02-.47-4.03-.3-6.07,.1-1.19,.08-4.56,1.85-4.55,2.12,.02,2.7,2.83,3.03,4.41,.47,2.28,.9,4.58,1.31,6.87,.82,4.6,1.55,9.23,2.17,13.86,.69,5.22,1.25,10.45,1.68,15.7,.08,.93,1.2,1.54,1.92,.8,2.34-2.42,5.11-5.36,8.74-5.31,.41,0,2.56,.02,2.65,.47,.12,.62-1.58,1.98-1.96,2.34-2.37,2.33-4.76,4.59-6.73,7.28-2.09,2.85-3.69,6-4.95,9.28-.52,1.35,1.65,1.94,2.17,.6h0Z"/><path d="M31.23,224.53c-3.36-3.38-9.3-1.63-9.95,3.21l1.08-.83c-1.75,.16-3.29-.93-5.03-1.01-.75-.04-1.47,.14-2.08,.59-.78,.58-.86,1.39-1.39,2.11-.63,.84-1.83,.4-2.75,.43s-1.69,.25-2.4,.78c-1.33,.99-1.98,2.74-1.92,4.37,.09,2.2,1.28,4.1,2.12,6.06,.99,2.31,1.63,4.75,2.25,7.17,1.31,5.14,2.59,10.28,3.89,15.42,.35,1.4,2.52,.81,2.17-.6-1.14-4.52-2.28-9.04-3.42-13.56-.53-2.11-1.04-4.22-1.71-6.29-.67-2.07-1.65-3.96-2.46-5.96-.59-1.46-1.15-3.97,.62-4.93,1.41-.77,3.16,.32,4.62-.69,.68-.47,.96-1.12,1.3-1.83,.38-.8,.78-.9,1.62-.73,1.56,.3,2.95,1.09,4.59,.93,.44-.04,1.02-.32,1.08-.83,.42-3.09,3.91-4.52,6.19-2.22,1.02,1.03,2.61-.56,1.59-1.59h0Z"/><path d="M29.32,225.06c1.19,1.92,2.28,3.89,3.27,5.92,.49,1.01,.95,2.03,1.38,3.06,.4,.97,.93,2,1.1,3.04,.12,.71-.15,1.19-.87,1.27-.85,.1-1.53-.44-2.06-1.03-.67-.73-1.18-1.6-1.75-2.41-.65-.93-1.32-1.85-2.01-2.75-1.57-2.06-3.23-4.05-4.98-5.97-.98-1.07-2.57,.52-1.59,1.59,1.8,1.97,3.52,4.02,5.12,6.16,.78,1.04,1.53,2.11,2.26,3.18,.67,.98,1.36,1.94,2.32,2.64,1.61,1.16,4.28,1.2,5.4-.67,.66-1.09,.45-2.41,.05-3.55-.44-1.23-.95-2.43-1.47-3.62-1.22-2.77-2.64-5.44-4.23-8.01-.76-1.23-2.71-.1-1.94,1.14h0Z"/><path d="M13.44,230.53c.67,2.32,2.33,4.09,3.9,5.85,.88,.99,1.75,1.98,2.63,2.97,.79,.89,1.56,1.82,2.52,2.53,1.84,1.35,4.26,1.06,5.68-.74,1.56-1.97,1.14-4.66,0-6.72-.65-1.18-1.52-2.22-2.35-3.28-.95-1.21-1.9-2.43-2.85-3.64-.37-.48-1.2-.39-1.59,0-.47,.47-.38,1.11,0,1.59,.87,1.11,1.74,2.22,2.6,3.33,.77,.98,1.57,1.95,2.19,3.03,.56,.98,.96,2.16,.71,3.3-.19,.85-.86,1.69-1.78,1.77-1.01,.08-1.87-.89-2.48-1.56-.93-1.01-1.82-2.05-2.73-3.08-1.58-1.78-3.61-3.59-4.28-5.95-.4-1.39-2.57-.8-2.17,.6h0Z"/><path d="M12.39,231.31c1.59,1.69,3.2,3.4,4.44,5.38,.39,.62,2.73,4.6,1.08,4.83-1.29,.18-1.97-1.6-2.58-2.42-.5-.67-1.11-1.25-1.67-1.87-1.65-1.85-3.22-3.77-4.77-5.7-.38-.48-1.2-.4-1.59,0-.47,.47-.38,1.11,0,1.59,1.54,1.94,3.12,3.85,4.77,5.7,.36,.4,.73,.8,1.1,1.19,.09,.1,.18,.21,.28,.31,.19,.2-.1-.16-.04-.05,.04,.07,.1,.13,.14,.2,.5,.75,.92,1.57,1.61,2.19,.95,.85,2.23,1.36,3.51,1,1.37-.38,2.1-1.72,2.04-3.08-.06-1.28-.59-2.53-1.16-3.66-1.36-2.72-3.48-4.99-5.55-7.19-.99-1.06-2.58,.54-1.59,1.59h0Z"/><path d="M33.92,303.91c.54,7.82-1.23,15.5-4.85,22.43-.67,1.28,1.27,2.42,1.94,1.14,3.79-7.27,5.72-15.36,5.15-23.57-.1-1.44-2.35-1.45-2.25,0h0Z"/><g><path class="cls-2" d="M124.04,171.91c4.44,.27,4.85-1.78,10.81-1.97,1.39-.04,4.9-.13,8.81,1.22,4.48,1.54,7.96,5.04,11.27,8.42,2.4,2.45,6.55,7.32,8.3,14.52,1.3,5.34-.02,6.93,1.81,13.81,1.11,4.15,1.77,4.28,3.04,8.41,.85,2.78,3.28,9.18,2.14,16.7-.86,5.68-2.24,11.49-.98,17.1,.63,2.78,1.88,5.39,2.53,8.17,1.71,7.37-1.02,14.97-1.41,22.53-.61,11.82,6.93,16.72,3.31,22.12-1.28,1.91-3.76,3.76-6.02,4.85-2.46,1.19-3.72,1.03-7.61,2.13-5.07,1.44-4.73,2.23-8,3-1.15,.27-8.69,2.05-13.55-1.78-1.93-1.52-2.57-3.24-4.06-7.02-6.75-17.11-7.02-15.69-8.39-21.19-1.87-7.52-2.81-11.27-2-15,1.64-7.56,6.62-7.2,12.74-16.92,6.21-9.85,6.99-19.23,7.27-27.66,.08-2.58,.06-5.25-.95-7.63-1.9-4.45-6.7-6.75-10.56-9.67-6.36-4.81-10.75-12.16-11.95-20.04-4.43,4.96-8.58,8.17-11.59,10.19-3.47,2.33-5.78,3.34-9.95,6.73-2.93,2.39-5.07,4.15-7,7-.91,1.35-2.64,4.22-4,11-1,5-2.23,11.13-1,19,1.69,10.78,6.99,18.33,10,22,.07,3-.29,5.47-.66,7.24-.6,2.84-1.42,7.49-4.84,11.39-1.05,1.2-2.19,2.36-2.86,3.81-.83,1.8-.84,3.85-1.23,5.8-1.03,5.14-3.68,11.56-8.62,13.68-1.39,.6-2.52,.68-4.3,.81-3.87,.28-4.8-2.27-11.17-2.03-2.96,.11-6.74,.31-8-2.38-.71-1.51-.24-3.43-1.12-4.85-.97-1.57-3.21-1.93-4.23-3.47-.6-.91-.66-2.08-.59-3.17,.41-6.81,4.66-12.99,4.85-19.82,.1-3.45-.83-7.11,.64-10.24,1.07-2.28,3.26-3.87,4.4-6.12,1.83-3.6,.59-7.96,1.27-11.95,.75-4.46,3.84-8.17,5.23-12.48,2.1-6.48,.26-13.93,3.25-20.04,1.81-3.7,5.2-6.46,6.87-10.22,1.09-2.45,1.4-5.22,2.65-7.6,2.45-4.7,7.93-6.93,11.48-10.86,4.54-5.02,4.52-7.3,7.82-8.25,2.65-.76,3.65,.46,8.16-.24,4.04-.63,4.09-1.74,7-2,4.91-.43,5.61,2.67,11,3Z"/><path class="cls-1" d="M124.04,173.03c2.29,.11,4.16-.58,6.3-1.25,2.5-.78,5.19-.87,7.78-.65,3.47,.29,6.73,1.41,9.59,3.41,2.59,1.82,4.87,4.15,7.03,6.46,3.91,4.19,6.81,9.42,7.76,15.11,.37,2.23,.23,4.5,.46,6.75,.31,3.05,1.03,6.12,2.2,8.95,1.97,4.76,3.76,9.79,4.15,14.97,.58,7.64-2.67,15.02-1.34,22.69,.66,3.79,2.59,7.23,3.07,11.07s-.07,7.49-.65,11.17-1.28,7.38-1.18,11.11c.07,2.71,.58,5.4,1.43,7.98,.69,2.08,1.63,4.07,2.33,6.15,.51,1.52,.88,3.14,.18,4.66-1.19,2.59-4.33,4.59-6.89,5.57-2.62,1-5.5,1.27-8.17,2.16-1.81,.6-3.45,1.63-5.26,2.2-1.64,.52-3.39,.79-5.1,.87-2.67,.13-5.47-.2-7.77-1.63-2.39-1.49-3.27-4.05-4.26-6.55-1.91-4.83-3.86-9.64-5.95-14.4-.82-1.87-1.55-3.43-2.13-5.42-.63-2.14-1.12-4.33-1.63-6.51-.56-2.4-1.12-4.85-1.1-7.32,.02-2.2,.61-4.44,1.79-6.31,1.09-1.72,2.69-3.05,4.17-4.43,5.01-4.67,8.77-10.43,11.14-16.87,2.23-6.07,2.94-12.5,3.17-18.92,.12-3.25,.14-6.61-1.39-9.57-1.36-2.65-3.74-4.57-6.12-6.25-2.5-1.77-5.07-3.39-7.27-5.55-2.36-2.32-4.31-5.02-5.81-7.97-1.44-2.83-2.39-5.88-2.89-9.02-.13-.83-1.35-1.08-1.88-.5-4.45,4.94-9.47,8.91-15.11,12.38-2.86,1.76-5.52,3.75-8.1,5.91-2.24,1.87-4.31,3.92-5.86,6.41-2.83,4.54-3.8,10.2-4.62,15.4-1.15,7.23-.8,14.54,1.44,21.53,1.86,5.81,4.87,11.17,8.72,15.88l-.33-.8c.06,3.79-.54,7.6-1.65,11.22-.62,2.02-1.5,3.95-2.75,5.65-1.33,1.82-3.08,3.27-3.97,5.39-.84,2-.85,4.21-1.31,6.31-.4,1.82-.96,3.62-1.72,5.33-1.48,3.29-3.89,6.69-7.65,7.45-1.53,.31-3.21,.44-4.72,0-1.18-.34-2.3-.89-3.48-1.22-1.83-.51-3.72-.61-5.62-.54-1.69,.06-3.62,.23-5.22-.44-2.1-.88-1.6-3.1-2.07-4.92s-1.91-2.76-3.46-3.73c-.96-.6-1.61-1.24-1.74-2.43s.09-2.46,.31-3.62c.42-2.2,1.15-4.32,1.88-6.43,1.51-4.34,2.85-8.54,2.62-13.19-.11-2.31-.45-4.74,.32-6.97,.72-2.08,2.51-3.56,3.76-5.3,2.79-3.87,1.69-8.4,2.13-12.82s3.41-8.15,4.98-12.25c1.63-4.24,1.46-8.85,1.79-13.31,.17-2.23,.48-4.47,1.31-6.56,.81-2.07,2.2-3.84,3.57-5.57s2.7-3.38,3.6-5.34,1.35-4.21,2.09-6.3c1.43-4,4.97-6.31,8.19-8.79s5.52-5.29,7.79-8.49c.64-.9,1.3-1.87,2.3-2.41,1.13-.61,2.36-.67,3.61-.55,3.49,.34,6.69-.07,9.93-1.43,1.37-.58,2.87-.82,4.35-.58s2.62,1.01,3.9,1.63c1.62,.78,3.27,1.2,5.06,1.33,1.44,.11,1.44-2.14,0-2.25-2.59-.2-4.45-1.49-6.78-2.42-2.06-.82-4.5-.85-6.59-.1-.81,.29-1.58,.7-2.4,.97-1.48,.49-3.06,.73-4.62,.77-2.05,.05-4.04-.53-6.06,.06-1.75,.51-2.97,1.59-4.05,3.02-1.62,2.16-3.09,4.4-5.02,6.31-4.1,4.04-9.57,6.4-11.7,12.13-.54,1.46-.88,2.99-1.37,4.47-.53,1.59-1.33,3.02-2.3,4.39-1.86,2.61-4.12,4.92-5.4,7.91-2.56,5.96-1.1,12.61-2.78,18.76-.89,3.25-2.8,6.06-4.14,9.12s-1.62,5.87-1.58,9.09c.02,1.56,.08,3.15-.23,4.69-.35,1.74-1.21,3.08-2.33,4.42-.91,1.08-1.89,2.15-2.56,3.4-.8,1.49-1.1,3.16-1.16,4.84-.11,3.45,.45,6.71-.33,10.13-.72,3.14-1.97,6.13-2.94,9.19-.87,2.75-1.96,6.28-1.24,9.17,.35,1.38,1.25,2.33,2.41,3.08,1.25,.82,2.49,1.3,2.79,2.93,.25,1.36,.15,2.73,.87,3.97,.6,1.03,1.58,1.74,2.69,2.15,2.5,.93,5.23,.39,7.82,.51,2.25,.1,4.1,.92,6.19,1.6,2.08,.67,4.45,.53,6.56,.02,5.34-1.29,8.37-6.8,9.9-11.65,.38-1.2,.7-2.43,.92-3.68,.3-1.7,.34-3.51,1.04-5.11,.61-1.38,1.71-2.45,2.68-3.58,1.06-1.24,1.98-2.58,2.7-4.05,1.18-2.41,1.83-4.98,2.37-7.59,.24-1.16,.44-2.33,.57-3.51,.07-.67,.13-1.34,.16-2.02,.04-.84,.26-2.04-.13-2.82-.33-.67-1.05-1.31-1.5-1.92-.65-.87-1.26-1.77-1.85-2.68-1.46-2.29-2.74-4.7-3.77-7.21-2.52-6.13-3.61-12.78-3.13-19.4,.2-2.85,.71-5.65,1.27-8.45s1.22-5.6,2.35-8.22c2-4.6,5.91-7.88,9.83-10.84,4.19-3.17,8.87-5.56,12.95-8.91,2.58-2.11,4.97-4.45,7.2-6.93l-1.88-.5c1.04,6.53,4.13,12.67,8.73,17.42,2.2,2.28,4.77,4.04,7.37,5.83,2.54,1.75,5.24,3.7,6.48,6.63,1.36,3.21,.9,7.06,.71,10.46s-.55,6.64-1.27,9.9c-1.6,7.19-4.96,14.15-10.04,19.54-3.27,3.46-7.1,6.05-8.36,10.91-1.38,5.34,.55,11.07,1.85,16.24,.5,1.99,1.15,3.87,1.96,5.75,1.64,3.8,3.28,7.59,4.83,11.43,1.21,3.01,2.16,6.33,3.85,9.12,1.38,2.27,3.66,3.77,6.18,4.52,3.93,1.17,8.85,.87,12.66-.7,2.34-.97,4.51-1.99,6.99-2.62s5.13-1.03,7.51-2.32c2.53-1.37,5.28-3.44,6.39-6.2,.66-1.65,.52-3.42,.04-5.1-.59-2.07-1.55-4.02-2.27-6.05-.97-2.72-1.59-5.52-1.64-8.41-.14-7.75,2.88-15.28,1.7-23.06-.57-3.77-2.47-7.16-3.05-10.92-.65-4.15,.07-8.38,.75-12.48,.62-3.74,1.02-7.36,.52-11.15-.36-2.74-1.06-5.38-1.9-8.01-.76-2.38-1.78-4.64-2.61-6.99-1.04-2.91-1.66-5.97-1.79-9.05-.11-2.58-.22-5.08-.87-7.6-.83-3.19-2.21-6.26-4-9.03-1.3-2-2.81-3.85-4.47-5.56-2.38-2.44-4.83-4.89-7.72-6.74-5-3.2-12-4.18-17.75-2.58-2.15,.6-3.94,1.43-6.22,1.32-1.45-.07-1.44,2.18,0,2.25Z"/></g></g><path d="M193.9,198.25c-.77,.16-1.63-.83-2.12-1.3-.88-.84-1.74-1.79-2.82-2.38-2.44-1.34-4.69,.06-6.1,2.15-.79,1.17-1.36,2.57-1.67,3.95s-.19,2.52-.01,3.89c0,.01,.47-.27,.1-.09-.12,.06-.29,.07-.43,.1-.35,.07-.71,.11-1.05,.21-.72,.21-1.35,.59-1.8,1.2-1,1.35-.67,3.07-.38,4.6,.63,3.31,1.53,6.98,4.14,9.32,2.3,2.06,5.77,3.1,8.64,1.57,.57-.31,1.06-.94,1.72-.72,.75,.25,1.51,1.04,2.13,1.53,1.28,1.01,2.55,2.08,4,2.83,3.17,1.66,6.35,1.14,9.01-1.21,2.73-2.4,5.6-6.11,5.28-9.96-.29-3.56-3.63-6.83-7.32-5.82,.56,.73,1.13,1.47,1.69,2.2,1.39-1.88,2.78-4.15,2.76-6.57-.02-2.07-1.14-3.7-2.93-4.65-2.16-1.14-4.7-2.27-7.11-2.65-1.18-.19-2.38-.17-3.51,.26-.55,.21-1.05,.47-1.5,.85-.21,.18-.51,.62-.72,.69-1.81,.64-1.03,3.54,.8,2.89,.7-.25,1.12-.6,1.64-1.08,.64-.6,1.41-.79,2.29-.73,1.95,.13,3.95,1.15,5.7,1.94,1.2,.54,2.3,1,2.34,2.48,.05,1.84-1.31,3.65-2.35,5.06-.81,1.1,.52,2.52,1.69,2.2s2.25,.38,2.9,1.37c.77,1.17,.76,2.52,.33,3.82-.81,2.44-3.09,5.23-5.36,6.46-5.42,2.93-8.93-7.62-14.12-4.36-.97,.61-1.81,1.04-3,.87s-2.41-.86-3.28-1.75c-2.02-2.1-2.68-5.46-3.1-8.24-.05-.31-.24-1.15,0-1.43,.21-.24,.94-.21,1.24-.27,1.27-.26,2.35-1,2.52-2.38,.12-1.02-.32-1.98-.19-3.01,.14-1.11,.53-2.21,1.08-3.18,.33-.59,1-1.77,1.77-1.88s1.56,.84,2.04,1.29c1.65,1.57,3.34,3.37,5.84,2.84,1.89-.4,1.09-3.29-.8-2.89Z"/><path d="M187.6,154.51c-.79,3.4-.68,6.42,1.76,9.1,1.36,1.49,3.17,2.65,5.02,3.45v-2.59c-5.77,4.24-4.5,12.37,.5,16.67,5.06,4.34,12.95,5.1,18.14,.56,2.67-2.34,4.27-5.87,4.05-9.43l-2.26,1.3c6.08,4.02,13.64,6.01,20.88,4.6,3.25-.63,6.51-2.38,8.86-4.75,2.76-2.78,3.79-6.6,3.02-10.42s-3.29-7.12-6.98-8.47c-.83-.3-1.71-.45-2.52-.77-.61-.24-.66-.22-.42-.82,.58-1.48,1.17-2.7,.76-4.34-.75-2.97-3.96-4.9-6.36-6.43-3.11-1.98-6.41-4.3-9.97-5.42-1.98-.62-3.96-.31-5.91,.32-4.42,1.43-8.63,3.75-12.48,6.33h1.51c-3.35-2.35-9.25-3.32-12.23,.21-1.32,1.56-2.17,3.52-3.1,5.32s-1.79,3.61-2.26,5.57,2.44,2.68,2.89,.8c.35-1.48,.95-2.86,1.63-4.22,.83-1.64,1.64-3.33,2.64-4.88,1.93-2.97,6.37-1.98,8.91-.21,.41,.29,1.1,.28,1.51,0,3.17-2.13,6.54-4.03,10.1-5.43,1.74-.68,3.37-1.31,5.1-1.14-.06,0-.15-.04,.13,.03,.17,.04,.33,.08,.5,.12,.45,.13,.89,.3,1.31,.48,1.67,.74,3.24,1.7,4.8,2.64,1.67,1,3.35,2,4.95,3.11,1.03,.71,2.13,1.5,2.88,2.52,1.63,2.24-1.46,4.26-.07,6.66,.75,1.3,2.28,1.65,3.62,2.03,1.7,.49,3.17,1.2,4.29,2.61,2.06,2.6,2.75,6.57,1.16,9.57-1.29,2.42-3.86,4.23-6.35,5.26-3.7,1.53-8.26,1.41-12.09,.53-3.3-.75-6.38-2.17-9.2-4.03-.92-.61-2.33,.18-2.26,1.3,.19,2.98-1.19,5.82-3.56,7.63-2.62,2.01-6.12,2.32-9.22,1.4s-5.89-3.11-7.17-6.09c-1.17-2.72-.73-6.31,1.78-8.15,.79-.58,1.15-2.1,0-2.59-1.36-.59-2.7-1.36-3.79-2.37-.75-.7-1.43-1.5-1.78-2.47-.51-1.41-.15-2.91,.18-4.32,.44-1.88-2.46-2.68-2.89-.8Z"/><g><path class="cls-1" d="M125.32,101.42c-2.74,.04-5.49,.09-8.23,.13l.93,.53c-1.43-2-4.16-3-6.17-1.15-1.67,1.54-2.05,4.37-.69,6.22,1.12,1.52,3.18,2.21,4.98,1.68,.46-.14,.89-.52,1.33-.63s1.53,.11,2.1,.13c1.98,.09,3.96,.18,5.94,.27l-1.07-1.07c-.04,4.41-.07,8.81-.11,13.22l1.07-1.07c-4.25-.01-8.51-.02-12.76-.04-.56,0-1.1,.49-1.07,1.07,.06,1.25,.13,2.49,.19,3.74s-.04,2.3,.59,3.35c.55,.92,.72,2.07,.31,3.08s-1.38,1.95-2.53,1.53c-2.06-.75-1.94-3.32-1.21-4.91,.4-.87,.26-1.85,.26-2.81v-3.95c0-.58-.49-1.07-1.07-1.07h-13.83l1.07,1.07v-33.25l-1.07,1.07h11.07c.58,0,1.07-.49,1.07-1.07v-4.37c0-1.12,.28-2.42-.46-3.32-.84-1.02-1.36-2.2-.66-3.5,.5-.94,1.61-1.57,2.68-1.26,2.22,.64,2.16,3.26,1.39,4.93-.4,.89-.25,1.92-.25,2.9v4.61c0,.58,.49,1.07,1.07,1.07h15.22l-1.07-1.07c.03,4.99,0,9.99-.07,14.98-.02,1.38,2.12,1.38,2.14,0,.08-4.99,.1-9.99,.07-14.98,0-.58-.49-1.07-1.07-1.07h-15.22l1.07,1.07v-5.34c0-.53-.08-.85,.04-1.23s.37-.77,.51-1.17c.74-2.26-.08-4.95-2.12-6.25s-4.52-.64-5.89,1.19c-1.58,2.11-1.1,5.02,.79,6.76l-.31-.76v6.8l1.07-1.07h-11.07c-.58,0-1.07,.49-1.07,1.07v33.25c0,.58,.49,1.07,1.07,1.07h13.83l-1.07-1.07c0,1.78,.03,3.57,0,5.35,0,.36-.03,.41-.24,.88-.26,.56-.43,1.14-.52,1.75-.35,2.53,1.26,5.54,3.96,5.9s4.69-2.24,4.79-4.71c.03-.64-.06-1.31-.26-1.91s-.61-1.1-.77-1.68c-.24-.84-.1-1.94-.14-2.81-.05-.94-.09-1.87-.14-2.81l-1.07,1.07c4.25,.01,8.51,.02,12.76,.04,.58,0,1.07-.49,1.07-1.07,.04-4.41,.07-8.81,.11-13.22,0-.6-.5-1.05-1.07-1.07-1.65-.07-3.3-.15-4.95-.22-1.23-.06-2.98-.47-4.1,.06-.72,.34-1.29,.72-2.14,.5s-1.53-.77-1.76-1.6c-.26-.92,.05-2.15,.81-2.76,.45-.36,1.01-.46,1.56-.28,.71,.22,.91,.77,1.41,1.21s1.13,.31,1.73,.3c.81-.01,1.61-.03,2.42-.04,1.61-.03,3.23-.05,4.84-.08,1.38-.02,1.38-2.17,0-2.14Z"/><path class="cls-1" d="M163.56,122.16c-.02-3.09-.04-6.19-.06-9.28l-.53,.93c1.99-1.4,2.89-4.09,1.5-6.25-1.24-1.93-3.9-2.48-5.83-1.3-2.22,1.35-2.87,4.21-1.78,6.5,.25,.53,.25,.52,.16,1.09-.14,.89-.08,1.85-.12,2.75-.09,1.91-.17,3.83-.26,5.74l1.07-1.07c-4.17-.08-8.33-.15-12.5-.23l1.07,1.07c.04-4.8,.09-9.6,.13-14.39,0-.6-.5-1.05-1.07-1.07-1.26-.05-2.52-.11-3.78-.16-.64-.03-1.41-.19-2.03-.06-.47,.1-.69,.42-1.06,.68-1.7,1.18-2.7-.51-2.72-2.06-.02-1.44,.78-3.28,2.52-2.25,.4,.24,.64,.65,1.09,.8,.55,.19,1.36,.05,1.95,.05,1.35,.01,2.7,.02,4.05,.03,.58,0,1.07-.5,1.07-1.07,.04-5.2,.07-10.4,.11-15.61l-1.07,1.07c4.41,.03,8.81,.05,13.22,.08,.6,0,1.05-.49,1.07-1.07l.15-4.09c.04-1.14,.43-2.95,.04-4.02-.29-.79-.75-1.36-.67-2.28,.09-1.1,.99-2.46,2.2-2.49s1.98,1.22,2.14,2.26c.15,.95-.24,1.57-.58,2.39-.45,1.1-.28,2.74-.34,3.92-.08,1.45-.17,2.9-.25,4.34-.03,.58,.52,1.07,1.07,1.07,4.44,.03,8.87,.05,13.31,.08l-1.07-1.07c-.07,11.73-.04,23.45-.17,35.18l1.07-1.07c-4.72,0-9.44-.07-14.16-.2-1.38-.04-1.38,2.11,0,2.14,4.72,.12,9.44,.19,14.16,.2,.58,0,1.07-.49,1.07-1.07,.13-11.73,.11-23.45,.17-35.18,0-.58-.49-1.07-1.07-1.07-4.44-.03-8.87-.05-13.31-.08l1.07,1.07c.11-1.93,.23-3.86,.34-5.79,.04-.68,0-1.24,.21-1.8,.22-.58,.49-1.11,.59-1.73,.44-2.61-1.36-5.76-4.25-5.73s-4.71,3.12-4.28,5.72c.11,.64,.38,1.15,.59,1.74,.18,.49,.07,.91,.04,1.56l-.22,6.01,1.07-1.07c-4.41-.03-8.81-.05-13.22-.08-.58,0-1.07,.49-1.07,1.07-.04,5.2-.07,10.4-.11,15.61l1.07-1.07c-1.9-.02-3.81-.03-5.71-.05l.76,.31c-1.35-1.36-3.44-1.99-5.12-.8-1.28,.9-1.69,2.56-1.67,4.05s.42,2.96,1.58,3.87c1.67,1.31,3.85,.68,5.25-.68l-.76,.31c1.89,.08,3.78,.16,5.67,.24l-1.07-1.07c-.04,4.8-.09,9.6-.13,14.39,0,.59,.5,1.06,1.07,1.07,4.17,.08,8.33,.15,12.5,.23,.6,.01,1.05-.5,1.07-1.07,.07-1.66,.15-3.33,.22-4.99,.03-.75,.07-1.5,.1-2.25s.22-1.69,.08-2.39c-.18-.91-.84-1.52-.73-2.55,.13-1.28,1.29-2.54,2.64-2.39,1.07,.12,1.88,1.04,1.89,2.1,0,.63-.24,1.24-.66,1.7-.33,.35-.79,.53-.94,1.03-.2,.65-.03,1.57-.03,2.24,0,.81,.01,1.63,.02,2.44,.01,1.63,.02,3.26,.03,4.89,0,1.38,2.15,1.38,2.14,0Z"/><path class="cls-1" d="M165.61,69.57c-.02-3.09-.04-6.19-.06-9.28l-.53,.93c1.95-1.45,2.8-4.12,1.43-6.28-1.23-1.95-3.88-2.54-5.81-1.3-2.17,1.39-2.8,4.24-1.72,6.51,.25,.53,.25,.53,.17,1.1-.13,.89-.08,1.85-.12,2.75-.09,1.91-.17,3.83-.26,5.74l1.07-1.07c-4.17-.08-8.33-.15-12.5-.23l1.07,1.07c.04-4.8,.09-9.6,.13-14.39,0-.6-.5-1.05-1.07-1.07-1.26-.05-2.52-.11-3.78-.16-.64-.03-1.41-.19-2.03-.06-.47,.1-.69,.42-1.06,.68-1.7,1.18-2.7-.51-2.72-2.06-.02-1.44,.78-3.28,2.52-2.25,.4,.24,.64,.65,1.09,.8,.55,.19,1.36,.05,1.95,.05,1.35,.01,2.7,.02,4.05,.03,.58,0,1.07-.5,1.07-1.07,.04-5.2,.07-10.4,.11-15.61l-1.07,1.07c10.45,.06,20.91,.13,31.36,.19l-1.07-1.07c-.07,11.73-.04,23.45-.17,35.18l1.07-1.07c-4.72,0-9.44-.07-14.16-.2-1.38-.04-1.38,2.11,0,2.14,4.72,.12,9.44,.19,14.16,.2,.58,0,1.07-.49,1.07-1.07,.13-11.73,.11-23.45,.17-35.18,0-.58-.49-1.07-1.07-1.07-10.45-.06-20.91-.13-31.36-.19-.58,0-1.07,.49-1.07,1.07-.04,5.2-.07,10.4-.11,15.61l1.07-1.07c-1.9-.02-3.81-.03-5.71-.05l.76,.31c-1.35-1.36-3.44-1.99-5.12-.8-1.28,.9-1.69,2.56-1.67,4.05s.42,2.96,1.58,3.87c1.67,1.31,3.85,.68,5.25-.68l-.76,.31c1.89,.08,3.78,.16,5.67,.24l-1.07-1.07c-.04,4.8-.09,9.6-.13,14.39,0,.59,.5,1.06,1.07,1.07,4.17,.08,8.33,.15,12.5,.23,.6,.01,1.05-.5,1.07-1.07,.07-1.66,.15-3.33,.22-4.99,.03-.75,.07-1.5,.1-2.25s.22-1.68,.08-2.39c-.18-.91-.83-1.52-.73-2.56,.12-1.25,1.22-2.59,2.58-2.45,1.08,.11,1.85,1.09,1.88,2.13,.02,.62-.2,1.22-.59,1.7-.31,.37-.79,.58-.94,1.07-.2,.65-.03,1.57-.03,2.24,0,.81,.01,1.63,.02,2.44,.01,1.63,.02,3.26,.03,4.89,0,1.38,2.15,1.38,2.14,0Z"/><path class="cls-1" d="M127.53,33.82h-35c-.58,0-1.07,.49-1.07,1.07-.05,10.69-.1,21.38-.15,32.07,0,.58,.49,1.08,1.07,1.07,4.34-.02,8.67-.05,13.01-.07,.58,0,1.07-.49,1.07-1.07v-6.91c0-.63,.13-1.48-.09-2.08-.25-.68-.7-1.18-.78-1.95-.09-.81,.16-1.71,.72-2.33,.89-.99,2.15-.42,2.78,.55,.87,1.34,.23,2.36-.33,3.6-.27,.59-.15,1.34-.15,1.97v7.15c0,.58,.49,1.07,1.07,1.07,6.07-.02,12.14-.05,18.22-.07,.57,0,1.09-.49,1.07-1.07-.12-4.14-.24-8.28-.36-12.42-.02-.58-.48-1.07-1.07-1.07h-4.29c-1.05,0-2.59-.31-3.51,.23-1.06,.63-2.02,1.26-3.14,.21-.81-.75-1.08-2.05-.7-3.08,.57-1.52,2.27-2.29,3.75-1.5,.47,.25,.78,.67,1.31,.79,.57,.13,1.29,.02,1.87,.02h4.7c.58,0,1.07-.49,1.07-1.07v-14.05c0-1.38-2.14-1.38-2.14,0v14.05l1.07-1.07h-6.43l.76,.31c-1.54-1.34-3.68-1.96-5.59-.95-1.23,.65-2.22,1.88-2.55,3.23-.45,1.9,.23,4.07,1.85,5.23,1.79,1.29,4,.87,5.57-.54l-.76,.31h7.14l-1.07-1.07c.12,4.14,.24,8.28,.36,12.42l1.07-1.07c-6.07,.02-12.14,.05-18.22,.07l1.07,1.07v-6.2c0-1.14-.03-1.81,.44-2.83,.29-.63,.45-1.31,.48-2,.12-2.77-2.53-5.77-5.44-4.74-2.36,.83-3.24,3.88-2.55,6.08,.15,.48,.46,.91,.61,1.38s.02,1.39,.02,2.1v6.2l1.07-1.07c-4.34,.02-8.67,.05-13.01,.07l1.07,1.07c.05-10.69,.1-21.38,.15-32.07l-1.07,1.07h35c1.38,0,1.38-2.14,0-2.14Z"/><path d="M71.92,23.62c6.1-8.59,17.33-13.03,27.55-9.98,.45,.13,1.08,0,1.39-.37C108.67,3.86,122.04,.32,133.47,4.77c2.97,1.16,5.3,2.99,7.88,4.78,3.49,2.41,6.75-.8,10.14-1.79,7.16-2.1,14.85,0,21.36,3.18,6.32,3.09,15.24,8.13,15.35,16.18,0,.6,.44,1.25,1.05,1.38,7.33,1.55,14.23,5.7,18.31,12.1,3.86,6.05,4.62,13.62,2.02,20.32-1.35,3.48-3.71,6.53-7.01,8.34-.71,.39-.85,1.28-.51,1.96,4.16,8.22,6.9,18.84,1.16,27.04-1.24,1.77-2.83,2.88-4.6,4.05-1.94,1.28-2.99,3.03-3.02,5.39s.64,4.45,.59,6.72-.53,4.56-1.5,6.61c-2.07,4.35-6.64,7.74-11.64,6.82-.82-.15-1.91,.38-1.81,1.38,.42,4.22-2.77,7.62-6.79,8.35-2.18,.39-4.4,.06-6.52-.47s-4.03-.98-6.07-.29c-3.3,1.13-5.33,4.12-8,6.17-3.51,2.71-7.39,1.43-11.24,.24-2.11-.65-4.26-1.26-6.49-1.32s-4.55,.42-6.7,1.09c-4.34,1.35-8.49,3.65-13.07,4.06-2.1,.19-4.25-.03-6.12-1.05-1.97-1.08-3.51-2.5-5.87-2.62s-4.53,.63-6.8,.7c-2.01,.06-4.01-.13-5.96-.64-4.3-1.14-7.93-3.86-9.88-7.9-1.79-3.71-2.09-8.31-.07-11.99,.28-.51,.27-1.33-.22-1.73-5.28-4.35-10.7-8.83-14.34-14.71-3.18-5.14-4.72-11.37-3.41-17.35,.69-3.14,2.16-5.97,4.63-8.05,.68-.57,.49-1.85-.29-2.25-4.53-2.28-10.01-5.29-10.94-10.79-1.03-6.06,4.14-11.19,8.18-14.92,.71-.66,.44-1.76-.29-2.25-4.87-3.24-7.24-9.85-5.99-15.5s5.86-10.44,11.65-10.92c1.82-.15,1.84-3.01,0-2.86-7.03,.59-12.91,6.2-14.4,13.02s1.32,14.76,7.31,18.73l-.29-2.25c-4.82,4.45-10.05,10.24-8.98,17.33,.98,6.45,6.96,10.17,12.31,12.87l-.29-2.25c-4.89,4.13-6.43,11-5.77,17.14,.77,7.15,4.48,13.29,9.35,18.45,2.94,3.11,6.24,5.86,9.54,8.58l-.22-1.73c-4.04,7.35-.87,16.96,5.87,21.5,3.64,2.45,8.15,3.47,12.5,3.33,1.1-.04,2.19-.15,3.27-.32,1.32-.2,2.73-.59,4.06-.32,1.2,.24,2.17,1.09,3.18,1.73s2.02,1.11,3.12,1.43c4.57,1.33,9.38-.13,13.67-1.77,4.77-1.83,9.44-3.73,14.6-2.41,4.3,1.1,8.88,3.37,13.33,1.6,3.59-1.42,5.57-4.89,8.8-6.81,2.34-1.39,4.57-.37,7.03,.11s5.27,.61,7.8-.15c4.61-1.4,8.17-5.88,7.68-10.81l-1.81,1.38c4.68,.86,9.45-.99,12.54-4.58s4.6-8.93,4.14-13.81c-.22-2.33-1.45-5.53,.77-7.22,.83-.63,1.78-1.1,2.61-1.74,.91-.7,1.72-1.49,2.45-2.38,3.03-3.73,4.48-8.58,4.55-13.34,.09-6.24-2.05-12.25-4.83-17.75l-.51,1.96c6.81-3.73,10.01-11.82,9.95-19.3-.06-8.48-4.56-16.05-11.27-21.04-3.74-2.78-8.13-4.68-12.69-5.64l1.05,1.38c-.11-7.59-6.48-12.74-12.46-16.31-6.67-3.98-14.48-7.13-22.38-6.72-1.92,.1-3.84,.41-5.68,.96-1.96,.59-3.63,1.7-5.52,2.42-1.73,.66-3.22-1.21-4.52-2.13s-2.75-1.77-4.23-2.46c-5.87-2.74-12.46-3.5-18.83-2.38-7.22,1.27-13.92,5.1-18.6,10.75l1.39-.37c-11.51-3.44-23.95,1.67-30.78,11.3-1.07,1.5,1.41,2.93,2.47,1.44h0Z"/></g></svg>