<?xml version="1.0" encoding="UTF-8"?><svg id="Layer_1" xmlns="http://www.w3.org/2000/svg" width="148.7" height="115.52" viewBox="0 0 148.7 115.52"><defs><style>.cls-1{fill:#92a377;}.cls-2{fill:#ff5600;}.cls-3{fill:#ebe1ce;stroke:#ff7556;stroke-miterlimit:10;stroke-width:.86px;}</style></defs><g><path class="cls-2" d="M34.33,36.59c1.48,3.23,.38,3.83,2.22,15.05,2.03,12.37,4.2,16.97,2.44,18.09-2.02,1.3-5.76-4.18-16.33-9.65-7.84-4.06-9.29-2.93-12.9-5.66C.67,47.52-3.14,30.32,2.99,24.65c6.73-6.22,26.22,.77,31.34,11.93Z"/><path class="cls-1" d="M28.62,53.99c5.24,6.47,7.83,11.12,8.01,11,.2-.12-2.39-5.64-7.01-11.39-4.69-5.84-9.63-9.61-9.79-9.44-.15,.15,3.69,3.53,8.79,9.82Z"/></g><g><path class="cls-3" d="M47.83,59.03c1.06,16.64,8.76,49.09,31.88,55.12,24.3,6.34,47.75-21.16,56.95-37.06,15.1-26.08,13.04-57.51,7.36-59.09-6.22-1.72-17.91,31.97-26.08,29.87-8.08-2.07-2.96-36.66-11.06-38.7-8.41-2.13-21.29,33.33-29.18,31.29-7.82-2.03-1.09-38.4-7.29-39.97-5.77-1.46-24.61,26.74-22.59,58.54Z"/><ellipse class="cls-2" cx="71.45" cy="94.55" rx="3.75" ry="11.59" transform="translate(-16.62 15.25) rotate(-10.92)"/><ellipse class="cls-2" cx="97.1" cy="101.17" rx="11.59" ry="3.75" transform="translate(-41.69 121.17) rotate(-54.38)"/><ellipse class="cls-2" cx="85.57" cy="93.8" rx="15.33" ry="3.75" transform="translate(-24.37 157.32) rotate(-77.65)"/></g></svg>