<?xml version="1.0" encoding="UTF-8"?><svg id="Layer_1" xmlns="http://www.w3.org/2000/svg" width="137.91" height="189.8" viewBox="0 0 137.91 189.8"><defs><style>.cls-1{fill:none;stroke:#000;stroke-miterlimit:10;stroke-width:1.5px;}.cls-2{fill:#a5b38e;}.cls-3{fill:#c8dea4;}</style></defs><path class="cls-1" d="M68.8,32.23c-1.29,4.8-7.06,8.72-11.76,7.6-5.05-1.21-7.7-8.25-5.91-15.73,1.82-7.6,10.19-12.59,12.38-11.36,1.27,.71-.38,3.02,.99,7.4,1.09,3.46,1.45,3.56,2.56,5.21"/><path d="M66.76,25.53c.37,.64,.12,1.26-.22,1.86-.44,.77-1.02,1.46-1.67,2.07-.87,.82-1.88,1.46-2.98,1.9-.25,.1-.39,.42-.17,.63,1.89,1.79,4.9,1.24,7.17,.6,.46-.13,.27-.86-.2-.72-1.06,.3-2.15,.5-3.25,.56-1.16,.05-2.32-.14-3.19-.96l-.17,.63c1.33-.54,2.53-1.3,3.55-2.32,.71-.71,1.38-1.54,1.79-2.46,.32-.72,.39-1.45-.02-2.15-.24-.42-.89-.04-.65,.38h0Z"/><path d="M74.16,68.66c1.7-.68,3.22-1.8,4.66-2.9,.15-.11,.86-.63,.91-.56,.16,.26-.69,1.14-.84,1.33-.31,.38-.74,.82-.71,1.36,.06,.98,1.09,.87,1.76,.68,1.64-.47,3.45-.56,5.15-.7,.33-.03,.93,.08,1.23-.04,.02,0,.11,.04,.13,.02l-.3-.66-.12,.12c-.18,.06-.38,.3-.56,.4-.49,.28-1.06,.38-1.6,.52l-2.28,.61c-.81,.22-.66,1.49,.2,1.47,1.14-.02,2.28-.11,3.41-.28,.65-.09,1.27-.19,1.92-.02,.18,.04,.56,.29,.71,.27,.2,.14,.23,0,.08-.44-.1,.06-.2,.11-.31,.15-.15,.07-.32,.12-.48,.17-.47,.15-.94,.23-1.44,.27-1.13,.09-2.24,.19-3.36,.37-.89,.15-.58,1.4,.2,1.47,1.08,.1,2.15,.27,3.21,.52,.41,.1,.83,.3,1.24,.36,.07,.03,.13,.06,.19,.1-.18-.15-.21-.38-.08-.69-.07-.04-.64,.17-.78,.17-.69,0-1.42-.22-2.1-.35-.47-.09-1.12-.33-1.6-.26-.67,.09-1.11,1.01-.38,1.4,.26,.14,.57,.16,.85,.24,.49,.14,.9,.35,1.27,.71,.05,.06,.08,.13,.11,.2,.08,.22,.18,.09,.3-.39-.03-.02-.14,.02-.17,0-.19-.1-.57-.09-.79-.14-.56-.14-1.11-.33-1.66-.51-2.73-.89-5.55-1.42-8.38-1.8-.95-.13-.94,1.37,0,1.5,1.97,.26,3.94,.63,5.87,1.13,1.3,.34,2.56,.84,3.87,1.15,.6,.14,1.37,.32,1.94,0,.67-.37,.63-1.17,.29-1.77s-.91-1-1.52-1.27c-.28-.12-.56-.22-.86-.3-.11-.03-.67-.22-.36-.05l-.38,1.4s0,0,.18,.03c.21,.04,.41,.07,.62,.11,.46,.08,.93,.17,1.39,.26,1.07,.2,2.87,.52,3.57-.64,1.26-2.08-4.89-2.53-5.83-2.61l.2,1.47c1.4-.23,2.86-.19,4.24-.49,.91-.2,2.83-.76,2.32-2.07-.38-.97-1.99-1.27-2.89-1.28-.68,0-1.35,.15-2.03,.23-.85,.1-1.71,.15-2.57,.17l.2,1.47c1.28-.34,2.68-.55,3.89-1.1,.69-.32,1.83-1,1.76-1.89s-1.11-.98-1.82-.96c-1.25,.04-2.51,.22-3.75,.37-.76,.09-1.53,.16-2.27,.35-.13,.03-.35,.07-.46,.14-.26,.15-.38-.2,.07,.42,.4,.56,.14,.45,.37,.22,.27-.26,.5-.61,.73-.91,.45-.59,.9-1.34,.68-2.11s-1.03-1.23-1.8-1.06c-.83,.19-1.52,.89-2.17,1.39-.54,.41-1.11,.8-1.7,1.13-.56,.31-1.15,.72-1.75,.96-.89,.35-.5,1.8,.4,1.45h0Z"/><g><g><path d="M51.38,42.93c1.17,1.65,2.6,3.1,4.09,4.46,1.11,1.01,2.7,2.93,4.38,2.45,2.77-.81,3.47-3.69,5.09-5.68,1.12-1.38,2.61-1.7,4.32-1.74,2.55-.05,5.09,.12,7.63,.38,5.14,.52,10.24,1.32,15.38,1.85,3.08,.32,6.16,.63,9.24,.95,.76,.08,1.67,.02,2.3,.48,.59,.42,.86,1.19,1.15,1.83,.67,1.48,1.16,3.03,1.52,4.61l.72-.95c-10.29,1.01-20.59,2.04-30.77,3.88-.95,.17-.55,1.62,.4,1.45,10.05-1.81,20.21-2.82,30.37-3.82,.5-.05,.84-.44,.72-.95-.51-2.23-1.25-5.06-2.71-6.87-.5-.62-1.13-.86-1.9-.97-1.4-.19-2.83-.29-4.24-.44-5.3-.54-10.6-1.06-15.89-1.77-4.95-.66-10.27-1.64-15.28-1.08-3.12,.35-4.37,2.56-5.86,4.99-.37,.6-.77,1.19-1.31,1.66-.3,.26-.76,.63-1.15,.71-.73,.15-1.31-.5-1.82-.92-1.84-1.56-3.68-3.27-5.09-5.25-.56-.78-1.86-.03-1.3,.76h0Z"/><path d="M51.65,41.9c-3.55,.48-7.17,1.62-9.82,4.13-2.22,2.09-3.27,5.27-4.43,8-1.43,3.37-2.69,6.87-3.57,10.42-.65,2.64-2.54,7.57,1.18,8.79,.84,.27,1.73,.24,2.58,.39,.99,.17,1.96,.45,2.93,.73,2.58,.75,5.14,1.51,7.79,2.01,.41,.08,.79-.11,.92-.52,.41-1.26,.63-2.58,.93-3.88,.37-1.6,.87-3.17,1.26-4.76,.1-.39-.12-.81-.52-.92-1.48-.4-2.96-.82-4.42-1.28-.83-.26-1.67-.32-1.57-1.34,.03-.28,.16-.59,.25-.86,.79-2.33,1.94-4.55,2.99-6.76,.41-.87-.88-1.63-1.3-.76-1.19,2.5-2.77,5.18-3.37,7.91-.29,1.31,.05,2.26,1.3,2.82,1.78,.8,3.85,1.21,5.72,1.71l-.52-.92c-.39,1.59-.89,3.16-1.26,4.76-.3,1.29-.51,2.61-.93,3.88l.92-.52c-3.75-.7-7.34-2.25-11.11-2.8-1.14-.17-3.05-.04-3.3-1.52-.12-.7,.07-1.5,.19-2.18,.22-1.2,.49-2.39,.78-3.57,.74-2.98,1.76-5.91,2.89-8.76,.82-2.08,1.75-4.13,2.72-6.14,.42-.86,.85-1.65,1.5-2.35,2.48-2.68,6.14-3.78,9.66-4.25,.95-.13,.55-1.57-.4-1.45h0Z"/><path d="M74.4,73.22c-.02,1.5,.27,2.88,.59,4.33,.19,.88,.36,1.81,.31,2.72-.06,1.15-.49,1.68-1.57,1.93-1.86,.44-4.02,.19-5.93,.23-2.15,.04-4.29,.08-6.44,.12-4.29,.08-8.58,.16-12.88,.24-.47,0-1.04,.12-1.49,.03-.79-.16-.62-.37-.49-.95,.17-.8,.47-1.59,.73-2.37,.43-1.27,.67-2.52,.81-3.85,.1-.96-1.4-.95-1.5,0-.19,1.76-.75,3.29-1.25,4.97-.41,1.4-.81,3.36,1.15,3.66,1.13,.17,2.39,0,3.53-.02,1.32-.02,2.64-.05,3.96-.07,2.56-.05,5.12-.09,7.68-.14s5.12-.09,7.68-.14c1.86-.03,4.22,.27,5.94-.64s1.69-2.86,1.48-4.59c-.23-1.85-.83-3.56-.8-5.45,.01-.97-1.49-.97-1.5,0h0Z"/><path d="M73.28,54.1c1.58,2.05,2.59,4.51,2.79,7.1,.04,.53,.1,1.12,0,1.65-.09,.46-.3,.92-.5,1.34-.42,.89-.96,1.8-1.14,2.78s1.27,1.35,1.45,.4c.2-1.03,.81-1.97,1.22-2.93,.5-1.16,.57-2.21,.46-3.47-.26-2.77-1.27-5.43-2.97-7.64-.58-.75-1.88,0-1.3,.76h0Z"/><path d="M104.46,45.26c6.02-3.27,12.05-6.54,18.07-9.8,.85-.46,.09-1.76-.76-1.3-6.02,3.27-12.05,6.54-18.07,9.8-.85,.46-.09,1.76,.76,1.3h0Z"/><path d="M107.71,51.65c5.7-4.18,11.39-8.31,17.58-11.74,.84-.47,.09-1.76-.76-1.3-6.19,3.43-11.88,7.56-17.58,11.74-.77,.56-.02,1.87,.76,1.3h0Z"/><path d="M50.93,69.13c7.68-.31,15.36-.13,23.04-.44,.96-.04,.97-1.54,0-1.5-7.68,.31-15.36,.13-23.04,.44-.96,.04-.97,1.54,0,1.5h0Z"/><path d="M49.44,75.14c8.32-.56,16.6-2.01,24.95-1.72,.97,.03,.96-1.47,0-1.5-8.36-.29-16.63,1.17-24.95,1.72-.96,.06-.97,1.56,0,1.5h0Z"/><path d="M75.08,83.34c3.4,8.75,10.29,15.29,15.8,22.67,2.68,3.59,5.11,7.46,6.34,11.8,1.68,5.88,.62,12.1,.08,18.08-.6,6.64-1.2,13.28-1.8,19.92-.15,1.66-.3,3.32-.45,4.98s-.1,3.4-.5,4.97c-.43,1.71-2.49,1.8-3.95,1.9-1.66,.12-3.35,.04-4.99-.27-.6-.11-1.5-.2-1.99-.59-.66-.53-.55-1.44-.51-2.18,.07-1.73,.16-3.45,.24-5.18,.15-3.29,.3-6.58,.45-9.87,.3-6.5,.59-13,.89-19.49,.14-3.06,.61-6.38-1.33-9.01-.9-1.23-2.06-2.27-3.11-3.37-1.15-1.2-2.3-2.4-3.43-3.62-4.71-5.01-9.34-10.1-14.14-15.03-.68-.69-1.74,.37-1.06,1.06,4.48,4.59,8.81,9.33,13.19,14.02,2.15,2.3,4.39,4.53,6.52,6.84,1.18,1.28,1.86,2.61,1.98,4.36,.12,1.65-.06,3.33-.13,4.98-.31,6.83-.62,13.65-.94,20.48-.15,3.37-.31,6.74-.46,10.12-.07,1.55-.27,3.15-.19,4.7,.06,1.16,.52,2.11,1.58,2.64s2.41,.67,3.59,.81c1.65,.2,3.32,.19,4.97-.02,1.07-.13,2.2-.31,3.08-.99,1.05-.82,1.26-2.04,1.39-3.29,.71-6.96,1.26-13.94,1.89-20.91,.31-3.4,.61-6.8,.92-10.21s.72-6.73,.61-10.11c-.17-4.94-1.83-9.56-4.37-13.77-5.64-9.35-14.71-16.49-18.73-26.84-.35-.89-1.8-.5-1.45,.4h0Z"/><path d="M45.56,84.11c-3.48,6.17-6.97,12.34-10.48,18.49-1.61,2.82-3.18,5.67-4.88,8.44-.09,.15-.18,.3-.28,.44-.85,1.19-1.1-1-1.23-1.62-.42-2.06-.78-4.13-1.08-6.21-.61-4.17-.96-8.39-1.09-12.6-.03-1.05-.05-2.1-.05-3.15,0-.76,.06-1.58-.21-2.31-.49-1.32-1.83-1.52-3.06-1.22-3.59,.88-7.27,2.6-10.49,4.39-1.37,.77-2.1,1.72-2.01,3.34,.11,2.06,.43,4.14,.67,6.19,.48,4.09,1.03,8.18,1.65,12.25s1.3,8.24,2.1,12.34c.62,3.2,1.58,6.58,4.22,8.72s5.68,2.07,8.48,.46c3.09-1.77,5.75-4.47,8.48-6.74s5.56-4.34,7.94-6.9c4.87-5.23,9.77-10.41,14.66-15.62,1.42-1.51,2.85-3.03,4.27-4.55,.66-.7-.4-1.77-1.06-1.06-5.04,5.38-10.11,10.75-15.15,16.13-1.66,1.77-3.23,3.71-5.01,5.34-.89,.82-1.88,1.57-2.81,2.35-2.07,1.72-4.14,3.45-6.2,5.17-2.58,2.15-5.82,5.83-9.5,5.59-3.88-.26-5.73-4.38-6.51-7.64-.9-3.81-1.46-7.72-2.08-11.59s-1.19-7.89-1.68-11.84c-.24-1.93-.46-3.86-.67-5.8-.1-.93-.26-1.87-.29-2.8-.04-1.45,.94-1.87,2.07-2.46,1.68-.87,3.4-1.66,5.15-2.35,.84-.33,1.68-.64,2.54-.93,.98-.33,2.9-1.29,3.01,.47,.24,4,.15,7.98,.55,11.98,.37,3.77,.93,7.52,1.68,11.23,.22,1.11,.35,2.79,1.53,3.35,1.11,.53,1.99-.39,2.56-1.24,1.51-2.29,2.79-4.76,4.15-7.14,3.83-6.69,7.63-13.41,11.42-20.12,.48-.84-.82-1.6-1.3-.76h0Z"/><path d="M24.6,84.42c-.04-2.5-.09-5.01-.13-7.51-.01-.8,.21-2.04-.28-2.75-.45-.66-1.56-.88-2.25-1.15-4.44-1.74-8.99-3.21-13.6-4.41-1.1-.29-2.21-.56-3.32-.81-.88-.2-1.87-.52-2.77-.25-1.6,.48-2.01,2.79-2.2,4.21-.24,1.83,.39,3.3,1.89,4.37,1.7,1.22,3.66,2.07,5.64,2.72,1.86,.61,4.02,1.09,5.45,2.51,1.64,1.62,1.15,4.14,.84,6.19-.15,.94,1.3,1.35,1.45,.4,.44-2.87,.84-5.99-1.66-8.04s-6.1-2.37-8.94-3.86c-.81-.42-1.72-.89-2.39-1.52-.85-.79-.94-1.85-.74-2.94,.15-.81,.39-2.47,1.36-2.66,.88-.17,2.27,.44,3.13,.65,4.08,.99,8.11,2.2,12.07,3.61,1.07,.38,2.14,.78,3.2,1.19,.42,.16,1.34,.34,1.6,.77,.21,.34,.02,1.34,.03,1.77,.04,2.5,.09,5.01,.13,7.51,.02,.96,1.52,.97,1.5,0h0Z"/><path d="M84.23,168.15c.14,2.77-.82,5.36-1.4,8.03-.43,1.98-1.13,4.88,1.03,6.07,2.61,1.45,5.1,3.07,7.59,4.73,1.08,.72,2.14,1.49,3.24,2.18,1.03,.65,2.6,.59,3.79,.62,1.83,.04,4.35,.07,5.99-.85s1.38-2.89,.69-4.35c-.81-1.72-2.15-3.04-3.77-4-1.92-1.14-3.77-2.07-5.31-3.73-.96-1.03-1.76-2.18-2.45-3.4-.76-1.35-.46-3.16-.46-4.68,0-.97-1.5-.97-1.5,0,0,1.2-.03,2.4,0,3.6,.03,1.13,.82,2.18,1.44,3.11,1.01,1.53,2.23,2.92,3.68,4.05,2.58,2.01,6.51,3,7.37,6.6,.51,2.13-2.61,2.06-4.05,2.14-1.03,.05-2.06,.03-3.08-.06-1.56-.14-2.63-1.05-3.89-1.9-2.54-1.71-5.07-3.59-7.8-5-.67-.35-1.32-.54-1.43-1.44-.15-1.31,.24-2.75,.54-4.01,.61-2.54,1.42-5.05,1.29-7.7-.05-.96-1.55-.97-1.5,0h0Z"/><path d="M53.42,38.68c0,.09,.01,.17,0,.26,0,.03,0,.07,0,.1-.01,.17,.03-.11,0-.02-.04,.17-.08,.33-.14,.5,0,.02-.07,.17-.03,.07,.04-.09-.01,.02-.02,.04-.04,.09-.09,.17-.13,.26-.09,.17-.19,.33-.3,.49s-.21,.3-.32,.45c-.12,.16,.06-.07-.01,.02-.03,.04-.06,.08-.1,.12-.06,.07-.11,.14-.17,.21-.24,.28-.48,.56-.72,.84-.25,.3-.32,.77,0,1.06,.28,.26,.79,.32,1.06,0,.55-.65,1.12-1.28,1.59-1.99s.85-1.55,.78-2.41c-.03-.39-.32-.77-.75-.75-.38,.02-.78,.33-.75,.75h0Z"/><path d="M63.35,38.48c-.32,.8-.26,1.8-.04,2.61,.27,.97,.87,1.83,1.85,2.18,.37,.13,.84-.15,.92-.52,.1-.42-.13-.78-.52-.92-.13-.05-.02-.03,.02,.01-.03-.03-.09-.05-.13-.07s-.07-.04-.1-.07c-.14-.08,.07,.07,.02,.02-.06-.06-.13-.12-.19-.19-.03-.03-.05-.07-.08-.1,.06,.04,.09,.12,.02,.02-.05-.07-.09-.15-.14-.22-.04-.07-.07-.18-.12-.24,.05,.11,.05,.13,.02,.06l-.02-.04s-.03-.08-.05-.13c-.03-.09-.06-.19-.08-.28-.02-.09-.04-.18-.06-.27,0-.04-.01-.09-.02-.13,0-.06,0-.03,.01,.09,0-.03,0-.06-.01-.09-.02-.18-.03-.35-.02-.53,0-.08,0-.17,.02-.25,.01-.13,.01-.04,0,.04,0-.04,.01-.08,.02-.12,.03-.16,.07-.31,.13-.46,.15-.36-.16-.84-.52-.92-.43-.1-.76,.13-.92,.52h0Z"/></g><path d="M122.44,35.69c1.49-1.4,2.4-3.07,3.41-4.81,.12-.2,.24-.42,.41-.58,.12-.11,.07-.07,.08,.08,.02,.63-.24,1.24-.38,1.84-.13,.54-.21,1.21,.35,1.54,.76,.45,1.41-.35,1.95-.76,.59-.45,1.25-.81,1.88-1.19,.96-.58,1.92-1.18,2.92-1.69,.14-.07,.47-.15,.58-.26,.02-.02,.11-.02,.11-.04-.12-.05-.21-.15-.26-.3-.15-.35-.25-.42-.28-.22-.09,.06-.21,.44-.28,.56-.14,.22-.3,.43-.49,.61-.9,.86-1.95,1.6-2.91,2.38-.73,.59,.2,1.59,.95,1.23,1.06-.51,2.09-1.08,3.08-1.71,.51-.33,1-.65,1.59-.79,.28-.07,.62-.02,.88-.1,.05,0,.1,0,.16,0,.22,.02,.17-.15-.17-.51-.07,0-.47,.52-.55,.6-.35,.33-.73,.6-1.15,.84-1.04,.6-2.1,1.16-3.1,1.83-.69,.46-.28,1.74,.6,1.43,1.07-.38,2.16-.7,3.28-.93,.46-.1,1.01-.08,1.46-.22,.05,.01,.1,.01,.15,0-.1-.61-.25-.79-.44-.53-.22,.09-.42,.34-.67,.44-.67,.27-1.43,.39-2.13,.57-.5,.13-1.16,.19-1.61,.46-.65,.4-.39,1.45,.39,1.45,.28,0,.58-.12,.86-.16,.22-.03,.45-.05,.68-.04,.29,0,.56,.16,.82,.18l.16,.11,.12-.51s-.16,.09-.2,.1c-.26,.02-.53,.15-.79,.2-.52,.1-1.05,.16-1.57,.22-2.57,.3-5.1,.83-7.59,1.54-.97,.27-.56,1.78,.42,1.51,1.77-.5,3.56-.92,5.38-1.23,1.37-.23,2.8-.27,4.15-.61,.54-.13,1.16-.33,1.47-.83,.39-.63,0-1.3-.54-1.68-.59-.42-1.31-.56-2.02-.54-.33,0-.66,.05-.98,.11-.13,.02-.71,.09-.37,.09l.39,1.45c-.25,.15,.07,0,.2-.04,.21-.06,.42-.11,.63-.17,.47-.12,.95-.24,1.43-.36,1.09-.27,2.6-.68,2.97-1.91,.82-2.71-5.61-.47-6.47-.17l.6,1.43c1.28-.86,2.75-1.47,3.97-2.4,.78-.6,2.47-2.11,1.1-3.02-.86-.57-2.36-.16-3.2,.23-.6,.28-1.14,.68-1.71,1.03-.79,.48-1.61,.91-2.45,1.32l.95,1.23c.99-.8,2.09-1.55,2.98-2.45,.56-.56,1.39-1.67,1.14-2.53s-1.22-.76-1.88-.47c-1.15,.49-2.22,1.2-3.29,1.84-.77,.46-1.56,.9-2.27,1.44-.14,.11-.32,.22-.43,.35l-.18,.15,.72,.61s.02-.1,0-.08c.17-.22,.22-.83,.29-1.11,.19-.74,.35-1.63-.09-2.31s-1.44-.89-2.14-.46c-.77,.48-1.15,1.48-1.56,2.24-.7,1.27-1.52,2.42-2.58,3.41-.73,.69,.37,1.79,1.1,1.1h0Z"/></g><g><path class="cls-2" d="M63.64,12.87c.84,.69-.06,1.87,.43,5.59,.32,2.45,.48,3.67,1.35,4.81,1.22,1.6,1.92,1.85,2,3,.12,1.62-1.55,3.02-2.48,3.81-1.14,.96-2.27,1.46-3.01,1.72,.71,.33,1.9,.77,3.44,.86,1.5,.09,2.7-.2,3.44-.43-.09,.65-.36,1.87-1.29,3.01-.37,.45-.76,.78-1.1,1.03,1.07-.3,8.59-2.51,11.85-10.06,2.01-4.64,2.4-11.29-1.21-15.97-2.16-2.8-5.02-3.89-8.26-5.11-3.92-1.49-7.34-1.73-13.77-2.15-1.82-.12-4.24-.3-7.46-.27-4.8,.05-7.51,.52-9.75,.7-3.58,.28-8.84,.01-15.72-2.64,.33,1.09,.99,2.8,2.38,4.52,1.7,2.11,3.65,3.2,4.74,3.71-.48,.28-1.21,.65-2.15,.86-.8,.18-1.45,.19-1.96,.17-2.42-.06-4.31-.58-4.31-.58-5.41-1.31-10.81-2.63-16.22-3.94,1.15,2.13,2.94,4.9,5.63,7.69,2.83,2.93,5.67,4.88,7.83,6.12-1.62,.8-3.95,1.72-6.88,2.15-4.54,.66-8.25-.2-10.33-.86,.63,1.6,2.64,6.11,7.36,8.53,.41,.21,2.49,1.25,5.43,1.6,2.49,.29,3.08-.21,6.84-.51,4.77-.38,8.57,.05,10.49,.28,1.68,.24,3.41,.53,5.16,.86,5.56,1.05,10.67,2.4,15.31,3.9-.06-.59-.15-1.49-.25-2.61-.37-4.15-.33-5.46-.31-6.22,.05-1.5,.16-2.36,.43-3.27,.12-.4,.45-1.42,1.49-3.08,1.02-1.62,2.23-3.48,4.4-5.07,.22-.16,4.84-3.47,6.45-2.15Z"/><path class="cls-3" d="M63.11,13.4c.29,.26,.15,.78,.13,1.13-.05,.8-.09,1.6-.05,2.41,.08,1.84,.25,4.04,1.02,5.74,.32,.72,.81,1.32,1.33,1.91,.56,.64,1.28,1.22,1.11,2.16-.36,2-3.21,3.69-4.92,4.33-.53,.2-.83,1.08-.18,1.37,2.37,1.06,4.97,1.26,7.46,.51l-.92-.92c-.22,1.43-.87,2.7-2.04,3.59-.63,.48-.31,1.62,.58,1.37,3.91-1.09,7.58-3.49,10.07-6.68,3.81-4.87,5.09-12.11,2.55-17.85-1.4-3.15-3.91-5.35-7.02-6.76-2.73-1.23-5.56-2.22-8.53-2.68-3.25-.51-6.55-.66-9.83-.87-3.7-.24-7.41-.27-11.12,.03-2.82,.23-5.61,.66-8.45,.54-4.13-.17-8.15-1.21-12-2.67-.54-.2-1.08,.41-.92,.92,1.18,3.8,3.86,6.96,7.46,8.68v-1.3c-3.16,1.81-6.94,.6-10.23-.2-4.61-1.12-9.22-2.24-13.84-3.36-.64-.16-1.17,.52-.85,1.1,3.21,5.85,7.96,10.72,13.73,14.08v-1.3c-5.19,2.53-11.13,2.93-16.63,1.22-.51-.16-1.13,.39-.92,.92,2.25,5.69,6.93,9.77,13.05,10.62,1.4,.19,2.71,.13,4.1-.07,2.15-.31,4.3-.5,6.47-.53,4.03-.04,7.99,.48,11.94,1.21,5.26,.98,10.45,2.31,15.55,3.94,.43,.14,1-.24,.95-.72-.45-4.35-1.52-9.8,.7-13.85,1.29-2.34,2.92-4.57,5.16-6.07,1.11-.75,3.88-2.78,5.23-1.83,.79,.56,1.54-.74,.76-1.3-1.8-1.26-4.57,.46-6.12,1.42-2.3,1.43-4.05,3.38-5.51,5.65-1.53,2.4-2.24,4.59-2.3,7.45s.27,5.7,.57,8.52l.95-.72c-7.77-2.49-15.96-4.59-24.13-5.11-3.86-.24-7.58,.18-11.4,.58-2.9,.31-6.07-.56-8.54-2.1-2.76-1.73-4.8-4.49-6-7.5l-.92,.92c5.9,1.84,12.24,1.34,17.79-1.37,.52-.25,.46-1.03,0-1.3-5.55-3.24-10.1-7.91-13.19-13.54l-.85,1.1c5.09,1.24,10.18,2.47,15.27,3.71,3.29,.8,6.86,1.47,9.96-.3,.46-.26,.52-1.05,0-1.3-3.26-1.55-5.7-4.33-6.77-7.78l-.92,.92c5.45,2.07,11.18,3.15,17.01,2.56,3.05-.31,6.08-.59,9.15-.6,3.3-.02,6.6,.23,9.89,.47,2.85,.21,5.72,.45,8.48,1.21,2.91,.81,6.17,1.97,8.5,3.95,5.09,4.32,5.05,12.4,2.12,17.94-2.21,4.16-6.31,7.26-10.83,8.53l.58,1.37c1.47-1.12,2.45-2.65,2.73-4.49,.08-.53-.32-1.1-.92-.92-2.08,.63-4.31,.53-6.31-.35l-.18,1.37c2.1-.78,4.35-2.26,5.5-4.24s.25-3.28-1.03-4.76c-1.67-1.93-1.89-4.68-1.92-7.15-.02-1.23,.54-3.07-.5-4.03-.71-.66-1.77,.4-1.06,1.06Z"/></g></svg>