<?xml version="1.0" encoding="UTF-8"?><svg id="Layer_1" xmlns="http://www.w3.org/2000/svg" width="920.11" height="537" viewBox="0 0 920.11 537"><defs><style>.cls-1{fill:#e84133;}.cls-2{fill:#92a377;}.cls-3{fill:#c8dea4;}.cls-4{fill:#f39c95;}.cls-5{fill:#ff7556;}</style></defs><g><g><path class="cls-3" d="M790.63,534.75c-3.04-44-6.71-112.61-8.83-158.44-2.12-45.84-3.66-90.83-4.7-134.94,9.49-1.52,17.78-2.71,24.52-3.62,16.07-2.17,28.54-3.46,34-4,9.06-.9,16.87-1.54,23-2,2-.33,4-.67,6-1,.21,1.72,.55,4.54,1,8,3.12,23.88,6.53,38.91,10.79,63.67,2.1,12.21,3.89,22.51,5.3,30.53,4.45,25.49,19.29,102.58,36.91,201.8-40.91,1.71-89,0-128,0Z"/><path d="M792.13,534.75c-1.13-16.4-2.14-32.82-3.1-49.23-1.07-18.35-2.08-36.71-3.05-55.07-.89-17.02-1.75-34.04-2.54-51.07-1.01-21.64-1.9-43.29-2.68-64.95-.77-21.63-1.43-43.26-1.96-64.89-.07-2.72-.13-5.45-.2-8.17l-1.1,1.45c22.33-3.57,44.77-6.42,67.3-8.43,3.32-.3,6.63-.58,9.95-.84,3.47-.27,6.84-.78,10.27-1.35l-1.9-1.45c2.76,23.12,7.27,45.91,11.29,68.83,2.76,15.79,5.42,31.61,8.31,47.38,2.62,14.28,5.28,28.54,7.94,42.81,3.75,20.18,7.49,40.37,11.2,60.56,4.57,24.9,9.08,49.82,13.53,74.74,.6,3.36,1.2,6.72,1.79,10.08l1.45-1.9c-33.75,1.39-67.55,.59-101.31,.19-8.9-.11-17.8-.19-26.69-.19-1.93,0-1.93,3,0,3,33.44,0,66.88,1.04,100.33,.68,9.23-.1,18.45-.3,27.67-.68,1.04-.04,1.62-.92,1.45-1.9-4.52-25.43-9.1-50.84-13.75-76.25-3.81-20.85-7.67-41.68-11.54-62.52-2.79-14.99-5.59-29.98-8.35-44.98-2.52-13.7-4.91-27.43-7.28-41.16-4.1-23.74-8.99-47.37-12.1-71.26-.32-2.47-.63-4.95-.93-7.43-.12-1.04-.85-1.62-1.9-1.45-10.87,1.81-21.97,2.24-32.93,3.39-11.06,1.15-22.1,2.51-33.11,4.03-7.17,.99-14.33,2.06-21.48,3.21-.63,.1-1.12,.84-1.1,1.45,.51,21.68,1.13,43.36,1.88,65.03,.76,22.09,1.64,44.19,2.65,66.27,.78,17.04,1.62,34.08,2.5,51.12,.95,18.37,1.95,36.74,3.01,55.11,.97,16.76,1.98,33.52,3.1,50.27,.12,1.86,.25,3.72,.38,5.57s3.13,1.93,3,0Z"/></g><path d="M835.19,101.82c-.16,.37-1.1,.03-1.28-.09-.59-.38-.97-1.14-1.21-1.77-.74-1.99-.99-4.27-1.43-6.35-.93-4.4-1.82-8.8-2.68-13.21-1.49-7.71-2.88-15.45-4.14-23.2-1.54-9.4-2.94-18.82-4.07-28.28-.4-3.34-.73-6.69-1.23-10.01-.84-5.55-2.07-12.22-6.63-16.02-4.87-4.06-13.19-4.17-16.63,1.74-2.71,4.66-2.38,10.74-1.88,15.91,1.1,11.36,2.16,22.72,3.02,34.1s1.68,23.18,2.01,34.79c.11,3.78,.21,7.59-.02,11.37-.04,.58-.08,1.17-.15,1.75-.03,.29,.05-.31,0,.06-.02,.11-.03,.22-.05,.32-.04,.18-.08,.37-.12,.55-.09,.4-.22,.23,0,.11-.03,.02-.06,.12-.08,.15-.14,.19,.29-.26,.12-.15,.45-.29,.91-.2,1.36-.22-.06,0,.15,.2,.01,0-.08-.12-.21-.22-.3-.33,.01,.01-.01-.02-.14-.2-.11-.16-.22-.32-.32-.49-.27-.43-.52-.87-.76-1.31-.59-1.09-1.12-2.2-1.63-3.33-1.43-3.16-2.65-6.41-3.79-9.69-2.81-8.11-4.78-16.46-6.83-24.78-2.38-9.63-4.76-19.26-6.96-28.93-.45-1.98-.94-3.97-1.29-5.98-.92-5.32-2.39-12.3-8.65-13.56-3.27-.66-6.82,.27-9.35,2.44s-3.44,5.49-3.52,8.68c-.11,3.95,.7,8.04,1.26,11.94,.69,4.77,1.46,9.54,2.26,14.29,1.83,10.95,3.79,21.88,5.64,32.83,1.44,8.53,3.02,17.12,3.76,25.75,.1,1.21,.19,2.43,.18,3.65,0,.41-.02,.81-.06,1.22,.05-.51-.06-.04-.03,.11,.04,.29-.21,.28,.02,.03-.21,.22,.19-.19,.22-.21,.34-.2-.27-.06,.63-.12,1.46-.09,.42,.07,.39-.12-.03-.15-.37-.4-.48-.53-1.15-1.34-2.05-2.92-2.97-4.41s-1.9-3.09-2.77-4.68c-2.69-4.95-4.86-10.18-6.8-15.45-1.33-3.63-2.47-7.32-3.72-10.97-1.08-3.16-2.52-6.18-4.06-9.14-1.41-2.72-3.17-5.91-6.12-7.2s-6.56,.16-8.79,2.43c-2.84,2.9-3.29,6.81-2.77,10.69,.61,4.56,2.01,9.07,3.11,13.53,4.51,18.16,9.21,36.28,14.25,54.31,2.22,7.95,4.38,15.94,7.07,23.75,1.67,4.84,3.62,9.57,5.71,14.25,2.29,5.14,4.56,10.28,6.62,15.52,3.15,8.01,5.96,16.15,8.75,24.29,2.09,6.12,4.13,12.25,6.11,18.41,.18,.57,.78,1.17,1.45,1.1,18.96-2.05,37.93-4.11,56.89-6.16,5.44-.59,10.88-1.18,16.33-1.77,.77-.08,1.56-.62,1.5-1.5-.59-9.23,1.26-18.51,5.99-26.5,4.74-8,11.49-14.62,16.95-22.12,1.57-2.16,3.16-4.34,4.3-6.77,1.33-2.81,2.45-5.72,3.63-8.49,7.01-16.45,14.82-32.54,22.09-48.88,2.17-4.88,4.72-10,5.72-15.29,.27-1.43,.47-3-.04-4.4-.82-2.26-3.23-2.85-5.43-2.83-4.31,.04-8.75,1.59-12.56,3.5s-6.96,4.65-9.75,7.73c-4.1,4.54-7.02,9.77-10.33,14.87-2.08,3.2-4.24,6.4-6.82,9.22-.97,1.06-2.01,2.14-3.25,2.9-.45,.27-.81,.48-1.33,.57,.21-.04-.3,.02-.37,0,.31,.04-.48-.2-.19-.06-.61-.28-1.15-1.22-1.52-2.07-.64-1.47-.99-3.1-1.29-4.67-.84-4.34-1.12-8.79-1.35-13.19-1.01-19.12-.61-38.31-.02-57.43,.25-8.03,.62-16.07,.86-24.1,.13-4.26,.24-8.55-.07-12.8-.22-3.03-.63-6.14-1.89-8.93-1.09-2.42-2.98-4.3-5.5-5.19-4.21-1.48-9.29,0-12.65,2.74-5.8,4.74-6.8,13.26-7.1,20.24-.35,8.19-.49,16.39-.83,24.58-.42,10.19-.9,20.37-1.41,30.56-.28,5.6-.56,11.19-.85,16.79-.1,1.93,2.9,1.92,3,0,1.03-20.12,2.09-40.24,2.75-60.38,.23-7.11-.21-14.63,1.72-21.55,.93-3.31,2.56-6.68,5.53-8.61s7.92-2.96,10.82-.45c1.71,1.49,2.44,3.82,2.88,6.03,.69,3.4,.72,6.94,.72,10.39,0,8.18-.49,16.36-.78,24.53-.64,18.39-1.06,36.8-.52,55.21,.14,4.78,.32,9.57,.74,14.34,.34,3.82,.72,7.77,1.89,11.45,.7,2.18,1.87,4.92,4.35,5.49,2.65,.61,5.18-1.63,6.89-3.35,9.64-9.68,13.54-24.61,25.95-31.62,3.51-1.98,7.77-3.56,11.83-3.73,.69-.03,1.4-.04,2.08,.13,.21,.06,.4,.12,.59,.22,.3,.15-.06-.07,.21,.17s-.16-.19,0-.02c.07,.07,.13,.2,.17,.3-.15-.4,.06,.25,.11,.47s-.01-.35,0,.07c0,.14,.02,.27,.02,.41,0,.36-.02,.73-.06,1.09,.01-.13,0,.05-.05,.31-.03,.18-.07,.37-.11,.55-.09,.46-.21,.91-.33,1.36-.64,2.37-1.54,4.68-2.47,6.95-3.04,7.48-6.57,14.77-9.95,22.1-4.12,8.9-8.2,17.82-12.14,26.81-1.12,2.57-2.23,5.14-3.32,7.73-.39,.93-.78,1.85-1.17,2.78-.14,.34-.29,.69-.43,1.03-.05,.11-.21,.5-.08,.19-.07,.17-.14,.34-.22,.51-.72,1.68-1.47,3.34-2.45,4.88-4,6.29-9.03,11.83-13.67,17.63-2.64,3.3-5.17,6.72-7.16,10.46-2.22,4.18-3.77,8.7-4.61,13.36-.76,4.21-1,8.49-.73,12.75l1.5-1.5c-18.96,2.05-37.93,4.11-56.89,6.16-5.44,.59-10.88,1.18-16.33,1.77l1.45,1.1c-4.67-14.51-9.46-29.05-15.07-43.23-3.94-9.97-8.81-19.55-12.28-29.7-2.7-7.89-4.87-15.97-7.12-24-2.5-8.97-4.93-17.97-7.28-26.98s-4.64-18.05-6.89-27.09c-.58-2.32-1.15-4.64-1.72-6.96-.53-2.18-1.14-4.38-1.32-6.63-.3-3.71,.84-7.61,4.68-9.01,3.14-1.14,5.1,1.64,6.51,4.03,1.74,2.96,3.3,6.16,4.47,9.39,2.49,6.89,4.59,13.86,7.52,20.59,1.47,3.36,3.07,6.68,4.96,9.82,1.09,1.81,2.17,3.62,3.37,5.36,.73,1.06,1.53,2.38,2.67,3.06,1.32,.79,2.65,.06,3.05-1.29,.57-1.95,.2-4.32,.02-6.31-.35-3.83-.9-7.64-1.46-11.44-1.56-10.45-3.41-20.87-5.22-31.28-1.77-10.21-3.59-20.42-5.07-30.68-.55-3.78-1.35-7.79-1.11-11.63,.21-3.28,1.76-6.17,5-7.27,2.91-.99,6.09-.41,7.87,2.23,2.26,3.34,2.43,7.62,3.27,11.49,1.48,6.83,3.14,13.61,4.79,20.4,3.68,15.15,6.85,30.63,12.95,45.04,.96,2.27,1.96,4.59,3.28,6.68,.69,1.09,1.77,2.75,3.31,2.31,2.01-.57,1.9-4.01,1.99-5.6,.52-9.16-.21-18.45-.75-27.59-.73-12.37-1.69-24.73-2.79-37.07-.46-5.17-.99-10.33-1.49-15.49-.25-2.61-.39-5.25-.2-7.87s.67-5.32,2.3-7.33c2.14-2.65,6.02-2.69,8.98-1.55,2.41,.93,4.09,2.85,5.24,5.1,2.77,5.42,3.16,12.07,3.81,18.01,.72,6.55,1.64,13.07,2.61,19.58,2.23,15.06,4.89,30.05,7.99,44.95,.45,2.15,.9,4.3,1.37,6.45,.37,1.71,.65,3.46,1.68,4.93,1.83,2.6,5.9,3.28,7.31-.08,.32-.75-.34-1.64-1.05-1.85-.86-.25-1.53,.3-1.85,1.05h0Z"/><g><path class="cls-5" d="M830.7,120.4c11.09-2.18,23.4,4.02,27.28,13.35,1.41,3.39,1.95,7.74-.84,17.61-4.51,15.98-12.1,26.51-19.13,36.58-5.59,8.01-13.9,20.16-23.97,35.81l-.12-.47c-11.47-14.66-20.87-25.99-27.17-33.44-7.93-9.39-16.47-19.17-22.43-34.66-3.68-9.57-3.55-13.96-2.46-17.46,2.97-9.53,14.43-17.29,25.93-15.81,12.02,1.55,21.86,12.9,21.85,26.84-.18-14.19,9.12-26,21.07-28.35Z"/><path d="M831.1,121.85c8.24-1.55,17.39,1.64,22.8,8.06,1.85,2.2,3.24,4.91,3.62,7.79,.49,3.73-.35,7.61-1.27,11.2-2.43,9.57-6.56,18.51-11.8,26.85-4.14,6.59-8.77,12.88-13.17,19.3-6.31,9.22-12.49,18.55-18.54,27.94,.91,.12,1.83,.24,2.74,.36-.37-1.4-1.61-2.53-2.49-3.65-1.13-1.43-2.26-2.86-3.39-4.29-2.11-2.65-4.22-5.29-6.35-7.93-3.56-4.41-7.16-8.79-10.79-13.15-6.76-8.12-13.91-15.98-19.47-25-3.49-5.66-6.39-11.71-8.48-18.02-1.27-3.83-2.45-8.14-1.5-12.16,2.48-10.48,14.74-17.3,25.02-15.71,12.11,1.87,20.04,13.54,20.1,25.3h3c-.08-12.19,7.53-24.36,19.96-26.9,1.89-.39,1.09-3.28-.8-2.89-13.72,2.8-22.26,16.35-22.17,29.79,.01,1.93,3.01,1.93,3,0-.06-11.39-6.56-22.44-17.31-26.79-11.06-4.48-24.43,.29-30.93,10.13-2.38,3.61-3.56,7.77-3.11,12.08,.66,6.25,3.21,12.33,5.87,17.96,5.26,11.12,13.01,20.46,20.87,29.79,3.88,4.6,7.72,9.24,11.53,13.91,2.4,2.94,4.78,5.89,7.14,8.85,1.35,1.69,2.69,3.37,4.03,5.07,.7,.88,1.4,1.77,2.09,2.65,.3,.38,.58,.8,.91,1.16,.29,.46,.37,.54,.26,.24l.09,.35c.34,1.29,2.06,1.41,2.74,.36,5.74-8.92,11.6-17.77,17.58-26.54,4.6-6.75,9.46-13.35,13.84-20.25,5.46-8.62,9.79-17.91,12.34-27.81,1-3.89,1.88-8.07,1.44-12.11-.35-3.22-1.61-6.21-3.55-8.8-6.03-8.07-16.87-11.9-26.68-10.06-1.9,.36-1.09,3.25,.8,2.89Z"/></g></g><g><g><path d="M24.58,502.36c6.82-28.25,13.04-56.65,18.23-85.25,4.48-24.72,9.23-49.32,14.67-73.85,3.06-13.81,6.1-27.63,9.12-41.45,1.89-8.65,3.76-17.3,5.63-25.96,1.52-7.07,3.92-14.54,3.82-21.82-.2-14.93-11.14-26.74-19.06-38.39-2.76-4.07-4.26-7.19-5.88-11.59-4.52-12.3-9.42-24.46-14.38-36.6-2.31-5.64-4.67-11.27-6.84-16.97-1.2-3.15-2.62-6.49-3.05-9.86-.11-.88-.1-1.66,.07-2.28,0-.03,.29-.52,.18-.41,.56-.58,1.2-.78,2.01-.83,4.13-.26,8.9,2.57,12.24,4.82,5.34,3.59,8.73,9.79,12.31,14.95,3.41,4.91,6.78,9.88,10.5,14.57,1.05,1.32,2.38,3.32,4.14,3.78,3.05,.8,4.88-2.85,5.71-5.14,2.32-6.38,2.66-13.66,3.22-20.37,.64-7.71,1.11-15.43,1.42-23.15,.56-13.67,.78-27.35,.83-41.03,.02-7.19-.45-14.79,1.12-21.86,.47-2.11,1.17-4.48,2.87-5.95,2.72-2.34,6.95-1.41,9.71,.38,5.22,3.39,5.89,10.74,5.98,16.39,.1,6.27-.19,12.55-.25,18.82-.07,7.78-.08,15.56-.07,23.33,0,4.34,.02,8.68,.03,13.02s-.38,8.95,.04,13.29c.24,2.42,2.83,3.56,5,2.62,3.17-1.37,3.64-5.64,4.4-8.54,2.22-8.46,4.28-16.96,6.19-25.49,2.48-11.07,4.74-22.2,6.66-33.38,.43-2.52,.81-5.04,1.24-7.56,.94-5.45,1.9-13.66,7.25-16.75,2.96-1.71,7.56-1.84,9.72,1.21,1.67,2.36,1.79,5.64,1.72,8.41-.13,5.14-1.23,10.29-1.94,15.38-1.73,12.35-3.3,24.73-4.63,37.13-.99,9.21-2.35,18.7-2.05,27.99,.05,1.59,.1,5.12,2.62,4.6,1.3-.27,2.18-1.82,2.83-2.85,1.51-2.38,2.71-4.96,3.86-7.52,6.26-13.91,10-28.92,14.24-43.54,1.52-5.23,3.1-10.45,4.41-15.74,.25-1.01,.44-2.04,.68-3.05,.65-2.72,1.68-6.25,4.42-7.57,3.68-1.77,8.25,.78,9.22,4.54,1.05,4.07-.48,9.05-1.25,13.09-.92,4.81-1.94,9.6-2.97,14.39-2.39,11.03-4.91,22.04-7.26,33.08-1.63,7.66-3.72,15.57-4.16,23.43-.09,1.66,0,4.73,2.55,4.09,.97-.24,1.73-1.21,2.33-1.94,1.27-1.54,2.38-3.21,3.49-4.87,.87-1.29,1.72-2.59,2.51-3.94,3.2-5.45,5.77-11.26,8.11-17.12,1.27-3.18,2.3-6.48,3.82-9.55s3.31-7.43,6.21-9.54c1.52-1.1,3.18-.82,4.67,.25,2.15,1.54,2.94,3.86,2.84,6.43-.18,4.66-2.21,9.42-3.53,13.86-2.71,9.1-5.47,18.18-8.31,27.25-2.84,9.06-5.75,18.1-8.76,27.1-2.56,7.68-5.1,15.37-8.38,22.78-5.47,12.35-11.87,23.95-19.75,34.91-6.62,9.19-10.42,19.58-11.64,30.85-.47,4.33-.24,8.63-.48,12.95-.27,4.81-.7,9.61-1.06,14.41-.7,9.61-1.41,19.22-2.11,28.83-2.82,38.44-5.63,76.87-8.45,115.31-1.36,18.62-2.73,37.23-4.09,55.85l1.5-1.5c-32.48-.93-64.96-1.86-97.44-2.78-1.93-.06-1.93,2.94,0,3,32.48,.93,64.96,1.86,97.44,2.78,.85,.02,1.44-.71,1.5-1.5,2.84-38.74,5.68-77.47,8.52-116.21,1.43-19.52,2.86-39.04,4.29-58.55,.7-9.61,1.41-19.22,2.11-28.83,.35-4.76,.83-9.53,.81-14.3-.02-4.32,.24-8.66,.93-12.93,.97-5.98,2.71-11.85,5.43-17.26,2.12-4.22,4.9-7.97,7.64-11.8,8.11-11.31,14.44-23.98,19.62-36.87,6.87-17.12,12.07-35.05,17.5-52.67,2.84-9.21,5.65-18.43,8.33-27.68,1.07-3.68,2.2-7.98,.64-11.69-1.19-2.82-3.98-5.36-7.11-5.69s-5.23,1.62-6.91,3.88c-2.15,2.88-3.91,6.24-5.34,9.53-2.91,6.68-5.19,13.57-8.49,20.1-2.03,4.02-4.37,7.8-6.98,11.46-.47,.66-1.44,1.51-1.74,2.25-.04,.1-.5,.41-.49,.5-.24-1.92,1.16,.57,1.27,.59,.07,.01-.02-.04-.02-.24,0-1.07,.05-2.11,.17-3.18,.95-8.63,3.08-17.21,4.92-25.68,2.43-11.16,4.98-22.3,7.34-33.48,.94-4.46,1.86-8.93,2.64-13.42,.82-4.74,1.96-10.27-1.43-14.31-4.13-4.93-11.93-4.48-15.27,.95-1.55,2.52-2.1,5.43-2.76,8.27-.9,3.88-2.07,7.71-3.17,11.53-3.95,13.81-7.53,27.94-12.7,41.34-1.33,3.45-2.79,6.87-4.46,10.18-.22,.44-3.2,5.06-3.14,5.17,.12,.23,1.71,.1,1.47,.46,.09-.13-.16-.9-.17-1.02-.13-1.36-.09-2.75-.06-4.12,.26-10.51,1.56-21.04,2.76-31.47,1.42-12.34,3.01-24.67,4.82-36.97,.75-5.07,1.73-10.39,.44-15.46-1.62-6.33-7.89-8.99-13.88-6.57-9.05,3.66-9.63,16.56-10.99,24.74-1.63,9.87-3.58,19.68-5.69,29.46-1.78,8.28-3.71,16.53-5.78,24.74-.53,2.11-1.07,4.21-1.62,6.31-.48,1.84-.71,5-2.1,6.44-.51,.53-1.16,.79-1.5,.49s-.01-2.54-.02-3.12c-.01-2.47-.02-4.93-.03-7.4-.06-15.9-.11-31.81,.13-47.72,.16-10.39,1.9-26.87-10.94-30.61-14.81-4.32-14.47,15.77-14.56,24.84-.13,13.85-.17,27.69-.63,41.54-.26,7.81-.62,15.61-1.19,23.4s-.91,15.5-2.78,22.95c-.49,1.97-1.04,4.36-2.7,5.66-.19,.15-.06,.19-.3-.05-.22-.22-1.15-1.11-1.66-1.71-1.28-1.51-2.45-3.12-3.62-4.71-4.44-6.09-8.56-12.41-13.02-18.49-2.82-3.84-5.9-7.06-10.09-9.39-3.71-2.06-9.24-5.04-13.58-3.43-2.24,.83-3.21,2.88-3.17,5.15,.05,2.97,1.17,5.97,2.16,8.73,1.85,5.19,3.99,10.27,6.07,15.37,5.33,13.03,10.66,26.05,15.54,39.26,1.32,3.58,2.49,7.22,4.49,10.49,7.46,12.21,19.86,23.71,20.95,38.76,.53,7.32-1.92,14.84-3.46,21.94-1.87,8.69-3.75,17.37-5.65,26.05-6.14,28.19-12.81,56.3-18.27,84.64-4.39,22.8-8.17,45.69-12.96,68.41-3.41,16.14-7.08,32.23-10.96,48.27-.45,1.88,2.44,2.68,2.89,.8Z"/><g><path class="cls-1" d="M105.12,160.28c-10.19-2.5-21.86,2.72-25.86,11.2-1.45,3.08-2.14,7.1,.02,16.36,3.49,15.01,10.08,25.09,16.16,34.74,4.83,7.66,12.02,19.28,20.68,34.23l.13-.43c11.27-13.09,20.47-23.19,26.63-29.83,7.76-8.36,16.09-17.06,22.28-31.17,3.83-8.71,3.89-12.79,3.03-16.08-2.34-8.96-12.63-16.65-23.36-15.77-11.21,.92-20.82,11.01-21.41,23.94,.78-13.14-7.33-24.5-18.31-27.18Z"/><path d="M105.52,158.84c-8.1-1.91-17.09,.41-23.21,6.08-2.38,2.2-4.33,5.02-5.25,8.15-.91,3.08-.73,6.36-.3,9.5,1.31,9.54,4.78,18.8,9.29,27.27,3.64,6.84,7.98,13.28,12.06,19.86,5.71,9.21,11.28,18.51,16.71,27.88,.66,1.15,2.36,.85,2.74-.36,.05-.16,.28-.45,.07-.15,.27-.4,.65-.76,.97-1.12,.53-.61,1.06-1.22,1.59-1.83,1.23-1.41,2.45-2.82,3.69-4.23,2.17-2.48,4.36-4.95,6.55-7.41,3.52-3.95,7.08-7.87,10.66-11.77,7.35-7.99,14.91-15.81,20.53-25.18,3.21-5.35,6.14-11.2,7.73-17.25,.96-3.66,1.12-7.36-.2-10.95-3.86-10.44-15.79-16.92-26.64-14.98-11.94,2.13-19.96,13.47-20.57,25.13-.1,1.93,2.9,1.92,3,0,.66-12.54-6.78-25.43-19.41-28.63-1.87-.47-2.67,2.42-.8,2.89,11.39,2.88,17.8,14.5,17.21,25.74h3c.51-9.74,6.81-19.14,16.47-21.81,9.66-2.67,21.31,2.93,24.85,12.45,1.24,3.32,1,6.57,.03,9.98-1.65,5.78-4.45,11.32-7.57,16.44-5.34,8.76-12.42,16.1-19.33,23.61-3.81,4.14-7.59,8.31-11.33,12.51-2.31,2.59-4.6,5.19-6.88,7.8-1.19,1.36-2.37,2.72-3.56,4.09-1.01,1.16-2.46,2.39-2.93,3.88,.91-.12,1.83-.24,2.74-.36-4.73-8.15-9.55-16.24-14.48-24.27-3.77-6.13-7.73-12.15-11.4-18.35-4.55-7.67-8.24-15.75-10.43-24.41-1.57-6.23-3.1-13.27,.65-18.9,4.79-7.18,14.76-10.33,22.97-8.39,1.88,.44,2.68-2.45,.8-2.89Z"/></g></g><g><path class="cls-3" d="M5.61,534.92c-.62-2.54-1.47-6.14-2.37-10.48-1.86-8.91-1.79-10.91-1.73-12.62,.16-4.26,1.55-8.64,4.66-11.55,3.11-2.92,8.13-3.97,11.76-1.76,1.32,.8,2.65,2.03,4.15,1.7,1.1-.24,1.82-1.23,2.64-2,2.69-2.51,6.88-2.73,10.4-1.68,3.52,1.05,6.61,3.17,9.84,4.95,.55,.3,1.12,.6,1.74,.61,.59,.01,1.16-.24,1.7-.49,4.38-2.05,8.64-4.48,13.36-5.54,4.71-1.06,10.12-.52,13.64,2.8,1.72,1.62,3.1,3.93,5.42,4.39,1.57,.31,3.15-.34,4.67-.87,7.71-2.66,16.48-2.05,23.75,1.64,.85,.43,1.71,.91,2.66,.93,.74,.02,1.45-.25,2.14-.53,4.61-1.86,10.18-4.3,14.13-1.29,.99,.76,1.75,1.8,2.82,2.45,2.05,1.25,3.21,.73,5.13,1.56,1.98,.86,3.87,2.68,4.51,4.61,.83,2.5-.53,4.88-3,9-3.07,5.12-5.79,9.5-8,13-41.34,.39-82.68,.78-124.02,1.17Z"/><path d="M7.06,534.52c-1.52-6.21-3.13-12.53-3.88-18.88-.5-4.26-.01-8.78,2.43-12.41,1.83-2.72,4.92-4.5,8.23-4.39,1.67,.06,2.97,.73,4.33,1.62s2.97,1.67,4.67,1.1c1.59-.53,2.44-2.06,3.8-2.93s2.9-1.18,4.46-1.18c3.67-.02,6.95,1.79,10.05,3.58,1.53,.88,3.23,2.22,5.01,2.51,1.84,.31,3.69-.94,5.27-1.71,3.53-1.72,7.07-3.52,10.93-4.35,3.07-.66,6.54-.61,9.43,.74,2.97,1.39,4.39,4.62,7.3,6.01,3.41,1.63,7.09-.7,10.46-1.4,3.57-.74,7.34-.79,10.93-.15,1.8,.32,3.57,.8,5.28,1.44s3.23,1.71,4.95,2.17c1.93,.51,3.66-.39,5.41-1.08,1.65-.66,3.32-1.28,5.05-1.67,1.56-.35,3.27-.5,4.79,.08,1.66,.63,2.65,2.2,4.1,3.17s2.86,1.07,4.42,1.43c1.64,.37,3.15,1.44,4.1,2.82,1.8,2.62-.14,5.41-1.52,7.75-2,3.4-4.06,6.75-6.14,10.1-.86,1.38-1.72,2.75-2.59,4.13l1.3-.74c-32.21,.3-64.42,.61-96.62,.91-9.13,.09-18.26,.17-27.39,.26-1.93,.02-1.93,3.02,0,3,26.56-.25,53.13-.5,79.69-.75,13.28-.13,26.56-.25,39.85-.38,1.49-.01,3.22,.21,4.68-.07,1.21-.23,1.84-1.9,2.44-2.85,1.49-2.38,2.96-4.76,4.42-7.16,1.54-2.54,3.23-5.06,4.51-7.74,.88-1.84,1.51-3.83,.96-5.86-.66-2.42-2.71-4.52-4.93-5.6-1.04-.51-2.09-.73-3.22-.93-1.46-.26-2.48-.86-3.54-1.88-1.93-1.86-4.08-2.99-6.81-2.98s-5.29,.9-7.76,1.86c-1.15,.45-2.5,1.27-3.75,1.35-1.35,.09-2.85-1.08-4.06-1.59-2.58-1.1-5.28-1.86-8.06-2.25-2.78-.39-5.59-.45-8.39-.12s-5.47,1.22-8.22,2.03c-1.2,.36-2.32,.5-3.42-.2s-1.9-1.8-2.78-2.74c-1.7-1.81-3.78-3.11-6.17-3.82-5.26-1.56-10.71-.22-15.6,1.87-2.7,1.15-5.27,2.79-8.03,3.78-1.26,.45-2.55-.69-3.61-1.31-1.34-.78-2.67-1.57-4.05-2.27-4.47-2.26-10.26-3.68-14.78-.69-1,.66-1.69,1.65-2.65,2.33-1.17,.82-2.49-.54-3.47-1.14-2.11-1.31-4.59-1.71-7.02-1.35-5.22,.75-8.97,4.73-10.68,9.54-2.58,7.29-.26,15.34,1.33,22.55,.53,2.43,1.09,4.84,1.68,7.26,.46,1.87,3.35,1.08,2.89-.8Z"/></g></g><g><g><path class="cls-2" d="M164.63,534.75c2.98-21.2,6.08-42.55,9.3-64.04,3.17-21.16,6.4-42.14,9.7-62.96,6.78,1.17,12.29,1.72,16,2,6.65,.51,9.58,.32,17,1,5.89,.54,10.09,1.2,12.35,1.54,7.08,1.06,19.47,2.58,42.65,4.46,0,.97,0,2.5-.05,4.38-.04,1.59-.11,2.76-.12,3.05-.19,4.77-1.59,46.5-2.47,67.55-.43,10.35-1.15,25.07-2.36,43.02h-102Z"/><path d="M166.08,535.15c2.32-16.52,4.7-33.04,7.14-49.54,2.44-16.52,4.93-33.02,7.48-49.52,1.44-9.31,2.9-18.63,4.38-27.93-.62,.35-1.23,.7-1.85,1.05,6.56,1.12,13.18,1.92,19.82,2.28,6.7,.37,13.37,.63,20.04,1.48,8.31,1.06,16.57,2.3,24.9,3.16,7.87,.81,15.75,1.5,23.64,2.14l-1.5-1.5c.02,4.91-.26,9.83-.43,14.74-.24,6.95-.49,13.9-.73,20.84-.55,15.64-1.09,31.29-1.81,46.93-.55,11.84-1.23,23.67-2.02,35.49l1.5-1.5h-102c-1.93,0-1.93,3,0,3h102c.85,0,1.45-.69,1.5-1.5,1.22-18.23,2.12-36.48,2.82-54.75,.59-15.47,1.13-30.93,1.67-46.4,.2-5.61,.53-11.24,.51-16.85,0-.86-.69-1.43-1.5-1.5-11.88-.96-23.77-2-35.6-3.49-3.39-.43-6.76-.95-10.16-1.43-6.65-.94-13.32-1.44-20.03-1.72-7.32-.31-14.6-1.06-21.82-2.3-.73-.12-1.71,.19-1.85,1.05-2.61,16.47-5.17,32.96-7.67,49.45-2.5,16.51-4.95,33.03-7.34,49.55-1.35,9.33-2.68,18.66-3.99,28-.11,.81,.2,1.6,1.05,1.85,.7,.2,1.73-.25,1.85-1.05Z"/></g><path d="M269.52,283.85c-.25,.36-1-.03-1.22-.22-.57-.51-.81-1.46-.91-2.19-.28-2.18-.07-4.52-.08-6.72-.02-4.47,0-8.93,.07-13.4,.11-7.8,.33-15.61,.66-23.41,.41-9.54,.96-19.08,1.78-28.6,.28-3.31,.65-6.61,.82-9.92,.31-5.84,.38-12.75-3.66-17.45-4.09-4.76-12.2-6.05-16.46-.9-3.44,4.15-4.3,9.96-4.87,15.15-1.24,11.31-2.49,22.62-3.96,33.91s-3.06,22.97-5.09,34.37c-.66,3.71-1.33,7.44-2.33,11.07-.15,.56-.32,1.12-.5,1.67-.08,.22-.16,.44-.24,.65-.12,.31,.11-.23,0,0-.04,.09-.09,.18-.13,.27-.06,.12-.15,.22-.2,.34,.07-.15,.1-.2,.26-.25,.53-.18,1.03,.05,1.32,.08-.1-.01,.08,.16,.01,0-.06-.14-.16-.28-.23-.42-.28-.55-.6-1.58-.84-2.39-.37-1.26-.67-2.54-.95-3.82-.77-3.57-1.34-7.19-1.78-10.82-1.06-8.69-1.25-17.44-1.57-26.17-.36-9.54-.71-19.07-.88-28.61-.04-2.18-.08-4.36,.01-6.54,.25-5.86-.66-13.18-7.46-14.76-3.32-.77-7.03-.04-9.61,2.24-2.25,1.99-3.35,5.02-3.82,7.92-.62,3.85-.78,7.8-1.01,11.68-.29,4.9-.49,9.81-.68,14.71-.42,11.15-.73,22.3-1.15,33.44-.33,8.48-.52,17.06-1.6,25.49-.03,.23-.03,.23-.09,.64-.05,.31-.1,.62-.15,.93-.09,.5-.18,1-.31,1.49-.04,.18-.09,.35-.15,.52s-.25,.67-.05,.19c-.05,.12-.11,.22-.17,.33-.11,.2,.08-.14,.13-.17-.22,.13,.12-.1,.17-.12-.03,.01,.5-.07,.67-.06,.71,.05,.44,.21,.37-.1-.15-.64-.75-1.4-1.01-2.02-.79-1.87-1.45-3.79-2.12-5.71-.43-1.21-.82-2.43-1.18-3.66-1.68-5.82-2.76-11.82-3.59-17.82-.49-3.55-.77-7.12-1.28-10.67-.48-3.33-1.33-6.67-2.35-9.88-.85-2.69-2.07-5.84-4.69-7.27-2.82-1.54-6.36-.61-8.82,1.19-3.13,2.29-4.28,5.82-4.58,9.57-.35,4.36,.1,8.85,.27,13.21,.73,18.9,1.65,37.8,2.94,56.67,.91,13.43,1.91,26.74,4.78,39.91,1.2,5.5,2.38,11,3.34,16.55,1.47,8.47,2.57,17.01,3.64,25.54,.81,6.42,1.56,12.84,2.24,19.27,.09,.87,.62,1.41,1.5,1.5,18.99,1.84,37.97,3.68,56.96,5.53,5.45,.53,10.9,1.06,16.34,1.59,.87,.08,1.42-.76,1.5-1.5,.99-8.87,4.91-16.51,10.82-23.11,6.04-6.75,13.3-12.24,20.06-18.23,3.42-3.03,6.63-6.2,9.33-9.9,1.32-1.81,2.33-3.78,3.58-5.62,3.36-4.92,6.94-9.69,10.42-14.51,5.78-8.01,11.59-16,17.34-24.04,3.27-4.57,6.6-9.14,9.54-13.94,1.34-2.18,3.05-4.75,3.19-7.38,.25-4.72-6.24-5.07-9.58-4.95-4.24,.15-8.51,1.02-12.39,2.75-4.05,1.81-7.67,4.51-10.97,7.43-6.03,5.34-11.03,11.83-17.3,16.89-1.61,1.3-3.48,2.54-5.36,2.35,.01,0-.29-.05-.51-.11-.35-.09,.13,.13-.18-.09-.14-.11,.15,.16-.1-.1s0,.09-.19-.24c-.39-.65-.59-1.39-.76-2.37-.47-2.81-.24-5.87-.01-8.72,.36-4.47,1.02-8.9,1.75-13.32,3.16-19.04,7.58-37.89,12.13-56.64,1.81-7.47,3.77-14.9,5.45-22.4,.86-3.84,1.67-7.73,1.96-11.66,.2-2.76,.13-5.67-.98-8.24-3-6.99-12.86-7.07-18.31-3.04-5.71,4.22-8.01,11.65-9.61,18.26-4.28,17.69-8.68,35.34-13.26,52.95-1.37,5.27-2.75,10.55-4.13,15.82-.49,1.87,2.4,2.67,2.89,.8,5.01-19.14,10.04-38.29,14.71-57.52,.87-3.59,1.71-7.18,2.57-10.77,.77-3.22,1.63-6.46,2.99-9.48s3.28-6.2,6.22-8.05c3.09-1.94,7.71-2.5,10.9-.49,4.65,2.93,3.12,10.54,2.31,15.04-1.41,7.86-3.56,15.58-5.46,23.33-4.28,17.44-8.38,34.95-11.71,52.6-1.66,8.8-3.44,17.82-3.62,26.81-.08,3.87-.1,10.28,5.04,10.63,2.25,.16,4.39-.98,6.15-2.27,2.83-2.07,5.29-4.61,7.74-7.1,5.88-5.97,11.57-12.61,19.05-16.66,3.78-2.05,8-3.1,12.28-3.36,1.79-.11,3.68-.14,5.43,.31,.59,.15,1.08,.36,1.59,.68,.14,.09,.47,.52,.09,.07,.05,.06,.09,.13,.13,.2,.19,.31-.05-.35,.03,.06,.09,.5,.04-.1,.04,.11,0,.15,0,.31,0,.46,0,.25-.02,.13,.02-.09-.02,.11-.03,.23-.06,.33-.12,.46-.26,.91-.43,1.36-.12,.31-.04,.11-.03,.09-.06,.14-.13,.29-.19,.43-.15,.31-.3,.62-.46,.93-2,3.86-4.59,7.44-7.07,10.99-4.71,6.74-9.57,13.39-14.39,20.06-5.1,7.06-10.22,14.12-15.29,21.2-2.73,3.81-4.94,7.97-8.02,11.52-5.68,6.57-12.95,11.69-19.37,17.48-6.28,5.66-12.34,12.03-15.75,19.88-1.75,4.02-2.76,8.23-3.25,12.57l1.5-1.5c-18.99-1.84-37.97-3.68-56.96-5.53-5.45-.53-10.9-1.06-16.34-1.59l1.5,1.5c-1.62-15.17-3.37-30.38-5.96-45.42-1.83-10.61-4.69-21.02-6.02-31.72-1.02-8.25-1.51-16.58-2.08-24.87-.63-9.35-1.18-18.71-1.65-28.08-.48-9.45-.89-18.9-1.25-28.35-.17-4.39-.7-8.98-.19-13.36,.41-3.53,2.1-6.7,5.73-7.69,3.03-.82,4.7,1.21,5.75,3.8,1.31,3.21,2.13,6.78,2.75,10.19s.8,6.65,1.23,9.96c.49,3.78,1.07,7.56,1.81,11.3,.79,3.99,1.72,7.98,3.05,11.83,1.01,2.93,1.91,6.16,3.52,8.83,.88,1.47,2.75,2.47,3.9,.74,1.06-1.59,1.16-3.95,1.39-5.78,.46-3.62,.7-7.27,.91-10.91,.62-10.39,.92-20.81,1.26-31.21,.34-10.48,.64-20.98,1.25-31.45,.22-3.77,.3-7.67,.99-11.39,.54-2.91,1.78-5.94,4.7-7.15s6.78-.72,8.61,1.98c2.48,3.67,1.51,8.55,1.54,12.78,.05,6.72,.29,13.44,.51,20.16,.52,15.66,.47,31.55,3.38,47,.49,2.61,1.02,5.26,1.91,7.77,.44,1.26,1.13,3.33,2.79,3.31,2.1-.02,2.72-3.32,3.13-4.85,2.4-8.84,3.56-18.1,4.89-27.15,1.81-12.29,3.39-24.62,4.82-36.96,.6-5.19,1.15-10.39,1.71-15.58,.5-4.71,1.2-10.79,4.84-14.23,2.35-2.21,5.87-1.9,8.55-.48,2.42,1.28,4,3.39,4.8,5.98,.92,2.98,1,6.17,.92,9.27-.08,3.34-.39,6.67-.71,10-.6,6.33-1.02,12.68-1.38,19.03-.88,15.15-1.32,30.32-1.33,45.49,0,2.18,0,4.37,.03,6.55,.02,1.86-.12,3.78,.57,5.55,.58,1.48,1.64,2.77,3.24,3.16s3.06-.16,3.97-1.48c1.1-1.6-1.5-3.1-2.59-1.51h0Z"/><g><path class="cls-5" d="M261.31,301.19c11.31,.12,22.09,8.69,24,18.61,.69,3.6,.33,7.98-4.4,17.08-7.66,14.73-17.24,23.49-26.17,31.93-7.1,6.71-17.71,16.91-30.75,30.19l-.03-.49c-8.25-16.68-15.16-29.68-19.81-38.27-5.86-10.8-12.23-22.12-14.91-38.5-1.66-10.12-.64-14.39,1.14-17.6,4.84-8.73,17.64-13.99,28.6-10.21,11.45,3.96,18.78,17.07,15.94,30.72,2.7-13.93,14.21-23.6,26.39-23.47Z"/><path d="M261.31,302.69c8.51,.16,16.98,5.19,20.92,12.8,1.37,2.65,2.04,5.46,1.79,8.39-.32,3.68-1.94,7.27-3.54,10.54-4.35,8.86-10.22,16.78-17.06,23.87-5.39,5.59-11.18,10.79-16.78,16.17-8.02,7.71-15.91,15.54-23.71,23.48,.85,.35,1.71,.71,2.56,1.06-.07-1.41-.92-2.65-1.54-3.89-.85-1.7-1.7-3.41-2.56-5.11-1.52-3.02-3.06-6.04-4.61-9.05-2.59-5.04-5.22-10.06-7.89-15.06-5.01-9.39-10.48-18.61-14.09-28.67-2.23-6.22-3.87-12.74-4.6-19.32-.44-3.93-.71-8.36,.98-12.03,4.39-9.51,17.08-13.68,26.69-10.72,12.07,3.72,17.98,17.29,15.6,29.11l2.89,.8c2.39-11.92,12.23-22.42,24.94-22.37,1.93,0,1.93-2.99,0-3-13.98-.05-25.18,11.36-27.83,24.57-.38,1.88,2.51,2.69,2.89,.8,2.3-11.41-1.96-23.92-12.07-30.23-9.9-6.18-23.69-4.13-31.82,4.09-3.07,3.1-4.94,6.85-5.43,11.17-.69,6.18,.65,12.74,2.09,18.71,2.89,11.93,8.56,22.65,14.35,33.37,2.86,5.3,5.68,10.62,8.46,15.96,1.75,3.36,3.48,6.74,5.2,10.12,.98,1.92,1.95,3.85,2.91,5.78,.5,1.01,1.01,2.01,1.51,3.02,.21,.42,.39,.93,.66,1.32,.15,.52,.24,.6,.24,.26l.02,.36c.07,1.26,1.61,2.03,2.56,1.06,7.36-7.49,14.8-14.88,22.35-22.17,5.9-5.7,12.03-11.2,17.75-17.08,7.11-7.32,13.27-15.5,17.81-24.67,1.83-3.69,3.5-7.57,4-11.69,.37-3.12-.25-6.22-1.49-9.09-4.01-9.31-14.17-15.48-24.16-15.67-1.93-.04-1.93,2.96,0,3Z"/></g></g><g><path d="M745.44,534.36c-4.55-21.91-8.99-43.85-13.43-65.79-2.78-13.73-5.56-27.46-8.31-41.19-1.21-6-2.42-12-3.63-18-1.38-6.9-.45-13.72,2.46-20.1,5.06-11.08,13.96-19.62,19.93-30.1,2.14-3.75,3.4-8.08,4.96-12.08,5.24-13.37,10.91-26.57,16.52-39.79,1.95-4.6,3.95-9.21,5.65-13.91,.92-2.56,1.94-5.32,1.98-8.07,.03-2.31-1.01-4.35-3.29-5.17-4.38-1.57-9.92,1.29-13.71,3.31-3.92,2.09-6.99,4.92-9.72,8.42-4.53,5.83-8.64,12-13.03,17.94-2.02,2.73-4,5.62-6.44,7.99-.13,.12-.26,.24-.39,.35-.13,.1,.21-.16-.1,.06-.04,.03-.28,.12-.29,.16,.16-.51,.32,.11,0-.04,.04,.02,.49,0,.13-.03s.47,.25,0,0c-.55-.3-.89-.66-1.24-1.25-1.26-2.13-1.72-4.8-2.15-7.19-.65-3.6-1-7.24-1.3-10.88-.61-7.44-1-14.91-1.25-22.37-.48-14-.55-28.02-.45-42.02,.05-6.76,.29-13.54,.01-20.3-.2-4.88-.46-10.82-3.69-14.8-3.89-4.8-11.28-3.77-15.69-.27-4.58,3.63-5.98,9.78-6.46,15.32s-.17,11.51-.18,17.24c-.02,7.2-.09,14.41-.18,21.61-.11,8.39-.26,16.79-.42,25.18-.04,2.2-.08,4.39-.13,6.59-.01,.53,.25,2.18-.03,2.58,.24-.33-.43,0-.64-.05-.48-.09-.88-.57-1.14-.94-1.06-1.48-1.23-3.73-1.66-5.46-.58-2.34-1.15-4.68-1.7-7.02-3.35-14.12-6.29-28.33-8.82-42.61-1.15-6.49-2.08-13-3.12-19.51-.91-5.72-1.96-12.57-6.21-16.89-3.99-4.05-11.83-5.14-15.79-.46-3.51,4.15-3.18,10.54-2.61,15.6s1.31,9.99,1.92,14.99c1.49,12.2,2.84,24.43,3.94,36.67,.78,8.68,1.89,17.61,1.46,26.34-.03,.51-.05,1.02-.12,1.53,.05-.37-.05,.19-.06,.28-.07,.47-.15,.19-.02,.2,0,0-.05,.11-.06,.11-.16,.03,.18-.23,.26-.27,.5-.26,1.25-.14,1.26-.11-.11-.45-.95-1.23-1.21-1.65-3.43-5.6-5.73-12.03-7.83-18.22-2.67-7.85-4.73-15.93-6.96-23.91-1.43-5.12-2.85-10.25-4.24-15.39-.99-3.67-2.05-7.33-2.86-11.05-.51-2.32-.92-4.61-1.85-6.81-1.12-2.63-2.95-4.99-5.75-5.93-2.94-.99-6.44-.3-8.96,1.46-4.81,3.36-4.41,9.24-3.66,14.37,.6,4.09,1.36,8.15,2.13,12.21,3.8,19.91,8.71,39.66,11.76,59.71,.37,2.45,.76,4.95,.71,7.44,0,.33-.04,.57-.08,.57-.08-.01,.14-.05,.01-.05-.02,0,.44-.43,.42-.42,1.54-.6,1.05,.36,.61-.44-.3-.54-.88-1.03-1.26-1.55-.55-.75-1.07-1.53-1.59-2.31-.7-1.05-1.4-2.11-2.07-3.17-2.34-3.71-4.27-7.68-6.05-11.68-2.79-6.28-4.58-13.03-7.68-19.16-2.5-4.96-6.42-13.7-13.45-10.5-8.46,3.85-5.35,13.78-3.43,20.63,4.93,17.56,10.03,35.08,15.46,52.5,4.38,14.06,8.89,27.95,15.17,41.29,3.28,6.98,6.91,13.83,11.15,20.28,2.5,3.79,5.31,7.38,7.61,11.3,6.41,10.93,8.53,23.72,8.1,36.26-.15,4.31,.38,8.69,.63,13,.2,3.37,.39,6.75,.58,10.12,.27,4.69,.53,9.37,.78,14.06,.46,8.73,.77,17.46,1.24,26.19,.63,11.83,1.33,23.66,2.02,35.48,.05,.8,.65,1.51,1.5,1.5,21.47-.3,42.94,.12,64.42,.14,6.72,0,13.44-.04,20.16-.14,1.93-.03,1.93-3.03,0-3-21.47,.3-42.94-.12-64.42-.14-6.72,0-13.44,.04-20.16,.14l1.5,1.5c-.96-16.31-1.99-32.61-2.66-48.94-.18-4.42-.39-8.84-.63-13.25-.25-4.66-.51-9.32-.77-13.98-.19-3.41-.39-6.82-.59-10.24-.25-4.23-.72-8.53-.59-12.76,.39-12.51-1.75-25.24-7.85-36.28-2.17-3.92-4.9-7.47-7.41-11.17-4.14-6.12-7.69-12.62-10.91-19.26-6.42-13.21-10.99-26.99-15.37-40.98-5.45-17.41-10.57-34.92-15.51-52.48-1.16-4.13-3-8.64-2.74-13,.18-3.01,3.18-7.6,6.79-6.29,2.98,1.08,4.69,5.46,6.03,8.03,1.38,2.65,2.47,5.33,3.48,8.14,3.79,10.55,8.23,21.07,14.99,30.1,.95,1.28,3.01,4.14,4.82,2.38,.58-.56,.69-1.43,.75-2.19,.18-2.46-.3-5.03-.65-7.45-1.32-9.15-3.26-18.22-5.11-27.28-2.16-10.56-4.41-21.11-6.46-31.69-.81-4.17-1.59-8.35-2.25-12.55-.72-4.62-1.8-10.87,3.49-13.2,3.13-1.38,6.47-.58,8.26,2.38,1.35,2.22,1.84,4.81,2.35,7.33,.1,.47,.2,.94,.31,1.4,1.25,5.21,2.7,10.38,4.12,15.55,3.93,14.31,7.37,28.98,13.01,42.72,1.15,2.79,2.35,5.56,3.76,8.23,.77,1.47,1.63,3.3,2.94,4.37,2.43,2,3.47-1.06,3.65-2.94,.3-3.17,.09-6.42-.06-9.59-.24-4.96-.63-9.92-1.06-14.87-1.04-12.09-2.35-24.17-3.79-36.22-.64-5.35-1.31-10.7-2.04-16.05-.64-4.75-1.64-10.88,1.03-15.2,1.78-2.88,5.46-3.26,8.46-2.3,2.59,.83,4.36,2.78,5.58,5.14,2.64,5.12,3.2,11.35,4.01,16.97,3.15,22,7.79,43.86,13.15,65.41,.73,2.94,1.43,7.36,5.13,7.91,1.21,.18,2.55-.16,3.36-1.13,1.06-1.26,.7-3.16,.72-4.7,.16-8.56,.32-17.12,.45-25.68,.21-13.55,.01-27.1,.25-40.64,.1-5.39,.57-11.96,4.54-16.05,2.29-2.37,6.12-3.85,9.39-3.03,2.14,.54,3.51,2.13,4.34,4.09,2.26,5.32,1.88,11.92,1.87,17.56,0,6.25-.13,12.5-.15,18.74-.05,14.41,.06,28.84,.73,43.24,.35,7.46,.73,14.96,1.64,22.37,.38,3.13,.82,6.28,1.69,9.31,.54,1.89,1.26,3.99,2.72,5.39,4.08,3.92,8.24-3.38,10.24-6.02,4.33-5.7,8.41-11.57,12.6-17.37,2.89-3.99,5.85-7.72,10.2-10.18,1.76-.99,3.59-1.9,5.48-2.61,1.88-.7,4.82-1.87,6.81-.93,.25,.12,.44,.26,.64,.44,.31,.27-.02-.05,.09,.1,.36,.47,.2,.17,.32,.73,.09,.43,.04,.13,.06,.27,.02,.21,.03,.41,.03,.62,0,.49-.06,1.03-.1,1.28-.51,3.16-1.77,6.24-2.93,9.2-2.12,5.41-4.44,10.74-6.72,16.09-5.27,12.37-10.51,24.75-15.35,37.29-.83,2.14-1.6,4.3-2.49,6.41,.15-.36-.22,.49-.29,.65-.13,.28-.26,.55-.41,.82-.32,.61-.67,1.2-1.03,1.79-7.16,11.56-17.59,21.48-21.5,34.85-1.87,6.38-1.34,12.56-.06,18.99,1.18,5.91,2.37,11.83,3.55,17.74,5.34,26.58,10.73,53.14,16.15,79.7,1.71,8.39,3.43,16.78,5.17,25.16,.39,1.89,3.28,1.09,2.89-.8h0Z"/><g><path class="cls-4" d="M688,305.42c10.47-2.41,22.35,3.1,26.32,11.85,1.44,3.17,2.08,7.3-.26,16.76-3.79,15.31-10.69,25.54-17.06,35.33-5.06,7.78-12.59,19.57-21.68,34.74l-.13-.44c-11.34-13.57-20.61-24.05-26.83-30.94-7.82-8.68-16.22-17.71-22.36-32.24-3.79-8.98-3.79-13.15-2.87-16.51,2.53-9.14,13.18-16.86,24.15-15.8,11.46,1.1,21.16,11.58,21.57,24.83-.6-13.47,7.87-24.97,19.15-27.56Z"/><path d="M688.4,306.86c7.73-1.71,16.44,.96,21.78,6.84,1.91,2.11,3.27,4.58,3.74,7.36,.58,3.45-.09,7.12-.83,10.49-2.01,9.17-5.64,17.8-10.36,25.88-3.77,6.45-8.02,12.62-12.04,18.92-5.69,8.91-11.25,17.92-16.68,26.99,.91,.12,1.83,.24,2.74,.36-.39-1.31-1.54-2.33-2.41-3.36-1.12-1.33-2.24-2.65-3.36-3.98-2.08-2.46-4.18-4.91-6.28-7.35-3.53-4.09-7.08-8.15-10.67-12.18-6.66-7.49-13.69-14.72-19.24-23.1-3.52-5.32-6.52-11.05-8.7-17.05-1.3-3.58-2.54-7.66-1.74-11.44,2.13-10.04,13.53-16.77,23.36-15.53,11.41,1.44,19.21,12.26,19.62,23.28h3c-.44-11.54,6.33-23.33,18.05-26.12,1.88-.45,1.08-3.34-.8-2.89-12.97,3.08-20.74,16.19-20.25,29.01,.07,1.92,3.07,1.93,3,0-.41-10.78-6.78-20.99-17.02-24.93-10.63-4.09-23.29,.75-29.29,10.24-2.17,3.43-3.27,7.38-2.8,11.42,.71,6.03,3.39,11.9,6.13,17.25,5.35,10.45,13.02,19.13,20.81,27.8,3.87,4.3,7.7,8.64,11.49,13,2.34,2.69,4.67,5.4,6.99,8.12,1.29,1.52,2.58,3.04,3.87,4.56,.67,.79,1.34,1.59,2.01,2.39,.31,.37,.6,.79,.94,1.12,.28,.46,.37,.53,.28,.21l.1,.33c.37,1.24,2.07,1.48,2.74,.36,5.18-8.63,10.46-17.2,15.86-25.7,4.18-6.58,8.62-13.01,12.58-19.73,5.01-8.5,8.91-17.63,10.99-27.3,.8-3.69,1.41-7.55,.86-11.31-.44-3.05-1.83-5.82-3.74-8.22-5.89-7.42-16.44-10.64-25.56-8.63-1.88,.42-1.09,3.31,.8,2.89Z"/></g></g><g><path d="M480.08,535.15c4.27-10.56,8.22-21.27,11.57-32.16,2.6-8.45,4.61-17.04,6.47-25.68,1.07-4.99,2.39-9.94,1.91-15.09-.5-5.44-2.63-10.53-5.34-15.23-2.97-5.15-6.61-9.86-10.03-14.7-1.57-2.23-3.18-4.49-4.46-6.91-.23-.44-.44-.9-.64-1.35,.15,.35-.08-.2-.19-.47-.13-.33-.25-.66-.38-.99-.8-2.12-1.56-4.26-2.36-6.39-3.93-10.5-8.16-20.88-12.41-31.26-1.71-4.18-3.45-8.36-5.05-12.59-.95-2.51-1.94-5.08-2.46-7.72-.04-.21-.08-.42-.11-.62-.06-.39,.02,.23,0-.01-.01-.09-.02-.19-.03-.28-.03-.4-.04-.79-.03-1.19s-.01-.03,0-.11c.03-.13,.06-.26,.09-.39,.05-.22,.15-.38,0-.06,.07-.15,.15-.29,.25-.43-.29,.39,.17-.15,.38-.27,.62-.34,1.46-.29,2.14-.22,1.89,.21,3.77,1,5.47,1.81,2.81,1.34,5.43,2.94,7.55,5.24,3.73,4.05,6.61,8.96,9.76,13.46,2.37,3.38,4.72,6.78,7.3,10.01,.9,1.12,1.96,2.62,3.39,3.11,1.99,.68,3.73-1.03,4.6-2.66,2.2-4.13,2.59-9.34,3.11-13.9,1.33-11.79,1.81-23.69,2.15-35.54,.29-10.2,.39-20.4,.43-30.61,.02-5.22-.16-10.64,.91-15.78,.75-3.59,2.42-6.99,6.68-6.62,10.65,.93,9.51,15.02,9.38,22.58-.2,11.57-.21,23.15-.18,34.73,0,3.39,.02,6.77,.03,10.16,0,1.61,.01,3.22,.02,4.83,0,.9,0,1.81,.01,2.71,0,.64-.11,1.4,.04,2.03,.63,2.73,4.28,2.61,5.91,1.01,.83-.81,1.35-1.88,1.69-2.98,.57-1.88,1.02-3.82,1.51-5.72,3.04-11.73,5.74-23.54,8.11-35.42,1.17-5.84,2.28-11.7,3.23-17.58,.59-3.65,1.12-7.34,2.14-10.9,1.17-4.08,3.28-8.27,8-8.71,10.13-.95,6.09,15.03,5.28,20.68-1.34,9.39-2.55,18.79-3.65,28.21-.98,8.43-1.93,16.88-2.42,25.35-.14,2.44-.32,4.92-.12,7.36,.13,1.57,.87,4.33,3.1,2.99,1.09-.65,1.8-2,2.42-3.06,1.14-1.94,2.11-3.98,3.03-6.03,2.65-5.91,4.74-12.02,6.6-18.22,2.68-8.98,5.36-17.96,7.91-26.98,.73-2.57,1.5-5.14,2.1-7.74,.38-1.63,.67-3.27,1.27-4.84,.73-1.92,1.95-3.88,4.11-4.3,2.47-.48,5.36,.8,6.45,3.12,1.41,3.02,.34,6.9-.23,10.03-.62,3.45-1.32,6.88-2.04,10.31-1.75,8.34-3.64,16.65-5.47,24.98-1.64,7.44-3.31,14.88-4.64,22.38-.43,2.43-.86,4.88-1.05,7.35-.1,1.27-.3,3.25,1.01,4.01,1.97,1.15,3.82-1.86,4.74-3.13,1.13-1.55,2.21-3.14,3.23-4.76,1.98-3.13,3.65-6.46,5.19-9.83,1.33-2.91,2.56-5.87,3.71-8.86,.83-2.17,1.57-4.38,2.6-6.46,1.24-2.5,2.56-5.27,4.41-7.39,.59-.67,1.28-1.37,2.18-1.57,1.28-.29,2.61,.53,3.48,1.39,2.46,2.42,1.86,5.92,1.05,8.94-.92,3.46-2.02,6.89-3.04,10.33-2.07,6.93-4.18,13.85-6.33,20.75-2.15,6.9-4.36,13.79-6.62,20.66-2.12,6.43-4.19,12.88-6.64,19.19-3.95,10.21-8.89,20.27-14.88,29.44-2.71,4.15-5.49,8.26-8.3,12.33-.69,1-1.33,1.99-1.83,3.11-1.67,3.71-2.51,7.76-3.19,11.75-1.24,7.36-1.82,14.82-2.23,22.27-.63,11.54-.76,23.11-.72,34.67l1.5-1.5c-19.43,.28-38.85-.09-58.28-.1-5.24,0-10.48,.02-15.72,.1-1.93,.03-1.93,3.03,0,3,19.43-.28,38.85,.09,58.28,.1,5.24,0,10.48-.02,15.72-.1,.81-.01,1.5-.68,1.5-1.5-.04-11.99,.1-23.98,.8-35.95,.42-7.11,.98-14.25,2.24-21.27,.4-2.22,.87-4.43,1.51-6.59,.24-.83,.51-1.65,.82-2.45,.06-.16,.12-.32,.19-.47,.16-.41,.03-.08,.07-.18,.14-.33,.29-.65,.45-.97,.69-1.38,1.65-2.61,2.52-3.88,3.08-4.52,6.23-9.02,9.07-13.68,5.81-9.53,10.67-19.81,14.51-30.3,4.95-13.53,9.2-27.35,13.45-41.11,2.14-6.91,4.23-13.83,6.28-20.77,1.68-5.67,5.01-13.44-.32-18.19-1.94-1.73-4.64-2.69-7.12-1.54-2.34,1.09-3.84,3.55-5.08,5.7-1.31,2.26-2.54,4.56-3.51,6.98-1.07,2.65-2.01,5.34-3.1,7.99-1.79,4.37-3.79,8.68-6.17,12.76-.51,.88-1.05,1.74-1.61,2.59-.79,1.18-1.58,2.37-2.41,3.52-.36,.51-.73,1.02-1.14,1.49-.17,.2-.44,.41-.58,.63-.35,.56-.6-.51,.84,.26,.2,.11,.71,.87,.44,.42-.17-.29,0,.1,0,.03,0-.15-.02-.31-.02-.46-.02-.83,.07-1.67,.16-2.49,.26-2.37,.77-5.18,1.26-7.78,3.04-16.07,7.01-31.95,10.3-47.97,.66-3.22,1.3-6.45,1.84-9.7,.66-4,1.26-8.53-1.71-11.81-3.57-3.95-10.09-3.84-13.2,.51-1.65,2.31-2.22,5.12-2.83,7.83-.47,2.11-1.1,4.2-1.68,6.28-2.27,8.1-4.66,16.17-7.06,24.23-1.93,6.49-3.86,12.96-6.45,19.22-1,2.41-2.08,4.8-3.3,7.11-.67,1.26-1.55,2.63-2.25,3.57-.21,.28-.02-.01,.2-.06,.69-.17,1.04,.17,1.38,.54-.22-.25,.08,.35,.01,.04-.03-.13-.06-.27-.1-.4-.11-.43,0,.06-.02-.12s-.03-.34-.05-.52c-.04-.51-.05-1.02-.06-1.54-.03-2.92,.17-5.85,.39-8.76,1.33-18.09,3.73-36.15,6.39-54.08,.6-4.05,1.25-8.14,.58-12.23-.34-2.09-1.15-4.23-2.7-5.73-1.98-1.9-4.81-2.44-7.46-2.08-9.79,1.36-10.98,13.62-12.21,21.37-2.72,17.16-6.51,34.19-10.8,51.01-.4,1.57-.81,3.14-1.22,4.7-.38,1.46-.57,3.53-1.56,4.74-.15,.18-.38,.45-.61,.52-.09,.03-.38,.01-.43,.05l-.15-.05c.08,.43,.11,.49,.11,.18,.05-.17,0-.43,0-.6,0-1.96-.02-3.92-.03-5.89-.03-6.66-.05-13.33-.05-19.99,0-10.85,.22-21.7,.29-32.55,.03-4.49-.29-9.2-2.26-13.31-2.21-4.6-7.34-7.8-12.52-6.9-3.94,.68-6.07,4.03-7.01,7.65-1.26,4.86-1.2,10.08-1.25,15.06-.19,22.24-.17,44.54-2.39,66.7-.28,2.78-.61,5.57-1.13,8.31-.38,2.01-.79,4.17-1.73,6-.23,.45-.66,1.08-.84,1.24-.28,.23-.18,0-.42,.2-.22,.2,.4,.02,.04-.01-.27-.02,.49,.02,.03-.02,.26,.02,.23-.03,.1,.03-.04,.02-.26-.17-.29-.2,.49,.32-.18-.18-.31-.31-.31-.31-.6-.64-.89-.98-.82-.96-1.59-1.98-2.34-2.99-3.25-4.37-6.33-8.87-9.43-13.35-2.61-3.77-5.17-7.8-8.87-10.61-2.61-1.99-5.74-3.55-8.84-4.59-2.75-.93-6.84-1.61-8.66,1.32-.89,1.43-.76,3.2-.5,4.78,.42,2.52,1.34,4.96,2.22,7.34,1.53,4.13,3.22,8.19,4.89,12.27,4.32,10.57,8.64,21.14,12.66,31.82,1.28,3.4,2.32,7,3.96,10.26,1.02,2.03,2.33,3.92,3.62,5.78,3.39,4.92,7.09,9.63,10.2,14.74,2.8,4.6,5.25,9.67,5.76,15.11,.47,5.1-.89,10-1.95,14.94-1.86,8.68-3.93,17.32-6.56,25.8-3.3,10.62-7.16,21.08-11.33,31.39-.72,1.79,2.18,2.57,2.89,.8Z"/><g><path class="cls-1" d="M525.69,381.34c-9.02-2.21-19.35,2.4-22.89,9.91-1.28,2.72-1.89,6.28,.02,14.48,3.09,13.28,8.92,22.21,14.3,30.74,4.28,6.78,10.64,17.07,18.3,30.29l.12-.38c9.97-11.59,18.11-20.52,23.57-26.4,6.86-7.4,14.24-15.1,19.72-27.58,3.39-7.71,3.44-11.32,2.68-14.23-2.07-7.93-11.18-14.73-20.67-13.96-9.92,.81-18.43,9.75-18.95,21.19,.69-11.63-6.49-21.68-16.2-24.06Z"/><path d="M526.09,379.89c-7.19-1.69-15.14,.34-20.61,5.33-2.17,1.98-3.95,4.53-4.79,7.36s-.66,5.68-.27,8.48c1.15,8.42,4.2,16.6,8.18,24.08,3.21,6.04,7.04,11.74,10.65,17.55,5.09,8.2,10.05,16.48,14.89,24.83,.66,1.15,2.36,.85,2.74-.36,.05-.17,.26-.39,.06-.1,.18-.26,.44-.52,.64-.75,.53-.61,1.06-1.23,1.59-1.84,1.07-1.24,2.15-2.47,3.23-3.7,1.89-2.16,3.8-4.31,5.71-6.46,3.17-3.56,6.37-7.09,9.6-10.6,6.51-7.07,13.19-14,18.16-22.29,2.88-4.81,5.54-10.1,6.91-15.56,.84-3.37,.88-6.73-.44-9.97-3.65-9.02-13.98-14.57-23.51-12.92-10.7,1.85-17.87,12-18.43,22.43h3c.58-11.18-6.05-22.64-17.3-25.5-1.87-.48-2.67,2.42-.8,2.89,10.01,2.55,15.61,12.73,15.1,22.61-.1,1.93,2.9,1.92,3,0,.46-8.56,5.99-16.81,14.48-19.14,8.48-2.33,18.78,2.64,21.8,11.05,1.02,2.85,.81,5.62-.01,8.54-1.47,5.2-4.01,10.19-6.83,14.77-4.73,7.69-10.97,14.15-17.06,20.75-3.34,3.63-6.66,7.29-9.94,10.97-2.07,2.32-4.13,4.65-6.18,7-1.09,1.24-2.17,2.49-3.26,3.74-.87,1-2.03,1.99-2.43,3.28l2.74-.36c-4.19-7.22-8.47-14.4-12.84-21.51-3.3-5.38-6.77-10.66-10-16.08-3.98-6.69-7.23-13.73-9.18-21.29-1.41-5.47-2.89-11.81,.34-16.81,4.15-6.42,12.99-9.22,20.25-7.52,1.88,.44,2.68-2.45,.8-2.89Z"/></g></g><g><path d="M373.68,336.4c1.3-10.62,2.47-21.28,3.29-31.95,.22-2.92,.18-5.3-.64-8.16-1.51-5.33-4.36-10.16-7.45-14.71-3.51-5.19-7.34-10.15-10.69-15.45-.71-1.12-1.42-2.26-1.99-3.46-.1-.21-.19-.42-.28-.63-.16-.35,.13,.32-.02-.05-.06-.15-.12-.29-.18-.44-.26-.65-.5-1.3-.74-1.95-.83-2.26-1.66-4.52-2.51-6.78-3.93-10.44-8.13-20.78-12.36-31.1-1.73-4.22-3.48-8.44-5.13-12.7-1.05-2.7-2.1-5.42-2.84-8.22-.13-.48-.24-.97-.34-1.45-.04-.23-.08-.45-.12-.68-.01-.07-.04-.3,0,.05-.02-.15-.04-.3-.05-.44-.02-.33-.02-.66-.02-1,0-.13,.09-.64,0-.13,.03-.16,.06-.32,.1-.47,.03-.12,.08-.24,.12-.36-.18,.48-.03,.09,.04-.03,.12-.21,.22-.28,0-.04,.09-.1,.18-.22,.29-.3,1.19-.84,2.96-.42,4.25-.07,2.91,.79,5.71,2.21,8.25,3.84,3.42,2.2,5.8,5.52,8.1,8.8,3.32,4.73,6.57,9.51,9.95,14.2,1.62,2.24,3.22,4.57,5.12,6.6,.78,.83,1.72,1.71,2.92,1.76,2.69,.11,4.1-2.88,4.86-5,1.68-4.68,2.12-9.88,2.61-14.79,.57-5.75,.98-11.53,1.3-17.3,.62-11.18,.9-22.38,1.06-33.58,.06-4.22,.1-8.43,.11-12.65,.02-5.6-.1-11.25,.44-16.83,.3-3.09,.75-7.27,3.29-9.43,3.63-3.09,9.5-.16,11.68,3.32,2.31,3.69,2.66,8.34,2.7,12.58,.05,4.47-.14,8.95-.19,13.43-.13,11.66-.12,23.33-.08,34.99,.01,3.3,.02,6.6,.04,9.9,0,1.67-.01,3.34,.02,5.01,.02,1.11,.56,2.02,1.56,2.55,2.3,1.21,4.69-.38,5.75-2.46,.61-1.21,.87-2.56,1.21-3.86,.48-1.81,.95-3.61,1.41-5.42,2.93-11.44,5.55-22.96,7.89-34.54,1.25-6.19,2.43-12.4,3.45-18.63,.41-2.51,.78-5.04,1.27-7.54,.81-4.12,1.77-9.24,5.13-12.13s9.14-2.57,10.8,1.89c1.35,3.63,.82,7.89,.27,11.64-1.26,8.55-2.44,17.11-3.52,25.68-1.14,9.04-2.19,18.09-3.03,27.16-.33,3.61-.64,7.22-.83,10.84-.12,2.31-.27,4.66-.07,6.97,.13,1.51,.65,4.02,2.82,3.17,1.05-.41,1.75-1.59,2.33-2.49,1.02-1.6,1.88-3.31,2.7-5.02,5.25-10.98,8.39-22.77,11.82-34.4,1.86-6.33,3.72-12.66,5.48-19.01,.43-1.55,.88-3.11,1.23-4.69,.65-2.89,1.18-6.49,3.63-8.47,1.84-1.48,4.54-1.25,6.5-.13,2.22,1.26,3.05,3.53,3.08,5.98,.04,2.92-.68,5.92-1.22,8.78-.65,3.48-1.37,6.94-2.1,10.4-3.29,15.55-7.1,31.01-10.02,46.64-.49,2.62-.95,5.25-1.28,7.89-.18,1.45-.49,3.17-.1,4.62,.24,.88,.88,1.61,1.87,1.6,2.02-.02,3.64-3.05,4.62-4.45,1.75-2.5,3.4-5.03,4.86-7.71,2.42-4.42,4.46-9.05,6.33-13.73,1-2.49,1.85-5.05,2.9-7.51s2.33-4.73,3.69-6.95c.96-1.57,2.38-4.04,4.47-4.15,2.8-.14,4.97,3.02,5.15,5.51,.24,3.34-1.04,6.65-1.97,9.8-1,3.39-2.01,6.77-3.03,10.15-4.04,13.44-8.22,26.85-12.62,40.18-3.52,10.68-7.1,21.25-11.88,31.44-2.6,5.55-5.44,11-8.61,16.25-2.84,4.68-5.98,9.19-9.05,13.72-1.37,2.01-2.85,3.97-4,6.11-1.41,2.63-2.46,5.45-3.3,8.31-2.8,9.5-3.56,19.61-3.89,29.47l1.5-1.5c-15.86-.2-31.69-1.86-47.24-5-4.02-.81-8.01-1.72-11.99-2.72-1.87-.47-2.67,2.42-.8,2.89,15.38,3.87,31.12,6.34,46.95,7.34,4.35,.27,8.71,.44,13.07,.49,.83,.01,1.47-.7,1.5-1.5,.34-10.02,1.09-20.34,4.17-29.95,.84-2.61,1.88-5.16,3.29-7.51,1.49-2.48,3.26-4.82,4.88-7.22,3.2-4.73,6.42-9.45,9.26-14.41s5.65-10.55,8.11-16c4.87-10.75,8.49-21.95,12.14-33.16,4.38-13.42,8.55-26.91,12.59-40.44,.98-3.28,1.99-6.56,2.91-9.86,.85-3.05,1.61-6.61,.43-9.68-.94-2.44-3.01-4.51-5.49-5.36-2.33-.8-4.62-.03-6.36,1.61-1.93,1.82-3.22,4.32-4.47,6.63-1.15,2.12-2.17,4.27-3.03,6.53-2.03,5.34-4.11,10.64-6.67,15.76-1.27,2.54-2.64,5.05-4.21,7.43-1.3,1.97-2.57,4.09-4.18,5.82-.05,.06-.52,.44-.52,.51,0-.56,.91-.04,1.18,.15,.05,.03,.48,.44,.25,.24,.1,.09,.18,.42,.06,.1-.12-.34,0,0-.01-.02-.09-1.63,.16-3.45,.35-4.8,.42-2.87,.95-5.72,1.51-8.56,1.52-7.75,3.24-15.46,4.95-23.16s3.59-16.07,5.26-24.13c.67-3.25,1.33-6.5,1.9-9.76,.6-3.41,1.42-7.07,.41-10.48-1.47-4.98-7.44-7.95-12.29-5.84-4.08,1.78-5.43,6.6-6.26,10.58-.28,1.32-.64,2.62-.99,3.93-1.54,5.67-3.19,11.32-4.85,16.96-3.39,11.56-6.41,23.36-11.3,34.39-.94,2.11-1.93,4.21-3.07,6.22-.36,.63-.72,1.25-1.13,1.85-.18,.27-.24,.35-.33,.46-.08,.09-.16,.19-.25,.28-.27,.3,0,.01,.01,.02,.05,.11-.66,.08,.12-.03,.46-.06,.74-.03,1.08,.23,.05,.04,.48,.43,.23,.21,.25,.22,.08,.35,.04,.05-.02-.14-.06-.28-.09-.42-.09-.4,.02,.32-.02-.13-.02-.17-.03-.35-.05-.52-.03-.49-.05-.98-.05-1.47-.09-6.7,.7-13.45,1.36-20.1,.93-9.34,2.05-18.65,3.26-27.96,.58-4.45,1.18-8.9,1.81-13.34,.53-3.73,1.24-7.47,1.52-11.23,.31-4.09,.17-9.12-2.87-12.26-3.47-3.59-9.68-2.97-13.34-.05-3.46,2.76-4.88,7.4-5.83,11.54-.7,3.06-1.16,6.16-1.66,9.26-2.82,17.35-6.6,34.57-10.9,51.6-.83,3.3-1.6,6.65-2.58,9.91-.32,1.05-.79,1.89-1.88,2.12-.27,.06-.17,.33-.11-.06,.15-.92-.01-2.03-.01-2.96-.03-6.64-.06-13.28-.07-19.91-.02-11.15,0-22.29,.19-33.44,.14-8.07,1.14-18.99-6.16-24.48-3.76-2.83-9.71-3.78-13.39-.33-2.68,2.51-3.43,6.52-3.87,10-.69,5.43-.58,10.96-.6,16.42-.01,4.36-.04,8.72-.1,13.08-.15,11.26-.41,22.53-1.01,33.78-.31,5.76-.71,11.51-1.24,17.25-.47,4.99-.9,10.22-2.53,14.98-.26,.75-.56,1.48-.99,2.15-.15,.23-.24,.35-.43,.55-.07,.08-.15,.15-.23,.22,.24-.2-.42,.28-.09,.06-.25,.16-.67,.02-.1,.06-.05,0-.11,0-.16,0-.18,0,.47-.09-.01-.04,.1-.01,.44,.08,.1,.02-.08-.02-.18-.12-.25-.17,.46,.3-.21-.2-.36-.35-.62-.61-1.17-1.29-1.72-1.97-2.43-3.03-4.65-6.27-6.88-9.45-3.3-4.7-6.37-9.64-10.04-14.06-2.08-2.51-4.54-4.49-7.39-6.06-3.14-1.73-6.95-3.66-10.63-3.51-2.24,.09-4.28,1.25-4.84,3.5-.43,1.71-.05,3.57,.36,5.24,.7,2.81,1.75,5.53,2.79,8.22,1.64,4.26,3.39,8.48,5.12,12.7,4.24,10.37,8.47,20.75,12.42,31.24,1.33,3.54,2.46,7.22,4.06,10.66,.45,.97,1,1.88,1.56,2.79,3.31,5.37,7.15,10.37,10.72,15.56,3.15,4.6,6.16,9.44,7.66,14.86,.17,.61,.32,1.23,.45,1.85,.08,.37,.16,.75,.22,1.13,0,0-.05-.44-.03-.21,.03,.36,.03,.72,.03,1.08-.02,1.34-.13,2.69-.24,4.03-.85,10.43-1.96,20.86-3.23,31.24-.23,1.91,2.77,1.89,3,0Z"/><g><path class="cls-4" d="M404.48,216.98c-9.49-2.32-20.36,2.53-24.08,10.43-1.35,2.87-1.99,6.61,.02,15.24,3.25,13.97,9.39,23.37,15.05,32.35,4.5,7.14,11.19,17.96,19.26,31.87l.13-.4c10.49-12.19,19.06-21.6,24.8-27.78,7.22-7.79,14.98-15.89,20.75-29.02,3.56-8.12,3.62-11.91,2.82-14.98-2.18-8.34-11.76-15.5-21.75-14.69-10.44,.85-19.39,10.26-19.94,22.29,.73-12.24-6.83-22.81-17.05-25.31Z"/><path d="M404.88,215.53c-7.53-1.77-15.88,.35-21.6,5.58-2.27,2.07-4.13,4.73-5.02,7.7-.85,2.85-.7,5.89-.31,8.8,1.2,8.93,4.44,17.6,8.66,25.52,3.41,6.4,7.47,12.43,11.29,18.59,5.31,8.56,10.48,17.2,15.53,25.91,.66,1.15,2.36,.85,2.74-.36,.05-.16,.27-.42,.06-.12,.22-.33,.54-.63,.8-.93,.53-.61,1.06-1.22,1.58-1.83,1.12-1.29,2.25-2.58,3.37-3.87,2.03-2.32,4.07-4.62,6.12-6.92,3.28-3.68,6.59-7.34,9.93-10.97,6.88-7.48,13.95-14.8,19.2-23.58,2.98-4.99,5.71-10.45,7.17-16.1,.91-3.54,1-7.1-.37-10.53-3.81-9.53-14.71-15.4-24.75-13.62-11.18,1.98-18.68,12.59-19.26,23.51h3c.61-11.72-6.34-23.76-18.15-26.76-1.87-.48-2.67,2.42-.8,2.89,10.57,2.68,16.49,13.44,15.95,23.87-.1,1.93,2.9,1.92,3,0,.48-9.05,6.34-17.77,15.32-20.23s19.59,2.72,22.92,11.45c1.18,3.08,.98,6.08,.08,9.25-1.53,5.44-4.18,10.66-7.13,15.47-4.98,8.13-11.57,14.96-18,21.93-3.53,3.84-7.04,7.71-10.51,11.6-2.11,2.37-4.21,4.75-6.3,7.13-1.13,1.3-2.27,2.6-3.39,3.9-.96,1.11-2.31,2.23-2.75,3.66l2.74-.36c-4.4-7.58-8.89-15.12-13.48-22.58-3.51-5.71-7.2-11.33-10.62-17.09-4.21-7.1-7.64-14.58-9.68-22.61-1.47-5.8-2.93-12.39,.57-17.64,4.43-6.65,13.67-9.55,21.27-7.76,1.88,.44,2.68-2.45,.8-2.89Z"/></g><g><path class="cls-5" d="M350.58,352.81c-.25-7.56-.53-15.05-.86-22.47,14.66,4.47,32.36,8.72,52.64,11.34,19.14,2.47,36.39,2.94,51.06,2.49-3.56,8.84-7.06,18.35-10.37,28.52-3.85,11.82-6.97,23.11-9.51,33.7-1.61,6.71-5.3,23.17-9.49,60.92-1.91,17.22-2.98,41.37-4.41,67.43-15,.33-28-.33-43,0s-33-.33-48,0c6.71-23.81,12.38-50.55,16.78-80.67,3.26-22.26,5.11-43.16,6.02-62.37-.15-12.77-.44-25.73-.86-38.89Z"/><path d="M352.08,352.81c-.24-7.49-.53-14.98-.86-22.47-.63,.48-1.27,.96-1.9,1.45,26.73,8.13,54.51,12.8,82.44,13.82,7.22,.26,14.44,.28,21.66,.06-.48-.63-.96-1.27-1.45-1.9-6.03,14.98-11.25,30.28-15.61,45.83-2.31,8.22-4.44,16.49-6.13,24.86-1.79,8.9-3.2,17.87-4.45,26.86-1.9,13.62-3.56,27.29-4.59,41.01-1.16,15.31-1.88,30.65-2.7,45.98-.11,2.14-.23,4.29-.35,6.43l1.5-1.5c-12.23,.26-24.45-.16-36.68-.09-11.7,.07-23.38,.15-35.08,.04-6.41-.06-12.83-.09-19.24,.05,.48,.63,.96,1.27,1.45,1.9,6.18-21.96,10.92-44.32,14.63-66.83,3.97-24.1,6.73-48.38,8.04-72.78,.37-6.96,.06-13.96-.09-20.92-.15-7.27-.35-14.54-.58-21.8-.06-1.93-3.06-1.93-3,0,.41,12.79,.89,25.61,.86,38.4-.01,5.65-.58,11.35-.99,16.98-.43,5.91-.95,11.81-1.54,17.7-2.47,24.39-6.32,48.66-11.41,72.64-2.56,12.03-5.47,23.98-8.8,35.81-.26,.92,.47,1.92,1.45,1.9,11.54-.25,23.08,.04,34.61,.09,11.86,.05,23.72-.22,35.58-.08,6.94,.08,13.87,.14,20.81,0,.84-.02,1.45-.67,1.5-1.5,.86-15.67,1.59-31.34,2.66-47,.95-13.84,2.46-27.61,4.29-41.36,1.29-9.68,2.74-19.34,4.6-28.92,1.4-7.23,3.14-14.38,5.04-21.49,4.16-15.6,9.17-30.97,15.01-46.02,.7-1.8,1.41-3.59,2.13-5.39,.36-.9-.56-1.93-1.45-1.9-27.9,.84-55.87-1.93-83.05-8.31-6.81-1.6-13.56-3.42-20.25-5.46-.9-.28-1.94,.49-1.9,1.45,.33,7.49,.62,14.98,.86,22.47,.06,1.93,3.06,1.93,3,0Z"/></g></g></svg>