<svg xmlns="http://www.w3.org/2000/svg" viewBox="0 0 579.51 338.23">
  <path d="M497.96 336.81c-1.91-27.71-4.23-70.92-5.56-99.79-1.33-28.87-2.31-57.21-2.96-84.99 5.98-.96 11.2-1.71 15.44-2.28 10.12-1.37 17.98-2.18 21.41-2.52 5.71-.57 10.63-.97 14.49-1.26l3.78-.63c.13 1.08.34 2.86.63 5.04 1.97 15.04 4.11 24.51 6.8 40.1 1.32 7.69 2.45 14.17 3.34 19.23 2.8 16.05 12.15 64.61 23.25 127.1-25.77 1.07-56.05 0-80.62 0Z" fill="#c8dea4"/>
  <path d="M498.91 336.81c-1.51-21.88-2.72-43.79-3.87-65.69-1.28-24.36-2.42-48.72-3.29-73.09-.55-15.33-1-30.66-1.36-45.99l-.69.91c14.07-2.25 28.22-4.05 42.41-5.31 4.27-.38 8.49-.67 12.71-1.38l-1.2-.91c1.73 14.44 4.53 28.66 7.04 42.98 1.77 10.06 3.45 20.13 5.29 30.18 1.64 8.96 3.32 17.92 4.98 26.88 2.37 12.73 4.73 25.45 7.06 38.18 2.88 15.71 5.73 31.43 8.53 47.15.38 2.12.75 4.23 1.13 6.35l.91-1.2c-21.22.87-42.47.37-63.7.12-5.64-.07-11.28-.12-16.92-.12-1.22 0-1.22 1.89 0 1.89 21.03 0 42.05.65 63.08.43 5.85-.06 11.69-.19 17.54-.43.66-.03 1.02-.58.91-1.2-2.84-15.97-5.72-31.93-8.64-47.89-2.4-13.1-4.82-26.21-7.25-39.3-1.77-9.51-3.54-19.01-5.3-28.52-1.6-8.69-3.11-17.39-4.62-26.1-2.58-14.93-5.65-29.79-7.6-44.82-.2-1.52-.39-3.05-.57-4.58-.08-.65-.54-1.02-1.2-.91-6.89 1.15-13.92 1.42-20.87 2.15s-13.86 1.57-20.77 2.53c-4.5.62-9 1.3-13.49 2.01-.4.06-.7.53-.69.91.65 27.59 1.6 55.18 2.85 82.75 1.02 22.31 2.19 44.61 3.47 66.9.68 11.71 1.38 23.42 2.19 35.13.08 1.21 1.97 1.22 1.89 0Z"/>
  <path d="M526.12 63.91c-.7 1.45-1.81-1.46-1.92-1.94-.32-1.43-.62-2.87-.92-4.31-.57-2.75-1.12-5.5-1.65-8.25-.92-4.83-1.78-9.67-2.56-14.52-.92-5.67-1.75-11.37-2.42-17.08-.28-2.37-.51-4.74-.92-7.09-.59-3.38-1.57-7.25-4.55-9.33s-7.75-1.95-9.83 1.4c-1.76 2.85-1.58 6.69-1.29 9.89 1.33 14.52 2.78 29.06 3.19 43.64.07 2.37.13 4.75-.01 7.11-.04.7-.13 1.15-.22 1.77-.05.34-.11.05.18-.07l.58-.07.11.04s0 .11-.04-.06c-.04-.13-.28-.37-.35-.48-2.09-3.16-3.3-7.1-4.47-10.66-1.69-5.16-2.9-10.46-4.19-15.73-1.75-7.1-3.68-14.2-4.96-21.4-.62-3.51-2.2-7.36-6.28-7.59-4.3-.24-7.04 3.23-7.1 7.27-.04 2.42.44 4.9.78 7.28.44 3.03.93 6.06 1.43 9.08 1.16 6.94 2.4 13.86 3.57 20.8.91 5.37 1.9 10.78 2.36 16.22.06.75.12 1.51.11 2.27 0 .24-.03.48-.04.73.02-.3-.03.07-.03.09.05.21-.09-.02 0 .02-.02-.01.11-.14.17-.18.32-.19.65.11.57-.22-.07-.29-.58-.69-.76-.95-.77-1.09-1.45-2.24-2.14-3.38-.42-.7-.82-1.4-1.2-2.12-1.86-3.51-3.33-7.21-4.64-10.95-1.48-4.23-2.7-8.45-5.03-12.32-.9-1.49-2.11-3.1-3.93-3.46-1.94-.38-3.91.77-5.11 2.23-1.5 1.81-1.65 4.13-1.34 6.38.39 2.83 1.25 5.62 1.94 8.39 2.82 11.35 5.75 22.66 8.89 33.92 2.28 8.15 4.58 16.23 8.02 23.98 3.66 8.26 6.83 16.65 9.76 25.2 1.34 3.91 2.64 7.82 3.9 11.75.12.36.49.74.91.69 15.37-1.67 30.74-3.33 46.11-5 .48-.05.98-.39.94-.94-.38-6.04.9-12.05 4.1-17.22s7.53-9.38 10.99-14.29c2.01-2.86 3.19-6 4.56-9.2 4.46-10.43 9.44-20.62 14.01-31 1.3-2.95 2.85-6.07 3.35-9.28.39-2.5-.63-4.18-3.38-4.2-5.38-.04-10.59 3.15-14.1 7-2.6 2.85-4.44 6.15-6.53 9.36-1.31 2.03-2.68 4.06-4.31 5.85-.62.68-2.31 2.76-3.43 2.11-.54-.31-.83-1.25-1.02-1.79-.37-1.1-.6-2.25-.78-3.39-.47-2.94-.62-5.94-.75-8.91-.52-11.99-.28-23.99.11-35.98.17-5.19.44-10.38.55-15.57.08-3.94.44-8.82-1.54-12.41-2.32-4.19-8.12-3.65-11.37-.84-3.45 2.99-4.07 8.17-4.26 12.46-.52 11.65-.84 23.3-1.42 34.95-.17 3.49-.35 6.98-.53 10.48-.06 1.22 1.83 1.21 1.89 0 .64-12.54 1.3-25.08 1.72-37.63.15-4.55-.15-9.38 1.05-13.82.6-2.21 1.67-4.45 3.69-5.69s5.11-1.79 6.89.06c1.04 1.08 1.42 2.65 1.66 4.08.4 2.37.38 4.82.35 7.21-.06 5.01-.34 10.01-.51 15.01-.4 11.57-.64 23.16-.28 34.74.09 2.98.21 5.96.5 8.93.22 2.27.46 4.63 1.2 6.8.45 1.32 1.18 2.91 2.68 3.25s2.95-.8 3.97-1.76c6.35-5.93 8.59-15.34 16.28-20.02 2.25-1.37 5.04-2.42 7.69-2.59.68-.04 1.42-.07 2.01.31 0 0 .16.31.16.39.28 2.35-1.16 5.11-2.02 7.2-4.27 10.38-9.39 20.42-13.88 30.71-1.09 2.5-2.17 5.09-3.23 7.56-.44 1.03-.91 2.04-1.51 2.99-2.57 4.05-5.83 7.6-8.81 11.35-3.48 4.38-6.17 9.1-7.19 14.66-.49 2.68-.64 5.4-.47 8.12l.94-.94c-15.37 1.67-30.74 3.33-46.11 5l.91.69c-2.94-9.15-5.97-18.31-9.5-27.25-2.49-6.31-5.57-12.36-7.76-18.79-3.56-10.45-6.23-21.27-9.02-31.95-1.47-5.62-2.89-11.24-4.29-16.88-.7-2.81-1.67-5.7-1.96-8.59-.25-2.48.57-5.46 3.4-6.03 2.21-.45 3.51 2.37 4.33 3.95.95 1.83 1.82 3.69 2.47 5.65 1.45 4.37 2.92 8.72 4.82 12.93 1.06 2.34 2.28 4.56 3.63 6.75.69 1.12 1.83 3.66 3.32 3.96.74.15 1.26-.33 1.47-.99.37-1.18.13-2.67.03-3.87-.21-2.39-.55-4.77-.91-7.15-.97-6.56-2.14-13.1-3.27-19.63s-2.27-12.89-3.2-19.36c-.34-2.38-.84-4.88-.74-7.3.09-2.25 1.14-4.22 3.41-4.88 2.11-.62 4.02.14 5.06 2.07 1.12 2.06 1.25 4.58 1.75 6.86.99 4.53 2.09 9.04 3.19 13.54 2.32 9.51 4.31 19.22 8.26 28.22.5 1.13 1.93 5.46 3.83 4.89 1.21-.36 1.16-2.4 1.22-3.37.36-5.69-.11-11.49-.44-17.17-.46-7.8-1.06-15.6-1.75-23.38-.29-3.28-.62-6.56-.94-9.84-.3-3.04-.77-7.29 1.31-9.84 1.46-1.79 4.23-1.7 6.14-.73 1.48.75 2.45 2.11 3.1 3.61 1.45 3.35 1.72 7.22 2.12 10.8 1.56 13.99 4 27.92 6.9 41.68.44 2.07.53 4.99 2.12 6.58 1.15 1.15 3.29 1.28 4.08-.36.52-1.09-1.11-2.05-1.63-.95Z"/>
  <path d="M523.2 75.84c6.99-1.37 14.74 2.53 17.18 8.41.89 2.13 1.23 4.88-.53 11.09-2.84 10.06-7.62 16.69-12.05 23.04-3.52 5.04-8.76 12.69-15.1 22.55l-.08-.3a737.677 737.677 0 0 0-17.11-21.06c-4.99-5.91-10.37-12.07-14.13-21.83-2.32-6.03-2.23-8.79-1.55-11 1.87-6 9.09-10.89 16.33-9.96 7.57.97 13.77 8.12 13.76 16.9-.11-8.94 5.74-16.38 13.27-17.85Z" fill="#ff7556"/>
  <path d="M523.45 76.75c5.24-.96 11.11 1.06 14.49 5.23 3.06 3.78 2.33 8.24 1.14 12.63-1.61 5.89-4.22 11.38-7.49 16.52-2.58 4.06-5.44 7.94-8.15 11.91a770.46 770.46 0 0 0-11.54 17.4l1.73.23c-.19-.74-.76-1.28-1.23-1.87-.73-.93-1.47-1.87-2.21-2.8-1.28-1.62-2.57-3.23-3.87-4.84a670.11 670.11 0 0 0-6.74-8.23c-4.22-5.08-8.72-9.99-12.27-15.58-2.23-3.52-4.1-7.27-5.49-11.21-.9-2.55-1.84-5.45-1.3-8.19 1.31-6.7 9.07-11.06 15.52-10.25 7.8.97 12.9 8.49 12.97 15.98.01 1.22 1.89 1.22 1.89 0-.03-7.71 4.72-15.31 12.57-16.94 1.19-.25.69-2.07-.5-1.82-8.66 1.8-13.99 10.27-13.96 18.76h1.89c-.07-7.04-3.97-13.94-10.6-16.75s-15.09-.23-19.42 5.72c-1.59 2.18-2.53 4.79-2.38 7.5.21 3.81 1.76 7.56 3.31 10.99 3.27 7.26 8.21 13.34 13.3 19.38a685.716 685.716 0 0 1 11.91 14.5c.86 1.07 1.71 2.15 2.56 3.23.39.5.79 1 1.18 1.5.31.39.92.93 1.04 1.42.21.82 1.3.89 1.73.23 3.65-5.66 7.36-11.28 11.16-16.84 2.98-4.36 6.13-8.62 8.93-13.1 3.42-5.47 6.12-11.4 7.64-17.69 1.09-4.53 1.31-8.9-1.66-12.75-3.82-4.96-10.55-7.22-16.63-6.11-1.19.22-.69 2.04.5 1.82ZM15.48 316.41c4.3-17.79 8.22-35.68 11.48-53.69 2.82-15.57 5.81-31.06 9.24-46.51 1.93-8.7 3.84-17.4 5.74-26.11 1.19-5.45 2.37-10.9 3.54-16.35.96-4.45 2.47-9.16 2.41-13.74-.12-9.4-7.02-16.84-12.01-24.18-1.74-2.56-2.69-4.53-3.7-7.3-2.85-7.75-5.93-15.41-9.05-23.05-1.45-3.55-2.94-7.1-4.31-10.69-.75-1.98-1.65-4.09-1.92-6.21-.07-.55-.06-1.05.04-1.43 0-.02.18-.33.12-.26.35-.37.75-.49 1.26-.52 2.6-.16 5.61 1.62 7.71 3.04 3.36 2.26 5.5 6.17 7.76 9.42s4.27 6.22 6.61 9.18c.66.83 1.5 2.09 2.6 2.38 1.92.5 3.07-1.79 3.6-3.24 1.46-4.02 1.68-8.6 2.03-12.83.41-4.85.7-9.72.9-14.58.35-8.61.49-17.23.52-25.84.02-4.53-.28-9.32.7-13.77.29-1.33.74-2.82 1.81-3.74 1.71-1.47 4.38-.89 6.11.24 3.29 2.13 3.71 6.77 3.76 10.32.06 3.95-.12 7.9-.15 11.85-.04 4.9-.05 9.8-.04 14.7 0 2.73.01 5.47.02 8.2s-.24 5.64.03 8.37c.15 1.53 1.78 2.24 3.15 1.65 2-.86 2.29-3.55 2.77-5.38 1.4-5.33 2.69-10.68 3.9-16.06 1.56-6.97 2.99-13.98 4.19-21.03.27-1.59.51-3.18.78-4.76.59-3.43 1.19-8.61 4.56-10.55 1.87-1.08 4.76-1.16 6.12.76 1.05 1.48 1.13 3.55 1.08 5.3-.08 3.24-.77 6.48-1.22 9.69-1.09 7.78-2.08 15.58-2.92 23.39-.63 5.8-1.48 11.78-1.29 17.63.03 1 .06 3.22 1.65 2.9.82-.17 1.37-1.15 1.78-1.79.95-1.5 1.71-3.12 2.43-4.74 3.94-8.76 6.3-18.21 8.97-27.42.96-3.29 1.95-6.58 2.78-9.91.16-.64.28-1.28.43-1.92.41-1.71 1.06-3.94 2.78-4.77 2.32-1.12 5.2.49 5.81 2.86.66 2.56-.3 5.7-.79 8.24-.58 3.03-1.22 6.05-1.87 9.06-1.5 6.95-3.09 13.88-4.57 20.83-1.03 4.82-2.34 9.81-2.62 14.75-.06 1.04 0 2.98 1.6 2.58.61-.15 1.09-.76 1.47-1.22.8-.97 1.5-2.02 2.2-3.06.55-.81 1.08-1.63 1.58-2.48 2.02-3.43 3.64-7.09 5.11-10.78.8-2 1.45-4.08 2.41-6.01s2.09-4.68 3.91-6.01c.96-.69 2-.52 2.94.16 1.36.97 1.85 2.43 1.79 4.05-.11 2.94-1.39 5.94-2.22 8.73-1.71 5.73-3.45 11.45-5.23 17.16-1.79 5.71-3.62 11.4-5.51 17.07-1.61 4.83-3.21 9.68-5.28 14.35-3.44 7.78-7.48 15.09-12.44 21.99-4.17 5.79-6.56 12.33-7.33 19.43-.29 2.72-.15 5.43-.3 8.16-.17 3.03-.44 6.05-.67 9.08-.44 6.05-.89 12.1-1.33 18.16-1.77 24.21-3.55 48.42-5.32 72.62l-2.58 35.18.94-.94c-20.46-.58-40.91-1.17-61.37-1.75-1.22-.03-1.22 1.85 0 1.89 20.46.58 40.91 1.17 61.37 1.75.54.02.91-.45.94-.94 1.79-24.4 3.58-48.79 5.36-73.19l2.7-36.88c.44-6.05.89-12.1 1.33-18.16.22-3 .52-6 .51-9.01-.01-2.72.15-5.45.59-8.14.61-3.76 1.71-7.46 3.42-10.87 1.34-2.66 3.09-5.02 4.81-7.43 5.11-7.12 9.1-15.1 12.36-23.22 4.33-10.78 7.6-22.08 11.02-33.17 1.79-5.8 3.56-11.61 5.25-17.43.67-2.32 1.39-5.03.4-7.36-.75-1.78-2.51-3.37-4.48-3.58s-3.3 1.02-4.35 2.44c-1.35 1.82-2.46 3.93-3.37 6-1.83 4.21-3.27 8.55-5.35 12.66-1.28 2.53-2.75 4.91-4.4 7.22-.3.42-.9.95-1.1 1.41-.03.06-.31.26-.31.31-.15-1.21.73.36.8.37.04 0-.01-.03-.01-.15 0-.67.03-1.33.1-2 .6-5.44 1.94-10.84 3.1-16.17 1.53-7.03 3.14-14.04 4.62-21.08.59-2.81 1.17-5.62 1.66-8.45.52-2.99 1.23-6.47-.9-9.02-2.6-3.1-7.51-2.82-9.62.6-.98 1.59-1.32 3.42-1.74 5.21-.57 2.44-1.31 4.86-2 7.27-2.49 8.7-4.74 17.6-8 26.04-.84 2.18-1.76 4.33-2.81 6.41-.14.28-2.02 3.19-1.98 3.26.08.14 1.07.06.93.29.06-.08-.1-.56-.11-.64-.08-.86-.06-1.73-.04-2.6.16-6.62.98-13.25 1.74-19.82.89-7.78 1.89-15.54 3.04-23.28.47-3.19 1.09-6.55.27-9.74-1.02-3.99-4.97-5.66-8.74-4.14-5.7 2.3-6.07 10.43-6.92 15.58-1.03 6.21-2.26 12.4-3.58 18.55-1.12 5.21-2.34 10.41-3.64 15.58-.33 1.33-.67 2.65-1.02 3.98-.3 1.16-.45 3.15-1.32 4.05-.32.34-.73.5-.95.31s0-1.6 0-1.97c0-1.55-.01-3.11-.02-4.66-.04-10.02-.07-20.04.08-30.05.1-6.54 1.19-16.92-6.89-19.28-9.33-2.72-9.12 9.93-9.17 15.65-.08 8.72-.11 17.44-.39 26.16-.16 4.92-.39 9.83-.75 14.74s-.57 9.76-1.75 14.45c-.31 1.24-.66 2.74-1.7 3.57-.12.09-.03.12-.19-.03-.14-.14-.73-.7-1.05-1.08-.81-.95-1.54-1.96-2.28-2.97-2.8-3.84-5.39-7.82-8.2-11.64-1.78-2.42-3.71-4.45-6.35-5.91-2.34-1.3-5.82-3.17-8.56-2.16-1.41.52-2.02 1.81-2 3.25.03 1.87.74 3.76 1.36 5.5 1.16 3.27 2.51 6.47 3.82 9.68 3.36 8.2 6.71 16.41 9.79 24.72.83 2.26 1.57 4.55 2.83 6.61 4.7 7.69 12.51 14.94 13.2 24.41.34 4.61-1.21 9.34-2.18 13.82-1.18 5.47-2.37 10.94-3.56 16.41-3.87 17.76-8.07 35.46-11.51 53.31-2.76 14.36-5.14 28.78-8.16 43.09-2.15 10.17-4.46 20.3-6.9 30.4-.29 1.18 1.54 1.69 1.82.5Z"/>
  <path d="M66.2 100.96c-6.42-1.57-13.77 1.71-16.29 7.05-.91 1.94-1.35 4.47.01 10.31 2.2 9.45 6.35 15.8 10.18 21.88 3.04 4.83 7.57 12.15 13.03 21.56l.08-.27c7.1-8.25 12.89-14.61 16.77-18.79 4.88-5.27 10.13-10.75 14.03-19.63 2.41-5.49 2.45-8.05 1.91-10.13-1.47-5.64-7.96-10.48-14.71-9.93-7.06.58-13.11 6.94-13.49 15.08.49-8.28-4.62-15.43-11.53-17.12Z" fill="#e84133"/>
  <path d="M66.46 100.05c-5.04-1.16-10.57.2-14.44 3.66-3.23 2.9-4.25 6.6-3.74 10.81 1.38 11.32 7.62 20.66 13.48 30.1 3.61 5.82 7.12 11.69 10.56 17.61.42.72 1.49.54 1.73-.23.22-.69 1.26-1.49 1.74-2.06.76-.87 1.52-1.75 2.28-2.62 1.36-1.55 2.72-3.1 4.1-4.63 2.25-2.52 4.51-5.02 6.8-7.5 4.7-5.1 9.51-10.11 13.05-16.12 2.02-3.43 3.93-7.22 4.8-11.13.53-2.39.42-4.69-.56-6.95-2.71-6.26-10.08-10.01-16.73-8.7-7.43 1.46-12.32 8.51-12.73 15.79h1.89c.39-7.93-4.25-15.97-12.22-18.03-1.18-.3-1.68 1.52-.5 1.82 7.19 1.86 11.19 9.1 10.84 16.21-.06 1.22 1.82 1.21 1.89 0 .35-6.2 4.36-12.17 10.55-13.78s13.7 2.18 15.65 8.41c.68 2.18.3 4.36-.38 6.5-1.18 3.7-3.02 7.24-5.1 10.51-3.4 5.33-7.82 9.84-12.08 14.47-2.37 2.57-4.71 5.17-7.03 7.78-1.39 1.56-2.78 3.14-4.16 4.71-.77.88-1.54 1.77-2.31 2.66-.58.67-1.33 1.3-1.6 2.17l1.73-.23c-5.16-8.9-10.73-17.54-16.02-26.36-2.84-4.74-5.21-9.71-6.64-15.05-1.07-3.98-2.31-8.76.07-12.5 2.97-4.68 9.34-6.7 14.6-5.49 1.18.27 1.69-1.55.5-1.82Z"/>
  <path d="M3.53 336.91c-.39-1.6-.92-3.86-1.49-6.6-1.17-5.61-1.13-6.87-1.09-7.95.1-2.68.98-5.44 2.93-7.28 1.96-1.84 5.12-2.5 7.41-1.11.83.5 1.67 1.28 2.62 1.07.69-.15 1.15-.78 1.66-1.26 1.69-1.58 4.33-1.72 6.55-1.06 2.22.66 4.16 2 6.19 3.12.34.19.71.38 1.1.38.37 0 .73-.15 1.07-.31 2.76-1.29 5.44-2.82 8.41-3.49 2.97-.67 6.37-.33 8.59 1.76 1.08 1.02 1.95 2.48 3.41 2.76.99.19 1.98-.22 2.94-.55 4.85-1.68 10.38-1.29 14.96 1.03.53.27 1.08.57 1.68.59.47.01.92-.16 1.35-.33 2.9-1.17 6.41-2.71 8.9-.81.62.48 1.1 1.13 1.77 1.54 1.29.79 2.02.46 3.23.98 1.25.54 2.44 1.69 2.84 2.9.52 1.57-.33 3.07-1.89 5.67-1.93 3.23-3.65 5.99-5.04 8.19-26.04.25-52.07.49-78.11.74Z" fill="#c8dea4"/>
  <path d="M4.45 336.66c-.96-3.92-1.97-7.91-2.45-11.92-.33-2.75.01-5.75 1.7-8.03 1.27-1.72 3.51-2.86 5.67-2.46 1.84.34 3.34 2.53 5.34 1.51.81-.41 1.31-1.21 2.05-1.7.93-.61 2.08-.8 3.17-.75 2.42.11 4.55 1.42 6.58 2.6.83.48 1.78 1.2 2.77 1.25s1.97-.56 2.85-.99c2.2-1.07 4.4-2.21 6.8-2.78 2.14-.51 4.55-.5 6.55.53 1.72.89 2.58 2.78 4.3 3.64 2.03 1 4.16-.31 6.15-.77 2.4-.56 4.93-.62 7.35-.19 1.12.2 2.23.5 3.3.9s2.03 1.07 3.11 1.36c1.99.53 4.29-1.13 6.2-1.62 1.18-.31 2.56-.5 3.7.07 1.06.53 1.72 1.61 2.79 2.15.95.48 2.01.43 2.97.84 1.09.46 2.28 1.53 2.41 2.77.09.91-.42 1.83-.84 2.6-.64 1.19-1.36 2.33-2.06 3.48-1.33 2.2-2.68 4.38-4.05 6.55l.82-.47-60.7.57c-5.8.05-11.61.11-17.41.16-1.22.01-1.22 1.9 0 1.89l51.24-.48 25.62-.24c.7 0 1.46.15 1.99-.38s.92-1.44 1.33-2.09c.98-1.58 1.96-3.16 2.92-4.75 1.31-2.17 3.71-5.1 2.85-7.84-.45-1.42-1.64-2.62-2.94-3.31-1.46-.77-3-.56-4.28-1.74-1.12-1.04-2.19-1.78-3.75-1.93-1.65-.16-3.33.32-4.86.89-.84.31-1.66.73-2.51.98-1.05.31-1.9-.37-2.83-.78-1.65-.72-3.37-1.23-5.15-1.5-3.63-.54-6.95.02-10.4 1.11-1.05.33-1.91.38-2.79-.37-.58-.49-1.04-1.11-1.57-1.65a8.663 8.663 0 0 0-3.93-2.24c-3.24-.85-6.53-.03-9.54 1.25-.87.37-1.72.78-2.57 1.19s-1.8 1.09-2.72 1.22c-.85.11-1.81-.7-2.55-1.12-.88-.51-1.76-1.01-2.68-1.44-2.71-1.25-6.11-1.87-8.76-.1-.62.41-1.12 1.25-1.81 1.49-.83.28-1.67-.65-2.4-1.02-1.3-.67-2.81-.83-4.24-.58-3.09.55-5.32 2.9-6.4 5.75-1.74 4.59-.29 9.68.71 14.25.35 1.59.71 3.17 1.1 4.75.29 1.18 2.11.68 1.82-.5Z"/>
  <path d="M103.69 336.81c1.88-13.35 3.83-26.8 5.85-40.34 1.99-13.33 4.03-26.54 6.11-39.65 4.27.74 7.74 1.08 10.08 1.26 4.19.32 6.04.2 10.71.63 3.71.34 6.35.76 7.78.97 4.46.67 12.27 1.63 26.86 2.81 0 .61 0 1.57-.03 2.76-.03 1-.07 1.74-.08 1.92-.12 3-1 29.28-1.56 42.55-.27 6.52-.72 15.79-1.48 27.1h-64.24Z" fill="#92a377"/>
  <path d="M104.6 337.06c2.93-20.84 6-41.65 9.22-62.45.9-5.85 1.82-11.7 2.75-17.54l-1.16.66c4.13.7 8.3 1.21 12.49 1.43s8.27.39 12.4.91c5.24.66 10.46 1.45 15.72 2s10.04.96 15.06 1.37l-.94-.94c.02 7.36-.46 14.75-.72 22.1-.35 9.94-.69 19.89-1.15 29.83-.35 7.47-.78 14.93-1.28 22.39l.94-.94h-64.24c-1.22 0-1.22 1.89 0 1.89h64.24c.54 0 .91-.43.94-.94 1.43-21.29 2.09-42.62 2.84-63.94.12-3.45.32-6.92.31-10.38 0-.54-.43-.9-.94-.94-7.51-.61-15.03-1.27-22.5-2.21-6.22-.78-12.36-1.7-18.64-1.96-4.71-.19-9.38-.67-14.03-1.46-.46-.08-1.08.12-1.16.66-3.3 20.83-6.47 41.69-9.48 62.56-.84 5.81-1.67 11.62-2.48 17.43-.17 1.19 1.65 1.7 1.82.5Z"/>
  <path d="M169.75 178.78c-.38.5-1.03-.52-1.12-.72-.24-.54-.24-1.08-.25-1.66-.02-1.47-.03-2.94-.03-4.41 0-2.81.02-5.61.06-8.41.08-4.91.23-9.83.45-14.74.26-5.79.6-11.59 1.11-17.37.21-2.42.48-4.84.54-7.27.09-3.44-.14-7.52-2.8-10.06s-7.4-3.18-9.96-.06c-2.1 2.55-2.65 6.12-3.01 9.31-1.63 14.44-3.17 28.92-5.73 43.23-.42 2.33-.84 4.69-1.47 6.97-.16.59-.44 1.26-.56 1.63-.11.32-.1 0 .22-.06 1.09-.17.63.38.59-.02-.02-.17-.21-.47-.27-.63-1.43-3.78-1.84-8.15-2.25-12.13-.55-5.32-.63-10.69-.83-16.03-.27-7.3-.49-14.58-.46-21.88.01-3.71-1.22-7.68-5.44-8.23s-7.09 2.54-7.74 6.49c-.9 5.43-.86 11.11-1.06 16.59-.27 7.03-.46 14.06-.73 21.09-.21 5.36-.3 10.8-1.02 16.13-.09.64-.18 1.28-.34 1.9-.03.12-.16.69-.12.45 0 0-.09.21-.11.21-.21-.04.73-.23.66-.21.43-.17.24.24.08-.26-.05-.15-.19-.36-.26-.5-.23-.47-.42-.96-.61-1.45-.39-1.02-.76-2.04-1.11-3.07-.29-.83-.55-1.68-.78-2.53-1.11-4.01-1.8-8.13-2.31-12.26s-.9-8.45-2.46-12.45c-.59-1.51-1.44-3.08-3.03-3.7-1.77-.69-3.79-.03-5.24 1.07-3.97 3.02-2.75 9.38-2.59 13.68.45 11.88 1.03 23.76 1.83 35.62.58 8.56 1.17 17.06 2.98 25.46 1.91 8.83 3.31 17.68 4.44 26.65.52 4.1.99 8.2 1.43 12.3.06.55.39.89.94.94 15.39 1.49 30.78 2.99 46.17 4.48.55.05.89-.48.94-.94.66-5.77 3.25-10.66 7.14-14.91s8.53-7.73 12.81-11.57c2.06-1.85 3.96-3.81 5.57-6.06.77-1.08 1.38-2.26 2.13-3.36 2.15-3.18 4.48-6.25 6.73-9.36 3.64-5.05 7.31-10.08 10.93-15.15 2.04-2.85 4.12-5.71 5.94-8.71.79-1.3 1.81-2.87 1.85-4.45.07-2.75-3.5-3.09-5.54-3.07-5.7.04-10.59 2.43-14.84 6.1-3.9 3.37-7.09 7.51-11.06 10.79-.92.76-2.25 1.84-3.56 1.65-.89-.13-1.03-1.17-1.15-2.04-.28-2.01-.09-4.12.1-6.13.28-2.94.74-5.86 1.24-8.77 2.05-11.91 4.82-23.7 7.67-35.44 1.15-4.74 2.42-9.45 3.44-14.22.77-3.61 2.01-8.38.16-11.87-2.15-4.08-8.15-3.85-11.42-1.39-3.54 2.66-4.96 7.32-5.96 11.44a2006.32 2006.32 0 0 1-8.3 33.15c-.88 3.38-1.76 6.77-2.65 10.15-.31 1.18 1.51 1.68 1.82.5 3.15-12.03 6.31-24.06 9.24-36.15 1.02-4.21 1.71-8.69 3.45-12.68.89-2.04 2.14-4.1 4.08-5.28 2.06-1.25 5.34-1.58 7.26.12 2.65 2.34 1.3 7.53.72 10.43-.95 4.75-2.23 9.44-3.38 14.15-2.74 11.21-5.37 22.46-7.46 33.82-.96 5.21-1.99 10.58-2.01 15.9 0 2.32.11 6.02 3.16 6.21 3.4.21 6.38-3.48 8.5-5.62 3.7-3.74 7.24-7.89 11.86-10.54 2.46-1.41 5.2-2.15 8.03-2.34 1.56-.1 3.53-.21 4.71.84-.06-.06.01.08.02.1.04.4.04.19-.07.57-.21.73-.43 1.18-.81 1.89-1.33 2.47-2.99 4.77-4.6 7.06-3.07 4.38-6.23 8.7-9.37 13.04s-6.21 8.58-9.29 12.89c-1.75 2.45-3.16 5.09-5.19 7.34-7.15 7.92-17.46 13.08-21.82 23.32-1.04 2.46-1.63 5.03-1.94 7.67l.94-.94c-15.39-1.49-30.78-2.99-46.17-4.48l.94.94c-1.03-9.58-2.13-19.18-3.77-28.68-1.16-6.71-2.97-13.3-3.8-20.07-1.36-11.08-1.78-22.32-2.34-33.46-.3-5.94-.56-11.88-.78-17.82-.14-3.79-1.73-12.86 4.25-13.14 2.11-.1 2.87 2.3 3.37 3.94.62 2.01 1.15 4.09 1.43 6.18.6 4.53 1.04 9.05 2 13.52.49 2.31 1.1 4.58 1.89 6.8.32.9 2.47 8.26 4.46 5.34.66-.97.71-2.48.86-3.6.29-2.28.44-4.58.58-6.87.39-6.57.58-13.15.8-19.72s.4-13.19.79-19.78c.14-2.39.18-4.88.64-7.24.38-1.93 1.24-3.83 3.23-4.52 2.16-.75 4.66-.01 5.58 2.17.98 2.33.51 5.03.53 7.52.04 4.52.2 9.03.36 13.55.34 9.84.3 19.83 2.3 29.51.24 1.17.87 6.4 3 5.89 1.11-.26 1.44-1.99 1.69-2.9 1.53-5.52 2.24-11.32 3.07-16.97a792.527 792.527 0 0 0 4.13-33.22c.32-2.98.73-6.91 3.05-9.08 1.67-1.56 4.2-1.14 5.98.03 1.48.98 2.27 2.54 2.66 4.23.85 3.68.26 7.7-.09 11.41-1.33 14.09-1.75 28.32-1.7 42.46 0 2.06-.43 4.75.8 6.56 1 1.47 3.02 1.64 4.11.22.74-.97-.9-1.91-1.63-.95Z"/>
  <path d="M164.58 189.71c7.12.08 13.91 5.47 15.11 11.72.44 2.27.21 5.02-2.77 10.76-4.82 9.28-10.86 14.8-16.48 20.11a730.647 730.647 0 0 0-19.37 19.01l-.02-.31c-5.2-10.51-9.55-18.7-12.48-24.1-3.69-6.8-7.7-13.93-9.39-24.25-1.05-6.37-.4-9.06.72-11.08 3.05-5.5 11.11-8.81 18.01-6.43 7.21 2.49 11.83 10.75 10.04 19.35 1.7-8.77 8.95-14.87 16.62-14.78Z" fill="#ff7556"/>
  <path d="M164.58 190.65c5.46.13 10.94 3.39 13.33 8.38 2.09 4.37.28 8.67-1.8 12.68-2.8 5.38-6.48 10.17-10.72 14.49-3.32 3.39-6.85 6.57-10.27 9.86-4.97 4.79-9.88 9.65-14.72 14.58l1.61.67c-.04-.79-.45-1.4-.8-2.1-.53-1.06-1.06-2.13-1.59-3.19-.93-1.84-1.86-3.69-2.81-5.52-1.62-3.16-3.26-6.3-4.93-9.43-3.1-5.83-6.52-11.55-8.86-17.74a56.03 56.03 0 0 1-3.08-11.87c-.4-2.75-.74-5.88.34-8.52 2.47-6.06 10.52-8.78 16.49-7.15 7.88 2.15 11.77 10.84 10.26 18.46-.23 1.19 1.58 1.7 1.82.5 1.54-7.53 7.68-14.09 15.71-14.09 1.22 0 1.22-1.89 0-1.89-8.83 0-15.83 7.13-17.53 15.48l1.82.5c1.4-7.1-1.14-14.81-7.33-18.87s-14.58-2.9-19.87 1.98c-1.94 1.79-3.36 4.11-3.77 6.74-.58 3.77.16 7.77.98 11.45 1.72 7.77 5.31 14.74 9.07 21.69 1.82 3.36 3.61 6.74 5.38 10.13 1.12 2.15 2.23 4.31 3.33 6.48.62 1.22 1.24 2.45 1.86 3.68.29.57.57 1.14.85 1.71.21.42.73 1.13.76 1.58.04.79 1.02 1.28 1.61.67 4.72-4.8 9.5-9.55 14.35-14.22 3.71-3.58 7.56-7.03 11.15-10.74 4.47-4.63 8.33-9.82 11.14-15.62 2.06-4.24 3.35-8.52 1.31-13.01-2.61-5.75-8.9-9.47-15.11-9.62-1.22-.03-1.22 1.86 0 1.89ZM469.5 336.56c-2.88-13.88-5.69-27.78-8.51-41.68-1.75-8.62-3.49-17.24-5.22-25.87-.76-3.77-1.54-7.53-2.27-11.3-.85-4.35-.22-8.65 1.63-12.65 3.2-6.94 8.8-12.29 12.52-18.88 1.35-2.38 2.14-5.12 3.14-7.66 3.3-8.42 6.88-16.73 10.41-25.06 1.24-2.92 2.51-5.84 3.58-8.84.56-1.57 1.18-3.28 1.18-4.96 0-1.4-.62-2.63-1.97-3.17-2.7-1.06-6.15.7-8.5 1.93s-4.35 2.91-6.03 5.02c-2.91 3.66-5.49 7.59-8.26 11.35-1.34 1.82-2.66 3.73-4.26 5.33-.27.27-.49.34-.51.38-.02.05.19.04.07-.01-.18-.08.08 0 .09.02-.28-.26-.6-.33-.85-.73-.85-1.34-1.13-3.11-1.4-4.64-.41-2.28-.63-4.59-.82-6.9-.38-4.64-.62-9.3-.78-13.96-.3-8.84-.35-17.7-.28-26.54.03-4.18.18-8.36.02-12.54-.12-3.06-.25-6.76-2.16-9.32-2.29-3.08-6.8-2.73-9.69-.67s-4 5.85-4.37 9.31-.17 7.32-.17 10.95c0 4.57-.05 9.15-.11 13.72-.07 5.19-.16 10.38-.25 15.57-.03 1.45-.05 2.9-.08 4.35 0 .45.21 1.64-.04 1.98-.15.2-.6.1-.95-.26-.78-.81-.88-2.32-1.13-3.35-.37-1.49-.73-2.98-1.09-4.47-2.13-8.95-4-17.96-5.6-27.02-.72-4.05-1.31-8.12-1.95-12.19-.57-3.61-1.2-7.84-3.78-10.65-2.39-2.61-7.23-3.44-9.87-.72-2.35 2.42-2.24 6.44-1.94 9.55s.81 6.3 1.2 9.44c.94 7.67 1.79 15.36 2.5 23.05.51 5.6 1.2 11.33.98 16.96-.02.6-.26 1.14-.19 1.59 0 .02.09-.03 0 0-.07.01 1.23-.79 1.01-.24 0-.02-.78-1.05-.81-1.09-2.18-3.57-3.64-7.67-4.97-11.61-2.71-8.03-4.77-16.33-6.98-24.52-.63-2.33-1.31-4.67-1.82-7.03-.33-1.51-.6-3.01-1.23-4.44-.69-1.56-1.8-2.97-3.45-3.55-1.78-.63-3.89-.3-5.48.69-3.19 1.98-3.09 5.72-2.62 9 .37 2.58.84 5.14 1.33 7.69 2.39 12.55 5.47 24.99 7.42 37.61.25 1.6.52 3.24.48 4.86 0 .24-.07.36-.04.38.07.05-.09 0 .01-.02-.09.03.68-.39.55-.28.35-.3.25.09.02-.31-.57-.98-1.42-1.89-2.05-2.84-.35-.53-.7-1.06-1.03-1.59-1.49-2.38-2.72-4.92-3.85-7.49-1.82-4.12-3.01-8.53-5.09-12.53-1.57-3.03-4-7.94-8.22-5.91-5.08 2.45-3.36 8.34-2.17 12.58 3.11 11.1 6.33 22.16 9.76 33.17 2.79 8.97 5.66 17.83 9.67 26.34 2.04 4.33 4.29 8.58 6.91 12.59 1.6 2.44 3.41 4.73 4.88 7.25 4.05 6.92 5.38 15 5.09 22.93-.1 2.63.24 5.32.39 7.95.13 2.18.25 4.35.38 6.53.17 2.91.33 5.82.48 8.73.29 5.51.49 11.03.78 16.55.4 7.47.84 14.93 1.28 22.4.03.5.41.95.94.94 17.76-.25 35.51.25 53.27 0 1.21-.02 1.22-1.91 0-1.89-17.76.25-35.51-.25-53.27 0l.94.94c-.6-10.26-1.25-20.53-1.67-30.8-.11-2.75-.24-5.49-.39-8.24-.16-2.98-.33-5.97-.5-8.95l-.36-6.21c-.16-2.72-.47-5.47-.38-8.19.26-7.85-1.07-15.84-4.87-22.79-1.33-2.44-3.02-4.64-4.58-6.93-2.56-3.76-4.77-7.75-6.77-11.84-4.11-8.36-7.03-17.07-9.82-25.95-3.45-11-6.69-22.06-9.81-33.15-.74-2.64-1.93-5.53-1.82-8.32.07-1.97 2.03-5.13 4.42-4.08 1.88.83 2.94 3.59 3.81 5.28s1.54 3.44 2.19 5.24c2.38 6.6 5.2 13.31 9.55 18.89.58.75 1.75 2.16 2.77 1.18.37-.36.45-.9.48-1.38.12-1.53-.19-3.13-.4-4.64-.82-5.73-2.04-11.41-3.2-17.08-1.36-6.64-2.77-13.27-4.06-19.93-.52-2.66-1.02-5.33-1.44-8.02-.49-3.09-1.15-7.27 2.59-8.55 4.83-1.66 5.68 3.89 6.5 7.25s1.77 6.79 2.7 10.16c2.5 9.08 4.69 18.38 8.34 27.08.69 1.65 1.42 3.29 2.27 4.86.46.85 1.02 2.06 1.88 2.58 1.52.92 1.99-.94 2.1-2.03.19-1.99.06-4.04-.04-6.03-.16-3.16-.4-6.31-.68-9.46-.66-7.59-1.48-15.17-2.38-22.74-.4-3.35-.82-6.69-1.27-10.03-.4-2.99-1.04-6.87.63-9.58 1.24-2.01 3.97-2.15 5.96-1.24 1.46.67 2.42 1.96 3.08 3.38 1.49 3.19 1.85 6.91 2.35 10.35 2.04 14.21 5.05 28.33 8.55 42.25.41 1.61 1.07 3.66 3.01 3.89.78.09 1.62-.15 2.11-.78.58-.75.38-1.8.4-2.68.1-5.39.2-10.79.29-16.18.13-8.55.03-17.11.16-25.66.05-3.44.33-7.66 2.88-10.27 1.58-1.61 4.45-2.66 6.6-1.64 1.06.5 1.71 1.51 2.12 2.57 1.35 3.51 1.1 7.73 1.08 11.42-.02 3.91-.08 7.83-.09 11.74-.02 9.06.05 18.13.49 27.18.22 4.66.46 9.35 1.05 13.98.24 1.87.51 3.76 1.04 5.58.35 1.2.82 2.54 1.79 3.39 2.55 2.25 5.05-2.17 6.29-3.8 2.71-3.56 5.26-7.23 7.88-10.85 1.85-2.56 3.72-4.98 6.51-6.56 1.11-.63 2.27-1.21 3.47-1.66s3.03-1.18 4.28-.61c.29.13.49.37.51.39.16.23.11.1.18.45.05.26.04.97-.03 1.39-.32 2.02-1.15 3.99-1.89 5.88-1.35 3.42-2.82 6.79-4.26 10.18-3.31 7.76-6.59 15.53-9.63 23.4-.87 2.26-1.43 4.07-2.65 6.04-4.52 7.28-11.1 13.54-13.54 21.98-1.15 3.99-.82 7.86-.02 11.89l2.25 11.24c3.35 16.69 6.74 33.37 10.14 50.04 1.09 5.32 2.17 10.63 3.28 15.95.25 1.19 2.07.69 1.82-.5Z"/>
  <path d="M433.32 192.37c6.6-1.52 14.07 1.96 16.57 7.46.91 2 1.31 4.6-.16 10.55-2.39 9.64-6.73 16.09-10.75 22.25a691.21 691.21 0 0 0-13.66 21.88l-.08-.28a665.874 665.874 0 0 0-16.9-19.49c-4.92-5.46-10.22-11.15-14.08-20.31-2.39-5.66-2.39-8.28-1.8-10.4 1.59-5.76 8.3-10.62 15.21-9.95 7.22.7 13.33 7.3 13.59 15.64-.38-8.48 4.96-15.73 12.06-17.36Z" fill="#f39c95"/>
  <path d="M433.57 193.28c4.95-1.07 10.52.64 13.87 4.48 3.02 3.46 2.49 7.71 1.49 11.9-1.34 5.65-3.65 10.94-6.6 15.93-2.34 3.95-4.95 7.75-7.42 11.63-3.55 5.56-7.01 11.17-10.4 16.83l1.73.23c-.2-.66-.68-1.12-1.12-1.65-.72-.86-1.44-1.71-2.16-2.57-1.3-1.53-2.6-3.06-3.91-4.58-2.21-2.57-4.44-5.12-6.69-7.65-4.15-4.67-8.55-9.18-12.09-14.35-2.21-3.24-4.1-6.72-5.54-10.38-.95-2.41-1.95-5.17-1.57-7.81.94-6.48 8.36-10.86 14.51-10.25 7.34.74 12.35 7.67 12.64 14.69.05 1.21 1.93 1.22 1.89 0-.25-7.29 3.97-14.66 11.37-16.45 1.18-.29.68-2.11-.5-1.82-8.18 1.98-13.04 10.17-12.75 18.27h1.89c-.28-6.65-4.1-13.01-10.39-15.57-6.59-2.68-14.36.03-18.4 5.75-1.51 2.14-2.4 4.73-2.18 7.37.3 3.61 1.87 7.11 3.44 10.33 3.31 6.8 8.17 12.43 13.19 18.01a694.433 694.433 0 0 1 11.84 13.51c.8.93 1.59 1.87 2.38 2.81.47.55.93 1.1 1.39 1.65.3.35.82.76.95 1.19.23.78 1.3.93 1.73.23 3.33-5.56 6.73-11.08 10.22-16.54 2.66-4.18 5.49-8.26 7.97-12.54 3.09-5.32 5.48-11.05 6.72-17.09.91-4.4.92-8.53-2.06-12.14-3.76-4.54-10.25-6.45-15.93-5.22-1.19.26-.69 2.08.5 1.82Zm-131.2 143.78c4.78-11.84 8.66-23.83 11.33-36.31.67-3.12 1.51-6.23 1.24-9.45s-1.5-6.42-3.11-9.29c-2.74-4.91-6.71-9.06-9.36-14.02-.86-1.61-1.51-3.79-2.25-5.76-2.47-6.6-5.13-13.13-7.8-19.65-1.07-2.63-2.16-5.25-3.17-7.9-.61-1.61-1.25-3.26-1.6-4.95-.09-.46-.17-.89-.13-1.39.01-.14.12-.52.18-.57 1.21-1.21 4.34.39 5.69 1.08 5.16 2.64 7.88 8.06 11.1 12.63 1.33 1.88 2.65 3.8 4.13 5.57.5.6 1.1 1.36 1.89 1.58 3.97 1.09 4.51-8.29 4.74-10.32.85-7.4 1.15-14.87 1.37-22.3.19-6.42.26-12.84.28-19.27.01-3.33-.11-6.79.55-10.06.53-2.63 1.86-4.87 4.95-4.16 6.38 1.46 5.24 10.36 5.16 15.23-.12 7.35-.11 14.69-.09 22.04 0 2.16.01 4.33.02 6.49 0 1.05 0 2.1.01 3.15 0 .63-.13 1.38.22 1.94.7 1.12 2.26 1.13 3.24.41 1.36-1.01 1.59-2.98 1.99-4.5 1.97-7.53 3.73-15.12 5.27-22.74.79-3.89 1.53-7.79 2.17-11.7.34-2.07.64-4.16 1.16-6.2.67-2.66 1.8-5.7 4.84-6.25 6.91-1.25 4.22 9.69 3.7 13.33-.84 5.9-1.6 11.81-2.28 17.73-.61 5.28-1.2 10.57-1.5 15.87-.06 1.02-.89 7.2 1.61 6.41.66-.21 1.1-.94 1.45-1.48.69-1.06 1.25-2.21 1.79-3.35 1.61-3.41 2.94-6.97 4.05-10.57a961.23 961.23 0 0 0 5.33-18.11c.53-1.85 1.08-3.7 1.53-5.57.16-.68.28-1.36.47-2.03.35-1.29.9-2.84 2.14-3.53 1.59-.88 3.91-.07 4.76 1.48 1.06 1.93.31 4.56-.06 6.61-.4 2.21-.85 4.4-1.31 6.59-1.1 5.22-2.28 10.42-3.43 15.63-1.03 4.68-2.08 9.36-2.92 14.08-.27 1.51-.54 3.05-.65 4.58-.05.74-.16 1.77.44 2.33 2.18 2.03 7.13-8.13 7.94-9.82 1.55-3.23 2.68-6.61 4.09-9.89.69-1.62 1.57-3.23 2.55-4.7 1.07-1.6 2.53-2.67 4.2-1.05 1.77 1.71 1.1 4.26.5 6.36s-1.25 4.22-1.88 6.32c-1.31 4.38-2.65 8.76-4.01 13.13-2.59 8.27-5.09 16.63-8.24 24.7-2.5 6.43-5.62 12.76-9.41 18.53-1.7 2.59-3.43 5.16-5.19 7.7-.42.61-.8 1.23-1.11 1.91-1.05 2.34-1.57 4.89-2 7.4-.78 4.62-1.14 9.31-1.4 13.98-.4 7.27-.48 14.56-.46 21.84l.94-.94c-15.54.22-31.07-.22-46.61 0-1.21.02-1.22 1.91 0 1.89 15.54-.22 31.07.22 46.61 0 .51 0 .95-.43.94-.94-.03-7.55.06-15.1.5-22.64.27-4.54.62-9.1 1.44-13.57.41-2.24.95-4.75 1.93-6.64.49-.94 1.15-1.79 1.75-2.66 1.97-2.9 3.99-5.78 5.79-8.79 8.28-13.8 12.69-29.5 17.4-44.77 1.35-4.37 2.67-8.75 3.97-13.14 1.03-3.46 2.92-8.03-.16-11-5.97-5.75-9.97 6.84-11.5 10.71-1.21 3.05-2.55 6.05-4.18 8.9-.36.63-.73 1.25-1.13 1.85s-.77 1.15-1.17 1.73c-.29.41-.57.82-.88 1.22-.09.12-.72.7-.72.82-.02-1.19.77.29.88.35-.11-.06.18.05.01.04.16 0-.1.08 0-.07-.02.04-.02-.07 0-.32.01-.53.05-1.06.11-1.6.19-1.69.51-3.37.83-5.04 1.94-10.2 4.47-20.27 6.54-30.45.4-1.98.8-3.97 1.11-5.97.4-2.52.65-5.4-1.37-7.34-2.23-2.13-5.99-2.15-7.91.35-1.15 1.49-1.53 3.34-1.94 5.14-1.45 6.34-3.54 12.58-5.39 18.81-1.2 4.05-2.39 8.09-3.98 12.01-.64 1.57-1.33 3.13-2.1 4.63-.26.5-.52 1-.81 1.48-.17.28-.6.71-.7 1.03-.08.26-.09-.03-.01.07-.34-.47 1.01.25.9.31.06-.03-.06.12 0 0 .02-.03-.06-.25-.06-.28 0 .06-.03-.33-.04-.5-.02-.34-.02-.67-.03-1.01 0-1.91.13-3.83.28-5.73.87-11.47 2.39-22.93 4.09-34.31.37-2.51.74-5.12.14-7.63-.71-2.99-3.14-4.73-6.23-4.32-6.18.83-6.95 8.52-7.73 13.41-1.68 10.55-3.99 21.03-6.61 31.38-.25 1.01-.51 2.02-.78 3.03s-.44 2.28-.91 3.26c-.16.34-.46.89-.92.83-.12-.02.1.21-.03.08-.04-.04 0-.49 0-.56 0-1.21-.01-2.43-.02-3.64-.02-4.2-.03-8.4-.03-12.6 0-6.78.13-13.55.18-20.33.02-2.78-.16-5.71-1.35-8.27-1.28-2.75-4.1-4.76-7.22-4.58-6.05.34-5.84 8.56-5.92 12.88-.25 14.05-.13 28.09-1.39 42.11-.29 3.23-.5 6.72-1.66 9.78-.17.45-.37.89-.67 1.27-.11.14-.35.32-.32.27-.04.07.02.04-.01 0 .12.14.06.05-.1-.08.14.11-.15-.13-.25-.24-.18-.18-.35-.37-.52-.56-.54-.62-1.03-1.28-1.52-1.94-2.08-2.8-4.04-5.67-6.03-8.53-1.62-2.34-3.22-4.83-5.52-6.57-1.59-1.2-3.47-2.14-5.35-2.81-1.71-.6-4.21-1.12-5.49.56-.59.77-.65 1.75-.54 2.68.18 1.54.71 3.03 1.23 4.48.88 2.45 1.88 4.87 2.87 7.28 2.77 6.79 5.56 13.58 8.16 20.44.88 2.32 1.6 4.77 2.68 7.02 2.12 4.38 5.6 8.08 8.21 12.17 1.94 3.04 3.7 6.38 4.15 10.01.42 3.33-.47 6.54-1.16 9.76-1.16 5.43-2.45 10.84-4.1 16.15-2.09 6.75-4.55 13.39-7.19 19.95-.46 1.13 1.37 1.62 1.82.5Z"/>
  <path d="M331.09 240.19c-5.68-1.39-12.19 1.51-14.41 6.24-.81 1.72-1.19 3.95 0 9.12 1.94 8.36 5.62 13.99 9.01 19.36 2.69 4.27 6.7 10.75 11.53 19.08l.08-.24c6.28-7.3 11.41-12.93 14.84-16.63 4.32-4.66 8.97-9.51 12.42-17.37 2.13-4.86 2.17-7.13 1.69-8.96-1.3-4.99-7.04-9.28-13.02-8.79-6.25.51-11.61 6.14-11.93 13.34.43-7.33-4.09-13.65-10.2-15.15Z" fill="#e84133"/>
  <path d="M331.34 239.27c-4.45-1.02-9.29.15-12.75 3.15-2.85 2.47-3.91 5.73-3.51 9.4 1.08 10.05 6.61 18.4 11.81 26.76a579.42 579.42 0 0 1 9.52 15.88c.42.72 1.49.54 1.73-.23.17-.55 1.04-1.22 1.43-1.67.71-.82 1.43-1.64 2.15-2.46 1.22-1.4 2.45-2.79 3.69-4.17 2.01-2.26 4.04-4.5 6.09-6.72 4.19-4.55 8.46-9.03 11.58-14.43 2.64-4.57 5.85-10.6 3.5-15.89-2.47-5.56-9.12-8.85-15.03-7.6-6.55 1.38-10.82 7.6-11.19 14.04h1.89c.34-7.07-3.79-14.22-10.9-16.06-1.18-.31-1.68 1.52-.5 1.82 6.32 1.64 9.81 7.99 9.51 14.24-.06 1.22 1.82 1.21 1.89 0 .32-5.47 3.86-10.72 9.34-12.11s12.03 2.01 13.67 7.49c.6 2 .17 4-.48 5.94-1.08 3.21-2.68 6.28-4.52 9.12-2.97 4.61-6.8 8.52-10.49 12.53a577.666 577.666 0 0 0-10.13 11.32l-2.03 2.33c-.48.56-1.06 1.06-1.28 1.78l1.73-.23c-4.56-7.86-9.46-15.49-14.14-23.27-2.49-4.14-4.57-8.48-5.85-13.16-.95-3.46-2.11-7.72-.1-11.02 2.56-4.21 8.23-6.03 12.89-4.96 1.18.27 1.69-1.55.5-1.82Zm-95.99-27.39c.82-6.68 1.55-13.39 2.07-20.09.14-1.79.12-3.27-.36-5.03-.9-3.27-2.61-6.24-4.48-9.04-2.7-4.03-6.07-7.81-8.19-12.2-.29-.6-.48-1.12-.78-1.93-.52-1.41-1.04-2.83-1.57-4.24-2.44-6.47-5.04-12.89-7.65-19.29-1.81-4.42-3.92-8.87-5.16-13.49-.14-.53-.29-1.14-.33-1.62-.04-.46-.03-.83.04-1.07s.05-.34.38-.52c.93-.5 2.19-.11 3.12.19 1.81.58 3.62 1.5 5.17 2.61 2.28 1.63 3.84 4.12 5.41 6.38 1.95 2.82 3.9 5.64 5.92 8.41.91 1.25 1.81 2.57 2.91 3.67 2.03 2.02 3.89.08 4.71-2.14 1.04-2.84 1.32-6 1.63-8.99.37-3.59.62-7.19.83-10.79.4-7.01.58-14.03.69-21.04.09-6.18-.2-12.44.31-18.6.17-2.07.38-4.98 2.07-6.46 2.45-2.15 6.3.03 7.63 2.43s1.48 5.36 1.48 8.06c0 2.84-.1 5.69-.13 8.53-.08 7.45-.07 14.9-.04 22.35 0 2.15.02 4.3.03 6.44 0 1.31-.38 3.02 1.08 3.69 3.57 1.65 4.42-4.51 4.95-6.53a428.45 428.45 0 0 0 5.03-21.83c.83-4.1 1.62-8.2 2.3-12.33.22-1.34.42-2.69.66-4.03.5-2.76 1.02-6.2 3.09-8.29s6.17-2.03 7.2 1.11c.78 2.37.4 5.05.04 7.47-.8 5.35-1.52 10.71-2.19 16.08-.72 5.72-1.38 11.45-1.91 17.19-.33 3.58-.87 7.37-.53 10.97.08.88.36 2.21 1.57 1.96 1.45-.31 2.43-2.92 3-4.05 3.39-6.79 5.37-14.15 7.51-21.4 1.56-5.27 3.31-10.55 4.52-15.92.39-1.73.69-3.72 1.97-5.05 1.2-1.24 3.12-1.18 4.54-.32 1.53.93 1.89 2.65 1.8 4.33-.09 1.81-.51 3.63-.85 5.4-.42 2.21-.88 4.42-1.35 6.63-2.07 9.73-4.45 19.4-6.26 29.18-.3 1.61-.58 3.23-.77 4.86-.1.84-.28 1.88-.01 2.7.74 2.31 2.93-.3 3.6-1.21 1.19-1.62 2.31-3.31 3.29-5.07 1.44-2.57 2.66-5.26 3.78-7.98 1.31-3.17 2.39-6.34 4.09-9.34.66-1.16 1.61-3.14 3.06-3.46 2.01-.44 3.44 2.04 3.52 3.68.11 2.13-.77 4.31-1.37 6.32-.63 2.12-1.26 4.25-1.9 6.37-2.55 8.48-5.19 16.94-7.97 25.35-2.19 6.63-4.43 13.19-7.4 19.52-3.14 6.7-7.04 12.83-11.2 18.93-1.96 2.87-3.53 5.64-4.51 9.01-1.73 5.95-2.2 12.27-2.41 18.44l.94-.94c-12.58-.17-25.1-1.8-37.3-4.86-1.18-.3-1.68 1.53-.5 1.82 12.36 3.11 25.06 4.76 37.81 4.93.52 0 .93-.44.94-.94.22-6.35.69-12.89 2.67-18.98 1.15-3.55 3.22-6.36 5.29-9.42 4.16-6.17 7.87-12.47 10.93-19.27s5.28-13.76 7.56-20.77c2.77-8.5 5.41-17.04 7.96-25.61.62-2.09 1.29-4.17 1.84-6.28.47-1.81.82-3.86.13-5.66-.98-2.56-4.19-4.62-6.74-2.91-1.23.82-2.06 2.17-2.79 3.42-.82 1.42-1.61 2.87-2.23 4.38-1.36 3.3-2.54 6.65-4.08 9.88-.9 1.88-1.87 3.73-2.99 5.48-.69 1.07-1.4 2.14-2.17 3.16-.19.25-.56.55-.69.84-.21.46-.47-.03.13.35.03.02.39.17.5.24.09.05 0-.04 0 .05-.04-2.82.62-5.65 1.16-8.41.96-4.9 2.05-9.77 3.13-14.65s2.27-10.16 3.32-15.26c.43-2.06.84-4.13 1.2-6.21s.84-4.29.27-6.38c-.82-2.97-4.08-4.81-7.06-4.03-2.74.72-3.89 3.6-4.47 6.1-.24 1.01-.46 2.01-.73 3.02-.92 3.42-1.92 6.83-2.92 10.23-2.15 7.34-4.06 14.85-7.11 21.88-.59 1.36-1.22 2.72-1.93 4.03-.16.29-1.38 1.94-1.34 2.07-.07-.26 1.26.2 1.01.37 0 0-.1-.44-.11-.47-.03-.19-.06-1.03-.06-1.46-.03-4.33.48-8.68.91-12.98.6-5.92 1.31-11.84 2.09-17.74.37-2.82.75-5.63 1.15-8.45.33-2.3.78-4.61.89-6.94.13-2.48-.07-5.56-2.05-7.35-2.13-1.93-5.67-1.67-7.9-.07-3.9 2.81-4.3 8.88-5 13.19-1.72 10.71-4.06 21.34-6.69 31.85-.55 2.19-1.1 4.37-1.7 6.55-.12.42-.63 2.2-1.35 1.86-.18-.09-.04-2.4-.04-2.79-.02-4.15-.04-8.3-.04-12.46 0-7.02 0-14.05.14-21.07.09-4.95.49-11.55-4.08-14.78-2.28-1.61-5.79-2.17-8.05-.24-1.65 1.41-2.23 3.72-2.53 5.78-.9 6.08-.45 12.39-.52 18.52-.08 7.04-.24 14.09-.6 21.12-.18 3.64-.43 7.28-.75 10.91-.29 3.26-.56 6.63-1.51 9.77-.29.96-.64 1.68-1.29 2.41-.14.16-.07-.07.03.09-.14-.23-.24-.13-.54-.43-.41-.41-.78-.87-1.13-1.32-3.8-4.79-6.78-10.24-10.74-14.9-1.31-1.54-2.88-2.73-4.65-3.69-1.93-1.05-4.25-2.2-6.51-2.12-3.08.11-3.46 2.76-2.91 5.18.99 4.37 3.05 8.59 4.74 12.72 2.72 6.65 5.44 13.31 7.98 20.03.88 2.33 1.63 4.76 2.67 7.03 1.84 4.02 4.89 7.51 7.39 11.12 2.07 2.97 4.08 6.08 5.12 9.58.33 1.11.52 1.82.52 2.73 0 .8-.08 1.6-.14 2.39-.52 6.63-1.24 13.26-2.05 19.86-.15 1.2 1.74 1.19 1.89 0Z"/>
  <path d="M254.75 136.67c-5.98-1.46-12.82 1.59-15.17 6.57-.85 1.81-1.25 4.16.01 9.6 2.05 8.8 5.91 14.72 9.48 20.37 2.84 4.5 7.05 11.31 12.13 20.07l.08-.25c6.61-7.68 12-13.6 15.62-17.5 4.55-4.9 9.44-10.01 13.07-18.28 2.24-5.11 2.28-7.5 1.78-9.43-1.37-5.25-7.41-9.76-13.7-9.25-6.57.54-12.21 6.46-12.56 14.04.46-7.71-4.3-14.37-10.74-15.94Z" fill="#f39c95"/>
  <path d="M255 135.76c-4.71-1.08-9.89.18-13.51 3.42-2.96 2.65-3.97 6.07-3.52 9.94 1.22 10.53 7 19.25 12.45 28.02a663.75 663.75 0 0 1 9.97 16.62c.42.72 1.49.54 1.73-.23.19-.61 1.16-1.37 1.59-1.87.71-.82 1.43-1.64 2.15-2.46 1.32-1.5 2.64-3 3.97-4.49 2.09-2.34 4.2-4.67 6.33-6.98 4.43-4.81 8.94-9.54 12.23-15.25 2.76-4.8 6.14-11.14 3.63-16.69s-9.49-9.19-15.66-7.93c-6.91 1.42-11.43 7.96-11.81 14.75h1.89c.36-7.42-3.98-14.92-11.43-16.85-1.18-.31-1.68 1.52-.5 1.82 6.67 1.73 10.36 8.44 10.04 15.03-.06 1.22 1.82 1.21 1.89 0 .33-5.81 4.13-11.39 9.96-12.82s12.64 2.19 14.36 7.96c.61 2.04.2 4.08-.45 6.06-1.09 3.34-2.74 6.53-4.62 9.49-3.14 4.94-7.21 9.12-11.16 13.41a588.82 588.82 0 0 0-6.7 7.41c-1.36 1.53-2.71 3.06-4.05 4.6-.73.84-1.46 1.67-2.18 2.51-.49.56-1.06 1.07-1.29 1.79l1.73-.23c-4.81-8.29-9.99-16.34-14.92-24.56-2.62-4.37-4.8-8.95-6.14-13.88-.98-3.62-2.17-8.05-.09-11.51 2.69-4.47 8.71-6.41 13.64-5.28 1.18.27 1.69-1.55.5-1.82Z"/>
  <path d="M220.8 222.22c-.15-4.76-.34-9.48-.54-14.15 9.23 2.81 20.38 5.49 33.15 7.14 12.06 1.56 22.92 1.85 32.16 1.57a279.413 279.413 0 0 0-12.52 39.19c-1.01 4.22-3.34 14.59-5.98 38.37-1.2 10.84-1.88 26.06-2.78 42.47-9.45.21-17.64-.21-27.08 0s-20.78-.21-30.23 0c4.23-15 7.8-31.84 10.57-50.81 2.05-14.02 3.22-27.18 3.79-39.29-.1-8.04-.27-16.21-.54-24.49Z" fill="#ff7556"/>
  <path d="M221.75 222.22c-.15-4.72-.34-9.44-.54-14.15l-1.2.91c16.75 5.09 34.14 8.03 51.64 8.69 4.64.18 9.28.19 13.92.05l-.91-1.2c-5.78 14.39-10.63 29.33-13.7 44.54-2.83 14.03-4.61 28.39-5.69 42.66-.83 11.01-1.32 22.05-1.92 33.08l.94-.94c-9.86.21-19.73-.07-29.59.04-9.24.1-18.49-.24-27.73-.04l.91 1.2c8.02-28.54 12.68-58.21 14.27-87.8.24-4.4.05-8.83-.05-13.24s-.22-9.2-.37-13.81c-.04-1.21-1.93-1.22-1.89 0 .26 8.07.6 16.18.54 24.25-.06 7.29-.87 14.67-1.61 21.92-1.56 15.36-3.99 30.66-7.21 45.76-1.6 7.52-3.43 15-5.51 22.4-.16.58.3 1.21.91 1.2 9.24-.2 18.48.15 27.73.04 9.86-.11 19.73.17 29.59-.04.53-.01.92-.42.94-.94.54-9.89 1-19.79 1.68-29.67.6-8.69 1.55-17.34 2.7-25.98 1.43-10.7 3.27-21.25 6.05-31.68 2.94-11.03 6.56-21.86 10.81-32.45.23-.57-.35-1.21-.91-1.2-17.58.53-35.19-1.21-52.31-5.24a208.78 208.78 0 0 1-12.76-3.44c-.57-.17-1.22.31-1.2.91.21 4.72.39 9.43.54 14.15.04 1.21 1.93 1.22 1.89 0Z"/>
</svg>
