<svg xmlns="http://www.w3.org/2000/svg" viewBox="0 0 99.5 189.1">
  <path d="M.77 188.31c1.57-11.18 3.21-22.44 4.9-33.78 1.67-11.16 3.38-22.23 5.12-33.21 3.57.62 6.48.91 8.44 1.05 3.51.27 5.05.17 8.97.53 3.11.28 5.32.63 6.52.81 3.74.56 10.27 1.36 22.49 2.35 0 .51 0 1.32-.03 2.31-.02.84-.06 1.46-.06 1.61-.1 2.52-.84 24.52-1.3 35.63-.23 5.46-.61 13.23-1.24 22.69H.77Z" fill="#92a377"/>
  <path d="M1.53 188.52c2.45-17.4 5.01-34.79 7.7-52.16.76-4.94 1.54-9.89 2.32-14.83l-.97.55c6.93 1.18 13.91 1.09 20.87 1.96 4.4.55 8.77 1.22 13.18 1.67s8.38.8 12.58 1.14l-.79-.79c.02 6.22-.39 12.46-.61 18.67-.29 8.26-.57 16.53-.96 24.79-.29 6.26-.65 12.52-1.07 18.77l.79-.79H.77c-1.02 0-1.02 1.58 0 1.58h53.8c.45 0 .76-.36.79-.79 1.19-17.79 1.75-35.61 2.37-53.43.1-2.93.27-5.87.27-8.81 0-.45-.36-.76-.79-.79-6.27-.51-12.55-1.06-18.79-1.84-5.23-.66-10.39-1.43-15.67-1.65-3.94-.16-7.85-.56-11.74-1.22-.38-.07-.9.1-.97.55A3806.104 3806.104 0 0 0 .02 188.08c-.14 1 1.38 1.43 1.53.42Z"/>
  <path d="M56.22 55.81c-.94 1.19-1.27-1.74-1.27-2.16-.01-1.22-.02-2.44-.02-3.65 0-2.32.02-4.65.05-6.97.07-4.13.19-8.26.38-12.39.22-4.79.5-9.58.92-14.36.39-4.41 1.73-10.88-1.84-14.39-2.21-2.18-6.06-2.74-8.26-.28-1.82 2.04-2.31 5.03-2.63 7.66-1.46 12.13-2.67 24.29-4.8 36.32-.35 1.97-.7 3.95-1.23 5.89-.13.47-.41 1.06-.48 1.44-.06.35-.18.03.16.01.71-.03.53.17.27-.53-1.22-3.2-1.56-6.9-1.9-10.27-.46-4.5-.53-9.04-.69-13.56-.22-6.15-.28-12.29-.38-18.43-.05-3.04-1.19-6.14-4.59-6.55s-5.82 2.02-6.41 5.23c-.83 4.52-.74 9.32-.92 13.9-.23 5.91-.39 11.83-.61 17.74-.17 4.5-.26 9.06-.84 13.54-.08.58-.16 1.16-.31 1.72-.03.11-.13.46-.13.43 0-.15-.04.12-.06.09-.23-.31.17-.06.05-.07.21.02.59-.12.62-.26.05-.19-.47-.95-.55-1.15-.22-.54-.42-1.08-.62-1.63s-.41-1.13-.6-1.7c-.26-.78-.49-1.56-.7-2.36-.95-3.57-1.53-7.23-1.94-10.9-.38-3.3-.78-6.69-2.11-9.77-.52-1.21-1.33-2.41-2.66-2.78-1.44-.4-3.02.16-4.16 1.06-3.24 2.55-2.24 7.8-2.1 11.37.38 9.95.86 19.9 1.53 29.84.48 7.13.97 14.22 2.47 21.22 1.6 7.42 2.79 14.85 3.74 22.39.44 3.45.84 6.9 1.21 10.35.05.46.33.75.79.79l38.66 3.75c.46.04.75-.4.79-.79.57-4.93 2.81-9.07 6.15-12.68s7.01-6.32 10.52-9.47c1.78-1.59 3.42-3.29 4.8-5.25.61-.86 1.09-1.8 1.68-2.67 1.86-2.77 3.9-5.44 5.85-8.14 2.99-4.15 6-8.28 8.97-12.44 1.71-2.4 3.46-4.79 4.98-7.31.64-1.07 1.48-2.36 1.51-3.65.05-2.18-2.65-2.54-4.33-2.57-4.6-.07-8.67 1.74-12.17 4.62s-6.11 6.25-9.39 9.13c-.86.75-1.98 1.77-3.2 1.78-.96 0-1.09-.92-1.2-1.72-.57-4 .42-8.41 1.09-12.33 1.71-10.02 4.04-19.94 6.45-29.81.99-4.08 2.09-8.13 2.95-12.24.62-2.95 1.59-6.86.04-9.69-1.79-3.28-6.64-3.18-9.37-1.23-3.02 2.16-4.26 6.06-5.1 9.5-2.28 9.3-4.56 18.59-6.97 27.86-.75 2.87-1.5 5.74-2.25 8.6-.26.99 1.27 1.41 1.53.42 2.64-10.07 5.28-20.14 7.74-30.25.86-3.55 1.44-7.35 2.92-10.71.77-1.74 1.86-3.5 3.56-4.45s4.63-1.21 6.12.41c2.07 2.25.76 6.74.22 9.31-.84 3.94-1.88 7.84-2.84 11.76-2.32 9.52-4.56 19.08-6.28 28.73-.75 4.18-1.59 8.53-1.48 12.8.05 1.97.36 4.63 2.87 4.63 2.8 0 5.24-3.05 7-4.84 3.09-3.13 6.07-6.62 9.97-8.79 2.07-1.15 4.37-1.75 6.74-1.88.92-.05 1.9-.07 2.8.17.29.08.63.17.87.38.03.03.21.29.07.06.15.23.08.39-.02.75-.17.57-.42 1.07-.71 1.59-1.15 2.1-2.56 4.05-3.93 6-2.63 3.73-5.32 7.42-7.99 11.12-2.52 3.48-5.04 6.96-7.54 10.46-1.58 2.21-2.85 4.58-4.75 6.57-6 6.3-14.31 10.74-17.85 19.1-.87 2.04-1.35 4.18-1.61 6.38l.79-.79-38.66-3.75.79.79c-.85-7.95-1.77-15.92-3.12-23.81-.97-5.67-2.5-11.24-3.21-16.95-1.14-9.26-1.49-18.67-1.96-27.99-.25-4.93-.46-9.87-.65-14.8-.12-3.17-1.51-11.01 3.54-11.22 1.9-.08 2.52 2.21 2.94 3.66.48 1.66.91 3.36 1.12 5.08.47 3.76.87 7.51 1.67 11.22.41 1.9.92 3.78 1.57 5.62.27.75 2 6.76 3.69 4.41.55-.78.6-2.02.72-2.93.24-1.88.37-3.78.49-5.67.33-5.5.49-11.01.67-16.51s.34-11.1.66-16.65c.12-2.01.16-4.09.52-6.07.32-1.74 1.11-3.43 2.94-3.96 2-.57 3.97.32 4.61 2.32.6 1.89.27 4.01.29 5.98.04 3.93.18 7.85.32 11.77.28 8.26.24 16.66 2.03 24.77.21.94.72 4.77 2.41 4.32.92-.24 1.2-1.73 1.41-2.49 1.27-4.64 1.87-9.52 2.57-14.27.95-6.43 1.77-12.88 2.53-19.34.32-2.77.62-5.55.91-8.33.27-2.52.61-6.04 2.72-7.77 1.57-1.29 3.95-.67 5.36.57 1.09.95 1.59 2.36 1.83 3.75.5 2.95.08 6.06-.2 9.02-1.13 12.06-1.48 24.23-1.41 36.33 0 1.54-.27 3.48.77 4.78.78.98 2.37 1.29 3.22.22.62-.79-.49-1.92-1.12-1.12Z"/>
  <path d="M51.76 65.12c5.96.06 11.65 4.58 12.66 9.82.36 1.9.18 4.21-2.32 9.01-4.04 7.77-9.09 12.39-13.8 16.84-3.74 3.54-9.34 8.92-16.22 15.92v-.26a634.42 634.42 0 0 0-10.46-20.18c-3.09-5.7-6.45-11.66-7.87-20.31-.88-5.34-.34-7.59.6-9.28 2.55-4.6 9.31-7.38 15.09-5.38 6.04 2.09 9.91 9 8.41 16.2 1.43-7.35 7.5-12.45 13.92-12.38Z" fill="#ff7556"/>
  <path d="M51.76 65.91c4.59.12 9.18 2.84 11.18 7.04 1.74 3.65.22 7.24-1.52 10.6-4.26 8.2-11.06 14.12-17.61 20.43-4.15 4-8.25 8.06-12.29 12.18l1.35.56c-.07-1.37-1.24-2.91-1.85-4.13a610.376 610.376 0 0 0-6.62-12.81c-2.55-4.79-5.35-9.48-7.31-14.56-1.24-3.2-2.14-6.54-2.65-9.94-.36-2.37-.7-5.09.21-7.39 1.98-5.01 8.58-7.34 13.53-6.13 6.79 1.66 10.17 9.04 8.91 15.54-.19.99 1.32 1.42 1.53.42 1.3-6.32 6.42-11.78 13.16-11.8 1.02 0 1.02-1.59 0-1.58-7.41.02-13.24 5.96-14.68 12.96l1.53.42c1.16-5.93-.93-12.35-6.09-15.76s-11.89-2.51-16.37 1.33c-1.69 1.45-3.01 3.4-3.43 5.61-.57 3.05.01 6.33.64 9.32 1.39 6.67 4.41 12.64 7.63 18.58a583.462 583.462 0 0 1 7.31 13.94c.52 1.03 1.04 2.05 1.55 3.08.29.57.57 1.15.86 1.72.17.34.54.81.56 1.18.03.67.85 1.07 1.35.56 3.96-4.03 7.97-8.02 12.04-11.94 3.18-3.07 6.49-6.02 9.55-9.22 3.78-3.95 7.06-8.43 9.36-13.4 1.59-3.43 2.44-6.83.79-10.4-2.21-4.77-7.44-7.84-12.62-7.98-1.02-.03-1.02 1.56 0 1.58Z"/>
</svg>
