<?xml version="1.0" encoding="UTF-8"?><svg id="Layer_1" xmlns="http://www.w3.org/2000/svg" width="87.38" height="224.34" viewBox="0 0 87.38 224.34"><defs><style>.cls-1{fill:#f39c95;}.cls-2{fill:#ff7556;}</style></defs><path d="M24.71,118.16c.69-5.68,1.33-11.38,1.75-17.08,.33-4.43-1.81-8.33-4.23-11.92-2.25-3.33-5.01-6.48-6.78-10.1-.75-1.52-1.39-3.65-2.06-5.41-2.07-5.49-4.28-10.93-6.5-16.36-1.48-3.63-3.22-7.28-4.22-11.08-.19-.73-.41-1.68-.22-2.29,.04-.13,.12-.32,.43-.45,.92-.39,2.18,.09,3.04,.41,1.46,.54,2.98,1.32,4.21,2.3,1.99,1.59,3.36,3.91,4.79,5.98,1.58,2.29,3.16,4.58,4.82,6.81,.67,.9,1.33,1.88,2.16,2.64,1.83,1.67,3.36-.56,3.93-2.3,.81-2.46,1.05-5.14,1.3-7.7,.3-3.01,.51-6.03,.68-9.05,.33-5.98,.48-11.97,.56-17.96,.07-5.18-.22-10.45,.3-15.6,.17-1.67,.43-4.03,1.94-5.09,2.54-1.77,5.71,.79,6.61,3.13,.84,2.17,.86,4.58,.82,6.88-.05,2.56-.09,5.12-.11,7.68-.06,6.38-.04,12.77-.01,19.15,0,1.75-.16,3.59,.02,5.32,.09,.86,.53,1.48,1.46,1.6,2.86,.39,3.25-4.25,3.72-6.08,1.57-6.13,2.99-12.3,4.24-18.5,.68-3.34,1.32-6.7,1.87-10.07,.21-1.26,.39-2.52,.63-3.77,.42-2.21,.91-5,2.66-6.59,.97-.88,2.44-1.28,3.73-1,1.45,.32,2.1,1.49,2.37,2.85,.41,2.03,.04,4.16-.26,6.19-.68,4.6-1.3,9.2-1.87,13.82s-1.13,9.45-1.55,14.2c-.26,2.88-.74,6-.36,8.89,.09,.72,.42,1.64,1.36,1.39,1.23-.33,2.05-2.57,2.54-3.55,2.77-5.6,4.41-11.65,6.18-17.62,1.34-4.53,2.85-9.08,3.89-13.69,.32-1.43,.57-3.06,1.59-4.19s2.6-1.09,3.83-.38c1.4,.82,1.68,2.37,1.58,3.86-.24,3.44-1.2,6.93-1.92,10.29-1.74,8.13-3.73,16.21-5.23,24.39-.25,1.35-.48,2.7-.63,4.07-.08,.68-.23,1.55,.01,2.22,.59,1.65,2.14,.11,2.73-.67,1.09-1.42,2.09-2.94,2.97-4.5,2.63-4.64,3.99-9.85,6.57-14.49,.57-1.03,1.37-2.81,2.64-3.16,1.95-.54,3.09,1.99,3.07,3.47-.03,1.76-.75,3.55-1.24,5.21-.55,1.87-1.11,3.74-1.68,5.61-2.11,7-4.3,13.99-6.59,20.93-1.85,5.59-3.74,11.12-6.25,16.45-2.68,5.69-6.01,10.91-9.55,16.09-1.6,2.35-2.86,4.65-3.66,7.41-1.45,5.01-1.84,10.32-2.02,15.51l.8-.8c-10.61-.14-21.16-1.52-31.45-4.1-.99-.25-1.42,1.29-.42,1.54,10.42,2.62,21.13,4.01,31.87,4.16,.44,0,.78-.37,.8-.8,.19-5.36,.58-10.87,2.25-16.01,.98-3.01,2.73-5.38,4.48-7.97,3.53-5.23,6.66-10.57,9.25-16.33s4.44-11.61,6.36-17.52c2.32-7.11,4.52-14.26,6.66-21.42,.5-1.69,1.04-3.38,1.5-5.08,.41-1.52,.75-3.22,.26-4.77-.65-2.06-3.12-3.96-5.3-2.96s-3.57,4.24-4.48,6.31c-1.21,2.72-2.12,5.56-3.38,8.27-.8,1.71-1.66,3.41-2.67,5-.46,.72-.94,1.43-1.43,2.13-.26,.38-.52,.76-.82,1.11-.44,.54-.5,.25,.14,.71,.22,.15,.11,.16,.1,.17,.08-.26-.01-.71,0-.99,.03-.53,.1-1.06,.18-1.59,.22-1.53,.51-3.05,.8-4.57,.81-4.14,1.73-8.26,2.64-12.37s1.91-8.57,2.8-12.86c.36-1.72,.7-3.45,1-5.18s.71-3.62,.22-5.37c-.68-2.4-3.24-3.93-5.69-3.44s-3.42,2.77-3.95,4.88c-.23,.91-.41,1.83-.66,2.74-.75,2.78-1.56,5.55-2.36,8.31-1.77,6.06-3.35,12.25-5.78,18.09-.51,1.22-1.05,2.43-1.66,3.61-.24,.46-.48,.91-.74,1.35-.14,.23-.51,.59-.57,.84-.03,.11-.14,.11-.13,.14-.14-.2,.98,.06,.81,.2,.1-.09-.08,.21,0-.02,.01-.03-.03-.1-.03-.14,.02-.25-.07-.85-.07-1.23-.05-3.6,.38-7.23,.74-10.81,.5-4.99,1.1-9.97,1.75-14.95,.56-4.3,1.47-8.65,1.75-12.98,.13-2.04,.03-4.5-1.39-6.13-1.61-1.84-4.59-1.83-6.59-.65-3.6,2.14-3.99,7.54-4.58,11.21-1.39,8.71-3.28,17.36-5.39,25.92-.42,1.71-.86,3.41-1.3,5.11-.21,.8-.31,1.84-.78,2.54-.99,1.47-.78-.33-.79-1.01-.02-3.55-.03-7.1-.04-10.66,0-5.96,0-11.91,.11-17.87,.07-4.2,.57-9.84-3.12-12.78-1.82-1.44-4.71-2.09-6.74-.7-1.44,.99-2.05,2.77-2.37,4.41-.96,5.01-.5,10.34-.55,15.42-.06,5.92-.19,11.84-.47,17.75-.14,3.05-.34,6.1-.59,9.15s-.46,5.91-1.21,8.75c-.2,.76-.43,1.81-1.02,2.38-.13,.12-.25,.18-.28,.2-.08,.07,.17,.04-.02,0,.11,.03-.1-.08-.27-.25-.36-.34-.67-.74-.98-1.12-3.22-4.03-5.72-8.61-9.04-12.55-1.1-1.3-2.4-2.32-3.89-3.14-1.63-.89-3.59-1.87-5.49-1.83-2.54,.04-3,2.14-2.57,4.18,.74,3.57,2.45,7.03,3.82,10.39,2.31,5.66,4.63,11.32,6.8,17.04,.78,2.06,1.44,4.18,2.34,6.19,1.47,3.27,3.93,6.13,5.98,9.04,1.78,2.53,3.54,5.17,4.5,8.14,.55,1.71,.58,2.75,.44,4.57-.44,5.63-1.05,11.25-1.74,16.86-.12,1.02,1.47,1.01,1.59,0Z"/><g><path class="cls-1" d="M41.07,54.76c-5.04-1.23-10.81,1.34-12.79,5.54-.72,1.52-1.06,3.51,0,8.09,1.73,7.42,4.98,12.41,7.99,17.18,2.39,3.79,5.94,9.53,10.23,16.92l.07-.21c5.57-6.47,10.12-11.47,13.17-14.75,3.83-4.13,7.96-8.44,11.02-15.41,1.89-4.31,1.92-6.32,1.5-7.95-1.16-4.43-6.25-8.23-11.55-7.8-5.54,.45-10.29,5.45-10.59,11.84,.39-6.5-3.63-12.11-9.05-13.44Z"/><path d="M41.28,53.99c-3.93-.89-8.18,.13-11.25,2.77-2.55,2.2-3.48,5.1-3.12,8.39,.98,8.93,5.91,16.33,10.52,23.75,2.87,4.62,5.66,9.29,8.39,13.99,.35,.61,1.25,.45,1.46-.19,.17-.55,1.05-1.24,1.44-1.69,.6-.7,1.21-1.39,1.82-2.08,1.11-1.27,2.23-2.53,3.36-3.79,1.75-1.96,3.52-3.91,5.3-5.84,3.72-4.04,7.51-8.02,10.26-12.82,2.3-4.01,5.13-9.32,3.06-13.96s-7.82-7.72-12.98-6.79c-5.95,1.07-9.86,6.69-10.2,12.48h1.59c.29-6.27-3.35-12.56-9.64-14.21-.99-.26-1.42,1.28-.42,1.54,5.63,1.47,8.73,7.1,8.47,12.67-.05,1.03,1.53,1.02,1.59,0,.3-4.96,3.55-9.71,8.56-10.84s10.87,2.13,12.06,7.19c.41,1.73-.08,3.51-.66,5.14-1,2.85-2.44,5.57-4.09,8.09-2.66,4.05-6.06,7.49-9.32,11.04-1.85,2.02-3.69,4.05-5.51,6.09-1.16,1.3-2.31,2.61-3.45,3.92-.62,.71-1.24,1.43-1.86,2.14-.36,.42-.74,.77-.91,1.31l1.46-.19c-4.02-6.92-8.32-13.65-12.45-20.5-2.21-3.67-4.07-7.5-5.23-11.64-.85-3.04-1.93-6.87-.24-9.82,2.23-3.88,7.37-5.55,11.59-4.6,1,.23,1.42-1.31,.42-1.54Z"/></g><g><path class="cls-2" d="M12.45,126.88c-.13-4.01-.28-7.99-.46-11.93,7.78,2.37,17.18,4.63,27.95,6.02,10.16,1.31,19.32,1.56,27.11,1.32-1.89,4.69-3.75,9.75-5.51,15.14-2.04,6.28-3.7,12.27-5.05,17.89-.85,3.56-2.81,12.3-5.04,32.35-1.02,9.14-1.58,21.97-2.34,35.8-7.96,.18-14.87-.18-22.83,0s-17.52-.18-25.49,0c3.56-12.64,6.57-26.84,8.91-42.83,1.73-11.82,2.72-22.91,3.2-33.12-.08-6.78-.23-13.66-.46-20.65Z"/><path d="M13.24,126.88c-.13-3.98-.28-7.95-.46-11.93l-1.01,.77c14.11,4.28,28.75,6.76,43.48,7.33,3.93,.15,7.86,.16,11.79,.04l-.77-1.01c-4.87,12.12-8.96,24.71-11.54,37.52-2.39,11.83-3.89,23.94-4.8,35.97-.7,9.29-1.12,18.61-1.62,27.91l.8-.8c-8.31,.17-16.62-.06-24.92,.03-7.8,.09-15.6-.2-23.39-.03l.77,1.01c6.76-24.06,10.69-49.08,12.03-74.03,.19-3.63,.04-7.28-.03-10.91-.08-3.96-.19-7.92-.32-11.87-.03-1.02-1.63-1.03-1.59,0,.22,6.79,.51,13.61,.46,20.41-.05,6.16-.73,12.39-1.36,18.51-1.31,12.89-3.34,25.72-6.03,38.39-1.36,6.41-2.91,12.78-4.69,19.08-.14,.49,.25,1.02,.77,1.01,7.8-.16,15.6,.12,23.39,.03,8.31-.1,16.62,.14,24.92-.03,.45,0,.77-.36,.8-.8,.86-15.64,1.6-31.22,3.67-46.76,1.21-9.12,2.79-18.11,5.16-27s5.51-18.34,9.08-27.22c.19-.48-.29-1.02-.77-1.01-18.55,.55-37.1-1.92-54.85-7.31-.48-.15-1.03,.26-1.01,.77,.18,3.98,.33,7.95,.46,11.93,.03,1.02,1.63,1.03,1.59,0Z"/></g></svg>