<?xml version="1.0" encoding="UTF-8"?><svg id="Layer_3" xmlns="http://www.w3.org/2000/svg" width="92.7" height="77.24" viewBox="0 0 92.7 77.24"><defs><style>.cls-1{fill:#006837;}</style></defs><path class="cls-1" d="M61.91,69.06c1.62-2.64,3.23-5.28,4.85-7.92l-.93,.53c2.49-.21,4.63-2.16,4.49-4.79-.14-2.45-2.35-4.22-4.75-3.92s-4.18,2.31-4.4,4.69c-.05,.55-.07,.52-.45,.93-.65,.71-1.15,1.68-1.7,2.47-1.04,1.51-2.07,3.02-3.11,4.53l1.47-.38c-3.5-2.26-7-4.53-10.49-6.79l.38,1.47c2.57-4.05,5.14-8.1,7.71-12.15,.33-.51,.08-1.15-.38-1.47-1.04-.71-2.09-1.42-3.13-2.13-.49-.33-1.02-.84-1.56-1.07-.51-.22-.79-.06-1.33-.02-2.25,.15-2.01-2.08-1.14-3.4,.98-1.48,2.64-1.89,3.38,.07,.41,1.08,1.2,1.4,2.19,2.02,1.07,.68,2.15,1.36,3.22,2.04,.5,.32,1.17,.09,1.47-.38,2.78-4.4,5.55-8.8,8.33-13.2l-1.47,.38c8.84,5.57,17.69,11.14,26.53,16.72l-.38-1.47c-6.25,9.93-12.41,19.9-18.72,29.79l1.47-.38c-4.01-2.5-7.98-5.05-11.92-7.64-1.16-.76-2.23,1.09-1.08,1.85,3.94,2.6,7.92,5.14,11.92,7.64,.51,.32,1.16,.09,1.47-.38,6.3-9.89,12.47-19.86,18.72-29.79,.32-.5,.09-1.17-.38-1.47-8.84-5.57-17.69-11.14-26.53-16.72-.5-.32-1.17-.09-1.47,.38-2.78,4.4-5.55,8.8-8.33,13.2l1.47-.38c-1.61-1.02-3.22-2.04-4.83-3.06l.49,.64c-.4-1.74-1.73-3.33-3.64-3.36-1.62-.02-2.91,1.12-3.74,2.41s-1.31,2.83-.8,4.27c.73,2.04,2.93,2.61,4.86,2.19l-.83-.11c1.56,1.07,3.13,2.13,4.69,3.2l-.38-1.47c-2.57,4.05-5.14,8.1-7.71,12.15-.32,.51-.09,1.16,.38,1.47,3.5,2.26,7,4.53,10.49,6.79,.51,.33,1.15,.08,1.47-.38,.89-1.31,1.79-2.61,2.68-3.92,.47-.69,.94-1.37,1.41-2.06,.4-.59,.98-1.2,1.27-1.85,.34-.78,.13-1.62,.6-2.4,.62-1.03,2.05-1.72,3.21-1.23,1.26,.53,1.56,2.15,.82,3.22-.32,.47-.82,.82-1.37,.98-.57,.17-.97,.06-1.4,.52-.97,1.03-1.64,2.65-2.38,3.86-.85,1.39-1.7,2.78-2.55,4.17-.72,1.18,1.13,2.26,1.85,1.08Z"/><path class="cls-1" d="M48.4,18.62C38.49,12.46,28.58,6.3,18.67,.15c-.5-.31-1.17-.1-1.47,.38C11.52,9.58,5.83,18.63,.15,27.69c-.31,.5-.1,1.17,.38,1.47,3.7,2.27,7.39,4.54,11.09,6.81,.5,.31,1.17,.1,1.47-.38l2.52-4.05,1.26-2.03c.35-.56,.81-1.1,.9-1.76,.2-1.5,.47-2.98,2.16-3.49,1.37-.41,2.16,.9,2.09,2.12-.04,.64-.3,1.24-.72,1.72-.45,.51-.99,.61-1.5,.98s-.81,1.07-1.14,1.6l-1.26,2.03-2.52,4.05c-.31,.5-.1,1.17,.38,1.47,5.17,3.19,10.34,6.37,15.51,9.56,.49,.3,1.18,.11,1.47-.38,2.08-3.58,4.17-7.16,6.25-10.74,.3-.51,.11-1.16-.38-1.47l-3.44-2.14c-.92-.57-2.21-1.75-3.31-1.76-1.2-.02-2.32-.05-2.73-1.44-.35-1.18,.24-2.57,1.27-3.2,1.35-.83,3.02-.41,3.78,.99,.25,.45,.28,.92,.66,1.28,.49,.46,1.22,.78,1.79,1.13l3.78,2.35c.5,.31,1.17,.1,1.47-.38,2.47-3.98,4.94-7.95,7.41-11.93,.73-1.18-1.12-2.25-1.85-1.08-2.47,3.98-4.94,7.95-7.41,11.93l1.47-.38-5.46-3.39,.49,.64c-1.05-3.45-5.17-5-7.98-2.43-1.49,1.36-2.08,3.64-1.32,5.53,.83,2.08,2.98,2.85,5.06,2.48l-.83-.11,6.07,3.77-.38-1.47c-2.08,3.58-4.17,7.16-6.25,10.74l1.47-.38c-5.17-3.19-10.34-6.37-15.51-9.56l.38,1.47c1.51-2.43,3.02-4.86,4.53-7.29l-.64,.49c2.29-.93,3.9-3.07,3.47-5.64s-2.87-4.08-5.31-3c-1.87,.83-2.99,2.63-3.14,4.65-.01,.13,.01,.3-.02,.43-.05,.19-.11,.16-.1,.12-.3,.77-.95,1.52-1.38,2.23l-2.89,4.66,1.47-.38c-3.7-2.27-7.39-4.54-11.09-6.81l.38,1.47C7.68,19.72,13.37,10.66,19.05,1.61l-1.47,.38c9.91,6.16,19.82,12.32,29.73,18.47,1.18,.73,2.25-1.12,1.08-1.85Z"/></svg>