<svg height="209.61" viewBox="0 0 647.81 209.61" width="647.81" xmlns="http://www.w3.org/2000/svg"><path d="m131.63 58.05c-.44 1.95-1.03 4.8-1.6 8.26-.79 4.83-1.09 8.23-1.45 11.97-1.3 13.49-1.4 11.11-1.9 17.93-.44 5.85-.7 10.95-1.95 17.84-.19 1.07-.42 2.13-.71 3.35-1.32 5.55-2.93 10.12-3.75 12.44-2.13 6-4.21 10.35-6.38 15.01-3 6.46-5.51 11.15-6.29 12.59-2.04 3.78-3.93 7.04-5.52 9.68 3.41.86 6.83 1.73 10.24 2.59.25-3.16.84-7.61 2.35-12.84 1.41-4.87 3.25-9.16 5.28-13.86 0 0 3.48-8.08 5.09-12.82.52-1.55.97-3.1.97-3.1s.06-.22.12-.44c1.71-6.16 3.32-19.18 3.32-19.18 1.55-12.57 1.62-12.5 1.93-15.97.52-5.76.29-5.43.75-9.55 1.23-10.9 3.03-15.14 3.85-16.91 1.39-3.01 2.96-5.34 4.04-6.81-2.8-.06-5.6-.12-8.4-.18z"/><path d="m130.66 57.78c-1.85 8.31-2.66 16.69-3.54 25.14-.4 3.88-.99 7.75-1.31 11.64-.72 8.63-1.24 17.16-3.51 25.56s-5.27 15.65-8.77 23.16c-3.72 7.99-7.76 15.78-12.3 23.34-.33.55-.02 1.32.6 1.48 3.41.86 6.83 1.73 10.24 2.59.67.17 1.22-.32 1.27-.97.45-5.5 1.64-10.91 3.45-16.13 1.43-4.11 3.22-8.08 4.9-12.1s3.32-7.89 4.63-11.95c1.2-3.71 1.94-7.52 2.59-11.36 1.14-6.8 1.92-13.64 2.79-20.48.62-4.92.85-9.85 1.35-14.78s1.19-9.74 2.67-14.38c1.12-3.52 2.99-6.79 5.18-9.8.47-.65-.17-1.5-.87-1.51-2.8-.06-5.6-.12-8.4-.18-1.29-.03-1.29 1.98 0 2.01l8.4.18-.87-1.51c-2.03 2.79-3.8 5.84-4.98 9.09-1.26 3.48-1.94 7.18-2.48 10.83-.88 5.97-1.01 11.99-1.75 17.97-.79 6.34-1.52 12.7-2.49 19.01-.62 4.04-1.25 8.12-2.36 12.05-1.18 4.15-2.81 8.17-4.45 12.15-1.78 4.31-3.73 8.54-5.33 12.92-2.12 5.79-3.48 11.81-3.99 17.96l1.27-.97c-3.41-.86-6.83-1.73-10.24-2.59l.6 1.48c3.92-6.52 7.51-13.22 10.78-20.09 3.6-7.55 6.96-15.18 9.43-23.18 2.7-8.75 3.76-17.63 4.42-26.73.28-3.87.77-7.7 1.21-11.56 1.05-9.31 1.77-18.58 3.81-27.76.28-1.26-1.66-1.8-1.94-.53z"/><path d="m81.02 165.66c3.59-2.77 9.25-2 11.93 1.66 1.03 1.41 2.23 2.81 4.17 2.63 1.03-.09 2.03-.58 2.97-.97 1.13-.48 2.23-1.02 3.3-1.61.67-.37.07-1.4-.6-1.03-1.12.62-2.27 1.19-3.46 1.68s-2.5 1.13-3.73.42c-.95-.55-1.44-1.57-2.12-2.39-.57-.69-1.26-1.28-2.02-1.75-3.28-2.05-7.93-2.07-11.04.33-.6.46 0 1.5.6 1.03z"/><path d="m80.06 172.35c2.29-.74 4.78-.55 7.03-1.44s4.15-2.27 6.54-2.53c.75-.08.76-1.27 0-1.19-2.44.27-4.39 1.53-6.6 2.47-2.33.99-4.91.78-7.29 1.55-.73.23-.42 1.38.32 1.15z"/><path d="m85.69 180.15c2.15-1.67 4.15-3.67 7-3.89 2.5-.2 4.99.47 7.49.19 1.81-.2 3.73-.88 4.6-2.6.45-.87.59-1.85.87-2.78.38-1.25.93-2.45 1.42-3.65.29-.71-.86-1.02-1.15-.32-.45 1.1-.93 2.18-1.31 3.31-.32.97-.42 2.08-.93 2.97-1.23 2.15-4.38 2.03-6.5 1.87s-4.44-.49-6.56.17-4 2.5-5.77 3.88c-.6.47.24 1.31.84.84z"/><path d="m104.04 166.54c-.51 1.31-1.19 2.55-2 3.7-.73 1.03-1.56 2.04-2.66 2.7s-2.49.87-3.79.62c-.63-.12-1.24-.32-1.81-.62-.36-.2-.52-.29-.26-.67.22-.32.52-.59.84-.82.61-.45.02-1.48-.6-1.03s-1.4 1.12-1.59 1.93c-.2.88.56 1.41 1.25 1.74 1.54.74 3.36 1 5.02.54s2.89-1.55 3.91-2.84c1.18-1.5 2.13-3.15 2.82-4.92.28-.71-.87-1.02-1.15-.32z"/><path d="m108.98 167.52c1.33 1.91 2.88 3.77 4.69 5.25s4.08 2.36 6.33 2.68c1.18.17 2.4.02 3.57-.13 1.02-.13 2.03-.35 2.91-.9.76-.48 1.38-1.16 1.82-1.94.51-.91.57-2.16 1.34-2.87.56-.52-.28-1.36-.84-.84-1.22 1.14-1.1 3.01-2.36 4.19-.82.76-1.87 1.04-2.95 1.18s-2.24.3-3.33.13c-2.1-.31-4.29-1.18-5.91-2.56s-3.04-3.05-4.25-4.8c-.43-.62-1.47-.03-1.03.6z"/><path d="m120.74 175.58c.71 0 1.02.54 1.13 1.17.14.79.19 1.59.04 2.38s-.23 1.47-.11 2.24.43 1.49.73 2.2c.13.3.56.36.81.21.31-.18.34-.52.21-.81-.32-.76-.64-1.58-.65-2.41 0-.91.33-1.76.28-2.68-.05-.79-.09-1.74-.52-2.43s-1.14-1.05-1.92-1.06-.77 1.19 0 1.19z"/><path d="m122.87 179.38c.72.12.74 1.02 1.11 1.53.46.63 1.15 1.06 1.89 1.26.79.22 1.63.18 2.43.34s1.39.64 1.98 1.2c.56.52 1.4-.32.84-.84-.63-.59-1.29-1.15-2.13-1.41s-1.71-.2-2.55-.38c-.69-.15-1.37-.5-1.67-1.17-.17-.38-.28-.77-.56-1.1-.26-.3-.63-.52-1.02-.58-.32-.05-.64.08-.73.42-.08.28.1.68.42.73z"/><path d="m125.52 175.24c.39.51.87.92 1.46 1.19.67.31 1.37.4 2.09.53s1.37.3 2.05.48c.47.13 1.12.28 1.43.69.19.26.51.39.81.21.25-.15.41-.55.21-.81-.78-1.05-2.21-1.28-3.41-1.55s-2.79-.25-3.61-1.34c-.19-.26-.51-.39-.81-.21-.25.15-.41.56-.21.81z"/><path d="m113.44 172.91c1.01.96 1.38 2.24 1.89 3.49.23.57.5 1.12.86 1.62.45.63 1.02 1.14 1.23 1.92.74 2.77.41 6.08-1.32 8.41-.46.62.58 1.21 1.03.6 1.91-2.59 2.11-6 1.49-9.07-.15-.73-.47-1.3-.93-1.88-.54-.68-.97-1.33-1.3-2.14-.56-1.38-.99-2.75-2.11-3.8-.56-.53-1.4.31-.84.84z"/><path d="m117.91 181.23c.93 1.81 1.99 3.55 3.17 5.21.57.8 1.19 1.57 1.78 2.35.51.68 1.17 1.68.48 2.47-.5.57.34 1.42.84.84 1.67-1.9-.34-3.92-1.49-5.45-1.42-1.9-2.67-3.91-3.76-6.02-.35-.68-1.38-.08-1.03.6z"/><path d="m97.35 192.91c1.39-5.2 4.98-8.8 8.06-13.02.77-1.05 1.47-2.08 1.64-3.4.11-.85-.04-1.61-.14-2.43-.25-2.16.37-4.42.92-6.47.2-.74-.95-1.06-1.15-.32-.55 2.03-1.1 4.2-1 6.33.03.67.21 1.33.22 2 .03 1.78-1.05 3.08-2.07 4.43-3.04 4-6.3 7.57-7.63 12.56-.2.74.95 1.06 1.15.32z"/><path d="m93.65 189.59c.73-.19 1.46-.48 2.08-.91.53-.37.93-.85 1.4-1.29.22-.21.23-.21.47-.37.19-.12.4-.23.6-.32.61-.26 1.28-.39 1.93-.46.32-.04.59-.25.59-.59 0-.29-.27-.63-.59-.59-1.26.14-2.52.44-3.53 1.23-.46.36-.81.83-1.26 1.21-.57.48-1.29.76-2 .95s-.43 1.34.32 1.15z"/><path d="m99.47 186.84c.56 1.37.99 2.78 1.2 4.25s.14 2.87.41 4.29c.25 1.34.31 2.56-.16 3.86s-1.31 2.36-2.33 3.25c-.58.5.27 1.34.84.84 2.04-1.78 3.36-4.4 3-7.15-.11-.79-.31-1.56-.37-2.36s-.06-1.63-.16-2.45c-.2-1.67-.64-3.28-1.28-4.84-.29-.7-1.44-.39-1.15.32z"/><path d="m111.39 203.89c1.09-1.79-.2-3.4-1.21-4.88-.3-.44-.67-.95-.76-1.49-.13-.72.24-1.36.38-2.04.19-.91.1-1.84-.18-2.71-.66-2.05-2.17-3.65-3.39-5.37-.69-.98-1.48-2.13-1.58-3.36s.37-2.71.61-3.98c.14-.75-1-1.07-1.15-.32-.37 1.98-1.04 4.02-.24 5.97s2.44 3.58 3.6 5.39c.63.97 1.22 2.11 1.24 3.29.01 1.02-.58 1.92-.52 2.94.11 1.97 3.35 4.01 2.17 5.95-.4.66.63 1.25 1.03.6z"/><path d="m109.31 194.35c1.01.76 2.33.99 3.56 1.11 1.13.11 2.53.34 3.55-.3.65-.41.05-1.44-.6-1.03-.4.25-.87.26-1.32.25-.54-.01-1.09-.06-1.63-.11-1.04-.1-2.11-.31-2.96-.95-.26-.19-.67-.04-.81.21-.18.3-.04.62.21.81z"/><path d="m106.62 178c-.1.01.11.24.17.33.1.16.2.33.29.5.17.33.32.67.44 1.01.26.73.46 1.48.66 2.22.42 1.52.97 2.97 2.04 4.15.51.57 1.35-.27.84-.84-1.16-1.29-1.54-2.97-2-4.6-.23-.82-.5-1.62-.87-2.39s-.88-1.7-1.88-1.55c-.32.05-.49.45-.42.73.09.34.42.46.73.42z"/><path d="m113.72 177.38c.29-1.5-.36-2.87-1.19-4.07-.41-.6-.89-1.17-1.26-1.8-.42-.69.01-1.27.42-1.86.43-.63-.6-1.23-1.03-.6s-.84 1.29-.78 2.05.61 1.4 1.04 2c.81 1.12 1.94 2.49 1.65 3.97-.14.75 1 1.07 1.15.32z"/><path d="m100.92 209.57c1.56-.64 1.88-2.67 1.99-4.17.13-1.74-.36-3.41-1.46-4.76-.2-.25-.63-.21-.84 0-.25.24-.2.59 0 .84.85 1.04 1.18 2.35 1.13 3.67-.03.65-.15 1.29-.32 1.91-.14.48-.3 1.15-.81 1.36-.3.12-.51.4-.42.73.08.28.43.54.73.42z"/><path d="m95.48 201.95c.39-3.2 3.58-5.11 6.47-5.69.75-.15.43-1.3-.32-1.15-3.49.7-6.88 3.09-7.34 6.84-.04.32.3.59.59.59.35 0 .56-.27.59-.59z"/><path d="m106.43 202.3c1.04-1.09 2-2.26 2.85-3.5.18-.26.06-.67-.21-.81-.3-.16-.63-.06-.81.21s-.4.57-.61.85c-.06.07-.11.15-.17.22 0 0-.07.09-.05.06s-.04.05-.05.06c-.11.15-.23.29-.35.44-.46.56-.94 1.1-1.44 1.62-.22.22-.24.62 0 .84s.61.24.84 0z"/><path d="m92.19 198.35c-1.59-1.83-3.12-4.42-2.96-6.94s2.45-4.58 4.18-6.33c1.58-1.59 2.79-3.53 4.43-5.06s3.56-2.42 4.93-4.11c.48-.59-.36-1.44-.84-.84-1.57 1.94-3.95 2.98-5.62 4.82-.87.96-1.6 2.03-2.46 3-.96 1.09-2.04 2.07-3.03 3.13-1.66 1.78-3.02 3.86-2.74 6.4s1.62 4.87 3.27 6.77c.5.58 1.34-.26.84-.84z"/><path d="m76.2 180.41c1.39.83 2.47 2.1 4.01 2.68.77.29 1.53.33 2.35.3.94-.04 1.85.04 2.78.06 1.77.05 3.48-.57 5.22-.85s3.57-.24 5.24-.86c.71-.27.4-1.42-.32-1.15-1.55.58-3.26.56-4.89.81s-3.26.85-4.9.86c-.83 0-1.65-.12-2.48-.1s-1.59.13-2.4-.13c-1.55-.49-2.65-1.85-4.02-2.67-.66-.39-1.26.63-.6 1.03z"/><path d="m80.72 193.86c.71-.31 1.32-.76 1.96-1.18s1.33-.82 2.03-1.16 1.42-.63 2.16-.87 1.48-.39 2.1-.88c.25-.2.21-.63 0-.84-.25-.25-.59-.2-.84 0s-.59.27-.88.36c-.37.11-.74.23-1.11.36-.73.26-1.45.57-2.15.91s-1.33.71-1.95 1.13-1.22.84-1.91 1.14c-.3.13-.36.56-.21.81.17.31.52.34.81.21z"/><path d="m83.34 194.4c.29-.31.44-.67.59-1.06.02-.04.03-.09.05-.13.04-.11-.03.05 0-.01.04-.08.07-.15.12-.23.03-.05.07-.13.12-.17-.1.09-.01.02.01-.02.02-.03.05-.06.07-.08.46-.53 1-1.03 1.03-1.78.01-.31-.28-.61-.59-.59-.33.01-.58.26-.59.59 0 .03.02.12 0 .04s0 0-.01.03c0 .03-.02.06-.03.09-.02.07.07-.12 0-.02-.03.06-.06.12-.1.17-.02.02-.03.05-.05.07-.08.12.08-.1-.01.01-.18.22-.38.42-.57.64-.24.29-.41.58-.55.94-.03.07-.06.15-.08.22-.01.03-.02.06-.03.09-.06.15.05-.11-.01.03-.03.06-.06.13-.1.19-.02.03-.04.07-.07.1.06-.08 0 0-.03.03-.21.23-.24.62 0 .84s.61.24.84 0z"/><path d="m74.33 189.67c.87-1.33 1.54-2.78 2.47-4.07.79-1.1 1.79-2.02 3.01-2.63.69-.34.08-1.37-.6-1.03-1.34.67-2.42 1.69-3.31 2.89-.99 1.33-1.68 2.86-2.59 4.24-.42.64.61 1.24 1.03.6z"/><path d="m71.21 187.66.03.02.15.26s-.05.15-.03.17c0 0 .07-.11.07-.12.05-.07.1-.13.15-.19.14-.15.3-.25.5-.33.51-.18 1.03-.3 1.53-.5 1-.39 1.94-.9 2.88-1.42.67-.37.07-1.4-.6-1.03-1.12.62-2.25 1.23-3.47 1.6-.63.19-1.24.35-1.7.86-.43.47-.84 1.27-.1 1.7.66.38 1.26-.64.6-1.03z"/><path d="m75.99 204.3c1.07-.52 1.85-1.37 2.72-2.15 1.02-.9 2.28-1.44 3.37-2.23s2.11-1.7 3.4-2.28 2.68-.95 4.05-1.33c.74-.2.42-1.35-.32-1.15-1.33.37-2.67.75-3.94 1.28-1.34.57-2.41 1.37-3.54 2.26-1.06.83-2.31 1.37-3.37 2.21-1 .79-1.8 1.79-2.96 2.36-.69.34-.09 1.36.6 1.03z"/><path d="m85.65 201.47c.39-.27.73-.59 1.03-.95s.63-.76.88-1.17c.27-.44.37-.93.4-1.45.02-.41-.02-.83.16-1.21.14-.29.08-.64-.21-.81-.26-.15-.67-.08-.81.21-.22.44-.29.9-.31 1.38-.02.39 0 .78-.17 1.13s-.46.69-.7.98c-.25.31-.53.62-.86.85-.26.18-.38.52-.21.81.15.26.55.4.81.21z"/><path d="m84.44 200.19c-.11.09.05-.04.07-.05.05-.04.11-.08.16-.11.11-.07.22-.14.34-.21.23-.13.46-.25.7-.36.02-.01.05-.02.07-.03-.06.03-.06.03 0 0s.13-.05.19-.08c.13-.05.26-.09.4-.14.27-.08.55-.15.83-.21.31-.06.51-.44.42-.73-.11-.33-.4-.48-.73-.42-1.2.24-2.33.74-3.3 1.49-.25.19-.22.64 0 .84.26.24.58.2.84 0z"/><path d="m74.71 202.29c.26-.12.51-.22.82-.32s.61-.18.92-.24c.61-.13 1.21-.18 1.86-.18.31 0 .61-.28.59-.59s-.26-.59-.59-.59c-1.45-.01-2.88.29-4.2.9-.29.14-.36.55-.21.81.17.3.52.35.81.21z"/><path d="m74.66 197.34c1.22-.14 2.41.21 3.58.52s2.38.69 3.55 1.11c.72.25 1.03-.89.32-1.15-1.21-.43-2.44-.81-3.68-1.14s-2.49-.67-3.76-.53c-.32.04-.59.25-.59.59 0 .29.27.63.59.59z"/><path d="m76.95 199.57c.8-.44 1.61-.87 2.41-1.31.27-.15.38-.55.21-.81-.18-.28-.52-.37-.81-.21-.8.44-1.61.87-2.41 1.31-.27.15-.38.55-.21.81.18.28.52.37.81.21z"/><path d="m92.02 175c-.2-.05-.4-.1-.59-.17-.02 0-.17-.07-.06-.02-.04-.02-.08-.04-.12-.06-.09-.04-.18-.09-.26-.14-.08-.04-.15-.09-.23-.14-.04-.03-.09-.06-.13-.09-.09-.06.03.03-.02-.02-.14-.12-.28-.24-.4-.38-.03-.03-.05-.06-.08-.09.09.1-.01-.01-.02-.03-.05-.06-.09-.13-.13-.2-.03-.05-.06-.11-.09-.17 0-.01-.07-.15-.05-.1-.01-.03-.07-.19-.09-.27-.03-.1-.06-.19-.08-.29-.01-.05-.03-.1-.04-.16 0-.02 0-.04-.01-.06 0-.05 0-.03 0 .05-.03-.04.02-.27 0-.09.02-.12-.06.1 0 0-.02.04-.15.13-.05.07.27-.15.38-.55.21-.81s-.52-.37-.81-.21c-.56.31-.6.92-.46 1.48.13.52.32 1.04.65 1.47.63.82 1.56 1.36 2.56 1.59.3.07.66-.09.73-.42.07-.3-.09-.66-.42-.73z"/><path d="m94.31 175.37c-.41.22-.84.45-1.16.79s-.53.78-.68 1.24c-.07.21-.14.42-.21.63-.04.12-.08.24-.12.36-.02.05-.04.11-.05.16 0 .02-.05.13-.01.05 0 .01-.08.14-.04.09s-.05.05-.06.06c-.1.09.04-.01-.02.02-.04.02-.08.05-.12.07 0 0-.17.08-.06.03-.04.02-.09.03-.14.05-.1.04-.2.07-.3.1-.3.09-.52.42-.42.73s.41.51.73.42c.43-.13.89-.28 1.21-.61.36-.37.46-.93.62-1.4.07-.21.14-.42.22-.63.03-.09 0 0 .02-.05s.04-.09.06-.14c.04-.08.12-.21.15-.25s.14-.14.2-.2c.02-.01.07-.06.02-.02.05-.04.1-.07.15-.11.2-.13.41-.24.61-.35.28-.15.38-.55.21-.81-.18-.28-.52-.37-.81-.21z"/><path d="m101.43 170.47-1.13.42c-.16.06-.33.12-.49.18-.04.02-.09.03-.13.04.13.02.14.01.04-.01.04.02.03 0-.03-.02-.04-.02-.07-.04-.11-.06-.02-.01-.19-.14-.13-.09-.06-.05-.13-.1-.19-.15-.13-.11-.26-.21-.41-.31-.33-.21-.71-.34-1.11-.33-.31 0-.61.27-.59.59s.26.6.59.59h.13.03c.04 0 .08.02.12.03.07.02.08.03.03 0 .07.03.14.07.21.12.03.02.07.04.1.07.05.04.06.05.02.02.31.24.59.5.97.64.45.17.86-.03 1.29-.19l1.13-.42c.29-.11.52-.41.42-.73-.09-.29-.42-.53-.73-.42z"/><path d="m87.03 166.52c.73.02 1.47.01 2.13-.32.58-.29.98-.8 1.36-1.3.19-.25.05-.68-.21-.81-.31-.16-.61-.05-.81.21-.02.03-.1.1-.1.14.04-.06.05-.07.03-.04 0 .01-.02.02-.03.03-.02.02-.04.05-.05.07-.08.1-.16.19-.25.28-.04.04-.08.08-.13.12-.02.02-.04.04-.07.06 0 0-.11.09-.04.04.06-.05-.02.01-.03.02-.02.02-.05.03-.08.05-.06.04-.12.07-.18.1-.03.01-.06.03-.09.04.05-.02.07-.03 0 0-.06.02-.13.04-.2.06-.08.02-.15.03-.23.05-.09.02.09 0 0 0-.03 0-.07 0-.1.01-.31.03-.62.02-.93 0s-.61.28-.59.59c.01.33.26.58.59.59z"/><path d="m84.41 173.73c.53-.31 1.02-.74 1.32-1.28.14-.25.23-.53.33-.79.01-.03.03-.06.03-.08-.03.13-.03.06 0 0s.05-.11.08-.16c.02-.03.04-.06.06-.09.04-.07 0 .02-.03.03.06-.04.11-.12.16-.16.24-.2.22-.64 0-.84-.25-.23-.59-.22-.84 0-.22.19-.39.44-.5.71-.06.15-.12.3-.18.45-.02.06-.05.12-.07.19-.03.07 0-.02.02-.04-.02.03-.03.07-.05.1-.05.11-.12.21-.19.31-.02.02-.05.11-.02.03s0 0-.02.03c-.04.05-.08.1-.13.14s-.09.09-.14.13c-.03.03-.06.05-.09.08-.08.07.07-.05.01 0-.12.08-.23.16-.36.23-.27.15-.39.55-.21.81s.52.38.81.21z"/><path d="m83.7 170.31c-.51-.57-1.18-.97-1.89-1.26-.13-.05-.34 0-.46.06s-.24.21-.27.36-.03.32.06.46l.09.12c.07.07.16.12.26.15.03.01.05.02.08.03l-.14-.06c.37.16.72.35 1.04.6l-.12-.09c.18.14.35.3.51.47.21.23.63.23.84 0 .23-.25.22-.59 0-.84z"/><path d="m91.68 164.77c.36-.62.4-1.34.1-2-.13-.28-.32-.53-.52-.77-.09-.11-.18-.23-.28-.34.03.04.04.05 0 0-.01-.02-.05-.13-.04-.05.02.09.03.1 0 .21-.04.14-.08.19-.24.26.29-.11.52-.4.42-.73-.09-.28-.42-.54-.73-.42-.22.09-.4.21-.52.42-.13.26-.11.55.02.81.08.16.21.3.32.44.05.06.1.12.15.18.03.03.05.07.08.1.02.02.09.12.02.02.09.12.17.25.24.38.03.05.02.04 0 0 .01.04.03.08.04.12s.02.08.03.12c.02.07.02.03 0-.02.02.07.01.17 0 .24v.1-.06s0 .05 0 .07c-.02.07-.04.14-.06.21.01-.05.03-.06 0 0-.02.04-.05.09-.07.13-.16.27-.07.66.21.81s.65.07.81-.21z"/><path d="m105.46 121c1.5-.23 3.15.38 3.86 1.42.54.8.56 1.75.92 2.6.73 1.74 3.05 2.99 5.41 2.93.49-.01 1-.08 1.38-.33.73-.47.64-1.35.41-2.06-.21-.61-.49-1.22-.97-1.73-.63-.67-1.57-1.13-2.48-1.58-1.68-.82-3.42-1.65-5.38-1.85-1.22-.12-2.47 0-3.67.23"/><path d="m105.46 121.77c1-.13 2.1.04 2.88.71.83.72.8 1.98 1.23 2.93.84 1.88 2.94 2.97 4.89 3.24 1.06.15 2.4.19 3.25-.58.76-.7.76-1.78.46-2.7-.35-1.07-.94-1.98-1.85-2.66-.97-.72-2.13-1.22-3.22-1.72-1.27-.58-2.57-1.08-3.96-1.28-1.48-.22-2.95-.07-4.42.19-.97.18-.56 1.66.41 1.49 2.26-.41 4.34-.25 6.47.62.94.39 1.87.84 2.77 1.31s1.71 1.03 2.14 2.01c.33.75.62 1.66-.44 1.83-.91.15-1.93-.05-2.78-.39-.76-.3-1.51-.78-2-1.44-.53-.71-.58-1.59-.88-2.4-.73-2.01-2.92-2.97-4.96-2.7-.42.05-.77.32-.77.77 0 .38.36.82.77.77z"/><path d="m117.4 128.15c1.24.35 2.36.96 3.23 1.73"/><path d="m117.19 128.89c.29.08.58.18.87.3.03.01.07.03.1.04.09.04-.14-.06 0 0 .07.03.13.06.2.09.14.06.28.13.41.21.26.14.51.29.75.45.06.04.11.08.17.12.03.02.06.04.08.06.08.06 0-.01-.03-.03.12.05.25.21.35.29.3.27.8.32 1.09 0 .27-.29.32-.8 0-1.09-1.02-.91-2.25-1.55-3.57-1.93-.39-.11-.86.14-.95.54s.12.83.54.95z"/><path d="m126.16 123.13 2.99-.37c.13-.02.27-.04.36-.11.15-.12.1-.32.07-.48-.31-1.37 1.02-2.73 2.67-3.29 1.65-.57 3.53-.52 5.33-.4s3.63.31 5.39-.01c-1.05.58-2.1 1.16-3.15 1.74-.85.47-1.7.94-2.43 1.52-.46.37-.87.78-1.37 1.12-.88.61-2.05.99-3.23 1s-2.38-.37-3.17-1.05"/><path d="m126.16 123.8c.94-.12 1.88-.23 2.82-.35.57-.07 1.15-.2 1.28-.85.12-.62-.16-1.08.22-1.68.43-.67 1.2-1.14 1.94-1.4 3.41-1.2 7.2.16 10.72-.42l-.52-1.22c-2.04 1.13-4.26 2.13-6.05 3.64-.96.81-1.92 1.45-3.2 1.6-1.13.14-2.38-.1-3.28-.82-.67-.53-1.62.41-.95.95 1.94 1.55 4.74 1.61 6.87.38 1.16-.67 2.08-1.68 3.26-2.36 1.33-.77 2.69-1.49 4.04-2.24.71-.39.19-1.34-.52-1.22-3.54.58-7.25-.8-10.72.42-1.2.42-2.39 1.2-2.94 2.39-.12.27-.21.55-.24.85-.02.14.09.84.05.88.19-.2-.43-.18-.44-.18-.21 0-.45.06-.66.08l-1.66.2c-.85.1-.86 1.45 0 1.34z"/><path d="m125.73 125.83c.78.65 1.92 1.05 3.07 1.07.68.01 1.36-.1 2.05-.1 1.19 0 2.34.33 3.45.66 1 .29 2 .59 2.88 1.05 1.17.62 2.15 1.54 3.54 1.76-.78-.02-1.56.08-2.3.27-.77.2-1.5.52-2.31.59-.54.05-1.09-.02-1.62-.12-2.71-.53-5.03-2.12-6.05-4.13"/><path d="m125.36 126.2c.93.73 2.01 1.14 3.2 1.22.77.05 1.53-.09 2.29-.09.82 0 1.62.17 2.4.38 1.35.36 2.76.72 3.97 1.42 1.1.63 2.08 1.4 3.36 1.65l.14-1.04c-1.21 0-2.3.25-3.46.6-1.23.37-2.35.3-3.57-.07-1.97-.59-3.82-1.81-4.8-3.66-.32-.6-1.23-.07-.91.53 1.03 1.95 2.92 3.28 4.97 3.99 1.12.39 2.37.66 3.56.47.7-.11 1.36-.38 2.05-.56s1.43-.26 2.16-.25c.58 0 .74-.92.14-1.04-1.22-.24-2.14-1.01-3.2-1.6-1.12-.63-2.37-.98-3.6-1.33-1.3-.37-2.58-.62-3.94-.53-1.43.09-2.83.07-4.01-.86-.53-.41-1.28.33-.75.75z"/><path d="m168 35.7c.62 1.1.81 1.1 2.88 3.88.74.99 1.49 2.01 1.86 3.21.37 1.19.29 2.61-.52 3.55-.85 1-2.3 1.22-3.57 1.02-1.28-.2-2.48-.74-3.74-1.02-1.87-.42-3.86-.24-5.63.49-2.53 1.05-4.64 3.2-7.33 3.59-2.83.41-5.51-1.22-8.02-2.64-3.28-1.85-6.77-3.46-10.49-3.85-1.66-.17-3.49-.15-4.78-1.25-1.26-1.06-1.61-2.85-2.09-4.45-.85-2.85-2.31-5.5-4.25-7.72-1.42-1.62-2.26-2.5-2.4-4.12-.08-.91.18-1.1.47-3.11.43-3-.05-3.24.4-4.43.73-1.89 2.74-3.31 4.65-3.52 1.94-.22 2.14 1 4.42 1.23.6.06 1.67.08 7.73-2.54 3.13-1.36 3.37-1.59 4.28-1.57 2.26.05 2.86 1.6 5.6 2.51 2.01.66 4.19.15 6.28.39 3.39.38 6.28 2.66 8.7 5.14 1.23 1.26 2.5 2.72 3.19 5 .59 1.97.14 2.64.86 5.79.4 1.72.68 2.96 1.5 4.42z" fill="#bd0e0d"/><path d="m167.56 35.96c.72 1.26 1.73 2.35 2.59 3.5s1.87 2.38 2.18 3.83c.41 1.9-.63 3.51-2.62 3.61-1.47.08-2.85-.6-4.25-.96-1.23-.32-2.5-.42-3.76-.27-2.75.33-4.78 1.96-7.14 3.25-3.1 1.7-5.91.88-8.86-.73-2.54-1.39-5.03-2.84-7.78-3.77-1.29-.44-2.62-.77-3.98-.95-1.44-.19-3.1-.08-4.41-.81-1.2-.67-1.7-1.93-2.08-3.17-.41-1.32-.77-2.64-1.33-3.91-1.14-2.61-2.86-4.56-4.6-6.76-.67-.86-1.21-1.85-1.11-2.98.09-1.01.41-2.01.54-3.01.21-1.74-.18-3.43.95-4.9.8-1.04 2.02-1.82 3.33-2.05 1.19-.21 1.93.39 2.97.81 2.33.93 4.58-.15 6.77-1.02 2.01-.8 4-1.99 6.09-2.58 1.81-.51 3.19.89 4.67 1.68 1.24.66 2.55 1 3.95 1.06 1.78.07 3.53-.19 5.28.27 3.02.8 5.52 3 7.59 5.24 1.84 1.99 2.78 4.17 2.97 6.85s.77 5.43 2.04 7.78c.32.59 1.21.06.89-.52-1.36-2.53-1.7-5.4-1.96-8.2-.22-2.31-1.25-4.38-2.75-6.13-1.77-2.05-3.93-4.01-6.38-5.21-1.14-.56-2.34-.94-3.6-1.08-1.82-.2-3.69.19-5.5-.2-2.35-.5-4.04-2.75-6.52-2.7-1.52.03-3.07 1.06-4.41 1.64-2.01.87-4.1 1.84-6.24 2.35-1.3.31-2.3-.12-3.52-.7-1.94-.92-4.16-.15-5.69 1.22-1.42 1.27-1.8 2.66-1.81 4.46-.01 1.31-.2 2.61-.48 3.9-.15.71-.25 1.36-.12 2.09.21 1.16.86 2.08 1.6 2.97 1.17 1.41 2.33 2.75 3.24 4.35.74 1.32 1.33 2.71 1.77 4.16.39 1.29.67 2.67 1.45 3.8 1.63 2.37 4.61 2 7.11 2.45 3.45.62 6.59 2.22 9.61 3.93 2.49 1.41 5.27 2.92 8.23 2.3 3.33-.7 5.66-3.6 9.08-4.12 2.02-.31 3.8.3 5.71.84 1.34.38 2.78.59 4.1.02 2.89-1.25 2.3-4.74.93-6.91-1.16-1.82-2.76-3.36-3.83-5.23-.33-.58-1.22-.06-.89.52z"/><path d="m162.84 45.35c.64-1.04-.62-3.19-1.8-4.48-1.58-1.74-2.6-1.43-3.94-3.2-.68-.89-1.06-1.98-1.45-3.04-.7-1.9-1.45-3.81-2.57-5.48s-2.65-3.12-4.52-3.79c-1.35-.49-2.81-.55-4.24-.61-1.77-.07-3.55-.14-5.31.08-1.29.16-2.59.48-3.86.22-2.08-.43-2.27-1.17-3.8-1.33-2.19-.22-4.57 1.29-5.78 3.28-1.25 2.06-.99 4.21-.81 5.72.14 1.2.75 2.67 1.95 5.55 1.79 4.28 2.26 4.7 2.68 4.97 1.42.92 2.25.1 5.25.51 2.43.33 4.18 1.17 6.07 2.07 3.65 1.76 3.36 2.61 5.93 3.55 1.35.49 4.39 1.61 7.42.47 2.87-1.08 3.32-3.28 6.6-3.83 1.05-.18 1.81-.09 2.17-.67z" fill="#e9afaf"/><path d="m163.28 45.61c.65-1.41-.27-3-1.1-4.14-.51-.7-1.09-1.35-1.77-1.88s-1.52-.87-2.17-1.45c-1.75-1.54-2.2-4.15-3.1-6.21-.83-1.9-1.87-3.75-3.4-5.18-1.37-1.27-2.99-2.06-4.84-2.33-2.39-.35-5-.41-7.4-.17-1.16.11-2.32.42-3.49.37-1.06-.04-1.97-.45-2.91-.9-1.39-.67-2.86-.68-4.3-.1-3.8 1.52-5.04 5.32-4.54 9.1.19 1.41.75 2.74 1.29 4.05.72 1.76 1.42 3.56 2.31 5.25s1.99 2.27 3.95 2.17c4.09-.21 8.31 1.38 11.57 3.82 2.78 2.08 6.4 3.45 9.92 2.61 1.93-.46 3.18-1.68 4.68-2.85.93-.73 1.96-1.13 3.12-1.3.78-.11 1.57-.11 2.1-.76.41-.51-.31-1.25-.73-.73-.46.56-1.46.44-2.14.58-.78.15-1.53.43-2.2.85-1.16.71-2.04 1.77-3.21 2.46-2.88 1.7-7.12.99-9.83-.84-1-.68-1.9-1.45-2.96-2.05-1.48-.82-3.06-1.56-4.67-2.1s-3.37-.81-5.1-.75c-.93.03-2.03.24-2.79-.38-.5-.41-.78-1.12-1.05-1.68-.82-1.66-1.51-3.39-2.2-5.11-1.21-3.02-2.05-6.75.28-9.5 1.19-1.4 3.17-2.57 5.06-2.17 1.36.29 2.41 1.17 3.85 1.33 1.95.22 3.96-.41 5.91-.43 2.13-.02 4.54-.1 6.59.52 4.58 1.39 5.99 6.38 7.62 10.3.69 1.67 1.67 2.85 3.22 3.78.97.58 1.78 1.27 2.45 2.19.55.76 1.55 2.13 1.1 3.1-.28.6.61 1.12.89.52z"/><path d="m148.21 49.25c2.24-.04 4.81-2.09 5.13-4.68.25-1.99-.92-3.59-1.64-4.57-.92-1.25-1.92-2.08-3.37-2.92-1-.58-2.05-1.07-2.99-1.75-2.61-1.87-2.24-2.96-4.44-4.35-.51-.32-3.03-1.91-5.48-1.05-.82.29-1.4.77-2.04 1.29-1 .82-1.99 1.64-2.44 2.99-.39 1.19-.06 1.9-.77 2.85-.38.51-.56.43-.85.9-.73 1.18-.25 2.71-.16 3 .06.19.54 1.65 1.94 2.43.77.43 1.37.41 2.34.49 2.01.18 3.47.65 5.42 1.27 1.86.59 2.79.89 3.94 1.62 1.08.69 1.49 1.2 2.73 1.75.73.32 1.66.73 2.69.72z" fill="#bd0e0d"/><path d="m148.21 49.76c2.13-.12 4.09-1.45 5.07-3.34 1.11-2.15.49-4.38-.83-6.26-1.62-2.32-3.78-3.36-6.13-4.8-1.25-.77-2.19-1.7-3.07-2.84-.6-.78-1.27-1.44-2.1-1.98-1.7-1.09-3.89-1.78-5.87-1.1s-4.2 2.68-4.84 4.64c-.21.64-.16 1.31-.34 1.95s-.64.94-1.03 1.41c-.68.81-.77 1.93-.59 2.94.27 1.56 1.29 3.07 2.8 3.67s3.23.42 4.75.81 3.03.86 4.49 1.39c2.72.99 4.64 3.39 7.7 3.52.66.03.66-1.01 0-1.03-2.47-.1-3.99-1.89-6.06-2.91-1.81-.9-3.9-1.47-5.85-1.96-2.06-.52-4.83-.09-6.16-2.05-.28-.41-.48-.87-.59-1.36s-.15-.93-.07-1.41c.14-.81.65-1.08 1.1-1.67.49-.65.56-1.33.67-2.11.2-1.38.93-2.34 1.96-3.23.81-.71 1.67-1.46 2.74-1.73 1.23-.31 2.55.02 3.67.55 1.48.7 2.38 1.77 3.38 3 1.47 1.8 3.49 2.68 5.42 3.87s3.89 3.19 4.35 5.47c.55 2.72-1.89 5.38-4.57 5.53-.66.04-.66 1.07 0 1.03z"/><path d="m140.71 45.83c1.47.44 3.29.98 4.28.08.24-.22.39-.5.64-1.07.33-.74.67-1.52.64-2.34-.04-1.31-1-2.39-2-3.2-1.16-.93-2.45-1.69-3.83-2.23-1.29-.5-2.69-.82-4.04-.55-.35.07-2.36.66-3.01 2.6-.56 1.68.19 3.52 1.25 4.42.65.55.92.34 3.51 1.3 1.62.6 1.54.69 2.56.99z" fill="#e9afaf"/><path d="m140.58 46.33c1.28.38 2.9.94 4.2.33.54-.25.88-.66 1.14-1.18.36-.72.71-1.5.83-2.29.51-3.18-3.28-5.4-5.74-6.44-2.31-.97-5-1.33-6.97.49s-1.69 5.36.53 6.88c.69.48 1.65.6 2.44.85 1.21.4 2.36.98 3.59 1.35.64.19.91-.8.27-1-.7-.21-1.36-.53-2.05-.8-.97-.38-1.95-.69-2.95-.98-1.76-.51-2.6-2.86-1.88-4.51.8-1.83 2.89-2.34 4.68-1.97 1.39.28 2.71.9 3.91 1.65 1.06.66 2.21 1.47 2.83 2.58.41.72.44 1.47.19 2.26-.19.6-.45 1.42-.88 1.9-.87.97-2.85.17-3.86-.13-.64-.19-.91.81-.27 1z"/><path d="m140.88 42.29c-.12-.41-.34-1.14-1.04-1.62-.21-.14-.95-.65-1.43-.34-.49.32-.46 1.07-.26 1.63.05.16.32 1.3 1.22 1.5.65.15 1.45-.23 1.57-.73.02-.09.02-.19-.05-.43z" fill="#961710"/><path d="m141.25 42.18c-.1-.33-.22-.66-.39-.97-.23-.39-.53-.69-.91-.94-.31-.2-.65-.38-1.02-.43-.47-.06-.92.16-1.14.59-.31.62-.14 1.34.09 1.96.27.71.76 1.34 1.55 1.45.52.07 1.06-.09 1.46-.42.18-.15.33-.35.39-.58s.02-.45-.04-.67c-.14-.48-.89-.27-.75.21.01.05.03.1.04.15 0 .02 0 .14 0 .04v.08c0-.09 0-.06 0 0-.01.09.02-.03 0 .02-.01.03-.03.05-.04.08-.06.08.05-.03-.03.04 0 0-.11.1-.07.07-.24.19-.52.26-.82.25-.1 0-.27-.06-.34-.1-.02-.01-.04-.02-.06-.04 0 0-.1-.07-.04-.02-.06-.05-.12-.11-.18-.17-.02-.03-.05-.05-.07-.08.01.01.04.06 0 0s-.07-.11-.11-.17-.06-.11-.09-.17c0-.02-.02-.04-.03-.05 0-.02-.02-.04-.02-.05.02.05.02.05 0 .01-.05-.15-.1-.3-.15-.44-.04-.13-.09-.32-.09-.4s-.01-.17 0-.26c0-.1 0-.1.02-.18s.04-.14.06-.16c0 0 .07-.11.03-.05.02-.02.03-.04.05-.06.07-.08-.05.02.04-.04 0 0 .11-.05.04-.03 0 0 .12-.03.04-.02h.15c-.02 0-.07-.01.01 0 .04 0 .08.02.12.03s.08.02.11.04c.12.04-.06-.03.05.02.13.06.25.13.37.2.28.18.5.4.66.66.05.08.09.17.14.25.02.03.03.07.05.11-.03-.07.02.04.02.04.05.14.1.28.14.42.14.48.89.27.75-.21z"/><path d="m120.52 21.8c-.36-.2-1.97 2.03-3.15 4.23-.94 1.76-1.38 2.65-1.48 3.74-.19 2.12 1.05 4.09 2.44 5.66s3.01 3 3.9 4.92c1.13 2.44.56 3.08 1.5 5.23 1.94 4.45 6.87 6.13 7.29 6.27 3.92 1.28 4.84-.82 9.11.38 3.6 1.01 3.44 2.65 7.3 3.78 1.28.37 4.85 1.42 8.48-.02 3.15-1.25 5.78-4.14 6.68-5.12 1.2-1.32 1.94-2.6 3.67-3.2 1.77-.61 3.41-.14 3.42-.28.02-.13-1.52-.4-4.73-.95-3.6-.62-4.02-.68-4.77-.46-1.45.41-2.71 1.44-3.56 2.14-1.07.87-1.05 1.1-1.83 1.56-1.46.87-2.92.88-3.69.88-1.67 0-2.91-.5-3.77-.86-1.42-.59-1.76-1.03-3.42-2.07-1.62-1.02-3.89-2.43-6.93-3.15-1.93-.45-3.56-.59-3.56-.59-1.65-.14-2.5-.03-3.56-.59-.5-.27-1.06-.69-1.77-1.66-2.22-3-1.38-4.92-3.36-8.02-.68-1.06-.71-.72-2.38-2.96-1.51-2.03-2.28-3.07-2.51-4.21-.5-2.5 1.01-4.46.66-4.65z" fill="#bd0e0d"/><path d="m120.65 21.3c-.79-.11-1.33.76-1.75 1.31-1.08 1.44-1.99 3.04-2.76 4.67-1.27 2.67-.73 5.2 1.03 7.54 2.06 2.75 4.75 4.67 5.36 8.26.47 2.73 1.72 5 3.88 6.76 1.3 1.06 2.81 1.93 4.4 2.48 1.16.39 2.37.55 3.58.42s2.39-.44 3.62-.37c1.65.1 3.3.67 4.66 1.61.98.67 1.86 1.42 2.96 1.92 2.48 1.12 5.47 1.62 8.16 1.19 3.4-.54 6.21-2.76 8.53-5.19 1.03-1.08 1.91-2.51 3.19-3.31.98-.6 2.12-.77 3.25-.71.35.02.84.16 1.16-.04.26-.16.3-.44.19-.71-.15-.34-.74-.4-1.04-.47-1.16-.26-2.35-.44-3.52-.64-1.61-.28-3.56-.92-5.21-.61-2.11.39-3.71 2.08-5.26 3.42-2.14 1.84-5.47 1.37-7.82.28-2.17-1-4.02-2.64-6.19-3.69-2.34-1.14-4.86-1.76-7.44-2.02-1-.1-2.1 0-3.06-.35-1.38-.49-2.32-1.89-2.94-3.15-1.14-2.29-1.17-4.87-2.76-6.99-1.35-1.81-3.01-3.4-4.08-5.42-.69-1.3-.61-2.72-.17-4.09.19-.57.73-1.41.26-1.96-.43-.51-1.16.23-.73.73-.3-.36.02-.26-.19.04-.11.16-.18.47-.24.65-.17.5-.32 1-.4 1.52-.16 1.03-.09 2.09.31 3.06.83 1.98 2.45 3.86 3.87 5.45 1.58 1.76 1.95 3.88 2.65 6.06.64 1.98 1.95 4.28 4.01 5.05 1.04.39 2.18.32 3.27.42 1.15.1 2.3.3 3.42.57 2.75.66 5.21 2.02 7.54 3.57 3.76 2.5 8.36 3.82 12.03.42 1.71-1.58 3.47-2.81 5.82-2.47 1.56.23 3.12.52 4.67.79.57.1 1.14.2 1.7.31.15.03.37.12.52.12.29 0 .23.21.1-.08l.19-.71c.24-.15-.08-.03-.24-.07-.27-.06-.61-.04-.89-.04-.58 0-1.17.07-1.74.21-1.29.34-2.29 1.11-3.16 2.09-1.65 1.86-3.26 3.7-5.34 5.11-2.85 1.92-6.1 2.36-9.41 1.56-1.16-.28-2.31-.64-3.35-1.24-.94-.55-1.73-1.29-2.66-1.85-2.09-1.24-4.55-1.59-6.93-1.21-1.93.31-3.65.29-5.47-.51-2.03-.9-3.94-2.28-5.21-4.13-1.5-2.19-1.32-4.82-2.53-7.12-1.62-3.08-5.25-5-6-8.55-.38-1.81.48-3.35 1.32-4.9.41-.76.85-1.51 1.33-2.23.24-.37.49-.73.77-1.08.05-.06.63-.66.46-.68.65.09.93-.91.27-1z"/><path d="m119.56 36.78c-.26 1.06-1.7 7.34 2.01 13.17.25.39 3.42 5.25 8.25 6.52.5.13 2.05.5 3.84.85 3.23.63 3.61.5 4.89 1.02 1.99.81 2.09 1.43 3.78 2.05 1.3.48 2.51.42 4.1.12 4.47-.83 10.8-4.99 11.74-5.54-1.24.48-4.04 1.99-6.42 1.86-2.45-.14-4.32-.95-5.64-1.54-3.84-1.71-4.47-3.38-7.15-3.42-.87-.01-1.02.16-2.91.22-1.56.05-2.78.08-4.08-.15-.73-.13-3.9-.69-6.19-3.33-1.06-1.22-1.58-2.47-2.07-3.67-.87-2.11-.71-2.92-1.51-4.61-.44-.94-1.21-2.23-2.64-3.55z" fill="#bd0e0d"/><path d="m119.07 36.64c-1.63 6.71.7 13.78 6.16 18.02 3.38 2.63 7.58 2.97 11.66 3.73 1.74.33 2.97 1.39 4.5 2.15 2.02 1 4.27.77 6.38.17 3.84-1.1 7.27-3.27 10.66-5.31.48-.29.16-1.17-.4-.94-1.4.56-2.75 1.24-4.22 1.61-1.91.47-3.86.12-5.68-.52-1.6-.56-3.12-1.32-4.54-2.24-1-.65-1.97-1.42-3.13-1.76-.97-.28-1.9-.2-2.88-.09-1.79.19-3.72.27-5.51-.04-3.16-.55-5.85-2.39-7.27-5.3-.83-1.71-1.14-3.52-1.8-5.27s-1.74-3.19-3.06-4.45c-.48-.46-1.21.27-.73.73 1.39 1.34 2.5 2.89 3.04 4.75.48 1.63.91 3.22 1.66 4.77 1.42 2.92 4.09 4.91 7.23 5.64 1.39.32 2.81.36 4.24.32 1.28-.03 2.61-.32 3.89-.22 1.43.11 2.51.97 3.67 1.73 1.4.91 2.88 1.65 4.44 2.25 1.75.67 3.73 1.15 5.61.91s3.58-1.12 5.33-1.82l-.4-.94c-2.72 1.63-5.41 3.3-8.36 4.48-2.05.82-4.51 1.62-6.7 1.01-1.7-.47-3-1.83-4.7-2.37-3.43-1.11-7.26-.83-10.49-2.6-2.52-1.38-4.72-3.64-6.12-6.15-2-3.58-2.45-8.01-1.48-11.97.16-.65-.84-.92-1-.27z"/><g fill="none" stroke="#000" stroke-miterlimit="10" stroke-width=".34"><path d="m162.71 44.73-9.42.33"/><path d="m161.93 42.67-8.29 1.19"/><path d="m160.63 41.06-6.9 1.81"/><path d="m159.08 39.66-5.95 1.91"/><path d="m157.73 38.54-5.25 2.22"/><path d="m156.18 37.15-4.35 2.81"/><path d="m155.62 35.36-4.18 3.57"/><path d="m155.01 34.06-4.69 4.01"/><path d="m154.45 32.27-5.73 4.91"/><path d="m153.85 30.97-6.26 5.35"/><path d="m153.03 29.4-7.04 6.02"/><path d="m151.95 28.06-7.3 6.24"/><path d="m150.39 26.66-6.87 6.79"/><path d="m148.57 25.5-5.91 6.87"/><path d="m145.71 25.22-4.14 5.81"/><path d="m142.85 24.94-2.19 5.5"/><path d="m141.16 25.03-1.67 5.05"/><path d="m138.73 25.29-.88 4.38"/><path d="m136.34 25.06-.18 4.7"/><path d="m134.22 24.61.72 5.28"/><path d="m132.09 24.15 2.07 6.41"/><path d="m130.18 23.97 2.98 6.99"/><path d="m127.93 24.99 4.71 6.41"/><path d="m126.36 26.33 5.23 5.97"/><path d="m125.27 27.72 5.76 5.51"/><path d="m125.09 29.68 5.59 4.76"/><path d="m124.87 32.14 5.46 3.51"/><path d="m125.82 34.97 4.16 1.89"/><path d="m126.59 37.03 2.34.72"/><path d="m127.37 39.09 1.21-.13"/><path d="m128.19 40.65.74-.17"/><path d="m157.93 47-4.99-.73"/><path d="m155.63 48.51-2.99-1.53"/><path d="m154.11 49.36-1.99-1.93"/><path d="m152.37 49.94-.82-1.57"/><path d="m150.68 50.02-.39-1.03"/><path d="m139.82 37.06-.05 3.22"/><path d="m141.47 37.47-1.27 3.35"/><path d="m143.29 38.64-2.87 2.45"/><path d="m145.11 39.81-4.26 1.82"/><path d="m145.67 41.6-4.65.79"/><path d="m145.75 43.34-4.77-.46"/><path d="m144.83 45.49-4.11-2.39"/><path d="m143.1 46.06-2.64-2.73"/><path d="m138.18 36.65.9 3.32"/><path d="m136.48 36.74 2.08 3.67"/><path d="m135.01 37.09 3.03 3.77"/><path d="m133.92 38.48 4.03 3.36"/><path d="m133.7 40.94 4.68 1.44"/><path d="m134.47 43 3.65-.39"/><path d="m137.25 44.26 1.3-1.12"/><path d="m138.89 44.67.35-1.21"/><path d="m140.97 45.61-1.03-1.84"/></g><path d="m201 20c.6 17.1.95 34.71 1 52.8.05 20.96-.31 41.28-1 60.92 9.67.34 19.33.68 29 1.02v17.26h-50c1.31-21.05 2.06-43.44 2-67.02-.05-21.71-.78-42.39-2-61.94 3.56-.81 7.44-1.53 11.6-2.1 3.29-.45 6.44-.75 9.4-.95z"/><path d="m247.25 19.89c6.02-1.27 29.11-5.4 48.75 8.24 8.33 5.79 12.99 12.65 14 14.18 7.34 11.11 8.18 21.93 9 32.42 1.49 19.1-2.97 33.33-4 36.47-2.46 7.53-5.89 17.99-14 26.34-18.7 19.26-49.46 14.01-54 13.17.08-43.61.17-87.22.25-130.83zm17.75 14.32c-.33 32.08-.67 64.17-1 96.25 5.77-.06 16.99-1.13 26-9.12 14.99-13.28 12.47-35.6 11-48.63-1.34-11.9-2.89-25.61-14-33.43-8.13-5.73-17.44-5.52-22-5.07z"/><path d="m395 59h-13c-.33-3-.67-6-1-9-.25-1.88-1.35-8.41-7-13-1.64-1.33-5.56-4.52-11-4-5.88.56-9.27 5.03-10 6-4.2 5.55-3.26 12.14-3 14 1.3 9.14 8.15 15 14 20 5.35 4.57 6.17 3.77 16 11 7.7 5.66 11.55 8.49 14 12 6.17 8.83 6.04 18.58 6 22-.04 3.34-.23 10.92-4.91 18.94-3.84 6.6-8.77 10.15-10.09 11.06-8.34 5.77-16.87 5.97-20 6-3.27.03-13.16-.01-22.28-6.99-1.18-.91-7.14-5.59-10.72-14.01-2.14-5.02-2.45-9.41-3-18-.32-4.99-.44-11.07 0-18h15c.02 7.58.03 13.99 0 20 0 1.71-.03 4.11 1 7 1.97 5.56 6.22 8.48 7 9 4.75 3.17 9.49 3.06 11 3 5.75-.21 9.68-2.98 11-4 .75-.58 5.64-4.48 7-11 1.59-7.66-2.69-14.15-6-19-4.74-6.95-7.32-7.16-22-20-10.51-9.19-13.13-12.74-15-17-2.86-6.51-2.97-12.48-3-15-.05-4.52-.12-11.25 4-18 6.28-10.29 17.46-12.69 19-13 .72-.14 13.17-2.41 23.54 5.51 3.95 3.02 6.1 6.37 7.46 8.49.87 1.36 5.06 8.08 6 18 .31 3.31.18 6.09 0 8z"/><path d="m477.11 21.05c-10.37 19.75-23.74 41.55-34.11 61.31 9.96 24.56 22.93 47.08 32.89 71.64-6.67-.01-10.22-.04-16.89-.05-9-20.45-18-39.88-28-60.34-.03 20.79 1 37.84 1 60.34-6.33-.01-9.67.01-16 0-.02-44.36-.98-88.59-1-132.95 6.09.05 10.02-.08 16.11-.02-.11 19.45-.08 35.82-.11 52.18 9.69-16.35 19.42-35.79 29.11-52.13 5.67 0 11.33.02 17 .03z"/><path d="m526 135c1.44-.03 5.32-.29 9-3 3.89-2.85 5.24-6.72 6-9 .61-1.83.87-3.37 1-11 .12-6.8.03-11.94 0-18v-71h19v19c.01 14.33-.12 28.67 0 43 .03 3.54.23 25.62-3 43-.37 2-1.22 6.28-4 11-1.19 2.02-4.78 7.94-12.16 11.79-6.81 3.55-13.07 3.38-16.66 3.21-3.35-.16-14.31-.67-23.18-9-6.5-6.1-8.63-13.35-10-18-1.54-5.24-1.78-9.32-2-14-1.01-21.17-1-34-1-34 .02-20.4.03-26.24 0-33-.04-9.85-.14-17.89-.22-23.13 6.41.04 12.81.09 19.22.13v61c-.5 9.32.04 18.67 0 28 0 1.29-.02 4.27 1 8 1.26 4.6 3.46 7.98 5 10 .86.86 5.28 5.12 12 5z"/><path d="m575.76 22.53c6.02-1.25 29.11-5.33 48.75 8.13 8.33 5.71 12.99 12.49 14 14 7.34 10.96 8.18 21.64 9 32 1.49 18.85-2.97 32.9-4 36-2.46 7.43-5.89 17.76-14 26-18.7 19.01-49.46 13.83-54 13 .08-43.04.17-86.09.25-129.13zm17.75 14.13c-.33 31.67-.67 63.33-1 95 5.77-.06 16.99-1.11 26-9 14.99-13.11 12.47-35.14 11-48-1.34-11.75-2.89-25.28-14-33-8.13-5.65-17.44-5.45-22-5z"/><path d="m109 0c-15.33 51.33-30.67 102.67-46 154h-25c-6.87-21.75-13.58-44.43-20-68-6.74-24.72-12.7-48.75-18-72h20c3.08 20.4 6.7 37.93 10 52 1.13 4.81 4.88 20.57 11 41 3.32 11.09 6.45 20.58 9 28 6.61-18.55 11.15-33.8 14-44 5.39-19.25 7.24-29.33 14-55 4.12-15.64 7.72-28.21 10-36z"/></svg>