<?xml version="1.0" encoding="UTF-8"?><svg id="Layer_3" xmlns="http://www.w3.org/2000/svg" width="157.34" height="238.09" viewBox="0 0 157.34 238.09"><defs><style>.cls-1{fill:none;stroke:#000;stroke-miterlimit:10;stroke-width:.41px;}.cls-2{fill:#961710;}.cls-3{fill:#e9afaf;}.cls-4{fill:#bd0e0d;}</style></defs><path d="M0,11C6.73,53.45,12.4,77.22,16.49,91.28c6.95,23.83,9.18,33.04,13.65,51.46,.37,1.51,.87,3.59,1.47,6.29,2.87,12.86,4.46,23.53,5.39,30.96h15c4.06-27.52,9.33-50.87,14.2-69.27,0,0,8.95-33.86,24.28-73.91,2.41-6.31,4.9-12.58,7.47-18.83,.6-1.47,1.21-2.94,1.83-4.4,.17-.4,.33-.79,.5-1.19,.11-.25,.68-1.65,.06-.15,0,0,.85-2,1-2.36,.74-1.75,1.92-4.49,3.85-8.87-4.73-.34-9.45-.69-14.18-1.03-9.96,25.21-17.59,47.23-23.28,64.75-5.77,17.76-13.55,41.88-21.11,74.31-2.95,12.66-5.6,25.4-7.94,38.19h11.57c-5.33-23.86-10-43.22-13.27-56.44-7.07-28.65-10.35-39.77-13.97-58.81-4.12-21.64-6.03-39.49-7-51H0Z"/><g><g><path d="M109.98,112.66c-.43,1.61-1.02,3.97-1.58,6.83-.78,3.99-1.08,6.81-1.43,9.91-1.28,11.16-1.38,9.19-1.88,14.84-.43,4.84-.69,9.06-1.93,14.76-.19,.89-.42,1.76-.7,2.77-1.3,4.59-2.9,8.37-3.71,10.29-2.11,4.96-4.16,8.56-6.3,12.42-2.97,5.34-5.45,9.22-6.22,10.41-2.01,3.13-3.88,5.82-5.45,8,3.37,.71,6.75,1.43,10.12,2.14,.25-2.61,.83-6.3,2.33-10.62,1.39-4.03,3.22-7.58,5.22-11.47,0,0,3.44-6.69,5.03-10.61,.52-1.28,.96-2.57,.96-2.57s.06-.18,.12-.36c1.69-5.1,3.28-15.87,3.28-15.87,1.54-10.39,1.6-10.34,1.91-13.21,.51-4.77,.29-4.49,.75-7.9,1.21-9.01,2.99-12.53,3.8-13.99,1.38-2.49,2.93-4.42,3.99-5.63-2.77-.05-5.54-.1-8.3-.15Z"/><path d="M109.1,112.42c-1.83,6.9-2.63,13.88-3.51,20.95-.4,3.25-.99,6.48-1.31,9.74-.73,7.46-1.37,14.75-3.79,21.9-2.23,6.6-5.36,12.76-8.74,18.84-3.57,6.42-7.48,12.63-11.77,18.59-.33,.46,0,1.22,.54,1.34,3.37,.71,6.75,1.43,10.12,2.14,.62,.13,1.09-.27,1.15-.88,.45-4.55,1.63-9,3.37-13.22,1.42-3.43,3.19-6.69,4.86-10.01,1.52-3.03,3.04-6.09,4.32-9.23s2.05-6.23,2.72-9.47c1.16-5.66,1.95-11.39,2.81-17.11,.62-4.11,.89-8.22,1.37-12.34s1.19-8.23,2.61-12.09c1.11-3.01,2.98-5.71,5.07-8.12,.51-.59,.18-1.54-.64-1.55-2.77-.05-5.54-.1-8.3-.15-1.17-.02-1.17,1.8,0,1.82,2.77,.05,5.54,.1,8.3,.15l-.64-1.55c-1.96,2.26-3.76,4.75-4.96,7.5s-1.97,5.93-2.51,8.99c-.89,4.98-1.03,10.16-1.77,15.06-.81,5.41-1.55,10.84-2.56,16.21-.6,3.23-1.23,6.51-2.29,9.62-1.19,3.47-2.81,6.77-4.44,10.05-1.76,3.55-3.67,7.03-5.23,10.67-2.03,4.72-3.38,9.65-3.89,14.77l1.15-.88c-3.37-.71-6.75-1.43-10.12-2.14l.54,1.34c3.69-5.14,7.12-10.45,10.27-15.94,3.51-6.11,6.82-12.32,9.34-18.91,1.39-3.63,2.53-7.34,3.26-11.16s1.07-7.35,1.4-11.06c.3-3.41,.77-6.76,1.23-10.15,1.06-7.81,1.77-15.58,3.81-23.23,.3-1.13-1.45-1.62-1.75-.48Z"/></g><g><path d="M59.93,201.72c3.51-2.26,9.1-1.81,11.9,1.41,1.15,1.32,2.43,2.37,4.3,2.12,2.01-.27,4.09-1.27,5.92-2.12,.63-.29,.08-1.22-.54-.93-1.06,.49-2.14,.93-3.25,1.32s-2.29,.91-3.43,.59-1.72-1.21-2.47-2.01c-.59-.64-1.31-1.16-2.08-1.57-3.27-1.73-7.73-1.77-10.89,.26-.58,.37-.04,1.31,.54,.93h0Z"/><path d="M58.99,207.26c2.22-.6,4.58-.45,6.78-1.14s4.27-1.93,6.65-2.15c.68-.06,.69-1.14,0-1.08-2.41,.22-4.44,1.35-6.7,2.11s-4.72,.59-7.02,1.22c-.67,.18-.38,1.22,.29,1.04h0Z"/><path d="M64.42,213.79c1.93-1.26,3.86-2.86,6.2-3.2s4.82,.17,7.22,.12c1.73-.03,3.83-.3,5.09-1.62,.62-.65,.88-1.5,1.13-2.34,.37-1.21,.98-2.33,1.53-3.47,.3-.62-.63-1.17-.93-.54-.45,.92-.93,1.83-1.31,2.78-.41,1.02-.53,2.21-1.37,2.98-1.61,1.46-4.46,1.19-6.45,1.06s-4.2-.36-6.23,.2-3.73,1.99-5.44,3.1c-.58,.38-.04,1.31,.54,.93h0Z"/><path d="M82.81,202.27c-1,2.12-2.61,4.42-4.8,5.44-1.17,.55-2.51,.65-3.78,.43-.6-.1-1.21-.27-1.77-.53-.38-.18-.4-.23-.11-.54,.22-.23,.48-.42,.76-.58,.59-.36,.05-1.29-.54-.93s-1.32,.88-1.53,1.56c-.24,.77,.43,1.23,1.04,1.49,1.49,.66,3.2,.87,4.8,.57,3.19-.6,5.55-3.61,6.85-6.38,.29-.62-.63-1.17-.93-.54h0Z"/><path d="M87.72,203.35c1.38,1.66,2.98,3.22,4.79,4.41s3.99,1.83,6.06,2.07c1.9,.22,4.48,.07,6.21-.82,.77-.39,1.42-.99,1.89-1.71s.58-1.76,1.31-2.33c.54-.43-.22-1.18-.76-.76s-.76,.96-1,1.59c-.33,.85-.82,1.56-1.6,2.06-.87,.56-1.92,.71-2.93,.81-1.09,.11-2.21,.22-3.3,.05-1.9-.3-3.87-.9-5.47-1.99s-3.15-2.61-4.44-4.16c-.44-.53-1.2,.23-.76,.76h0Z"/><path d="M99.21,209.94c.52,0,.98,.24,1.12,.76,.17,.6,.24,1.32,.12,1.93-.14,.69-.29,1.3-.16,2.01s.42,1.29,.73,1.89,1.24,.07,.93-.54-.68-1.35-.64-2.09c.02-.37,.14-.73,.21-1.1,.07-.4,.09-.79,.04-1.2-.07-.67-.14-1.39-.57-1.94s-1.11-.79-1.78-.79-.69,1.08,0,1.08h0Z"/><path d="M101.33,213.07c.73,.1,.76,.85,1.19,1.33,.48,.54,1.21,.87,1.91,1.01,.77,.16,1.57,.13,2.34,.27s1.33,.51,1.92,.97c.23,.18,.54,.22,.76,0,.19-.18,.23-.58,0-.76-.6-.47-1.22-.92-1.96-1.14-.82-.24-1.68-.2-2.52-.32-.65-.1-1.45-.34-1.79-.95-.18-.32-.29-.66-.55-.93s-.62-.44-.99-.49c-.29-.04-.57,.07-.66,.38-.07,.25,.09,.62,.38,.66h0Z"/><path d="M104.07,209.74c.92,1.02,2.24,1.15,3.52,1.36,.66,.11,1.32,.24,1.97,.39,.51,.12,1.1,.24,1.46,.64,.46,.52,1.22-.25,.76-.76-.79-.88-2.29-1.02-3.39-1.22-1.21-.23-2.67-.19-3.56-1.17-.47-.51-1.22,.25-.76,.76h0Z"/><path d="M92.04,207.71c.93,.73,1.33,1.72,1.82,2.75,.23,.49,.49,.95,.82,1.37,.41,.52,1.03,.93,1.27,1.57,.38,1.02,.41,2.34,.31,3.42-.12,1.31-.63,2.52-1.5,3.5-.46,.52,.3,1.28,.76,.76,1.86-2.1,2.16-4.87,1.58-7.54-.3-1.39-1.57-2.13-2.19-3.37s-1.03-2.38-2.11-3.23c-.54-.42-1.3,.33-.76,.76h0Z"/><path d="M96.46,214.58c.93,1.52,1.99,2.97,3.14,4.33,.58,.69,1.2,1.33,1.8,2,.48,.53,1.07,1.29,.42,1.91-.5,.48,.26,1.24,.76,.76,1.67-1.58-.4-3.39-1.46-4.56-1.39-1.55-2.64-3.21-3.73-4.99-.36-.59-1.29-.05-.93,.54h0Z"/><path d="M76.05,224.24c1.42-4.45,4.95-7.28,7.91-10.67,.69-.79,1.41-1.6,1.63-2.65,.16-.78,.03-1.46-.08-2.22-.27-1.8,.36-3.72,.91-5.41,.21-.66-.82-.94-1.04-.29-.55,1.71-1.12,3.59-.98,5.41,.05,.61,.25,1.2,.21,1.82-.1,1.5-1.45,2.67-2.42,3.7-2.86,3.09-5.86,5.89-7.17,10.02-.21,.66,.83,.94,1.04,.29h0Z"/><path d="M72.42,221.52c.7-.15,1.39-.39,2.01-.74,.53-.3,.93-.73,1.41-1.09,.84-.64,1.96-.84,3-.93,.68-.06,.69-1.14,0-1.08-1.15,.11-2.38,.32-3.37,.96-.47,.31-.85,.74-1.32,1.05-.61,.4-1.31,.64-2.02,.79s-.39,1.18,.29,1.04h0Z"/><path d="M78.3,219.34c.56,1.15,.98,2.36,1.17,3.62s.17,2.43,.44,3.65c.5,2.22-.69,4.13-2.45,5.41-.55,.4-.02,1.34,.54,.93,1.85-1.35,3.37-3.41,3.09-5.81-.08-.69-.32-1.36-.38-2.06s-.06-1.4-.16-2.09c-.2-1.47-.67-2.86-1.33-4.19-.31-.62-1.23-.08-.93,.54h0Z"/><path d="M89.93,233.33c.99-1.33,0-2.71-.91-3.76-.33-.38-.69-.76-.91-1.21-.29-.6-.04-1.11,.16-1.68,.27-.8,.24-1.63-.03-2.42-.61-1.76-2.04-3.07-3.24-4.43-.66-.76-1.41-1.62-1.66-2.62-.27-1.08,.3-2.52,.54-3.59,.15-.67-.88-.96-1.04-.29-.38,1.69-1.02,3.39-.21,5.03s2.42,2.96,3.57,4.46c.63,.83,1.29,1.86,1.19,2.95-.08,.84-.64,1.5-.47,2.37,.27,1.46,3.17,3.21,2.1,4.65-.41,.56,.52,1.09,.93,.54h0Z"/><path d="M87.94,225.45c1.03,.65,2.3,.83,3.49,.93,1.12,.09,2.44,.29,3.48-.26,.61-.32,.07-1.25-.54-.93-.4,.21-.87,.21-1.31,.2-.54,0-1.09-.05-1.63-.09-1.01-.08-2.08-.23-2.95-.78-.59-.37-1.13,.56-.54,.93h0Z"/><path d="M85.1,211.96c.28-.04,.49,.4,.63,.61,.17,.27,.33,.56,.46,.86,.26,.58,.44,1.19,.65,1.8,.44,1.31,.99,2.55,2.02,3.51,.51,.47,1.27-.29,.76-.76-1.09-1-1.51-2.33-1.96-3.69-.22-.66-.47-1.33-.81-1.94s-.9-1.56-1.74-1.46c-.29,.04-.54,.22-.54,.54,0,.26,.25,.57,.54,.54h0Z"/><path d="M92.22,211.39c.3-1.31-.41-2.47-1.2-3.45-.39-.48-.81-.92-1.19-1.4-.16-.21-.29-.4-.2-.66,.1-.29,.31-.53,.5-.76s.22-.54,0-.76c-.19-.19-.58-.23-.76,0-.41,.5-.86,1.05-.86,1.73s.57,1.25,.99,1.74c.74,.86,1.97,2.02,1.68,3.28-.16,.67,.88,.96,1.04,.29h0Z"/><path d="M79.61,238.05c1.4-.47,1.8-2.13,1.93-3.45,.14-1.5-.38-2.94-1.43-4.01-.48-.5-1.25,.26-.76,.76,.82,.84,1.2,1.9,1.13,3.06-.03,.54-.16,1.07-.34,1.57-.15,.44-.34,.87-.81,1.03-.65,.22-.37,1.26,.29,1.04h0Z"/><path d="M74.17,231.85c.44-2.98,3.84-4.37,6.45-4.81,.29-.05,.45-.4,.38-.66-.08-.3-.37-.42-.66-.38-2.96,.5-6.71,2.22-7.2,5.56-.04,.29,.07,.58,.38,.66,.25,.07,.62-.09,.66-.38h0Z"/><path d="M85.03,232.03c.98-.86,1.9-1.79,2.72-2.79,.18-.22,.23-.55,0-.76-.2-.18-.57-.23-.76,0-.83,1.01-1.74,1.94-2.72,2.79-.21,.19-.2,.57,0,.76,.23,.21,.53,.2,.76,0h0Z"/><path d="M70.96,228.69c-1.51-1.46-3.31-3.8-2.91-6.06,.38-2.14,2.69-3.64,4.23-4.94s2.84-3.06,4.51-4.27c1.53-1.1,3.3-1.85,4.63-3.22,.48-.5-.28-1.26-.76-.76-1.54,1.6-3.73,2.37-5.39,3.83-.88,.78-1.62,1.69-2.46,2.51-.91,.89-1.93,1.67-2.89,2.51-1.63,1.43-3.23,3.21-2.93,5.53,.28,2.19,1.66,4.14,3.22,5.64,.5,.48,1.26-.28,.76-.76h0Z"/><path d="M55.22,213.92c1.36,.68,2.49,1.75,3.95,2.23,.76,.25,1.52,.28,2.31,.25,.92-.03,1.83,.03,2.75,.05,1.8,.04,3.57-.5,5.35-.73,1.66-.21,3.37-.18,4.97-.69,.66-.21,.38-1.25-.29-1.04-1.62,.51-3.37,.47-5.04,.69-1.54,.2-3.09,.68-4.65,.69-.82,0-1.63-.1-2.45-.09s-1.58,.1-2.38-.1c-1.49-.39-2.63-1.53-3.98-2.2-.62-.31-1.16,.62-.54,.93h0Z"/><path d="M59.5,225.11c1.37-.5,2.58-1.38,3.93-1.93,.69-.28,1.4-.52,2.12-.73s1.48-.29,2.1-.7c.58-.38,.04-1.31-.54-.93s-1.34,.45-1.98,.63c-.72,.21-1.42,.46-2.11,.74-.64,.27-1.27,.56-1.87,.89s-1.25,.74-1.93,.99c-.65,.24-.37,1.28,.29,1.04h0Z"/><path d="M62.21,225.49c.26-.23,.4-.52,.54-.83,.03-.07,.06-.14,.1-.21,.02-.03,.04-.07,.06-.1,.01-.02,.02-.03,.03-.05,.02-.03,.01-.02-.04,.04,.04-.03,.09-.1,.12-.14,.05-.05,.1-.1,.15-.15,.44-.42,.96-.83,.99-1.49,.01-.28-.26-.55-.54-.54-.3,.01-.52,.24-.54,.54,0,.1,.03-.13,0-.03,0,.02-.01,.05-.02,.07-.02,.09,0-.01,.02-.03-.01,.01-.03,.06-.04,.08-.02,.03-.03,.05-.05,.08-.05,.08,.06-.07,.02-.02-.04,.05-.08,.09-.12,.14-.18,.18-.37,.35-.55,.53-.21,.21-.38,.44-.5,.71-.06,.13-.11,.26-.18,.38-.02,.04-.06,.14-.1,.16,.04-.05,.05-.06,.02-.03-.01,.02-.03,.03-.04,.05-.03,.03-.06,.06-.09,.09-.21,.19-.21,.57,0,.76,.23,.21,.54,.2,.76,0h0Z"/><path d="M53.21,221.67c.87-1.12,1.57-2.37,2.5-3.44,.8-.91,1.76-1.68,2.89-2.15,.27-.11,.46-.36,.38-.66-.07-.25-.39-.49-.66-.38-1.25,.52-2.34,1.29-3.25,2.3-.99,1.1-1.7,2.4-2.61,3.56-.18,.23-.22,.54,0,.76,.19,.19,.58,.23,.76,0h0Z"/><path d="M50.24,219.84l.08,.09,.07,.27c0,.06-.09,.12,.02,.02,.07-.07,.14-.15,.22-.22,.16-.13,.34-.19,.53-.25,.5-.14,1-.25,1.49-.41,.96-.32,1.89-.74,2.81-1.17,.26-.12,.33-.5,.19-.74-.16-.27-.47-.31-.74-.19-1.12,.52-2.25,1.02-3.44,1.32-.61,.16-1.19,.28-1.67,.72-.19,.18-.4,.41-.47,.66-.08,.32,.06,.67,.36,.81,.26,.13,.58,.07,.74-.19,.14-.24,.07-.61-.19-.74h0Z"/><path d="M54.83,233.74c1.11-.46,1.94-1.22,2.91-1.9,1.04-.74,2.26-1.16,3.34-1.84s2.08-1.39,3.31-1.83c1.29-.47,2.63-.78,3.97-1.09,.67-.16,.39-1.19-.29-1.04-1.3,.3-2.6,.6-3.86,1.05s-2.23,1.02-3.28,1.72-2.21,1.15-3.28,1.8-1.93,1.61-3.11,2.09c-.63,.26-.35,1.3,.29,1.04h0Z"/><path d="M64.5,231.34c.72-.41,1.33-1.06,1.83-1.71,.27-.37,.39-.77,.43-1.22,.02-.19,.02-.39,.03-.59,0-.12,.06-.31,.14-.44,.35-.6-.58-1.14-.93-.54-.22,.38-.28,.8-.3,1.23,0,.09,0,.19-.01,.28,0,.1,0,.13-.02,.19-.04,.19-.08,.29-.19,.45-.17,.25-.45,.52-.68,.76-.27,.28-.51,.48-.84,.67-.6,.35-.06,1.28,.54,.93h0Z"/><path d="M63.19,230.37c.21-.14,.44-.27,.67-.38,.1-.05,.21-.1,.32-.15,.06-.02,.06-.03,.01,0,.03-.01,.06-.03,.09-.04,.06-.03,.13-.05,.19-.07,.52-.19,1.05-.32,1.59-.41,.28-.05,.46-.41,.38-.66-.1-.3-.36-.42-.66-.38-1.1,.18-2.19,.55-3.13,1.16-.24,.15-.36,.48-.19,.74,.15,.24,.48,.36,.74,.19h0Z"/><path d="M53.56,232.08c1.19-.46,2.44-.67,3.71-.66,.29,0,.54-.25,.54-.54s-.25-.54-.54-.54c-1.35,0-2.73,.21-3.99,.7-.27,.11-.46,.36-.38,.66,.07,.26,.39,.48,.66,.38h0Z"/><path d="M53.66,227.93c1.21-.11,2.4,.17,3.58,.44s2.33,.57,3.48,.91c.67,.2,.95-.84,.29-1.04-1.2-.35-2.4-.67-3.62-.94s-2.47-.56-3.73-.44c-.68,.06-.69,1.14,0,1.08h0Z"/><path d="M55.9,229.78l2.39-1.09c.26-.12,.34-.51,.19-.74-.17-.27-.46-.32-.74-.19l-2.39,1.09c-.26,.12-.34,.51-.19,.74,.17,.27,.46,.32,.74,.19h0Z"/><path d="M70.81,209.36c-.2-.04-.39-.08-.58-.14-.09-.03-.18-.06-.26-.09-.01,0-.15-.06-.08-.03s-.07-.03-.08-.04c-.16-.08-.32-.16-.48-.26-.07-.05-.14-.09-.2-.14,.07,.05,.03,.02-.02-.02-.03-.03-.06-.05-.09-.08-.06-.05-.11-.11-.16-.16-.03-.03-.05-.06-.07-.08-.08-.1,.06,.1,0,0-.05-.08-.11-.16-.15-.25-.02-.04-.04-.09-.07-.13-.05-.11,.02,.05-.02-.05-.03-.09-.07-.18-.1-.28-.01-.04-.03-.18-.06-.22,.01,.09,.01,.11,0,.05,0-.02,0-.03,0-.05-.01-.04-.03,.13,0,.02,.01-.04,0-.02-.02,.06-.05,.06-.06,.07-.03,.05,.03-.03,.01-.02-.04,.03,.02-.01,.05-.03,.07-.04,.26-.12,.34-.51,.19-.74-.17-.26-.46-.32-.74-.19-.25,.11-.44,.35-.49,.62-.04,.24,0,.47,.07,.69,.15,.48,.37,.93,.72,1.3,.62,.66,1.53,1.05,2.41,1.21,.28,.05,.59-.08,.66-.38,.06-.26-.08-.61-.38-.66h0Z"/><path d="M73.11,209.67c-.39,.17-.77,.36-1.1,.63s-.53,.66-.69,1.06c-.08,.19-.15,.38-.23,.57-.04,.09-.07,.18-.11,.27,0,0-.08,.18-.03,.07-.02,.05-.04,.09-.07,.13,.04-.06-.02,0-.02,.02-.03,.03-.02,.02,.03-.02l-.04,.02s-.08,.04-.12,.07c-.09,.05,.03,0-.03,.01-.19,.07-.37,.12-.56,.17-.27,.07-.46,.39-.38,.66s.37,.45,.66,.38c.41-.1,.83-.22,1.16-.5,.19-.17,.29-.38,.38-.61,.08-.2,.16-.4,.24-.6,.04-.09,.08-.19,.11-.28,.02-.04,.04-.1,.01-.03,.02-.04,.04-.09,.06-.13,.04-.08,.08-.16,.13-.24,.01-.02,.03-.04,.04-.06-.03,.03-.03,.04,0,0,.03-.03,.06-.07,.09-.1,.04-.04,.07-.07,.11-.1-.08,.07,.05-.03,.05-.04,.07-.05,.15-.1,.23-.14,.2-.11,.4-.2,.6-.29,.26-.11,.34-.51,.19-.74-.17-.27-.46-.31-.74-.19h0Z"/><path d="M80.15,205.62l-1.05,.32c-.19,.06-.37,.12-.56,.17-.13,.04-.13,.03-.23-.02-.27-.13-.5-.34-.76-.48-.33-.18-.69-.28-1.06-.28-.29,0-.54,.24-.54,.54s.25,.54,.54,.54,.5,.11,.77,.28c.28,.19,.55,.38,.88,.48,.4,.12,.8-.06,1.18-.18l1.12-.34c.28-.09,.45-.38,.38-.66s-.38-.46-.66-.38h0Z"/><path d="M65.89,202.44c.65,.02,1.34,.03,1.95-.21,.55-.23,.98-.6,1.37-1.04,.19-.21,.22-.56,0-.76-.21-.19-.56-.22-.76,0-.15,.17-.3,.33-.47,.48-.03,.02-.15,.12-.06,.05-.05,.03-.1,.07-.15,.1s-.1,.06-.16,.09c-.03,.01-.06,.03-.08,.04-.09,.05,.03,0-.03,.01-.13,.05-.26,.09-.39,.11-.03,0-.07,.01-.1,.02-.09,.02,.07,0-.01,0-.07,0-.14,.01-.21,.02-.3,.02-.6,.01-.9,0-.28,0-.55,.25-.54,.54s.24,.53,.54,.54h0Z"/><path d="M63.28,208.4c.5-.24,.95-.59,1.27-1.05,.12-.18,.2-.38,.29-.57,.04-.1,.09-.19,.15-.28,.03-.04,.08-.08-.01,.01,.02-.02,.04-.05,.06-.07,.02-.02,.05-.04,.07-.07,.07-.07-.1,.07,0,0,.12-.08,.21-.18,.25-.32,.04-.13,.02-.3-.05-.41-.15-.23-.49-.37-.74-.19s-.46,.4-.6,.68c-.1,.19-.17,.4-.28,.58-.03,.04-.06,.09-.09,.13-.06,.09,.08-.1,.01-.02-.02,.02-.03,.04-.05,.06-.08,.09-.16,.17-.25,.25-.02,.02-.06,.04-.07,.06,.03-.03,.09-.07,.02-.02-.05,.04-.1,.07-.15,.1-.12,.07-.24,.14-.36,.2-.25,.12-.34,.51-.19,.74,.17,.26,.46,.32,.74,.19h0Z"/><path d="M62.57,205.5c-.52-.49-1.16-.82-1.84-1.05-.27-.09-.6,.1-.66,.38-.07,.3,.09,.57,.38,.66,.13,.04,.25,.09,.37,.14l-.13-.05c.35,.15,.69,.33,.99,.57l-.11-.08c.08,.07,.16,.13,.24,.21,.21,.19,.56,.22,.76,0s.22-.56,0-.76h0Z"/><path d="M70.44,200.97c.36-.51,.39-1.19,.08-1.74-.13-.23-.32-.44-.51-.63-.09-.09-.18-.18-.27-.27-.02-.02-.06-.05-.07-.08,.01,.04,.05,.06,.06,.1,.04,.16-.05,.37-.21,.42,.27-.09,.47-.38,.38-.66-.09-.27-.37-.47-.66-.38-.2,.06-.39,.19-.48,.38-.11,.23-.11,.49,.02,.71,.15,.26,.41,.46,.61,.68,.04,.05,.08,.09,.12,.14,.04,.05-.05-.08,0,0,.02,.03,.04,.05,.05,.08s.03,.06,.05,.09c.05,.09-.01-.06,0,0,0,.03,.03,.15,.05,.17,0-.07,0-.09,0-.05,0,.01,0,.03,0,.04,0,.03,0,.06,0,.1,0,.02,0,.13,0,.04s0,.03-.01,.04c0,.03-.02,.05-.02,.08-.03,.12,.04-.06,0,0-.04,.07-.07,.13-.12,.2-.16,.23-.05,.61,.19,.74,.28,.15,.56,.05,.74-.19h0Z"/></g><g><g><path d="M84.11,164.74c1.48-.19,3.11,.31,3.81,1.18,.54,.66,.55,1.44,.91,2.15,.73,1.44,3.01,2.48,5.35,2.43,.48-.01,.99-.07,1.36-.27,.72-.39,.64-1.11,.4-1.7-.2-.51-.48-1.01-.96-1.43-.63-.56-1.55-.94-2.45-1.31-1.66-.67-3.38-1.37-5.32-1.53-1.21-.1-2.44,0-3.63,.19"/><path d="M84.11,165.43c.99-.11,2.11,0,2.94,.61s.78,1.74,1.28,2.56c1.02,1.67,3.18,2.4,5.03,2.56,.99,.08,2.27,.08,3-.71,.62-.67,.48-1.6,.15-2.37-.9-2.08-3.18-2.77-5.14-3.51-1.2-.45-2.43-.81-3.71-.97-1.42-.18-2.84-.04-4.26,.17-.88,.13-.51,1.48,.37,1.34,2.1-.32,4.1-.24,6.12,.41,.9,.29,1.77,.64,2.65,1s1.82,.73,2.37,1.51c.36,.52,.88,1.44,0,1.67s-1.97,.06-2.84-.19c-.76-.22-1.53-.57-2.11-1.12-.62-.6-.71-1.39-1.04-2.15-.77-1.81-3-2.41-4.81-2.22-.88,.09-.89,1.49,0,1.39h0Z"/></g><g><path d="M95.91,170.65c1.23,.29,2.34,.79,3.19,1.43"/><path d="M95.73,171.32c.29,.07,.58,.15,.87,.25,.14,.05,.28,.1,.42,.15,.06,.02,.15,.04,.2,.08-.04-.03-.09-.04-.02,0,.04,.02,.08,.04,.12,.05,.5,.23,.99,.51,1.43,.84,.29,.22,.79,.06,.95-.25,.19-.36,.06-.72-.25-.95-.99-.74-2.17-1.22-3.36-1.5-.35-.09-.77,.11-.86,.49s.11,.77,.49,.86h0Z"/></g></g><g><path d="M104.57,166.5l2.95-.3c.13-.01,.26-.03,.35-.09,.15-.1,.1-.26,.07-.4-.31-1.14,1.01-2.26,2.63-2.72s3.49-.43,5.27-.33,3.59,.25,5.33-.01c-1.04,.48-2.08,.96-3.12,1.44-.84,.39-1.68,.78-2.4,1.25-.46,.3-.86,.64-1.35,.93-.87,.5-2.02,.82-3.19,.82s-2.35-.31-3.13-.87"/><path d="M104.57,167.1c.93-.1,1.86-.18,2.79-.29,.48-.05,1.03-.12,1.2-.67,.06-.21-.02-.4-.03-.6-.02-.39,.09-.65,.36-.94,.54-.6,1.36-.92,2.13-1.11,3.36-.85,6.91,.2,10.32-.27l-.47-1.11c-2.1,.97-4.28,1.83-6.18,3.17s-4.45,1.71-6.4,.41c-.65-.43-1.26,.62-.61,1.05,1.93,1.29,4.69,1.22,6.71,.17,1.09-.57,2.02-1.37,3.14-1.91,1.3-.63,2.63-1.22,3.95-1.83,.68-.32,.15-1.19-.47-1.11-3.05,.42-6.13-.36-9.19,.06-1.26,.17-2.56,.54-3.54,1.39-.35,.3-.66,.67-.83,1.11-.2,.5-.06,.87-.08,1.37l.18-.43c-.11,.14-1.1,.14-1.33,.16l-1.64,.17c-.77,.08-.78,1.29,0,1.21h0Z"/></g><g><path d="M104.15,168.73c.78,.54,1.89,.87,3.03,.89,.68,.01,1.35-.08,2.02-.08,1.18,0,2.31,.27,3.41,.54,.99,.24,1.98,.49,2.85,.87,1.16,.51,2.13,1.27,3.49,1.46-.77-.01-1.54,.06-2.27,.23-.76,.17-1.49,.43-2.29,.49-.53,.04-1.08-.02-1.6-.1-2.68-.44-4.97-1.75-5.98-3.42"/><path d="M103.91,169.14c.97,.63,2.12,.93,3.27,.95,.77,.02,1.53-.1,2.3-.07,.72,.02,1.42,.15,2.12,.31,1.33,.3,2.72,.59,3.95,1.18,1.09,.52,2.08,1.16,3.29,1.36l.13-.94c-1.08,0-2.11,.16-3.15,.43-1.24,.32-2.36,.35-3.62,.05-1.89-.44-3.88-1.36-4.95-3.05-.33-.52-1.15-.04-.82,.48,1.12,1.76,3.07,2.82,5.04,3.37,1.16,.32,2.4,.51,3.6,.3,1.33-.23,2.54-.64,3.91-.63,.52,0,.67-.85,.13-.94-1.25-.21-2.25-.91-3.38-1.41s-2.39-.79-3.6-1.07-2.47-.44-3.77-.37c-1.4,.08-2.74,.01-3.95-.78-.52-.34-.99,.49-.48,.82h0Z"/></g></g><g><g><path class="cls-4" d="M150.68,92.58c.76,1.3,.99,1.3,3.52,4.6,.9,1.18,1.82,2.39,2.27,3.8,.45,1.41,.35,3.1-.63,4.21-1.04,1.18-2.81,1.44-4.37,1.21-1.56-.23-3.03-.88-4.57-1.21-2.29-.5-4.72-.29-6.89,.58-3.09,1.24-5.67,3.8-8.97,4.26-3.46,.49-6.74-1.45-9.81-3.13-4.01-2.2-8.28-4.11-12.83-4.57-2.03-.21-4.27-.18-5.85-1.48-1.54-1.26-1.97-3.38-2.56-5.28-1.04-3.38-2.82-6.53-5.19-9.15-1.74-1.92-2.77-2.96-2.94-4.89-.1-1.08,.22-1.31,.58-3.69,.53-3.55-.07-3.84,.49-5.25,.89-2.24,3.35-3.92,5.69-4.18,2.38-.26,2.62,1.19,5.4,1.46,.73,.07,2.04,.1,9.46-3.01,3.83-1.61,4.12-1.88,5.23-1.86,2.77,.06,3.5,1.9,6.85,2.98,2.45,.79,5.12,.18,7.69,.46,4.15,.45,7.69,3.16,10.64,6.1,1.5,1.49,3.06,3.22,3.9,5.93,.72,2.33,.17,3.13,1.06,6.87,.48,2.04,.83,3.51,1.84,5.25Z"/><path d="M150.15,92.89c.97,1.65,2.36,3.08,3.52,4.6,.93,1.21,1.95,2.5,2.31,4.01,.53,2.25-.69,4.15-3.03,4.34-1.6,.13-3.12-.49-4.63-.93-1.75-.51-3.52-.74-5.34-.53-3.2,.37-5.62,2.14-8.35,3.65-1.51,.84-3.11,1.48-4.87,1.44-1.93-.04-3.77-.8-5.47-1.65-3.17-1.58-6.17-3.41-9.51-4.62-1.59-.58-3.22-1.04-4.89-1.31s-3.49-.21-5.15-.67c-3.6-1-3.77-5.28-5.01-8.21s-3.2-5.56-5.38-8.04c-.96-1.09-1.91-2.31-1.87-3.84,.03-1.04,.42-2.1,.57-3.13,.18-1.2,.27-2.39,.26-3.6,0-.94,.14-1.65,.67-2.47,.91-1.41,2.48-2.45,4.11-2.81,1.52-.33,2.42,.26,3.75,.83,2.86,1.21,5.59-.03,8.31-1.08,2.51-.97,4.96-2.3,7.52-3.1,2.07-.65,3.74,.83,5.42,1.78s3.31,1.38,5.15,1.45c2.02,.08,4.04-.21,6.04,.21,3.72,.79,6.81,3.34,9.42,5.98,2.28,2.31,3.71,4.9,3.95,8.16s.91,6.66,2.51,9.52c.39,.7,1.46,.07,1.07-.63-1.6-2.87-2.12-6.24-2.38-9.47-.23-2.82-1.46-5.34-3.33-7.45-2.2-2.5-4.91-4.86-7.95-6.28-1.51-.71-3.1-1.16-4.77-1.28-2.06-.15-4.16,.23-6.19-.17-2.88-.57-4.96-3.22-7.96-3.22-1.97,0-4.03,1.34-5.78,2.07-2.37,.99-4.8,2.06-7.32,2.65-1.37,.32-2.56,.07-3.84-.57-2.48-1.23-5.06-.73-7.21,1.02-1.02,.83-1.92,1.96-2.29,3.24-.22,.78-.14,1.59-.15,2.39-.03,1.56-.29,3.1-.62,4.63-.22,.99-.28,1.9,.02,2.9,.4,1.36,1.37,2.44,2.3,3.48,1.36,1.52,2.61,3.07,3.62,4.85s1.69,3.54,2.25,5.43c.41,1.4,.83,2.87,1.75,4.04,2.19,2.77,6.19,2.16,9.28,2.81,3.95,.83,7.55,2.63,11.06,4.55,3.07,1.69,6.47,3.44,10.08,2.67,3.41-.73,5.95-3.41,9.23-4.45,2.07-.66,4.26-.68,6.36-.13,1.66,.44,3.28,1.13,5.02,1.16,3.02,.05,5.3-2.08,4.92-5.18s-3.01-5.69-4.9-8c-.43-.53-.83-1.05-1.18-1.64-.4-.69-1.48-.06-1.07,.63Z"/></g><g><path class="cls-3" d="M144.36,104.02c.78-1.23-.76-3.79-2.2-5.32-1.94-2.06-3.17-1.7-4.82-3.8-.83-1.06-1.3-2.34-1.77-3.6-.85-2.26-1.78-4.51-3.15-6.5s-3.24-3.7-5.52-4.5c-1.65-.58-3.44-.65-5.19-.72-2.16-.08-4.34-.17-6.49,.1-1.57,.19-3.17,.57-4.72,.26-2.55-.51-2.78-1.39-4.64-1.57-2.68-.26-5.59,1.53-7.07,3.89-1.53,2.44-1.21,4.99-.99,6.79,.17,1.42,.92,3.16,2.39,6.59,2.19,5.08,2.76,5.58,3.27,5.9,1.73,1.09,2.75,.12,6.42,.6,2.98,.39,5.11,1.38,7.42,2.46,4.47,2.08,4.11,3.09,7.26,4.21,1.65,.59,5.37,1.9,9.07,.55,3.51-1.28,4.06-3.89,8.08-4.54,1.28-.21,2.21-.1,2.65-.8Z"/><path d="M144.9,104.33c.87-1.72-.45-3.76-1.48-5.1-.62-.8-1.32-1.54-2.14-2.13-.87-.63-1.9-1.04-2.7-1.77-2.02-1.83-2.59-4.88-3.66-7.28s-2.39-4.57-4.33-6.25c-1.8-1.56-3.89-2.39-6.24-2.66-2.82-.32-5.83-.41-8.66-.12-1.41,.14-2.82,.5-4.25,.43-1.28-.07-2.38-.56-3.52-1.09-1.74-.81-3.61-.75-5.38-.02-2.02,.84-3.8,2.46-4.73,4.44s-.93,4.28-.61,6.45c.24,1.65,.95,3.2,1.59,4.73,.89,2.1,1.75,4.25,2.85,6.26s2.59,2.57,4.95,2.45c4.86-.25,9.94,1.65,13.88,4.47,1.42,1.02,2.71,1.87,4.38,2.44,2.42,.83,5.01,1.29,7.56,.78,2.39-.48,3.99-1.89,5.85-3.33,1.08-.84,2.26-1.38,3.61-1.6,1.03-.17,2.21-.07,2.93-.96,.5-.62-.37-1.5-.88-.88-.57,.7-1.95,.53-2.78,.71-.94,.2-1.85,.55-2.67,1.06-1.41,.88-2.52,2.16-4,2.95-3.51,1.89-8.64,1.02-11.88-1.16-1.26-.85-2.41-1.78-3.76-2.49-1.9-1-3.92-1.92-5.97-2.53s-4.14-.83-6.26-.72c-1.02,.05-2.24,.12-2.97-.52-.59-.52-.94-1.36-1.28-2.04-.99-1.98-1.85-4.03-2.69-6.07-1.49-3.61-2.41-8.02,.48-11.24,1.44-1.61,3.73-2.86,5.95-2.5,1.66,.27,3.01,1.36,4.73,1.59,2.51,.33,5.13-.49,7.66-.49s5.23-.08,7.65,.59c5.7,1.57,7.44,7.62,9.52,12.41,.92,2.12,2.28,3.37,4.22,4.52,1.08,.65,1.99,1.5,2.73,2.52,.61,.84,1.8,2.46,1.25,3.54-.36,.71,.71,1.34,1.07,.63Z"/></g><g><path class="cls-4" d="M126.47,108.64c2.74-.04,5.88-2.48,6.28-5.55,.31-2.37-1.12-4.25-2.01-5.42-1.12-1.48-2.34-2.46-4.12-3.46-1.22-.69-2.51-1.27-3.66-2.07-3.19-2.21-2.74-3.51-5.43-5.15-.62-.38-3.7-2.27-6.7-1.25-1,.34-1.72,.91-2.5,1.53-1.22,.97-2.44,1.94-2.98,3.55-.48,1.41-.07,2.25-.95,3.38-.46,.6-.69,.51-1.05,1.07-.9,1.4-.31,3.22-.2,3.55,.07,.23,.66,1.95,2.37,2.88,.94,.51,1.67,.48,2.87,.59,2.45,.22,4.24,.77,6.63,1.5,2.28,.7,3.42,1.05,4.82,1.92,1.32,.82,1.82,1.43,3.34,2.08,.89,.38,2.03,.87,3.29,.85Z"/><path d="M126.47,109.26c2.59-.12,5.08-1.75,6.25-4.07,1.35-2.68,.41-5.35-1.28-7.61-.84-1.13-1.8-2.1-2.95-2.92-1.48-1.05-3.16-1.74-4.69-2.7-2.38-1.49-3.6-4.04-5.96-5.5-2.09-1.29-4.76-2.12-7.18-1.31-1.37,.46-2.53,1.45-3.61,2.37s-1.96,1.98-2.36,3.34c-.21,.72-.16,1.5-.39,2.21-.25,.79-.93,1.13-1.38,1.75-.73,1-.78,2.32-.54,3.49,.4,1.96,1.86,3.78,3.82,4.32,.78,.22,1.62,.21,2.42,.3,1.13,.12,2.24,.33,3.34,.61,1.84,.48,3.7,1.02,5.48,1.69,3.17,1.19,5.44,3.93,9.02,4.03,.8,.02,.8-1.22,0-1.24-2.87-.08-4.74-2.08-7.13-3.31s-4.96-1.86-7.44-2.46-6.01-.07-7.63-2.56c-.32-.5-.54-1.02-.67-1.59-.12-.53-.17-1.11-.06-1.65,.18-.87,.78-1.19,1.29-1.81,.71-.87,.72-1.82,.91-2.87,.27-1.56,1.28-2.63,2.46-3.6,1.08-.89,2.18-1.8,3.6-2.03,1.5-.25,3.06,.18,4.4,.84,1.69,.83,2.72,2.04,3.9,3.44,1.78,2.13,4.24,3.17,6.57,4.55s4.95,3.87,5.43,6.71c.54,3.23-2.53,6.2-5.63,6.35-.8,.04-.8,1.28,0,1.24Z"/></g><g><path class="cls-3" d="M117.3,104.59c1.8,.52,4.03,1.16,5.24,.1,.29-.26,.47-.59,.79-1.27,.4-.88,.82-1.8,.78-2.77-.05-1.55-1.22-2.83-2.45-3.79-1.42-1.11-3-2-4.68-2.64-1.57-.6-3.29-.97-4.94-.65-.42,.08-2.89,.79-3.68,3.08-.69,1.99,.24,4.17,1.53,5.24,.79,.66,1.12,.41,4.29,1.54,1.99,.71,1.89,.82,3.13,1.18Z"/><path d="M117.14,105.19c1.56,.45,3.48,1.09,5.07,.42,.6-.25,1.03-.68,1.35-1.25,.47-.84,.91-1.82,1.09-2.77,.75-3.89-4.02-6.55-7-7.78-2.81-1.16-6.1-1.59-8.52,.59-2.4,2.15-2.04,6.38,.65,8.17,.85,.57,2.02,.71,2.98,1.01,1.48,.47,2.89,1.16,4.38,1.6,.77,.23,1.1-.97,.33-1.2-.86-.25-1.67-.63-2.5-.95-1.19-.45-2.39-.82-3.61-1.16-2.07-.58-3.15-3.22-2.35-5.21,.9-2.24,3.49-2.88,5.65-2.49,1.65,.3,3.24,1,4.69,1.84s2.9,1.81,3.71,3.22c.52,.9,.52,1.81,.19,2.77-.22,.65-.54,1.61-1.04,2.13-1.1,1.15-3.47,.21-4.74-.16-.77-.22-1.1,.98-.33,1.2Z"/></g><g><path class="cls-2" d="M117.51,100.38c-.15-.48-.42-1.35-1.27-1.92-.26-.17-1.17-.77-1.75-.41-.6,.37-.56,1.26-.32,1.93,.07,.19,.39,1.54,1.49,1.78,.8,.18,1.78-.27,1.92-.87,.02-.1,.03-.22-.06-.51Z"/><path d="M117.96,100.26c-.12-.4-.27-.8-.49-1.17-.28-.45-.65-.81-1.09-1.1-.39-.25-.82-.46-1.28-.51-.55-.07-1.07,.2-1.34,.68-.4,.73-.19,1.62,.1,2.35,.33,.85,.93,1.6,1.9,1.73,.61,.08,1.26-.1,1.75-.47,.23-.18,.42-.41,.51-.69s.03-.55-.05-.82c-.17-.57-1.07-.33-.9,.25,.02,.06,.04,.12,.05,.18,0,.02,.01,.16,.01,.05,0,.03,0,.06,0,.09,0-.1,0-.08,0-.01-.01,.1,.04-.05-.01,.04,0,0-.08,.12-.02,.04-.03,.03-.06,.07-.09,.1-.01,.01-.11,.09-.05,.05-.3,.24-.65,.32-1.03,.3-.11,0-.33-.07-.41-.11-.04-.02-.08-.04-.11-.07,0,0-.12-.09-.04-.03-.07-.05-.13-.11-.18-.17-.03-.03-.05-.06-.08-.09-.09-.1,.05,.07-.03-.03-.04-.07-.09-.13-.13-.2-.03-.05-.06-.11-.09-.16-.02-.03-.03-.06-.05-.1-.01-.02-.07-.17-.02-.04-.07-.17-.12-.34-.18-.52-.03-.09-.06-.19-.08-.29s-.04-.18-.04-.22c0-.08-.01-.17,0-.25,0-.05,0-.1,0-.15,0,.08,.02-.09,.02-.11,.01-.04,.02-.09,.04-.13-.03,.08,.03-.05,.03-.05,0,0,.09-.12,.03-.05,.03-.03,.06-.07,.1-.1-.06,.05,.16-.07,.07-.04,0,0,.15-.03,.05-.02,.06,0,.12,0,.18,0,.13,0-.07-.03,.06,0,.05,.01,.09,.02,.14,.03,.08,.02,.15,.05,.22,.08-.08-.03,.06,.03,.06,.03,.04,.02,.08,.04,.12,.06,.08,.04,.16,.09,.24,.14,.35,.22,.63,.49,.82,.81,.05,.08,.1,.17,.14,.25,.02,.04,.04,.08,.06,.12,.02,.05,.02,.05,0,0,.01,.03,.02,.05,.03,.08,.06,.16,.11,.32,.16,.48,.18,.57,1.08,.33,.9-.25Z"/></g><g><path class="cls-4" d="M92.6,76.09c-.44-.24-2.41,2.4-3.85,5.02-1.15,2.09-1.69,3.14-1.81,4.43-.23,2.51,1.28,4.85,2.98,6.72,1.7,1.87,3.68,3.56,4.77,5.84,1.38,2.89,.69,3.65,1.84,6.2,2.37,5.27,8.4,7.27,8.92,7.43,4.79,1.51,5.93-.97,11.14,.45,4.4,1.2,4.21,3.14,8.92,4.48,1.57,.44,5.93,1.68,10.37-.02,3.85-1.48,7.07-4.91,8.17-6.07,1.47-1.56,2.37-3.08,4.49-3.79,2.17-.73,4.17-.17,4.19-.34,.02-.16-1.86-.48-5.78-1.13-4.4-.73-4.91-.8-5.83-.55-1.77,.49-3.31,1.71-4.36,2.54-1.31,1.03-1.28,1.3-2.23,1.85-1.79,1.03-3.57,1.05-4.51,1.05-2.05,0-3.56-.59-4.61-1.02-1.73-.7-2.16-1.22-4.18-2.45-1.98-1.2-4.76-2.89-8.48-3.74-2.36-.54-4.35-.7-4.35-.7-2.01-.17-3.05-.03-4.35-.7-.62-.32-1.29-.82-2.17-1.97-2.72-3.55-1.68-5.84-4.11-9.51-.84-1.26-.86-.85-2.91-3.51-1.85-2.41-2.78-3.64-3.06-4.99-.61-2.96,1.23-5.29,.81-5.52Z"/><path d="M92.77,75.49c-1.04-.19-1.85,1.18-2.36,1.87-1.24,1.67-2.32,3.5-3.22,5.37-1.56,3.24-.68,6.31,1.52,9.04,1.32,1.65,2.95,3.02,4.24,4.69,1.18,1.54,1.86,3.25,2.18,5.15,.55,3.21,2.29,5.87,4.84,7.85,1.57,1.22,3.36,2.21,5.26,2.83,1.44,.47,2.95,.65,4.45,.48,1.41-.16,2.79-.5,4.22-.43,1.97,.09,3.99,.72,5.65,1.79,1.2,.77,2.26,1.69,3.57,2.29,2.96,1.37,6.55,1.99,9.78,1.57,4.3-.55,7.86-3.17,10.83-6.19,1.27-1.3,2.35-2.97,3.91-3.93,1.14-.71,2.49-.91,3.82-.87,.42,.01,1.22,.24,1.6-.04,.21-.15,.39-.43,.29-.7-.19-.51-.75-.59-1.22-.69-1.34-.29-2.7-.49-4.05-.72-1.53-.26-3.07-.53-4.61-.73-.68-.09-1.36-.18-2.04-.07-2.64,.44-4.6,2.51-6.57,4.13-2.62,2.15-6.65,1.53-9.5,.28-2.59-1.14-4.82-3.05-7.38-4.28-2.93-1.41-6.09-2.18-9.33-2.5-1.25-.12-2.63,0-3.82-.44-1.62-.61-2.78-2.25-3.52-3.74-1.35-2.68-1.43-5.68-3.29-8.16-1.6-2.14-3.57-3.98-4.94-6.31-.9-1.54-.91-3.22-.37-4.9,.21-.67,.99-1.84,.36-2.48-.56-.57-1.44,.31-.88,.88-.28-.28-.04-.23-.24,.07-.12,.18-.18,.46-.25,.66-.26,.72-.46,1.44-.56,2.2-.15,1.21-.01,2.43,.51,3.53,1.09,2.33,3.02,4.52,4.76,6.39,3.49,3.75,2.52,11.28,8.23,13.11,1.23,.4,2.58,.31,3.85,.43,1.46,.13,2.92,.38,4.34,.73,3.26,.78,6.2,2.37,9,4.18,2.33,1.51,4.69,2.79,7.54,2.97,1.46,.1,2.97-.04,4.34-.56,1.25-.48,2.05-1.23,3.03-2.08,1.34-1.15,3.01-2.49,4.78-2.84,.72-.14,1.46,0,2.17,.09,1.9,.27,3.8,.61,5.69,.93,.68,.12,1.36,.23,2.04,.36,.22,.04,.49,.14,.71,.15,.42,.02,.26,.35,.04-.25l.29-.7c.24-.18,0-.06-.26-.08-.35-.04-.71-.05-1.06-.05-.91,0-1.85,.12-2.72,.41-1.56,.52-2.68,1.59-3.74,2.8-1.98,2.26-4.14,4.42-6.74,5.97-3.47,2.08-7.43,2.34-11.3,1.36-1.49-.38-2.94-.87-4.24-1.7-1.04-.66-1.97-1.48-3.07-2.05-2.76-1.44-5.71-1.63-8.73-1.15-2.23,.36-4.33,.09-6.38-.84-2.41-1.09-4.69-2.72-6.19-4.93-1.81-2.68-1.57-5.97-3.24-8.72-2.12-3.49-6.69-5.92-7.17-10.28-.21-1.93,.8-3.59,1.7-5.21,.57-1.02,1.18-2.01,1.85-2.96,.27-.39,.56-.77,.87-1.13,.19-.22,.73-.58,.43-.64,.78,.14,1.12-1.05,.33-1.2Z"/></g><g><path class="cls-4" d="M91.44,93.85c-.32,1.26-2.08,8.71,2.46,15.61,.31,.47,4.19,6.22,10.09,7.73,.62,.16,2.51,.59,4.69,1,3.95,.75,4.41,.59,5.99,1.21,2.44,.96,2.56,1.69,4.62,2.43,1.6,.57,3.07,.49,5.01,.14,5.46-.99,13.21-5.91,14.36-6.57-1.52,.57-4.94,2.36-7.86,2.21-3-.16-5.29-1.13-6.89-1.82-4.7-2.03-5.47-4.01-8.74-4.05-1.07-.02-1.24,.19-3.56,.26-1.91,.06-3.4,.1-4.99-.17-.9-.15-4.76-.81-7.58-3.95-1.3-1.45-1.93-2.93-2.54-4.36-1.06-2.5-.87-3.47-1.84-5.47-.54-1.12-1.48-2.64-3.23-4.21Z"/><path d="M90.84,93.69c-2.06,8.19,1.06,16.66,7.83,21.61,4.15,3.03,9.29,3.29,14.17,4.24,2.07,.4,3.57,1.72,5.43,2.57,2.46,1.12,5.15,.84,7.7,.13,4.67-1.3,8.84-3.88,13-6.28,.59-.34,.2-1.4-.48-1.14-1.74,.67-3.41,1.49-5.24,1.93-2.27,.54-4.6,.13-6.79-.6-2.03-.68-3.97-1.62-5.78-2.76-1.18-.75-2.33-1.61-3.69-2s-2.54-.2-3.86-.08c-2.13,.19-4.4,.27-6.51-.09-3.82-.67-7.12-2.84-8.86-6.37-1-2.03-1.37-4.2-2.21-6.27s-2.12-3.7-3.69-5.15c-.59-.54-1.47,.33-.88,.88,1.61,1.49,2.95,3.25,3.64,5.35,.63,1.92,1.09,3.8,1.97,5.64,1.73,3.62,5,6.05,8.88,6.96,1.71,.4,3.44,.45,5.19,.41,1.58-.04,3.21-.37,4.79-.27,1.72,.11,3.05,1.09,4.45,1.99,1.75,1.11,3.61,2.02,5.55,2.74,2.18,.81,4.65,1.38,6.98,1.05s4.27-1.33,6.37-2.14l-.48-1.14c-3.41,1.97-6.78,4.01-10.48,5.41-2.36,.9-5.17,1.77-7.69,1.17-2.14-.51-3.78-2.15-5.88-2.84-1.6-.53-3.35-.63-5-.93-2.56-.47-5.32-.86-7.67-2.04-3.13-1.57-5.9-4.26-7.68-7.28-2.5-4.26-3.1-9.57-1.91-14.35,.19-.78-1-1.11-1.2-.33Z"/></g><line class="cls-1" x1="144.2" y1="103.28" x2="132.69" y2="103.68"/><line class="cls-1" x1="143.25" y1="100.84" x2="133.12" y2="102.25"/><line class="cls-1" x1="141.67" y1="98.93" x2="133.23" y2="101.08"/><line class="cls-1" x1="139.76" y1="97.28" x2="132.49" y2="99.54"/><line class="cls-1" x1="138.12" y1="95.95" x2="131.7" y2="98.58"/><line class="cls-1" x1="136.22" y1="94.3" x2="130.9" y2="97.62"/><line class="cls-1" x1="135.53" y1="92.17" x2="130.43" y2="96.4"/><line class="cls-1" x1="134.79" y1="90.63" x2="129.05" y2="95.39"/><line class="cls-1" x1="134.11" y1="88.51" x2="127.09" y2="94.33"/><line class="cls-1" x1="133.37" y1="86.97" x2="125.71" y2="93.31"/><line class="cls-1" x1="132.37" y1="85.11" x2="123.75" y2="92.25"/><line class="cls-1" x1="131.04" y1="83.51" x2="122.11" y2="90.92"/><line class="cls-1" x1="129.14" y1="81.86" x2="120.74" y2="89.91"/><line class="cls-1" x1="126.91" y1="80.48" x2="119.68" y2="88.63"/><line class="cls-1" x1="123.41" y1="80.15" x2="118.36" y2="87.03"/><line class="cls-1" x1="119.91" y1="79.82" x2="117.24" y2="86.34"/><line class="cls-1" x1="117.84" y1="79.92" x2="115.81" y2="85.91"/><line class="cls-1" x1="114.87" y1="80.23" x2="113.8" y2="85.43"/><line class="cls-1" x1="111.96" y1="79.96" x2="111.73" y2="85.53"/><line class="cls-1" x1="109.36" y1="79.42" x2="110.24" y2="85.69"/><line class="cls-1" x1="106.76" y1="78.89" x2="109.29" y2="86.48"/><line class="cls-1" x1="104.43" y1="78.67" x2="108.06" y2="86.95"/><line class="cls-1" x1="101.66" y1="79.88" x2="107.43" y2="87.48"/><line class="cls-1" x1="99.75" y1="81.47" x2="106.15" y2="88.54"/><line class="cls-1" x1="98.42" y1="83.11" x2="105.46" y2="89.65"/><line class="cls-1" x1="98.2" y1="85.44" x2="105.03" y2="91.08"/><line class="cls-1" x1="97.93" y1="88.36" x2="104.6" y2="92.52"/><line class="cls-1" x1="99.09" y1="91.71" x2="104.17" y2="93.95"/><line class="cls-1" x1="100.04" y1="94.15" x2="102.9" y2="95"/><line class="cls-1" x1="100.98" y1="96.59" x2="102.47" y2="96.44"/><line class="cls-1" x1="101.99" y1="98.45" x2="102.89" y2="98.24"/><line class="cls-1" x1="138.36" y1="105.97" x2="132.26" y2="105.11"/><line class="cls-1" x1="135.54" y1="107.77" x2="131.89" y2="105.96"/><line class="cls-1" x1="133.68" y1="108.77" x2="131.25" y2="106.49"/><line class="cls-1" x1="131.56" y1="109.46" x2="130.56" y2="107.6"/><line class="cls-1" x1="129.49" y1="109.56" x2="129.02" y2="108.34"/><line class="cls-1" x1="116.22" y1="94.19" x2="116.15" y2="98.01"/><line class="cls-1" x1="118.23" y1="94.67" x2="116.68" y2="98.65"/><line class="cls-1" x1="120.45" y1="96.06" x2="116.95" y2="98.97"/><line class="cls-1" x1="122.68" y1="97.44" x2="117.47" y2="99.61"/><line class="cls-1" x1="123.36" y1="99.57" x2="117.68" y2="100.51"/><line class="cls-1" x1="123.46" y1="101.64" x2="117.63" y2="101.09"/><line class="cls-1" x1="122.34" y1="104.18" x2="117.31" y2="101.36"/><line class="cls-1" x1="120.22" y1="104.86" x2="116.99" y2="101.62"/><line class="cls-1" x1="114.2" y1="93.71" x2="115.3" y2="97.64"/><line class="cls-1" x1="112.13" y1="93.81" x2="114.67" y2="98.17"/><line class="cls-1" x1="110.33" y1="94.23" x2="114.03" y2="98.69"/><line class="cls-1" x1="109" y1="95.87" x2="113.92" y2="99.86"/><line class="cls-1" x1="108.72" y1="98.79" x2="114.45" y2="100.5"/><line class="cls-1" x1="109.67" y1="101.23" x2="114.13" y2="100.76"/><line class="cls-1" x1="113.06" y1="102.72" x2="114.66" y2="101.4"/><line class="cls-1" x1="115.08" y1="103.21" x2="115.51" y2="101.78"/><line class="cls-1" x1="117.62" y1="104.33" x2="116.35" y2="102.15"/></g></svg>